<!--?xml version="1.0" encoding="UTF-8"?-->

<svg xmlns:xlink="http://www.w3.org/1999/xlink" style="shape-rendering:geometricPrecision; text-rendering:geometricPrecision; image-rendering:optimizeQuality; fill-rule:evenodd; clip-rule:evenodd" height="100px" width="265px" version="1.1" xmlns="http://www.w3.org/2000/svg">
<g><path d="M -0.5,-0.5 C 9.83333,-0.5 20.1667,-0.5 30.5,-0.5C 29.4416,7.58148 28.1082,15.5815 26.5,23.5C 21.8215,23.3342 17.1548,23.5008 12.5,24C 8.02378,28.4582 4.69044,33.6249 2.5,39.5C 1.27187,40.3065 0.271873,41.3065 -0.5,42.5C -0.5,28.1667 -0.5,13.8333 -0.5,-0.5 Z" fill="#fefdfd" style="opacity:1"></path></g>
<g><path d="M 44.5,-0.5 C 54.5,-0.5 64.5,-0.5 74.5,-0.5C 74.1743,7.68413 74.5076,15.6841 75.5,23.5C 77.3878,21.0122 78.0545,18.0122 77.5,14.5C 79.604,14.2011 81.604,14.5344 83.5,15.5C 85.0426,18.086 86.7093,20.586 88.5,23C 89.5,23.6667 90.5,23.6667 91.5,23C 89.5,20 87.5,17 85.5,14C 90.1433,11.9276 91.6433,8.42761 90,3.5C 88.871,1.85883 87.371,0.858828 85.5,0.5C 85.5,0.166667 85.5,-0.166667 85.5,-0.5C 99.8333,-0.5 114.167,-0.5 128.5,-0.5C 128.5,0.5 128.5,1.5 128.5,2.5C 129.5,2.5 130.5,2.5 131.5,2.5C 131.5,1.5 131.5,0.5 131.5,-0.5C 175.833,-0.5 220.167,-0.5 264.5,-0.5C 264.5,14.8333 264.5,30.1667 264.5,45.5C 260.996,41.5654 257.496,41.5654 254,45.5C 253.692,44.6919 253.192,44.0253 252.5,43.5C 251.167,49.1667 251.167,54.8333 252.5,60.5C 253.328,56.2044 253.828,51.8711 254,47.5C 256.667,43.5 259.333,43.5 262,47.5C 261.892,52.2803 262.725,56.6136 264.5,60.5C 264.5,73.5 264.5,86.5 264.5,99.5C 246.167,99.5 227.833,99.5 209.5,99.5C 210.866,96.579 211.699,93.579 212,90.5C 211.26,92.3187 210.093,93.6521 208.5,94.5C 208.635,96.5542 207.968,98.2209 206.5,99.5C 193.5,99.5 180.5,99.5 167.5,99.5C 168.299,96.5701 168.632,93.5701 168.5,90.5C 167.178,90.67 166.011,90.3366 165,89.5C 163.583,90.0779 162.75,91.0779 162.5,92.5C 161.13,94.7073 161.797,96.374 164.5,97.5C 165.107,97.3764 165.44,97.0431 165.5,96.5C 166.043,96.56 166.376,96.8933 166.5,97.5C 165.051,98.1719 163.718,98.8386 162.5,99.5C 156.5,99.5 150.5,99.5 144.5,99.5C 145.625,97.1795 145.792,94.8462 145,92.5C 146.011,91.6634 147.178,91.33 148.5,91.5C 148.34,93.1992 148.506,94.8659 149,96.5C 151.022,93.552 150.356,91.2187 147,89.5C 145.989,90.3366 144.822,90.67 143.5,90.5C 143.5,93.5 143.5,96.5 143.5,99.5C 95.5,99.5 47.5,99.5 -0.5,99.5C -0.5,81.8333 -0.5,64.1667 -0.5,46.5C 0.166667,46.5 0.5,46.8333 0.5,47.5C 3.64384,52.1428 7.31051,56.3094 11.5,60C 13.1667,60.6667 14.8333,60.6667 16.5,60C 20.4849,58.3948 24.4849,56.8948 28.5,55.5C 30.8895,54.554 33.0562,53.2206 35,51.5C 36.7962,47.0175 37.6296,42.3509 37.5,37.5C 42.8437,37.666 48.1771,37.4994 53.5,37C 56.1667,32.6667 58.8333,28.3333 61.5,24C 54.5079,23.5004 47.5079,23.3337 40.5,23.5C 41.8372,15.4885 43.1705,7.48852 44.5,-0.5 Z" fill="#fcfcfc" style="opacity:1"></path></g>
<g><path d="M 85.5,0.5 C 87.371,0.858828 88.871,1.85883 90,3.5C 91.6433,8.42761 90.1433,11.9276 85.5,14C 87.5,17 89.5,20 91.5,23C 90.5,23.6667 89.5,23.6667 88.5,23C 86.7093,20.586 85.0426,18.086 83.5,15.5C 81.604,14.5344 79.604,14.2011 77.5,14.5C 78.0545,18.0122 77.3878,21.0122 75.5,23.5C 75.5,15.8333 75.5,8.16667 75.5,0.5C 78.8333,0.5 82.1667,0.5 85.5,0.5 Z" fill="#1d191a" style="opacity:1"></path></g>
<g><path d="M 30.5,-0.5 C 35.1667,-0.5 39.8333,-0.5 44.5,-0.5C 43.1705,7.48852 41.8372,15.4885 40.5,23.5C 35.8333,23.5 31.1667,23.5 26.5,23.5C 28.1082,15.5815 29.4416,7.58148 30.5,-0.5 Z" fill="#af133c" style="opacity:1"></path></g>
<g><path d="M 74.5,-0.5 C 78.1667,-0.5 81.8333,-0.5 85.5,-0.5C 85.5,-0.166667 85.5,0.166667 85.5,0.5C 82.1667,0.5 78.8333,0.5 75.5,0.5C 75.5,8.16667 75.5,15.8333 75.5,23.5C 74.5076,15.6841 74.1743,7.68413 74.5,-0.5 Z" fill="#636161" style="opacity:1"></path></g>
<g><path d="M 128.5,-0.5 C 129.5,-0.5 130.5,-0.5 131.5,-0.5C 131.5,0.5 131.5,1.5 131.5,2.5C 130.5,2.5 129.5,2.5 128.5,2.5C 128.5,1.5 128.5,0.5 128.5,-0.5 Z" fill="#312e2f" style="opacity:1"></path></g>
<g><path d="M 77.5,2.5 C 80.5184,2.33537 83.5184,2.50204 86.5,3C 89.0341,5.74668 89.0341,8.41334 86.5,11C 83.5184,11.498 80.5184,11.6646 77.5,11.5C 77.5,8.5 77.5,5.5 77.5,2.5 Z" fill="#f9f8f8" style="opacity:1"></path></g>
<g><path d="M 139.5,5.5 C 147.761,5.26356 151.261,9.26356 150,17.5C 147.523,23.4503 143.357,24.9503 137.5,22C 133.106,15.866 133.773,10.366 139.5,5.5 Z" fill="#232021" style="opacity:1"></path></g>
<g><path d="M 122.5,6.5 C 123.209,5.59603 124.209,5.26269 125.5,5.5C 125.823,11.69 125.49,17.69 124.5,23.5C 125.117,17.4018 124.45,11.7351 122.5,6.5 Z" fill="#969494" style="opacity:1"></path></g>
<g><path d="M 131.5,6.5 C 129.55,11.7351 128.883,17.4018 129.5,23.5C 128.51,17.69 128.177,11.69 128.5,5.5C 129.791,5.26269 130.791,5.59603 131.5,6.5 Z" fill="#9d9b9c" style="opacity:1"></path></g>
<g><path d="M 131.5,6.5 C 132.117,12.5982 131.45,18.2649 129.5,23.5C 128.883,17.4018 129.55,11.7351 131.5,6.5 Z" fill="#1d191a" style="opacity:1"></path></g>
<g><path d="M 122.5,6.5 C 124.45,11.7351 125.117,17.4018 124.5,23.5C 124.084,25.7525 122.751,27.2525 120.5,28C 116.793,28.9963 113.459,28.3296 110.5,26C 111,25.5 111.5,25 112,24.5C 115.204,27.113 118.37,27.113 121.5,24.5C 123.363,19.2783 122.363,18.445 118.5,22C 112.921,22.4221 110.255,19.7554 110.5,14C 109.922,8.9671 112.088,6.13377 117,5.5C 119.151,5.64312 120.818,6.64312 122,8.5C 122.464,7.90558 122.631,7.23891 122.5,6.5 Z" fill="#1d1a1b" style="opacity:1"></path></g>
<g><path d="M 115.5,7.5 C 122.698,8.69897 124.365,12.5323 120.5,19C 113.806,20.176 111.306,17.3427 113,10.5C 114.045,9.62656 114.878,8.62656 115.5,7.5 Z" fill="#f5f4f4" style="opacity:1"></path></g>
<g><path d="M 140.5,7.5 C 147.109,8.2584 149.276,11.9251 147,18.5C 144,22.5 141,22.5 138,18.5C 136.812,14.2586 137.645,10.5919 140.5,7.5 Z" fill="#f6f6f6" style="opacity:1"></path></g>
<g><path d="M 158.5,5.5 C 161.652,4.95855 164.152,5.95855 166,8.5C 166.829,13.533 166.662,18.533 165.5,23.5C 164.672,19.2044 164.172,14.8711 164,10.5C 161.333,6.5 158.667,6.5 156,10.5C 155.828,14.8711 155.328,19.2044 154.5,23.5C 153.167,17.8333 153.167,12.1667 154.5,6.5C 156.03,8.76154 157.363,8.42821 158.5,5.5 Z" fill="#1a1617" style="opacity:1"></path></g>
<g><path d="M 97.5,5.5 C 104.364,5.19126 107.697,8.5246 107.5,15.5C 103.5,15.5 99.5,15.5 95.5,15.5C 96.7117,21.5721 99.8784,22.9055 105,19.5C 105.5,20 106,20.5 106.5,21C 101.85,24.6216 97.6834,24.1216 94,19.5C 92.4963,14.0101 93.663,9.34345 97.5,5.5 Z" fill="#1e1b1c" style="opacity:1"></path></g>
<g><path d="M 98.5,7.5 C 102.5,7.5 104.5,9.5 104.5,13.5C 101.5,13.5 98.5,13.5 95.5,13.5C 95.615,11.0532 96.615,9.05322 98.5,7.5 Z" fill="#f2f1f2" style="opacity:1"></path></g>
<g><path d="M 26.5,23.5 C 31.1667,23.5 35.8333,23.5 40.5,23.5C 47.5079,23.3337 54.5079,23.5004 61.5,24C 58.8333,28.3333 56.1667,32.6667 53.5,37C 48.1771,37.4994 42.8437,37.666 37.5,37.5C 33.1667,37.5 28.8333,37.5 24.5,37.5C 20.1667,37.5 15.8333,37.5 11.5,37.5C 8.16248,37.0653 5.16248,37.7319 2.5,39.5C 4.69044,33.6249 8.02378,28.4582 12.5,24C 17.1548,23.5008 21.8215,23.3342 26.5,23.5 Z" fill="#ee4044" style="opacity:1"></path></g>
<g><path d="M 11.5,37.5 C 15.8333,37.5 20.1667,37.5 24.5,37.5C 23.298,41.7144 22.6314,46.0478 22.5,50.5C 19.5,47.1667 16.5,43.8333 13.5,40.5C 12.8333,39.5 12.1667,38.5 11.5,37.5 Z" fill="#fefafb" style="opacity:1"></path></g>
<g><path d="M 166.5,36.5 C 168.465,36.9483 168.798,37.9483 167.5,39.5C 166.614,38.675 166.281,37.675 166.5,36.5 Z" fill="#110e0f" style="opacity:1"></path></g>
<g><path d="M 228.5,36.5 C 229.5,36.5 230.5,36.5 231.5,36.5C 231.5,44.5 231.5,52.5 231.5,60.5C 230.5,60.5 229.5,60.5 228.5,60.5C 228.5,52.5 228.5,44.5 228.5,36.5 Z" fill="#2f2b2b" style="opacity:1"></path></g>
<g><path d="M 77.5,37.5 C 75.8543,42.9273 74.8543,48.594 74.5,54.5C 74.5,48.5 74.5,42.5 74.5,36.5C 75.791,36.2627 76.791,36.596 77.5,37.5 Z" fill="#625f60" style="opacity:1"></path></g>
<g><path d="M 84.5,37.5 C 86.4646,37.9483 86.7979,38.9483 85.5,40.5C 84.6143,39.675 84.281,38.675 84.5,37.5 Z" fill="#120e0f" style="opacity:1"></path></g>
<g><path d="M 89.5,37.5 C 90.5,37.5 91.5,37.5 92.5,37.5C 92.5,38.5 92.5,39.5 92.5,40.5C 91.5,40.5 90.5,40.5 89.5,40.5C 89.5,39.5 89.5,38.5 89.5,37.5 Z" fill="#292526" style="opacity:1"></path></g>
<g><path d="M 133.5,37.5 C 135.465,37.9483 135.798,38.9483 134.5,40.5C 133.614,39.675 133.281,38.675 133.5,37.5 Z" fill="#151112" style="opacity:1"></path></g>
<g><path d="M 237.5,37.5 C 238.5,37.5 239.5,37.5 240.5,37.5C 240.5,38.5 240.5,39.5 240.5,40.5C 239.5,40.5 238.5,40.5 237.5,40.5C 237.5,39.5 237.5,38.5 237.5,37.5 Z" fill="#242021" style="opacity:1"></path></g>
<g><path d="M 138.5,37.5 C 139.5,37.5 140.5,37.5 141.5,37.5C 141.5,38.5 141.5,39.5 141.5,40.5C 140.5,40.5 139.5,40.5 138.5,40.5C 138.5,39.5 138.5,38.5 138.5,37.5 Z" fill="#211d1e" style="opacity:1"></path></g>
<g><path d="M 242.5,37.5 C 243.5,37.5 244.5,37.5 245.5,37.5C 245.5,38.5 245.5,39.5 245.5,40.5C 244.5,40.5 243.5,40.5 242.5,40.5C 242.5,39.5 242.5,38.5 242.5,37.5 Z" fill="#242021" style="opacity:1"></path></g>
<g><path d="M 24.5,37.5 C 28.8333,37.5 33.1667,37.5 37.5,37.5C 37.6296,42.3509 36.7962,47.0175 35,51.5C 33.0562,53.2206 30.8895,54.554 28.5,55.5C 25.94,54.6153 23.94,52.9486 22.5,50.5C 22.6314,46.0478 23.298,41.7144 24.5,37.5 Z" fill="#a80f39" style="opacity:1"></path></g>
<g><path d="M 13.5,40.5 C 16.5,43.8333 19.5,47.1667 22.5,50.5C 23.94,52.9486 25.94,54.6153 28.5,55.5C 24.4849,56.8948 20.4849,58.3948 16.5,60C 14.8333,60.6667 13.1667,60.6667 11.5,60C 7.31051,56.3094 3.64384,52.1428 0.5,47.5C 4.38689,44.3891 8.72022,42.0557 13.5,40.5 Z" fill="#cc1441" style="opacity:1"></path></g>
<g><path d="M 11.5,37.5 C 12.1667,38.5 12.8333,39.5 13.5,40.5C 8.72022,42.0557 4.38689,44.3891 0.5,47.5C 0.5,46.8333 0.166667,46.5 -0.5,46.5C -0.5,45.1667 -0.5,43.8333 -0.5,42.5C 0.271873,41.3065 1.27187,40.3065 2.5,39.5C 5.16248,37.7319 8.16248,37.0653 11.5,37.5 Z" fill="#ac1538" style="opacity:1"></path></g>
<g><path d="M 134.5,42.5 C 143.688,42.8777 146.854,47.5444 144,56.5C 141.487,60.2115 137.987,61.3782 133.5,60C 127.953,53.797 128.286,47.9637 134.5,42.5 Z" fill="#201d1e" style="opacity:1"></path></g>
<g><path d="M 201.5,43.5 C 202.209,42.596 203.209,42.2627 204.5,42.5C 204.823,48.69 204.49,54.69 203.5,60.5C 204.117,54.4018 203.45,48.7351 201.5,43.5 Z" fill="#a5a4a4" style="opacity:1"></path></g>
<g><path d="M 102.5,44.5 C 102.5,44.8333 102.5,45.1667 102.5,45.5C 101.25,45.4226 100.417,44.756 100,43.5C 99.5006,49.1569 99.3339,54.8236 99.5,60.5C 98.5104,54.69 98.1771,48.69 98.5,42.5C 100.199,42.5271 101.533,43.1938 102.5,44.5 Z" fill="#5f5b5c" style="opacity:1"></path></g>
<g><path d="M 150.5,43.5 C 148.537,50.4238 147.87,57.7572 148.5,65.5C 147.508,58.0182 147.175,50.3516 147.5,42.5C 148.791,42.2627 149.791,42.596 150.5,43.5 Z" fill="#888686" style="opacity:1"></path></g>
<g><path d="M 166.5,43.5 C 167.814,45.9151 168.481,48.7485 168.5,52C 168.167,54.8333 167.833,57.6667 167.5,60.5C 166.505,54.8722 166.171,49.2055 166.5,43.5 Z" fill="#100b0d" style="opacity:1"></path></g>
<g><path d="M 135.5,44.5 C 141.392,45.2643 143.559,48.5976 142,54.5C 140.666,58.1044 138.166,59.271 134.5,58C 131.585,53.1763 131.919,48.6763 135.5,44.5 Z" fill="#f6f6f6" style="opacity:1"></path></g>
<g><path d="M 102.5,45.5 C 102.5,45.1667 102.5,44.8333 102.5,44.5C 105.216,41.8663 108.049,41.8663 111,44.5C 112.397,49.7081 112.897,55.0414 112.5,60.5C 111.5,60.5 110.5,60.5 109.5,60.5C 109.666,55.8215 109.499,51.1548 109,46.5C 107.158,44.1656 104.991,43.8323 102.5,45.5 Z" fill="#272425" style="opacity:1"></path></g>
<g><path d="M 237.5,42.5 C 241.192,41.9712 244.358,42.9712 247,45.5C 247.829,50.533 247.662,55.533 246.5,60.5C 245.808,59.9747 245.308,59.3081 245,58.5C 241.667,61.1667 238.333,61.1667 235,58.5C 234.036,50.9657 237.202,48.2991 244.5,50.5C 245.754,48.7408 245.421,47.2408 243.5,46C 240.774,45.8184 238.107,45.3184 235.5,44.5C 236.243,43.8182 236.909,43.1515 237.5,42.5 Z" fill="#211d1e" style="opacity:1"></path></g>
<g><path d="M 264.5,45.5 C 264.5,50.5 264.5,55.5 264.5,60.5C 262.725,56.6136 261.892,52.2803 262,47.5C 259.333,43.5 256.667,43.5 254,47.5C 253.828,51.8711 253.328,56.2044 252.5,60.5C 251.167,54.8333 251.167,49.1667 252.5,43.5C 253.192,44.0253 253.692,44.6919 254,45.5C 257.496,41.5654 260.996,41.5654 264.5,45.5 Z" fill="#191516" style="opacity:1"></path></g>
<g><path d="M 102.5,45.5 C 102.215,50.8591 101.215,55.8591 99.5,60.5C 99.3339,54.8236 99.5006,49.1569 100,43.5C 100.417,44.756 101.25,45.4226 102.5,45.5 Z" fill="#1e1a1b" style="opacity:1"></path></g>
<g><path d="M 172.5,42.5 C 174.124,42.3601 175.29,43.0267 176,44.5C 179,41.8333 182,41.8333 185,44.5C 186.397,49.7081 186.897,55.0414 186.5,60.5C 185.5,60.5 184.5,60.5 183.5,60.5C 183.666,55.8215 183.499,51.1548 183,46.5C 180.756,44.0062 178.423,44.0062 176,46.5C 175.501,51.1548 175.334,55.8215 175.5,60.5C 174.5,60.5 173.5,60.5 172.5,60.5C 172.5,54.5 172.5,48.5 172.5,42.5 Z" fill="#2d292a" style="opacity:1"></path></g>
<g><path d="M 85.5,42.5 C 94.3025,43.0644 97.4692,47.7311 95,56.5C 89.8332,62.0923 85.1666,61.759 81,55.5C 79.3794,49.9227 80.8794,45.5894 85.5,42.5 Z" fill="#1f1c1d" style="opacity:1"></path></g>
<g><path d="M 86.5,44.5 C 92.0496,45.5612 94.2162,48.8946 93,54.5C 91.6661,58.1044 89.1661,59.271 85.5,58C 81.3272,53.1831 81.6606,48.6831 86.5,44.5 Z" fill="#f2f1f1" style="opacity:1"></path></g>
<g><path d="M 115.5,36.5 C 116.5,36.5 117.5,36.5 118.5,36.5C 118.334,41.5111 118.501,46.5111 119,51.5C 120.977,48.6884 123.144,46.0217 125.5,43.5C 126.5,42.1667 127.5,42.1667 128.5,43.5C 126.411,45.5799 124.744,47.9133 123.5,50.5C 124.896,53.624 126.563,56.624 128.5,59.5C 127.5,60.8333 126.5,60.8333 125.5,59.5C 124,57.1667 122.5,54.8333 121,52.5C 118.797,54.6688 117.964,57.3354 118.5,60.5C 117.5,60.5 116.5,60.5 115.5,60.5C 115.5,52.5 115.5,44.5 115.5,36.5 Z" fill="#2e2a2b" style="opacity:1"></path></g>
<g><path d="M 238.5,51.5 C 245.137,50.2818 246.803,52.4485 243.5,58C 237.244,58.9338 235.577,56.7672 238.5,51.5 Z" fill="#f1f0f1" style="opacity:1"></path></g>
<g><path d="M 210.5,42.5 C 212.861,42.6741 215.194,43.0074 217.5,43.5C 217.719,44.675 217.386,45.675 216.5,46.5C 213.763,43.6971 211.429,43.8638 209.5,47C 211.21,49.3716 213.544,51.0382 216.5,52C 219.562,56.9831 218.062,59.8164 212,60.5C 209.383,60.8727 207.55,59.8727 206.5,57.5C 206.833,57.1667 207.167,56.8333 207.5,56.5C 210.552,59.3106 213.219,59.1439 215.5,56C 215.355,55.228 215.022,54.5613 214.5,54C 212.254,52.9605 210.087,51.7938 208,50.5C 206.837,47.0289 207.67,44.3623 210.5,42.5 Z" fill="#242122" style="opacity:1"></path></g>
<g><path d="M 77.5,37.5 C 77.9247,44.6154 77.4247,51.6154 76,58.5C 73.5027,60.4782 70.6693,60.9782 67.5,60C 65.7397,59.0347 65.4063,57.868 66.5,56.5C 70.3094,59.6687 72.9761,59.002 74.5,54.5C 74.8543,48.594 75.8543,42.9273 77.5,37.5 Z" fill="#211e1f" style="opacity:1"></path></g>
<g><path d="M 148.5,65.5 C 147.87,57.7572 148.537,50.4238 150.5,43.5C 151.053,45.6569 152.053,45.4903 153.5,43C 159.509,42.5065 162.509,45.3399 162.5,51.5C 162.527,60.3163 158.694,62.6497 151,58.5C 151.03,61.3615 150.197,63.6948 148.5,65.5 Z" fill="#1f1c1d" style="opacity:1"></path></g>
<g><path d="M 154.5,44.5 C 158.722,45.0707 160.722,47.5707 160.5,52C 159.328,58.9134 156.161,60.0801 151,55.5C 149.663,50.8721 150.83,47.2054 154.5,44.5 Z" fill="#f5f5f5" style="opacity:1"></path></g>
<g><path d="M 201.5,43.5 C 203.45,48.7351 204.117,54.4018 203.5,60.5C 203.084,62.7525 201.751,64.2525 199.5,65C 195.793,65.9963 192.459,65.3296 189.5,63C 190,62.5 190.5,62 191,61.5C 194.13,64.1217 197.297,64.1217 200.5,61.5C 202.363,56.2783 201.363,55.445 197.5,59C 191.781,59.6231 188.781,56.9565 188.5,51C 190.089,42.6134 194.256,40.7801 201,45.5C 201.464,44.9056 201.631,44.2389 201.5,43.5 Z" fill="#1e1b1c" style="opacity:1"></path></g>
<g><path d="M 194.5,44.5 C 201.456,45.9188 203.123,49.7521 199.5,56C 192.495,57.3236 189.995,54.4902 192,47.5C 193.045,46.6266 193.878,45.6266 194.5,44.5 Z" fill="#f5f5f5" style="opacity:1"></path></g>
<g><path d="M 70.5,88.5 C 70.5569,89.609 70.8902,90.609 71.5,91.5C 69.9582,92.3007 68.2915,92.634 66.5,92.5C 66.5,91.1667 66.5,89.8333 66.5,88.5C 67.8333,88.5 69.1667,88.5 70.5,88.5 Z" fill="#f7f8f8" style="opacity:1"></path></g>
<g><path d="M 129.5,87.5 C 130.309,89.2922 130.809,91.2922 131,93.5C 134.724,89.5604 135.39,90.2271 133,95.5C 131.442,94.6548 130.442,95.3215 130,97.5C 129.502,94.1832 129.335,90.8499 129.5,87.5 Z" fill="#6b7071" style="opacity:1"></path></g>
<g><path d="M 70.5,88.5 C 69.1667,88.5 67.8333,88.5 66.5,88.5C 66.5,89.8333 66.5,91.1667 66.5,92.5C 68.2915,92.634 69.9582,92.3007 71.5,91.5C 71.2819,95.4509 69.9486,96.1176 67.5,93.5C 66.7189,94.7287 66.2189,96.062 66,97.5C 65.5017,94.1832 65.335,90.8499 65.5,87.5C 67.4147,87.2155 69.0813,87.5489 70.5,88.5 Z" fill="#2e3536" style="opacity:1"></path></g>
<g><path d="M 112.5,87.5 C 113.638,90.3035 113.805,93.3035 113,96.5C 111.506,97.7472 110.006,97.7472 108.5,96.5C 109.53,96.4455 110.697,96.1122 112,95.5C 112.497,92.854 112.664,90.1873 112.5,87.5 Z" fill="#595e5f" style="opacity:1"></path></g>
<g><path d="M 70.5,88.5 C 72.3818,89.221 72.7152,90.221 71.5,91.5C 70.8902,90.609 70.5569,89.609 70.5,88.5 Z" fill="#666a6b" style="opacity:1"></path></g>
<g><path d="M 81.5,90.5 C 83.1667,90.5 84.8333,90.5 86.5,90.5C 86.6641,93.1873 86.4974,95.854 86,98.5C 84.8873,96.408 84.7207,94.0747 85.5,91.5C 82.6118,91.2196 81.1118,92.5529 81,95.5C 80.3603,93.735 80.5269,92.0683 81.5,90.5 Z" fill="#404546" style="opacity:1"></path></g>
<g><path d="M 119.5,91.5 C 115.839,91.3501 114.839,92.8501 116.5,96C 117.448,96.4828 118.448,96.6495 119.5,96.5C 116.676,98.2007 115.009,97.3673 114.5,94C 115.009,90.6327 116.676,89.7993 119.5,91.5 Z" fill="#494f50" style="opacity:1"></path></g>
<g><path d="M 185.5,95.5 C 185.833,92.5 184.5,91.1667 181.5,91.5C 182.389,89.1414 183.722,88.9747 185.5,91C 186.801,92.6155 186.801,94.1155 185.5,95.5 Z" fill="#5e6364" style="opacity:1"></path></g>
<g><path d="M 220.5,88.5 C 221.249,89.531 221.915,90.6976 222.5,92C 219.668,92.1741 219.001,91.0075 220.5,88.5 Z" fill="#6b7070" style="opacity:1"></path></g>
<g><path d="M 245.5,96.5 C 249.161,96.6499 250.161,95.1499 248.5,92C 247.552,91.5172 246.552,91.3505 245.5,91.5C 246.078,89.5565 247.078,89.2232 248.5,90.5C 249.251,89.624 249.751,88.624 250,87.5C 250.498,90.8168 250.665,94.1501 250.5,97.5C 248.585,97.7845 246.919,97.4511 245.5,96.5 Z" fill="#5f6465" style="opacity:1"></path></g>
<g><path d="M 88.5,90.5 C 89.7251,91.1522 90.3917,92.3189 90.5,94C 90.1667,95.1667 89.8333,96.3333 89.5,97.5C 88.5258,95.2573 88.1924,92.924 88.5,90.5 Z" fill="#b5b8b9" style="opacity:1"></path></g>
<g><path d="M 96.5,96.5 C 92.0005,98.1632 90.5005,96.4965 92,91.5C 94.8532,88.8331 96.6865,89.4998 97.5,93.5C 97.4805,94.7261 97.1471,95.7261 96.5,96.5 Z" fill="#666b6c" style="opacity:1"></path></g>
<g><path d="M 96.5,96.5 C 92.8388,96.6499 91.8388,95.1499 93.5,92C 94.448,91.5172 95.448,91.3505 96.5,91.5C 96.5,93.1667 96.5,94.8333 96.5,96.5 Z" fill="#fbfbfb" style="opacity:1"></path></g>
<g><path d="M 119.5,91.5 C 119.5,93.1667 119.5,94.8333 119.5,96.5C 118.448,96.6495 117.448,96.4828 116.5,96C 114.839,92.8501 115.839,91.3501 119.5,91.5 Z" fill="#fbfbfb" style="opacity:1"></path></g>
<g><path d="M 156.5,89.5 C 160.447,90.6298 160.281,91.6298 156,92.5C 155.667,94.1667 155.333,95.8333 155,97.5C 154.133,94.4791 154.633,91.8124 156.5,89.5 Z" fill="#656a6a" style="opacity:1"></path></g>
<g><path d="M 165.5,96.5 C 163.738,95.7377 162.738,94.4044 162.5,92.5C 163.708,91.7659 165.041,91.4326 166.5,91.5C 166.634,93.2915 166.301,94.9582 165.5,96.5 Z" fill="#f7f7f7" style="opacity:1"></path></g>
<g><path d="M 172.5,94.5 C 171.181,92.3945 171.514,90.3945 173.5,88.5C 173.833,88.6667 174.167,88.8333 174.5,89C 173.536,90.7255 172.869,92.5588 172.5,94.5 Z" fill="#7c8080" style="opacity:1"></path></g>
<g><path d="M 181.5,91.5 C 184.5,91.1667 185.833,92.5 185.5,95.5C 184.292,96.2341 182.959,96.5674 181.5,96.5C 181.5,94.8333 181.5,93.1667 181.5,91.5 Z" fill="#fafafa" style="opacity:1"></path></g>
<g><path d="M 187.5,90.5 C 189.365,98.3509 191.199,98.3509 193,90.5C 193.497,92.8098 193.663,95.1432 193.5,97.5C 188.094,98.2647 186.094,95.9313 187.5,90.5 Z" fill="#525858" style="opacity:1"></path></g>
<g><path d="M 245.5,91.5 C 246.552,91.3505 247.552,91.5172 248.5,92C 250.161,95.1499 249.161,96.6499 245.5,96.5C 245.5,94.8333 245.5,93.1667 245.5,91.5 Z" fill="#f9fafa" style="opacity:1"></path></g>
<g><path d="M 256.5,91.5 C 255.393,93.8466 253.726,94.18 251.5,92.5C 252.877,89.2742 254.543,88.9409 256.5,91.5 Z" fill="#9fa3a3" style="opacity:1"></path></g>
<g><path d="M 101.5,91.5 C 101.5,91.1667 101.5,90.8333 101.5,90.5C 104.488,90.1547 105.821,91.488 105.5,94.5C 105.167,95.5 104.833,96.5 104.5,97.5C 104.036,95.0251 103.036,93.0251 101.5,91.5 Z" fill="#878c8c" style="opacity:1"></path></g>
<g><path d="M 167.5,99.5 C 165.833,99.5 164.167,99.5 162.5,99.5C 163.718,98.8386 165.051,98.1719 166.5,97.5C 166.376,96.8933 166.043,96.56 165.5,96.5C 166.301,94.9582 166.634,93.2915 166.5,91.5C 165.041,91.4326 163.708,91.7659 162.5,92.5C 162.75,91.0779 163.583,90.0779 165,89.5C 166.011,90.3366 167.178,90.67 168.5,90.5C 168.632,93.5701 168.299,96.5701 167.5,99.5 Z" fill="#747979" style="opacity:1"></path></g>
<g><path d="M 195.5,90.5 C 196.239,90.369 196.906,90.5357 197.5,91C 196.736,93.0693 196.236,95.236 196,97.5C 195.503,95.1902 195.337,92.8568 195.5,90.5 Z" fill="#3d4445" style="opacity:1"></path></g>
<g><path d="M 198.5,91.5 C 198.56,90.9569 198.893,90.6236 199.5,90.5C 200.647,92.7649 200.814,95.0982 200,97.5C 199.809,95.2922 199.309,93.2922 198.5,91.5 Z" fill="#5c6162" style="opacity:1"></path></g>
<g><path d="M 202.5,88.5 C 203.922,88.7496 204.922,89.583 205.5,91C 204.68,93.3332 204.347,95.4999 204.5,97.5C 203.914,97.2907 203.414,96.9574 203,96.5C 202.503,93.854 202.336,91.1873 202.5,88.5 Z" fill="#848889" style="opacity:1"></path></g>
<g><path d="M 74.5,90.5 C 77.9496,89.7564 79.6162,91.0897 79.5,94.5C 73.49,94.2245 73.1567,95.0579 78.5,97C 73.5705,97.427 72.2372,95.2604 74.5,90.5 Z" fill="#494f50" style="opacity:1"></path></g>
<g><path d="M 75.5,91.5 C 76.7562,91.4614 77.7562,91.9614 78.5,93C 77.1667,93.6667 75.8333,93.6667 74.5,93C 75.056,92.6174 75.3893,92.1174 75.5,91.5 Z" fill="#fefffe" style="opacity:1"></path></g>
<g><path d="M 119.5,91.5 C 122.167,93.1667 122.167,94.8333 119.5,96.5C 119.5,94.8333 119.5,93.1667 119.5,91.5 Z" fill="#636969" style="opacity:1"></path></g>
<g><path d="M 122.5,90.5 C 123.239,90.369 123.906,90.5357 124.5,91C 123.736,93.0693 123.236,95.236 123,97.5C 122.503,95.1902 122.337,92.8568 122.5,90.5 Z" fill="#3d4344" style="opacity:1"></path></g>
<g><path d="M 125.5,91.5 C 125.56,90.9569 125.893,90.6236 126.5,90.5C 127.647,92.7649 127.814,95.0982 127,97.5C 126.809,95.2922 126.309,93.2922 125.5,91.5 Z" fill="#6b7071" style="opacity:1"></path></g>
<g><path d="M 138.5,89.5 C 139.643,89.9081 140.643,90.5748 141.5,91.5C 140.443,91.9059 139.109,91.9059 137.5,91.5C 137.5,93.1667 137.5,94.8333 137.5,96.5C 139.109,96.0941 140.443,96.0941 141.5,96.5C 137.385,98.1323 135.552,96.799 136,92.5C 136.698,91.3094 137.531,90.3094 138.5,89.5 Z" fill="#7e8383" style="opacity:1"></path></g>
<g><path d="M 181.5,91.5 C 181.5,93.1667 181.5,94.8333 181.5,96.5C 178.833,94.8333 178.833,93.1667 181.5,91.5 Z" fill="#7b7f80" style="opacity:1"></path></g>
<g><path d="M 208.5,94.5 C 207.152,93.4732 206.652,92.1398 207,90.5C 208.188,91.5634 208.688,92.8967 208.5,94.5 Z" fill="#515757" style="opacity:1"></path></g>
<g><path d="M 226.5,91.5 C 226.56,90.9569 226.893,90.6236 227.5,90.5C 228.833,94.5 230.167,94.5 231.5,90.5C 232.833,94.5 234.167,94.5 235.5,90.5C 235.833,90.6667 236.167,90.8333 236.5,91C 235.598,93.2016 234.598,95.3683 233.5,97.5C 232.167,93.5 230.833,93.5 229.5,97.5C 228.482,95.4061 227.482,93.4061 226.5,91.5 Z" fill="#6e7373" style="opacity:1"></path></g>
<g><path d="M 238.5,91.5 C 239.448,92.9779 240.781,93.9779 242.5,94.5C 240.549,94.2267 239.049,94.8934 238,96.5C 237.22,94.6131 237.387,92.9464 238.5,91.5 Z" fill="#373d3e" style="opacity:1"></path></g>
<g><path d="M 245.5,91.5 C 245.5,93.1667 245.5,94.8333 245.5,96.5C 244.5,95.8333 243.5,95.1667 242.5,94.5C 240.781,93.9779 239.448,92.9779 238.5,91.5C 238.783,90.7109 239.283,90.0442 240,89.5C 241.553,91.6733 243.386,92.3399 245.5,91.5 Z" fill="#949798" style="opacity:1"></path></g>
<g><path d="M 256.5,91.5 C 257.404,92.209 257.737,93.209 257.5,94.5C 255.585,94.2155 253.919,94.5489 252.5,95.5C 251.596,94.791 251.263,93.791 251.5,92.5C 253.726,94.18 255.393,93.8466 256.5,91.5 Z" fill="#394041" style="opacity:1"></path></g>
<g><path d="M 261.5,89.5 C 262.289,89.7828 262.956,90.2828 263.5,91C 260.121,91.711 258.621,93.8777 259,97.5C 258.503,95.1902 258.337,92.8568 258.5,90.5C 259.791,90.7373 260.791,90.404 261.5,89.5 Z" fill="#7a7e7f" style="opacity:1"></path></g>
<g><path d="M 101.5,90.5 C 101.5,90.8333 101.5,91.1667 101.5,91.5C 100.691,93.2922 100.191,95.2922 100,97.5C 99.8333,96.3333 99.6667,95.1667 99.5,94C 99.6083,92.3189 100.275,91.1522 101.5,90.5 Z" fill="#313739" style="opacity:1"></path></g>
<g><path d="M 162.5,92.5 C 162.738,94.4044 163.738,95.7377 165.5,96.5C 165.44,97.0431 165.107,97.3764 164.5,97.5C 161.797,96.374 161.13,94.7073 162.5,92.5 Z" fill="#6a6f70" style="opacity:1"></path></g>
<g><path d="M 144.5,99.5 C 144.167,99.5 143.833,99.5 143.5,99.5C 143.5,96.5 143.5,93.5 143.5,90.5C 144.822,90.67 145.989,90.3366 147,89.5C 150.356,91.2187 151.022,93.552 149,96.5C 148.506,94.8659 148.34,93.1992 148.5,91.5C 147.178,91.33 146.011,91.6634 145,92.5C 145.792,94.8462 145.625,97.1795 144.5,99.5 Z" fill="#616666" style="opacity:1"></path></g>
<g><path d="M 209.5,99.5 C 208.5,99.5 207.5,99.5 206.5,99.5C 207.968,98.2209 208.635,96.5542 208.5,94.5C 210.093,93.6521 211.26,92.3187 212,90.5C 211.699,93.579 210.866,96.579 209.5,99.5 Z" fill="#5c6162" style="opacity:1"></path></g>
<g><path d="M 172.5,94.5 C 174.429,96.2578 176.429,96.9245 178.5,96.5C 176.926,97.6309 175.259,97.7975 173.5,97C 172.748,96.3292 172.414,95.4959 172.5,94.5 Z" fill="#565c5c" style="opacity:1"></path></g>
<g><path d="M 185.5,95.5 C 185.38,96.5862 184.713,97.2528 183.5,97.5C 182.584,97.4573 181.917,97.1239 181.5,96.5C 182.959,96.5674 184.292,96.2341 185.5,95.5 Z" fill="#5f6565" style="opacity:1"></path></g>
<g><path d="M 252.5,95.5 C 253.766,96.0899 255.099,96.5899 256.5,97C 254.537,97.8442 253.204,97.3442 252.5,95.5 Z" fill="#525859" style="opacity:1"></path></g>
</svg>
