<svg viewBox="0 0 1840 340" height="340" width="1840" xmlns:xlink="http://www.w3.org/1999/xlink" xmlns="http://www.w3.org/2000/svg"><defs><clipPath id="b"><rect height="340" width="1840"></rect></clipPath></defs><g clip-path="url(#b)" id="a"><rect fill="none" height="340" width="1840"></rect><g transform="translate(-22.992 761.899)"><path fill="#e02335" transform="translate(0 0)" d="M121.364-741.092a36.576,36.576,0,0,0-11.857,5.227c-5.482,3.7-11.645,11.22-14.662,17.935-2.762,6.162-3.867,10.5-5.015,19.974l-.3,2.55-3.825.3a59.237,59.237,0,0,0-20.7,5.907c-5.227,2.635-11.772,7.947-14.79,12.07a34.418,34.418,0,0,0-7.14,19.125c-.51,11.687,3.4,21.377,11.985,29.664,8.032,7.777,18.487,12.282,30.429,13.132,1.742.128,1.7-.34.68,6.927-1.572,10.965-1.147,28.984.807,36.507.34,1.36.637,2.465.637,2.55a11.808,11.808,0,0,1-2.422.425,68.115,68.115,0,0,0-14.535,3.315c-14.7,5.907-24.862,17.637-27.284,31.534A40.313,40.313,0,0,0,44.44-517.76C48.435-505.9,57.658-497.02,71.3-491.878c3.485,1.317,12.282,3.23,14.832,3.23,3.357,0,3.485.128,3.825,3.74,1.7,18.317,10.625,32.937,24.1,39.524,5.567,2.72,8.075,3.272,15,3.23,6.8-.043,9.817-.6,14.832-2.89,14.28-6.5,24.1-20.867,25.754-37.612a16.492,16.492,0,0,1,.722-4.292,4.925,4.925,0,0,1,2.465.213c8.627,2.252,31.364,2.252,40.162,0,2.125-.553,2.38-.553,2.89.085a7.063,7.063,0,0,1,.51,2.847c.042,6.035,3.23,15.512,7.352,21.844a42.316,42.316,0,0,0,22.609,17.765c3.145,1.1,3.91,1.19,10.412,1.19,6.332.042,7.31-.043,9.987-.977,12.962-4.42,22.312-14.662,26.987-29.452,1.147-3.612,1.487-5.525,2.465-13.3l.3-2.55,1.7-.085c13.6-.807,25.5-5.822,34-14.365a35.2,35.2,0,0,0,8.2-11.772c2.125-4.972,2.762-8.542,2.507-14.79a34.5,34.5,0,0,0-7.31-20.612c-7.65-10.285-20.825-17.552-33.277-18.36-2.422-.17-3.612-.425-3.782-.807a12.526,12.526,0,0,1,.467-3.655c2.082-9.435,2.082-25.159,0-38.632-.213-1.36-.128-1.572.765-1.785a9.113,9.113,0,0,1,2.295-.3,48.728,48.728,0,0,0,5.95-1.02c9.9-2.253,17.595-6.5,24.182-13.472a36.7,36.7,0,0,0,9.35-15.682,40.862,40.862,0,0,0,.935-17.255c-2.295-10.837-9.775-20.187-20.782-26.094A55.557,55.557,0,0,0,302.792-694l-6.46-.977-.255-3.187a54.035,54.035,0,0,0-5.355-19.8c-10.242-21.122-31.492-28.942-51.169-18.785a44.736,44.736,0,0,0-15.045,13.6c-4.037,6.077-7.48,15.342-7.99,21.5-.17,2.04-.467,3.23-.807,3.357a12.527,12.527,0,0,1-3.655-.468c-5.1-1.1-10.285-1.53-19.04-1.53-8.925,0-14.577.467-19.422,1.53a9.688,9.688,0,0,1-3.527.383,4.945,4.945,0,0,1-.425-2.465c0-4.8-3.272-15.172-6.46-20.357a47.961,47.961,0,0,0-13.09-14.152C141.423-741.092,130.841-743.217,121.364-741.092Zm16.66,3.23c12.707,3.7,22.1,13.26,26.817,27.369,2.21,6.545,2.252,7.65,2.252,51.721v40.927H125.571c-43.391,0-42.711.043-49.639-1.742-14.322-3.655-27.072-16.4-29.494-29.494a47.4,47.4,0,0,1,.17-14.11c3.655-15.47,19.762-27.284,39.737-29.154l5.737-.51.51-4.5c1.487-13.727,4.675-21.8,11.815-30.132a39.177,39.177,0,0,1,9.86-7.947,46.6,46.6,0,0,1,11.177-3.7A38.983,38.983,0,0,1,138.023-737.862Zm126.434.383c8.967,1.827,18.572,10.115,23.587,20.315,2.975,5.992,5.27,15.47,5.27,21.632,0,3.4.3,3.612,5.525,3.867a51.777,51.777,0,0,1,29.452,11.517c5.1,4.292,10.242,12.665,11.347,18.445.722,3.612.34,13.217-.595,16.022a42.823,42.823,0,0,1-8.925,15c-6.375,6.757-16.957,11.985-26.732,13.26-1.7.212-21.079.425-43.731.425H218.941v-40.927c0-44.709.042-45.474,2.465-52.571a42.021,42.021,0,0,1,11.135-17.552,34.154,34.154,0,0,1,11.772-7.82A34.02,34.02,0,0,1,264.458-737.48Zm38.844,171.1c11.517,1.4,23.034,7.777,29.537,16.447a51.6,51.6,0,0,1,6.2,11.772c1.062,3.187,1.36,13.175.425,16.787-2.932,11.517-13.047,21.59-26.392,26.264a63.6,63.6,0,0,1-16.192,3.06c-3.187,0-3.57.425-3.57,3.867a56.54,56.54,0,0,1-5.27,21.5c-7.48,14.832-20.655,22.737-34.977,20.952-14.407-1.785-26.434-12.282-31.662-27.624-2.422-7.14-2.465-7.862-2.465-52.614v-40.884H259.23C285.707-566.846,300.794-566.676,303.3-566.379ZM167.092-525.537c0,26.562-.17,41.819-.467,44.284A46.3,46.3,0,0,1,155.193-456.6a37.294,37.294,0,0,1-24.862,12.027c-3.272.255-10.5-1.19-14.11-2.847a38.813,38.813,0,0,1-14.875-12.835c-5.015-7.14-7.48-14.535-8.8-26.264l-.51-4.462-1.657-.085c-14.917-.935-26.434-5.567-34.552-13.812-4.845-4.93-7.9-10.157-9.222-15.725a47.682,47.682,0,0,1-.17-14.152c2.04-10.965,11.56-22.142,23.2-27.2A73.452,73.452,0,0,1,82.52-565.7c.595-.085,19.847-.213,42.839-.255L167.092-566Z"></path><path fill="#2b2b2b" transform="translate(-593.44 -24.774)" d="M1094.15-698.469a21.449,21.449,0,0,0-18.53,16.022c-1.02,4.25-.638,10.242.765,13.387,2.167,4.76,5.78,7.565,11.815,9.222,8.372,2.337,17.51-.128,22.907-6.2,3.782-4.25,5.27-8.33,5.312-14.79.043-4.462-.042-4.8-1.4-7.777-2.55-5.44-7.692-9.01-14.195-9.86a32.479,32.479,0,0,0-3.485-.34C1097.125-698.809,1095.68-698.639,1094.15-698.469Zm6.715,9.137c3.612,1.53,5.355,4.462,5.355,9.137a12.647,12.647,0,0,1-6.757,11.6c-2.167,1.147-7.395,1.275-9.392.213-5.227-2.8-6.417-10.2-2.677-16.15C1090.367-689.162,1096.19-691.244,1100.865-689.332Z"></path><path fill="#2b2b2b" transform="translate(-723.115 -24.811)" d="M1322-698.431c-12.112,1.19-19.89,8.117-21.25,18.87-.977,7.777,1.912,14.195,8.075,17.977,2.422,1.487,7.437,2.677,11.262,2.677,3.7,0,13.132-2.082,14.025-3.06.51-.552,1.445-5.822,2.337-13.09.255-2,.553-4.037.638-4.59l.213-.935h-15.6l-.382,3.187a12.083,12.083,0,0,0-.213,3.4,13.917,13.917,0,0,0,3.315.213h3.145l-.3,2a12.129,12.129,0,0,1-.637,2.762c-.51.935-2.762,1.4-6.417,1.36a7.29,7.29,0,0,1-4.887-1.275c-5.865-3.612-6.035-12.495-.34-17.467,3.23-2.89,5.865-3.7,11.9-3.7a40.826,40.826,0,0,1,8.075.68,15.278,15.278,0,0,0,3.1.552c.34-.3,1.233-7.692.978-7.9-.595-.552-4.08-1.275-7.99-1.657A32.294,32.294,0,0,0,1322-698.431Z"></path><path fill="#2b2b2b" transform="translate(-980.822 -24.982)" d="M1761.812-698.261a11.414,11.414,0,0,0-8.882,6.46,11.993,11.993,0,0,0,.042,7.9,41.27,41.27,0,0,0,5.525,6.247c4.93,4.8,5.865,6.29,5.44,8.33a4.959,4.959,0,0,1-4.207,3.357c-1.657,0-5.567-1.275-7.9-2.592a4.289,4.289,0,0,0-1.912-.765,25.991,25.991,0,0,0-.765,3.612c-.595,3.23-.552,3.4.212,4.037,1.53,1.19,6.8,2.635,10.412,2.847,6.417.34,11.39-2.082,13.345-6.46a11.688,11.688,0,0,0,.595-8.2c-.637-2.295-1.062-2.847-5.992-7.565-4.632-4.5-5.27-5.312-5.27-6.5a3.352,3.352,0,0,1,1.063-2.422c1.785-1.827,4.887-1.445,11.092,1.317.255.128.637-.892.935-2.507.892-4.845.977-4.675-2.975-5.95A24.421,24.421,0,0,0,1761.812-698.261Z"></path><path fill="#2b2b2b" transform="translate(-1273.164 -24.966)" d="M2276.636-698.277c-9.817,1.232-16.872,7.48-18.912,16.83-1.317,5.865-.34,11.475,2.677,15.64,4.208,5.78,13.77,8.415,22.354,6.2,7.65-1.955,12.58-6.715,15-14.322a17.289,17.289,0,0,0,.893-7.65c-.17-3.485-.383-4.632-1.488-6.927C2293.848-695.684,2285.944-699.424,2276.636-698.277Zm5.992,9.01c4.845,1.445,7.14,7.65,5.1,13.642-1.53,4.462-4.5,7.182-8.8,8.032-10.455,2.082-15.555-10.03-7.777-18.53A10.646,10.646,0,0,1,2282.629-689.267Z"></path><path fill="#2b2b2b" transform="translate(-1334.391 -25.023)" d="M2376.75-698.219c-5.907.85-9.562,4.887-9.562,10.54,0,3.74.637,4.717,6.8,10.71,4.93,4.8,5.482,5.907,4.42,8.457-1.318,3.145-4.718,3.315-10.412.595l-3.315-1.657-.3,1.955c-.128,1.063-.425,2.677-.637,3.612-.425,2.125.17,2.677,4.675,4.08,4.59,1.445,10.752,1.445,13.982,0,2.635-1.19,5.4-4.122,6.035-6.375a21.928,21.928,0,0,0,.425-4.25c0-4.462-1.147-6.12-9.265-13.26-1.955-1.742-2.21-2.167-2.21-3.655,0-3.74,3.91-4.632,9.562-2.252,1.615.723,2.975,1.275,3.017,1.275.34,0,1.063-6.927.723-7.267a20.286,20.286,0,0,0-3.315-1.4A25.485,25.485,0,0,0,2376.75-698.219Z"></path><path fill="#2b2b2b" transform="translate(-457.712 -25.817)" d="M843.972-692.453c-.383,2.55-1.275,8.5-2,13.3S840.317-667.973,839.85-665c-.468,3.017-.85,5.737-.85,6.077,0,.51.807.595,4.76.51l4.76-.128.34-1.573c.17-.85.807-5.015,1.4-9.265.637-4.25,1.275-8.117,1.445-8.585.255-.765,1.445.722,7.225,9.35l6.927,10.285h5.27c3.442,0,5.27-.17,5.27-.467,0-.213-3.06-5.057-6.8-10.667L862.757-679.7l2.677-2.8c1.445-1.53,5.057-5.27,7.99-8.245a76.4,76.4,0,0,0,5.44-5.865c.085-.212-2.082-.382-5.355-.382h-5.525l-7.9,8.16c-4.335,4.5-7.9,7.9-7.9,7.565s.383-3.23.85-6.375.977-6.545,1.147-7.565l.255-1.785h-9.775Z"></path><path fill="#2b2b2b" transform="translate(-515.789 -25.76)" d="M940-696.548c0,.3.552,3.23,1.232,6.5,5.057,24.267,6.077,29.069,6.46,30.472l.425,1.615h5.312l2.507-4.8c2.975-5.652,9.095-17,9.307-17.212.213-.17,1.36,3.867,3.612,12.452,2.8,10.667,2.21,9.562,5.312,9.562H976.8l2.72-5.652c3.357-6.97,13.727-28.262,15.13-31.024.552-1.147,1.02-2.167,1.02-2.253a36.373,36.373,0,0,0-4.845-.17h-4.887l-1.02,2.21c-2.295,4.93-4.122,8.882-6.247,13.515-1.232,2.677-2.422,5.142-2.677,5.44-.383.468-.68-.34-1.4-3.4-2.72-11.9-3.23-13.9-3.74-15.64l-.553-1.912-3.145-.128-3.145-.128-5.482,10.965c-5.312,10.625-5.525,10.922-5.822,9.477-.212-.807-.977-5.015-1.7-9.35-.765-4.335-1.487-8.542-1.615-9.35l-.255-1.487-4.59-.128C941.063-697.058,940-696.973,940-696.548Z"></path><path fill="#2b2b2b" transform="translate(-657.126 -25.817)" d="M1191.24-696.065c-.255,1.232-1.1,6.672-3.017,19.89-.85,5.737-1.742,11.985-2.04,13.94a15.488,15.488,0,0,0-.34,3.7,27.562,27.562,0,0,0,4.76.212c4.42,0,4.632-.042,4.845-.977.255-1.02,2.635-16.66,3.06-19.974.127-1.105.382-2,.552-2a21.2,21.2,0,0,1,2.592,3.485c1.232,1.955,3.867,5.992,5.822,9.052,1.955,3.017,4.292,6.587,5.142,7.862l1.573,2.337,4.5.128c4.377.127,4.5.085,4.717-.85.255-1.062,1.233-7.437,3.315-21.377.723-4.93,1.53-10.5,1.828-12.452a18.348,18.348,0,0,0,.34-3.7,28.637,28.637,0,0,0-4.8-.213c-4.42,0-4.632.042-4.845.935-.127.552-.807,4.887-1.487,9.69s-1.445,9.562-1.615,10.625l-.34,1.912-5.312-8.075c-2.932-4.462-6.332-9.647-7.565-11.6L1200.674-697h-4.632C1191.579-697,1191.409-696.958,1191.24-696.065Z"></path><path fill="#2b2b2b" transform="translate(-804.329 -25.817)" d="M1442.055-695.9c.17.637.85,3.825,1.53,7.14.935,4.675,5.1,24.479,6.29,29.919.17.893.382.977,2.932.85l2.763-.128,2.125-4.037c7.395-13.9,9.647-17.85,9.86-17.51.255.425,2.295,7.862,4.335,15.81,1.615,6.247,1.4,5.992,4.462,5.865l2.593-.128,5.27-10.837c2.89-5.95,7.055-14.577,9.307-19.125,2.21-4.59,4.037-8.457,4.037-8.627s-2.167-.3-4.8-.3h-4.8l-3.443,7.522c-1.912,4.165-4.165,9.052-5.015,10.922a12.086,12.086,0,0,1-1.742,3.145c-.127-.127-1.062-3.867-2.125-8.245-1.02-4.42-2.21-9.222-2.592-10.71l-.68-2.635h-6.247l-5.482,10.922c-3.145,6.332-5.567,10.71-5.737,10.327-.17-.552-3.655-20.4-3.655-20.995a23.232,23.232,0,0,0-4.717-.255H1441.8Z"></path><path fill="#2b2b2b" transform="translate(-874.02 -25.817)" d="M1572.69-677.918c-5.355,10.5-9.69,19.21-9.69,19.337,0,.17,2.21.213,4.887.17l4.93-.128,1.828-4.037,1.828-4.037,6.162-.128,6.162-.128.34,3.527c.425,5.185.255,5.015,5.695,5.015a27.562,27.562,0,0,0,4.76-.212c.255-.213-.765-6.12-3.23-19.337-.85-4.547-1.955-10.667-2.465-13.6l-.935-5.312-5.312-.128-5.312-.085Zm14.917,2.125a9.939,9.939,0,0,1,.213,3.1c-.3.51-8.245.425-8.245-.085a23.959,23.959,0,0,1,1.445-3.485c.765-1.7,2.04-4.547,2.8-6.29,2.21-4.93,2.253-4.93,2.848-.17C1586.969-680.425,1587.395-677.28,1587.607-675.793Z"></path><path fill="#2b2b2b" transform="translate(-932.096 -25.817)" d="M1669.313-696.065c-.128.552-.6,3.655-1.062,6.927-1.4,9.9-3.358,23.2-3.825,25.924a36.945,36.945,0,0,0-.425,3.74v1.19l4.76-.127,4.76-.128.552-3.4c.3-1.87,1.02-6.672,1.615-10.625,2.125-14.7,3.188-21.717,3.4-23.077l.255-1.36h-4.887C1669.695-697,1669.525-696.958,1669.313-696.065Z"></path><path fill="#2b2b2b" transform="translate(-1023.896 -25.8)" d="M1829.111-696.508c-.085.3-.467,2.762-.85,5.44s-1.19,8.117-1.785,12.112c-2.55,17.255-2.932,19.975-2.8,20.272.3.595,8.925.383,9.35-.212.255-.255.85-3.57,1.36-7.267s1.02-6.927,1.147-7.1c.255-.468,17.892-.51,18.19-.042.085.17-.3,3.442-.85,7.31s-1.02,7.14-1.02,7.31c0,.467,9.265.425,9.52-.042.127-.213.722-3.527,1.275-7.352.595-3.782,1.53-10.2,2.125-14.152.595-3.995,1.36-9.052,1.7-11.262,1.02-6.077,1.445-5.525-4.165-5.525h-4.845l-.3,2.21c-.34,2.72-1.445,9.52-1.7,10.837-.213.977-.255.977-9.35.977-5.695,0-9.137-.17-9.137-.425,0-.382,1.4-9.52,1.912-12.452l.212-1.148h-4.93C1830.641-697.018,1829.239-696.89,1829.111-696.508Z"></path><path fill="#2b2b2b" transform="translate(-1090.044 -25.817)" d="M1944.175-696.278c-.213.722-1.4,8.67-4.08,27.539-.722,4.887-1.36,9.222-1.4,9.562-.085.51.722.638,4.675.765,5.27.127,4.845.34,5.44-3.017.128-.892.723-4.717,1.275-8.5,2.465-16.787,3.612-24.394,3.867-25.712l.3-1.36h-4.93C1945.025-697,1944.387-696.915,1944.175-696.278Z"></path><path fill="#2b2b2b" transform="translate(-1120.793 -25.817)" d="M1995.323-696.49c-.085.3-.892,5.312-1.742,11.177-1.912,12.707-1.87,15.767,0,19.294,2.847,5.227,8.84,8.117,16.787,8.117a28.662,28.662,0,0,0,11.22-2.422,22.7,22.7,0,0,0,3.7-3.1c3.485-3.527,4.207-5.992,6.332-20.825.935-6.672,1.7-12.24,1.7-12.452,0-.17-2.21-.3-4.887-.3-3.612,0-4.887.128-4.887.51,0,.3-.3,2.465-.68,4.8-.34,2.337-1.1,7.395-1.7,11.262-1.233,8.287-2.167,10.667-4.887,12.41a12.7,12.7,0,0,1-11.092.51,6.361,6.361,0,0,1-2-2c-1.657-2.72-1.657-3.527.807-19.635.468-3.06.85-6.035.85-6.715V-697h-4.675C1996.768-697,1995.409-696.872,1995.323-696.49Z"></path><path fill="#2b2b2b" transform="translate(-1207.023 -25.776)" d="M2147.427-695.681c-1.147,6.885-1.955,12.282-4.547,29.877-1.19,8.33-1.658,7.48,3.952,7.352l4.8-.128.893-6.5c.51-3.57,1.063-6.97,1.19-7.565l.255-1.02h9.137c7.055,0,9.137.128,9.137.51,0,.3-.468,3.612-1.02,7.352a53.531,53.531,0,0,0-.807,7.1c.085.213,2.167.34,4.59.34,5.1,0,5.015.042,5.482-4.037.3-2.422,1.488-10.327,3.867-25.924,1.53-9.732,1.955-8.712-3.74-8.712h-4.76l-1.062,7.012-1.02,7.012h-9.265c-5.1,0-9.265-.085-9.265-.213,0-.17,1.445-9.52,1.955-12.452l.213-1.36h-9.775Z"></path><path fill="#2b2b2b" transform="translate(-1377.154 -25.86)" d="M2443.525-696.447c0,.3-.383,3.145-.893,6.29-.468,3.145-1.317,8.967-1.87,12.962-.595,3.952-1.317,9.137-1.7,11.475-.34,2.337-.722,4.972-.85,5.822l-.212,1.615h4.887c4.717,0,4.887-.042,5.057-.977.127-.51.552-3.315.935-6.247a42.5,42.5,0,0,1,1.062-6.035c.3-.6,1.318-.723,6.417-.85,5.27-.127,6.375-.3,8.33-1.147,4.42-1.955,7.012-6.417,7.012-11.942,0-4.76-2.125-8.33-6.035-10.157-2.338-1.062-2.635-1.1-12.24-1.232C2445.437-697,2443.525-696.915,2443.525-696.447Zm14.28,5.822a6.021,6.021,0,0,1,3.782,6.077,5.381,5.381,0,0,1-.892,3.57c-1.7,2.295-2.89,2.847-6.587,3.06l-3.442.212.255-1.657c1.36-9.265,1.615-11.092,1.785-11.56C2452.917-691.688,2455.807-691.518,2457.8-690.625Z"></path><path fill="#2b2b2b" transform="translate(-1429.48 -25.817)" d="M2534.525-696.618c0,.213-.468,3.7-1.062,7.735-.595,4.08-1.573,10.582-2.125,14.535-.595,3.91-1.36,8.882-1.7,11.05-.34,2.125-.637,4.165-.637,4.42,0,.425,1.275.552,4.887.552,2.677,0,4.887-.127,4.887-.34,0-.17.3-2.082.637-4.207.34-2.167,1.105-7.14,1.7-11.05.552-3.952,1.53-10.455,2.125-14.535.595-4.037,1.062-7.65,1.062-7.947,0-.467-1.02-.595-4.887-.595C2536.735-697,2534.525-696.83,2534.525-696.618Z"></path><path fill="#2b2b2b" transform="translate(-1459.955 -25.817)" d="M2583.063-696.49c-.17.51-1.062,6.375-1.062,6.885a40.137,40.137,0,0,0,6.2.255h6.247l-.255,1.785c-.6,3.995-2.848,19.082-3.485,23.077-1.02,6.842-1.445,6.2,4.122,6.077l4.8-.128.68-4.887c1.785-12.155,3.4-22.779,3.7-24.182l.34-1.53,6.2-.128,6.2-.128.468-3.187c.255-1.742.468-3.442.468-3.782,0-.552-2.423-.638-17.212-.638C2587.057-697,2583.19-696.872,2583.063-696.49Z"></path><path fill="#2b2b2b" transform="translate(-1500.781 -25.817)" d="M2669.32-691.39c-1.573,3.1-5.865,11.6-9.562,18.87-3.74,7.31-6.757,13.472-6.757,13.727,0,.34,1.4.467,4.8.383l4.76-.128,2-4.165,2-4.122h11.9l.255,2c.128,1.147.383,2.975.552,4.165l.3,2.125,5.015.128c3.825.085,4.972,0,4.972-.425,0-.51-1.062-6.375-3.613-20.314-1.53-8.415-2.72-14.917-2.975-16.49l-.255-1.36h-10.583Zm7.352,9.392c.3,2.38.68,5.525.808,6.97l.3,2.677h-4.335c-2.422,0-4.292-.17-4.208-.34,1.148-2.975,6.5-14.067,6.63-13.9A33.183,33.183,0,0,1,2676.672-682Z"></path><path fill="#2b2b2b" transform="translate(-1558.569 -25.817)" d="M2758.813-696.83c0,.212-2.125,15.087-3.825,26.6-.722,5.015-1.36,9.69-1.4,10.412l-.085,1.275,13.515.128,13.472.085.383-.935a21.038,21.038,0,0,0,.637-3.442l.3-2.422h-17.467v-.977c0-.51.382-3.527.85-6.672,1.53-10.2,3.4-23.332,3.4-23.8,0-.255-1.827-.425-4.887-.425A37.311,37.311,0,0,0,2758.813-696.83Z"></path><path fill="#e02335" transform="translate(-679.768 -120.363)" d="M1244.779-532.459c-.723.255-.68,2.04.085,4.207a36.54,36.54,0,0,1,.892,5.992l.3,4.207-4.207.722c-2.337.383-5.1.807-6.2.935-5.312.595-5.865.68-5.865,1.275,0,.34.51.935,1.147,1.36.892.595,1.955.765,5.227.68a38.4,38.4,0,0,0,6.545-.552c3.655-.765,3.7-.68,3.57,3.867l-.128,3.91-2.762.595c-4.93,1.02-10.667,1.36-12.282.722-1.7-.722-3.7-.765-4.08-.127-.17.255.085.85.552,1.36,1.785,1.955,2.677,4.59,3.485,10.2.468,3.1,1.1,7.267,1.445,9.265.892,5.567,2.72,7.65,3.655,4.207.425-1.615.553-1.7,2.04-1.7.85,0,3.145-.128,5.1-.3l3.485-.255v4.547c0,2.465-.127,4.5-.3,4.5-.213,0-2.72.425-5.652.892a80.525,80.525,0,0,1-10.37.977c-3.825.043-5.1.17-5.27.637-.255.765,4.335,5.015,5.822,5.355a8.582,8.582,0,0,0,3.995-.807c2.89-1.062,8.5-2.592,18.147-4.887,9.35-2.252,11.135-2.592,11.517-2.337a6.465,6.465,0,0,1,1.19,1.785,14.824,14.824,0,0,0,2.337,3.017c1.445,1.4,1.53,1.445,2.338.722,1.87-1.7,1.53-5.525-.723-7.777-1.487-1.53-8.16-5.015-8.967-4.76-.255.085.128,1.02.808,2.082a13.586,13.586,0,0,1,1.275,2.21,10.176,10.176,0,0,1-3.06.765c-1.7.3-4.25.765-5.652,1.063a10.492,10.492,0,0,1-2.847.34c-.213-.085-.34-2.082-.34-4.42,0-4.122.042-4.25,1.062-4.632a28.114,28.114,0,0,1,5.1-.68l3.995-.3.51,1.1c1.1,2.422,3.655,1.615,4.76-1.487.382-1.02,1.275-3.825,2-6.29,2.592-8.542,3.867-12.112,4.675-13.132,1.233-1.4,1.063-2.337-.595-3.612-1.445-1.1-6.587-3.655-7.352-3.655-.212,0-3.315.85-6.927,1.955-3.952,1.147-6.672,1.742-6.885,1.53-.255-.255-.255-1.827-.042-3.952l.34-3.527,1.487-.3c.807-.17,4.207-.85,7.522-1.487a36.43,36.43,0,0,0,6.8-1.657c1.062-.807.382-1.828-1.87-2.847-1.828-.807-2.21-.85-3.952-.34-1.7.467-8.882,2.125-9.222,2.125-.383,0-.042-3.91.552-6.29.51-1.912.553-3.017.255-3.655C1252.513-530.717,1246.436-533.139,1244.779-532.459Zm19.889,27.412c.468.85.255,6.97-.213,7.437a5.613,5.613,0,0,1-2.125-.467c-2.55-.85-3.017-.85-7.055.212a13.212,13.212,0,0,1-3.825.595c-.68-.425-.552-5.95.17-6.545.68-.552,8.415-2.04,10.965-2.125C1263.818-505.982,1264.286-505.77,1264.668-505.047Zm-18.317,5.61c0,2.677-.127,3.187-.723,3.357a34.541,34.541,0,0,1-7.735,1.275c-3.1.085-3.017.17-3.612-4.292l-.3-2.21,1.615-.043a32.932,32.932,0,0,0,4.8-.595c1.742-.3,3.825-.552,4.59-.6l1.36-.042Zm17.595,5.652a35.214,35.214,0,0,1-1.1,4.717c-.765,2.465-.892,2.677-1.742,2.38-1.233-.425-5.482-.467-8.075-.085l-2.04.34.127-3.485.127-3.485,3.188-.51c1.742-.3,4.547-.807,6.162-1.147,1.657-.34,3.145-.637,3.315-.68C1264.115-495.74,1264.115-494.89,1263.946-493.785Zm-17.425,1.912c.467,1.827.3,5.737-.34,6.247a21.117,21.117,0,0,1-5.312.765l-4.717.255v-1.232c0-.68-.127-2.21-.255-3.4l-.255-2.167,4.377-.637C1246.266-492.935,1246.224-492.935,1246.521-491.872Z"></path><path fill="#e02335" transform="translate(-872.356 -122.017)" d="M1583.265-529.36c-.085.34-.382,1.445-.68,2.507-.552,2.125-1.317,3.527-4.165,7.777l-1.955,2.932-2.932-.3-2.975-.3.255,1.19c.128.68.552,2.295.935,3.57.807,2.8.595,5.822-.85,12.325a36.413,36.413,0,0,1-9.265,17.722c-2.507,2.677-1.87,2.932,1.487.637,5.695-3.867,8.585-7.777,11.177-15.172l1.232-3.442,7.437-.935c4.122-.552,7.99-.977,8.67-.935,1.445,0,1.572-1.36.255-2.295l-.935-.637.935-1.912a16.368,16.368,0,0,0,.892-2.295,10.324,10.324,0,0,1,1.487-2.337c2.295-2.975,2-4.165-1.4-5.652a15.988,15.988,0,0,0-2.8-1.02,39.392,39.392,0,0,0-4.292,1.657c-4.547,2-7.225,2.55-7.565,1.572-.17-.425.34-1.062,1.53-1.955,2.295-1.657,9.647-8.967,9.647-9.562,0-.722-1.742-2.167-3.187-2.677-.68-.213-1.615-.553-2-.722C1583.733-529.785,1583.393-529.7,1583.265-529.36Zm5.185,17.34a14.039,14.039,0,0,1-.383,3.57c-.468,2.21-.68,2.592-1.828,3.06a53.75,53.75,0,0,1-9.052,1.912c-.723,0-.638-1.4.3-5.78l.468-2.125,4.122-.893C1587.26-513.423,1588.28-513.38,1588.45-512.02Z"></path><path fill="#e02335" transform="translate(-924.606 -122.994)" d="M1658.3-525.578c-.552,3.06-3.187,8.8-5.737,12.537-1.1,1.615-1.785,2.89-1.53,2.89.638,0,3.91-2.295,5.44-3.867,1.275-1.232,1.572-1.318,4.845-1.445,1.912-.042,3.867-.17,4.335-.255.68-.127.893.085.978,1.02.17,1.53-1.36,6.715-2.38,7.947l-.807.977-2.465-1.1c-2.593-1.232-5.737-1.53-5.737-.637,0,.3,1.275,1.1,2.762,1.785,3.315,1.487,3.867,2,3.188,3.1-.892,1.36-4.5,3.782-7.31,4.845l-2.677,1.02,2.04.127a16.7,16.7,0,0,0,8.925-2.38c.892-.637,1.87-1.317,2.21-1.53.383-.3,1.232.127,2.932,1.487a106.242,106.242,0,0,0,8.5,6.375c2.337,1.53,2.72,1.657,5.525,1.615,3.23,0,10.582-1.955,10.455-2.72-.042-.255-.977-.637-2.04-.935a104.537,104.537,0,0,1-12.452-3.612c-3.187-1.317-10.2-5.1-10.072-5.4.893-1.785,3.4-7.012,3.91-8.245.68-1.657.425-3.017-.765-3.782-.893-.595.212-.892,5.355-1.487,5.695-.637,6.715-1.062,5.652-2.252a9.085,9.085,0,0,0-5.865-2c-.765.128-3.06.722-5.185,1.36-5.057,1.53-9.732,2.677-9.945,2.507a12.581,12.581,0,0,1,1.87-3.187c2-2.89,2.04-3.1,1.445-4.122-.722-1.318-3.145-3.06-4.207-3.06C1658.89-528,1658.635-527.448,1658.3-525.578Z"></path><path fill="#e02335" transform="translate(-513.489 -124.052)" d="M936-525.922c0,1.275,6.162,8.712,8.245,10.03,2.89,1.742,4.547.51,4.59-3.4,0-2.677-.935-3.867-4.335-5.4C942.247-525.709,936-526.6,936-525.922Z"></path><path fill="#e02335" transform="translate(-1088.121 -129.319)" d="M1954.7-515.64a42.1,42.1,0,0,1-8.712,9.095c-3.442,2.8-4.165,3.23-4.76,2.8-1.615-1.1-3.91-2.21-4.76-2.21-1.275,0-1.445,1.02-.637,3.867,1.275,4.547,1.232,15.257-.085,27.879-.3,3.1,1.063,6.077,2.847,6.077a2.588,2.588,0,0,0,2.125-1.19c1.063-1.36,13.3-13.9,14.96-15.257l1.1-.977,1.36,2.422c1.7,3.06,2.465,3.952,3.4,3.952.977,0,1.275-.85,1.275-3.74,0-3.145-1.147-5.44-4.207-8.245-2.55-2.38-6.162-4.547-6.672-4.037-.17.17.085.85.552,1.487,1.02,1.4,3.1,5.4,3.1,5.992,0,.85-12.495,9.18-13.175,8.755-.255-.17-.425-4.08-.425-11.05v-10.752l8.627-4.25c4.717-2.337,9.222-4.462,9.987-4.76,1.657-.637,2.422-1.827,1.828-2.89-.935-1.742-4.632-4.335-6.162-4.335C1955.937-517,1955.214-516.363,1954.7-515.64Z"></path><path fill="#e02335" transform="translate(-1348.091 -130.107)" d="M2402.137-515.49a6.953,6.953,0,0,0-1.7,1.19,19.138,19.138,0,0,1-3.782,2.082c-2.635,1.147-2.762,1.19-4.165.51-3.06-1.445-3.655-.765-2.423,2.72,1.1,3.145.553,7.99-1.317,11.645a9.494,9.494,0,0,0-1.275,3.145c.34.382,3.06-1.742,4.42-3.485,1.572-1.955,2.04-3.57,2.422-8.2l.3-3.485,2.168-.51a13.37,13.37,0,0,1,3.442-.3l1.275.128.255,5.1c.17,2.8.3,5.142.34,5.185a9.548,9.548,0,0,0,1.317.765c1.742.892,10.285.935,11.05,0s.212-2.465-1.275-3.357c-1.19-.68-1.615-.723-4.08-.255-3.7.722-4,.552-4-2.337,0-2.677.34-3.57,2.38-5.822.85-.935,1.318-1.87,1.19-2.252C2408.087-514.47,2403.795-516.128,2402.137-515.49Z"></path><path fill="#e02335" transform="translate(-1302.558 -131.13)" d="M2332.167-513.276a95.943,95.943,0,0,1-15.895,3.23,18.794,18.794,0,0,1-3.867-.425c-2.21-.68-3.4-.6-3.4.255a21.51,21.51,0,0,0,.808,3.357c1.232,3.825,1.445,8.372.935,17.382-.468,7.9-1.063,11.815-2.21,14.535a3.278,3.278,0,0,0,1.445,4.165c.935.6,1.19.552,3.528-.467,2.975-1.317,11.3-2.975,17.764-3.57a30.555,30.555,0,0,0,4.8-.6c.51-.51-.382-2.295-1.36-2.72-1.573-.723-3.4-.638-7.267.382-1.827.467-5.185,1.232-7.395,1.657s-4.547.893-5.185,1.063l-1.19.3v-5.737a68.327,68.327,0,0,1,.255-6.927c.255-1.232.255-1.232,3.485-1.232a28.007,28.007,0,0,0,4.887-.383c1.318-.3,1.573-.255,1.573.34,0,1.36-2.125,4.887-4.5,7.437-1.318,1.445-2.295,2.762-2.125,2.932.51.51,4.208-1.742,6.332-3.867a17.334,17.334,0,0,0,3.443-5.1l1.4-3.06,2.932-.765c1.615-.382,3.7-.807,4.633-.977,2.635-.382,3.187-.595,3.187-1.232,0-1.785-3.7-2.422-7.437-1.275-2.295.68-2.762.552-2.55-.553.085-.382.255-1.4.425-2.252.212-1.487.34-1.615,3.188-2.507a11.363,11.363,0,0,0,3.7-1.785c.723-.807.723-.85-.085-1.445-1.147-.85-1.827-.765-5.822.722-4.59,1.7-5.44,1.87-5.44,1.232a4.67,4.67,0,0,1,1.063-1.785,4.866,4.866,0,0,0,1.063-1.657c0-.6-3.655-2.252-4.335-1.955-.382.128-.85,1.317-1.147,2.762a20.331,20.331,0,0,1-2.592,6.077c-2.89,4.76-2.338,5.015,1.912.85,2.04-2,2.422-2.21,3.57-1.955,1.445.3,1.53.68,1.063,4.122l-.255,1.912-2.847.892c-2.847.935-8.117,1.912-8.458,1.572-.34-.3.85-16.15,1.233-16.915.34-.6,1.02-.723,3.91-.723,4.25,0,14.195-1.4,16.744-2.38,2.21-.85,2.423-1.955.552-2.932C2335.143-514.041,2334.377-514.041,2332.167-513.276Z"></path><path fill="#e02335" transform="translate(-1511.795 -133.919)" d="M2686.964-507.938c0,1.317,4.76,10.625,6.162,12.112l1.063,1.1-3.527.722a63.5,63.5,0,0,1-10.582,1.572c-1.318,0-1.573-.17-2-1.317-.255-.765-.68-1.232-.977-1.147-.3.127-1.147,2.21-1.87,4.632s-1.742,5.44-2.295,6.672c-1.19,2.8-1.02,5.78.468,6.97.51.425,1.147.723,1.4.638,1.36-.467,3.4-5.27,4.377-10.5l.383-1.912,6.12-1.147c8.8-1.657,20.7-3.442,23.162-3.485,1.913-.042,2.125.042,2.252.977.17,1.19-1.062,6.587-1.912,8.2-.3.68-.468,1.19-.383,1.19.127,0,2.04-1.275,4.292-2.8s5.057-3.272,6.2-3.867c3.145-1.572,3.315-2.465.978-4.675-2.21-2.082-5.823-3.952-8.117-4.207-1.02-.128-4.165.425-8.415,1.487-3.74.892-6.885,1.572-6.97,1.487a2.865,2.865,0,0,1,.552-1.1c.85-1.19.892-4.93.085-6.885-.978-2.295-6.46-5.78-9.18-5.78C2687.176-509,2686.964-508.83,2686.964-507.938Z"></path><path fill="#e02335" transform="translate(-1474.453 -138.78)" d="M2623.272-499.039a53.5,53.5,0,0,1-6.29,2.762c-2.89,1.02-3.145,1.02-4.59.425-3.655-1.53-4.718-.595-3.613,3.017,1.53,4.887,1.87,10.115,1.615,24.394-.255,11.857-1.062,25.754-1.785,31.407a39.062,39.062,0,0,1-.935,4.037,12.349,12.349,0,0,0,.722,8.542c1.87,4.335,3.528,4.887,4.208,1.36,1.147-6.035,2.167-29.2,2.167-50.489,0-4.59.127-10.88.255-14.025l.3-5.737,3.867-.51c6.715-.892,6.8-.85,5.185,3.655-1.062,3.145-2.083,7.352-2.04,8.8a17.749,17.749,0,0,0,1.53,4.08c2.465,5.27,3.655,12.027,2.337,13.387-.552.552-1.02.51-3.952-.085a12.915,12.915,0,0,0-3.485-.467c-.085.085.552.637,1.4,1.232a59.827,59.827,0,0,1,4.718,3.91l3.145,2.847,1.318-.765a8.389,8.389,0,0,0,3.272-5.865c0-2.167-1.573-6.332-4.08-10.88-3.485-6.332-3.74-7.182-2.677-9.817.977-2.507,1.742-3.7,5.057-7.777,3.315-4.122,3.613-4.717,2.805-5.95-.723-1.1-3.613-2.592-5.78-2.932C2626.757-500.7,2625.822-500.4,2623.272-499.039Z"></path><path fill="#e02335" transform="translate(-1122.123 -139.147)" d="M2024.873-499.012c-1.53.467-4.462,1.232-6.587,1.657-2.083.467-5.61,1.19-7.82,1.7a62.605,62.605,0,0,1-7.437,1.062c-4.632.34-4.8.383-3.825,1.487a7.339,7.339,0,0,0,6.417,2.337l2.252-.255v1.572c0,4.632-5.525,17.425-11.092,25.8-1.36,2.082-2.422,3.867-2.295,3.995.807.85,8.075-6.2,11.05-10.752,3.145-4.8,9.137-17,9.137-18.657a6.973,6.973,0,0,0-1.1-1.827c-.595-.807-.978-1.572-.85-1.7.468-.467,8.075-1.785,10.37-1.827,3.655,0,3.91.3,3.91,4.462a53.689,53.689,0,0,1-2,14.237c-1.1,4.25-2.252,6.545-3.485,7.225-.935.467-3.272-.128-5.4-1.36-.807-.467-1.572-.765-1.7-.637s.3,1.062,1.02,2.082c.68,1.02,1.955,3.23,2.847,4.93a23.334,23.334,0,0,0,2.167,3.527c.892.722,3.315-.3,4.8-2,3.017-3.4,4.122-7.352,6.672-23.332a24.02,24.02,0,0,1,1.7-6.332c1.36-2.592,1.147-3.612-1.233-5.482-1.53-1.275-4.25-2.89-4.632-2.8C2027.678-499.9,2026.4-499.479,2024.873-499.012Z"></path><path fill="#e02335" transform="translate(-450.457 -139.732)" d="M897.618-498.64c-.595.085-2.677.552-4.675.977-6.12,1.445-24.692,4.845-31.407,5.78l-4.887.637-3.357-1.572a22.991,22.991,0,0,0-5.227-1.785c-1.7-.17-1.87-.128-1.87.722a6.666,6.666,0,0,0,.723,2.295c1.7,3.187,1.062,16.15-1.4,29.154-3.23,17.17-7.947,28.857-15.98,39.439a30.122,30.122,0,0,0-3.145,4.675c1.02,1.02,9.307-6.417,12.325-11.007a83.169,83.169,0,0,0,7.225-15c1.572-4.42,4.5-14.45,4.5-15.342a5.338,5.338,0,0,1,.425-1.615c.383-1.062.425-1.062,2.167-.467,2.762.977,2.252,1.062,17.807-2.167,4.8-.977,4.93-.935,5.695,1.7a17.071,17.071,0,0,1,.68,3.995v1.7l-4.76.68c-2.635.382-5.737.935-6.842,1.19a18.471,18.471,0,0,1-4.93.17c-2.89-.3-4.292-.085-4.292.68a5.8,5.8,0,0,0,1.02,1.742c1.827,2.38,5.27,11.517,5.992,15.81.552,3.145,2.295,4.59,3.612,2.975,1.1-1.36,8.925-2.677,20.017-3.442,4.42-.255,4.59-.255,5.312.68,2,2.465,2.72,3.017,3.7,2.762,2-.6,3.442-2.89,5.1-8.372.892-2.847,2-6.46,2.465-7.99a14.718,14.718,0,0,1,2.125-4.335c2.082-2.592,1.785-2.975-3.952-5.355-3.825-1.572-5.652-1.7-9.01-.51a65.724,65.724,0,0,1-9.69,2.125c-.425,0-.213-2,.34-3.952.17-.467-.213-1.147-1.062-1.87a5.28,5.28,0,0,1-1.318-1.445c0-1.062,16.83-2.21,29.537-2,9.095.128,9.775.085,9.9-.637.17-.892-1.827-2.89-4.037-3.952-3.017-1.445-4.93-1.36-21.8,1.063a55.823,55.823,0,0,1-5.907.637c-.383-.34,2.04-7.522,2.72-8.16a23.614,23.614,0,0,1,5.1-1.062q7.777-1.147,8.16-2.295c.127-.3-.425-.935-1.233-1.4-1.7-1.02-4.377-1.1-7.31-.212-3.1.935-3.357.892-3.06-.765.68-3.315.765-4.165.3-4.675a13.18,13.18,0,0,0-3.655-1.572c-2.8-.893-3.272-.935-3.825-.383s-.51.807.212,2.21c.893,1.657,1.233,6.8.468,7.267a56.172,56.172,0,0,1-6.2,1.147c-6.545,1.062-6.545,1.062-6.587-1.955,0-2.295-.255-2.592-3.315-3.825-4.59-1.87-6.035-1.147-3.527,1.7,1.1,1.232,2.55,5.482,2.082,5.992-.128.085-2.252.425-4.8.765-4.632.637-5.907,1.1-5.015,2,.85.85,3.74,1.232,7.395.977l3.612-.3.553,3.7a22.879,22.879,0,0,1,.382,3.867c-.3.34-10.327,1.53-14.96,1.785l-4.632.255.255-1.232c.51-2.295,2.422-17.595,2.422-19.252,0-3.017,0-3.017,5.27-3.017a57.185,57.185,0,0,0,7.9-.637c1.742-.34,5.185-.892,7.65-1.275s6.842-1.02,9.775-1.487c2.932-.425,8.2-1.1,11.687-1.487,11.432-1.19,13.09-1.785,10.71-3.867C905.4-498.682,901.7-499.277,897.618-498.64Zm-11.6,22.312c-.128.552-.383,2.167-.552,3.655a7.566,7.566,0,0,1-.85,3.23c-.51.552-9.477,2.125-9.86,1.785a22.875,22.875,0,0,1-.383-3.782c-.17-2.592-.085-3.655.3-3.91a89.976,89.976,0,0,1,10.795-1.87C886.058-477.263,886.185-477.05,886.016-476.328Zm10.88,21.292c.68.935-.042,7.607-1.19,11.22a17.359,17.359,0,0,1-1.4,3.655,55.292,55.292,0,0,1-6.332.51l-6.077.3v-2.592c0-2.975.085-3.06,4.122-3.825,5.4-1.02,7.012-2.465,4.25-3.782-.977-.467-1.657-.467-4.377.085-1.785.383-3.315.68-3.4.68-.468,0-.128-5.525.382-5.822.765-.51,9.562-1.36,11.73-1.147A4.08,4.08,0,0,1,896.9-455.036Zm-19.337,4.462.127,3.017-1.615.425c-.893.212-2.932.68-4.547.935-2.89.552-2.89.552-1.955,1.317.765.595,1.7.765,4.717.765h3.782v4.972l-4.59.892c-6.587,1.317-6.247,1.4-6.8-1.742-.255-1.445-.935-4.632-1.53-7.1a22.018,22.018,0,0,1-.765-4.717,34.49,34.49,0,0,1,4.76-.765c2.465-.3,5.142-.68,5.95-.892a8.884,8.884,0,0,1,1.912-.255C877.261-453.633,877.473-452.231,877.558-450.573Z"></path><path fill="#e02335" transform="translate(-1344.953 -155.886)" d="M2396.025-469.864a28.3,28.3,0,0,1-5.1,1.742c-4.632,1.1-5.015,1.7-1.488,2.38a7.041,7.041,0,0,0,4.377-.467,17.467,17.467,0,0,1,2.932-.85c.85,0,.68,1.615-.382,3.7-1.573,3.145-1.657,3.145-6.545,2.04-2.38-.552-4.76-1.1-5.27-1.275-.68-.212-.893-.128-.765.255.085.34,1.87,1.487,3.952,2.55a17.673,17.673,0,0,1,3.91,2.38c.3.808-5.1,4.42-8.457,5.61-.68.255-1.19.68-1.19.935,0,1.4,8.117-1.062,11.475-3.485a6.767,6.767,0,0,1,2.3-1.232,41.642,41.642,0,0,1,5.865,2.762c5.78,3.017,7.14,3.357,7.14,1.785,0-2.422-4.208-6.035-8.8-7.565-1.02-.34-1.4-.637-1.232-1.1.68-1.7,3.485-5.312,4.59-5.907,1.785-.935,1.445-2.21-1.1-3.91C2399.807-471.139,2398.617-471.182,2396.025-469.864Z"></path><path fill="#e02335" transform="translate(-880.355 -164.449)" d="M1602.187-455.436c-.3.383-.3,1.445,0,3.23.3,1.657.3,2.8.042,3.017a19.644,19.644,0,0,1-4.845.892c-8.712.935-9.732,1.317-7.437,2.8,1.1.722,2.422.68,11.9-.383.765-.085.85.17.85,2.89v2.975l-2.125.3c-1.147.213-7.182.807-13.345,1.4-6.2.552-11.432,1.232-11.645,1.445-.51.51,1.827,2,3.74,2.337.765.17,5.057-.212,9.6-.807,4.547-.637,9.52-1.232,11.135-1.36l2.847-.255v6.035l-2,.255c-1.147.127-3.187.425-4.632.637a30.7,30.7,0,0,1-4.547.425c-2.465,0-3.272.34-3.272,1.317,0,1.02,1.615,2.082,3.23,2.082.723,0,3.187-.3,5.525-.637,6.162-.935,5.695-1.147,5.695,2.465v3.1l-4.972.722c-2.762.383-6.2.85-7.692.977-3.06.34-3.187.765-.68,2.167,2.04,1.19,3.23,1.19,8.287.128,2.21-.467,4.25-.85,4.547-.85.425,0,.51.807.425,3.272l-.127,3.315-6.8.935c-3.74.51-9.9,1.062-13.727,1.232-9.18.425-10.242,1.147-5.015,3.612,3.06,1.445,3.358,1.487,7.225.425,3.91-1.1,17.085-3.187,17.892-2.847.552.17.637,1.615.68,9.052.042,9.01.425,11.815,1.7,11.815,1.02,0,2.465-7.692,2.8-14.875l.34-6.375,2.125-.3c1.19-.128,7.692-.3,14.45-.34,6.8-.043,12.792-.212,13.387-.382,1.742-.467,1.615-1.955-.3-3.187-3.655-2.422-4.42-2.465-12.537-1.062-4.037.68-9.6,1.4-12.325,1.53l-5.015.255v-3.017c0-1.955.17-3.145.552-3.357.638-.425,8.882-1.317,12.622-1.36,3.06-.042,4.08-.467,3.7-1.487-.382-.977-3.442-2.38-5.227-2.38a19.844,19.844,0,0,0-3.952.595c-2.932.765-6.672,1.232-7.14.977a8.182,8.182,0,0,1-.128-3.145l.213-2.89,4.25-.51c2.338-.255,5.355-.51,6.672-.51a17.12,17.12,0,0,0,3.06-.3c.765-.3.468-1.4-.68-2.295-.807-.68-.807-.723,0-3.612.68-2.55.935-2.975,1.955-3.23.637-.17,4.972-.467,9.647-.637,9.9-.34,10.837-.638,8.585-2.677-2.38-2.21-3.91-2.422-11.262-1.445-3.57.467-6.587.807-6.672.722a12.628,12.628,0,0,1,.85-2.89c.935-2.72.935-2.8.17-3.655-1.317-1.445-4.547-3.4-5.61-3.4a14.816,14.816,0,0,0-3.4.85,24.771,24.771,0,0,1-4.5,1.1c-1.955.255-2.082.255-1.827-.552.425-1.317-1.19-2.932-3.825-3.91C1602.909-456.116,1602.739-456.116,1602.187-455.436Zm15.512,8.5c.68.68.638,3.825,0,4.717-.552.723-4.93,1.53-8.287,1.572-1.4,0-1.4,0-1.4-2.082,0-3.272.51-4.207,2.422-4.42C1614.044-447.531,1617.189-447.446,1617.7-446.936Zm-.935,11.05a12.475,12.475,0,0,1-.468,2.38c-.127.128-4.887,1.275-7.1,1.657l-1.19.212v-5.992l2.677-.17c1.445-.085,3.485-.17,4.5-.213l1.87-.085Z"></path><path fill="#e02335" transform="translate(-1331.153 -168.463)" d="M2358-448.447c0,1.147,6.077,4.8,7.48,4.5,1.233-.213,1.233-2.167.042-3.57-.977-1.1-1.36-1.232-4.292-1.36C2358.637-449,2358-448.915,2358-448.447Z"></path><path fill="#e02335" transform="translate(-1525.507 -172.298)" d="M2707.858-441.467a67.049,67.049,0,0,1-6.97,1.7c-3.867.68-4.887,1.1-4.887,2.082,0,1.955,9.9,1.87,17.85-.17,4.76-1.232,5.4-2.125,2.465-3.4C2713.34-442.53,2711.385-442.572,2707.858-441.467Z"></path><path fill="#e02335" transform="translate(-1286.553 -184.903)" d="M2352.287-420.15c-2.082.17-5.44.595-7.437.977-2,.34-7.055.935-11.262,1.317-4.207.34-9.095.85-10.837,1.062-5.057.722-28.9,2.635-35.912,2.932-7.225.3-7.777.637-4.42,2.677,2.847,1.785,5.185,1.912,11.645.637,7.48-1.487,16.107-2.295,16.915-1.615.722.552,1.573,3.612,1.573,5.525a5.449,5.449,0,0,1-.085,1.317c-.085,0-2.21.3-4.8.637a24.319,24.319,0,0,1-6.29.255c-1.572-.383-3.272-.212-3.272.34a20.6,20.6,0,0,0,.892,2.8c.808,2.337.893,3.23.722,9.987a47.934,47.934,0,0,1-.722,8.712c-1.275,3.06-.042,10.412,1.785,10.752.723.128,1.7-1.53,2.168-3.74l.212-1.062,6.29-.043c3.442-.043,7.9-.3,9.9-.552s5.95-.68,8.8-.935c7.565-.723,8.84,0,10.157,5.907,1.1,5.227,2,5.482,4.165,1.19,1.955-3.91,2.465-8.16,2-17.765-.383-8.542-.17-11.56,1.02-13.217a3.378,3.378,0,0,0,0-3.867,22.892,22.892,0,0,0-3.4-2c-3.017-1.487-2.677-1.487-9.987,0a13.77,13.77,0,0,1-4.42.467,3.847,3.847,0,0,1,.127-2.38,8.558,8.558,0,0,0,.255-3.145l-.255-1.19,3.74-.34c3.188-.3,20.612-.3,30.089-.043,2.593.085,2.975,0,3.1-.722.17-.85-2.04-3.4-3.74-4.25C2359.469-420.32,2356.664-420.532,2352.287-420.15Zm-28.219,8.032c.468,2.21-.042,5.482-.85,5.695a28.014,28.014,0,0,1-3.783.467l-3.145.3.3-2.38c.255-1.87.17-2.592-.425-3.485-.383-.595-.595-1.19-.468-1.36.425-.425,3.74-.85,5.992-.765C2323.727-413.6,2323.77-413.562,2324.067-412.117Zm12.877,8.457c1.1.977,1.488,2.21,2.167,7.055,1.02,7.055.722,14.747-.595,16.065-.34.34-.808.128-1.657-.68-1.1-1.062-1.488-1.147-4.59-1.147a59.991,59.991,0,0,0-7.4.637,131.8,131.8,0,0,1-17.637,1.912h-3.825l.127-10.71c.085-5.907.17-10.795.255-10.88.127-.085,2.8-.552,7.012-1.1l1.445-.212-.255,2.04a30.378,30.378,0,0,1-1.7,5.737c-.807,2-1.36,3.655-1.19,3.655.637-.043,3.442-2.932,4.5-4.632a16.238,16.238,0,0,0,1.657-4.462l.552-2.592,3.357-.51a21.9,21.9,0,0,1,3.952-.425c.468.043.638.935.638,3.782.042,5.61,1.487,6.97,6.757,6.417,2.975-.3,4.633-1.36,3.74-2.422-.425-.51-1.317-.68-3.23-.68-1.87,0-2.8-.213-3.187-.68-.68-.807-1.275-4.25-.978-5.78.212-1.062.425-1.147,2.422-1.317C2332.695-404.85,2336.052-404.425,2336.945-403.66Z"></path><path fill="#e02335" transform="translate(-1327.648 -225.977)" d="M2358.362-347.627a62.7,62.7,0,0,0-6.375,1.487c-.51.51,1.4,1.4,3.528,1.657,2.38.3,13.557-.85,14.789-1.53a1.41,1.41,0,0,0-.042-2.507C2368.9-349.242,2364.822-348.944,2358.362-347.627Z"></path><path fill="#e02335" transform="translate(-1503.185 -189.182)" d="M2698.413-412.471c-1.19.467-10.667,2.125-20.272,3.57-12.877,1.912-15.257,2.337-15.64,2.72-.255.255.3.85,1.445,1.615,1.572,1.02,2.21,1.19,4.8,1.19a45.922,45.922,0,0,0,4.718-.213l1.7-.212-.127,1.7c-.51,7.522-7.948,20.23-15.682,26.774-2.338,2-2.593,2.337-1.7,2.337,1.4,0,4.717-1.487,7.522-3.442a31.887,31.887,0,0,0,8.287-8.67c2.635-3.867,7.437-13.685,7.437-15.172a4.822,4.822,0,0,0-1.275-2.635c-.723-.807-1.147-1.572-.893-1.7a46.493,46.493,0,0,1,6.927-1.1c.468,0,1.02.637,1.488,1.572.595,1.4.722,3.272.722,13.3l.042,11.687,1.19,2.55c2.21,4.717,4.59,6.46,10.5,7.65,4.08.807,6.97.68,12.027-.637,6.97-1.742,11.347-6.715,8.967-10.115-.808-1.19-2.89-7.31-3.57-10.455a5.338,5.338,0,0,0-.807-2.38c-.212,0-.468,1.572-.595,3.485-.3,4.122-1.573,8.925-2.762,10.5a9.975,9.975,0,0,1-2.89,2.167c-1.827.935-2.593,1.062-6.757,1.062-5.44,0-7.31-.552-9.095-2.55-1.615-1.827-2.167-3.825-2.167-7.735,0-3.612,1.445-12.495,2.337-14.28,1.02-2.082.807-3.06-1.1-4.717-1.232-1.062-1.615-1.572-1.19-1.742.34-.085,3.952-.425,8.032-.722,7.1-.51,7.437-.6,7.565-1.445.127-1.02-1.488-2.38-4.292-3.7A5.844,5.844,0,0,0,2698.413-412.471Z"></path><path fill="#e02335" transform="translate(-1095.38 -194.35)" d="M1991.331-402.883c-2.465.552-7.82,1.4-11.9,1.912s-9.52,1.147-12.112,1.487c-7.055.892-13.345,1.19-15.725.722-3.187-.637-4.675.51-2.8,2.21,1.53,1.4,2.975,7.225,3.867,15.767,1.275,12.07,1.615,14.237,2.465,15.682,1.1,1.87,2.295,1.742,2.8-.3l.425-1.572h2.55c2.422,0,11.645-.723,21.292-1.7,6.46-.595,5.865-.807,7.352,2.422.68,1.615,1.4,3.315,1.573,3.867a2.657,2.657,0,0,0,1.147,1.4c.723.383,1.063.255,2.3-.935,2.21-2.125,3.485-5.95,4.632-13.94.552-3.867,1.233-9.265,1.488-11.942a23.237,23.237,0,0,1,1.53-7.182,12.666,12.666,0,0,0,1.02-2.975c0-1.232-5.652-6.077-6.97-5.95C1996.005-403.9,1993.8-403.436,1991.331-402.883Zm3.4,4.462c.468.3.6,1.36.51,5.355-.085,2.72-.213,5.1-.3,5.27a4.587,4.587,0,0,1-2.38-.3c-2.253-.68-3.315-.637-9.732.467-5.992.977-6.375.935-6.375-.638a33.57,33.57,0,0,1,.51-4.292c.468-2.932.468-3.06-.51-3.825-.51-.425-.85-.892-.722-1.062C1976.626-398.293,1993.5-399.228,1994.73-398.421Zm-24.437,3.272a15.421,15.421,0,0,1,.977,5.27l.17,3.655-3.315.51c-1.87.255-5.015.6-7.012.723l-3.612.3-.553-4.76c-.425-3.272-.467-4.887-.127-5.227s3.272-.892,9.647-1.742C1969.359-396.806,1969.486-396.764,1970.294-395.149Zm24.309,13.132c-.255,2.55-1.53,9.562-1.827,9.9a7.847,7.847,0,0,1-2.04-.595c-1.742-.68-2.465-.68-6.715-.255-2.635.255-5.44.595-6.162.723l-1.4.212v-5.312c0-5.185.042-5.355.978-5.525.51-.128,3.995-.51,7.735-.892s7.267-.85,7.862-1.02a2.259,2.259,0,0,1,1.445-.128C1994.688-384.779,1994.73-383.5,1994.6-382.016Zm-22.694,5.142a29.638,29.638,0,0,1-.042,5.312c-.425.383-13,1.147-13.345.807-.213-.17-.467-2.635-.595-5.482l-.3-5.142,4.845-.17c2.677-.042,5.822-.17,7.012-.212l2.167-.085Z"></path><path fill="#e02335" transform="translate(-744.643 -211.567)" d="M1338-373.639a7.035,7.035,0,0,0,1.53,1.827c.85.765,3.145,3.315,5.142,5.61,3.782,4.377,6.46,6.5,7.565,6.077,1.063-.383,2.04-3.187,1.785-5.057-.425-3.017-3.272-5.015-10.667-7.522C1339.488-373.979,1338-374.276,1338-373.639Z"></path><path fill="#e02335" transform="translate(-708.417 -213.255)" d="M1275-370.549c0,.765,3.527,6.885,5.185,8.967,1.4,1.785,3.188,2.167,4.207.892.807-.935.68-4.292-.17-5.95C1283.032-368.891,1275-372.291,1275-370.549Z"></path><path fill="#e02335" transform="translate(-667.147 -217.415)" d="M1208.528-363.371a85,85,0,0,1-3.357,9.265c-2.04,4.845-2.465,7.99-1.318,10.2.51,1.02,1.1,1.53,1.87,1.615,1.445.17,2.72-1.87,3.825-6.2,1.275-4.972,1.487-9.18.595-12.325C1209.378-363.456,1208.783-364.434,1208.528-363.371Z"></path><path fill="#e02335" transform="translate(-687.914 -218.608)" d="M1239.41-361.413c-.17.255,0,.892.34,1.4a29.631,29.631,0,0,1,1.572,3.91c2.083,6.247,4.292,10.157,7.14,12.537s8.84,5.015,13,5.737c10.5,1.785,22.27-.085,26.732-4.165,2.125-2.04,1.615-3.1-3.272-6.332a71.036,71.036,0,0,1-6.8-5.185c-1.87-1.657-2.847-2.295-2.677-1.742.127.467.765,2.252,1.36,3.995a21.247,21.247,0,0,1,1.063,3.867c0,1.955-4.037,3.4-10.242,3.7-7.182.383-12.41-.977-17.51-4.5-2.38-1.615-4.845-5.312-5.907-8.8-.723-2.422-2.04-4.42-2.932-4.42a3.92,3.92,0,0,1-.935-.255A.833.833,0,0,0,1239.41-361.413Z"></path><path fill="#e02335" transform="translate(-481.001 -231.494)" d="M899.347-339.049a6.287,6.287,0,0,0-.68,1.657c-.595,2.592-7.182,7.735-14.875,11.645-5.1,2.592-5.567,3.357-1.87,3.017,4.675-.382,10.88-3.017,18.742-7.9,7.522-4.717,7.777-5.185,3.952-7.055C901.515-339.219,899.815-339.644,899.347-339.049Z"></path><path fill="#e02335" transform="translate(-535.914 -231.671)" d="M975-338.448c0,.3,3.485,3.995,7.777,8.287,9.01,9.01,9.69,9.35,10.5,5.44.85-4.08-.085-6.332-3.527-8.712-2.72-1.87-12.155-5.567-14.195-5.567A.563.563,0,0,0,975-338.448Z"></path><path fill="#e02335" transform="translate(-444.487 -290.422)" d="M816.3-236.6a2.67,2.67,0,0,0-.3,1.487v1.19l115.512-.085,115.47-.128v-2.55l-115.215-.128C868.4-236.857,816.425-236.772,816.3-236.6Z"></path><path fill="#e02335" transform="translate(-786.043 -290.322)" d="M1410-194.289v42.711l174.586-.085,174.543-.127.128-42.626.085-42.584H1410Zm53.379-18.232c4.208,1.572,4.123,1.487,3.782,5.44a27.908,27.908,0,0,1-.68,4.42c-.383.977-.468.977-1.147.382-1.147-1.02-5.482-2.847-6.8-2.847a3.821,3.821,0,0,0-3.272,2.592c-.637,1.955.17,3.527,4.037,7.735a39.438,39.438,0,0,1,4.972,6.587c1.063,2.125,1.19,2.89,1.19,6.46s-.17,4.335-1.19,6.46a11.589,11.589,0,0,1-10.71,6.715,25.5,25.5,0,0,1-9.732-2.8l-1.615-1.1.255-3.017c.383-3.995.722-5.822,1.063-5.822a17.519,17.519,0,0,1,2.592,1.487c5.737,3.7,9.775,2.762,9.775-2.252,0-1.955-.765-3.187-5.27-8.457a37.793,37.793,0,0,1-4.25-6.077,12.515,12.515,0,0,1,5.227-15.937C1454.454-214.051,1459.384-214.051,1463.379-212.521Zm20.1-.085c3.57,3.825.127,10.667-4.25,8.33-2.508-1.36-2.762-5.95-.468-8.627C1479.741-214.008,1482.291-213.881,1483.481-212.606Zm169.528,0c5.78,2.975,8.245,9.435,6.8,17.892-.765,4.59-3.4,10.2-9.137,19.55l-3.4,5.525-4.717.127c-2.635.043-4.76,0-4.76-.17,0-.128,1.658-3.442,3.655-7.31l3.655-7.1-2.507-.255c-3.23-.3-5.44-2-7.182-5.4-1.147-2.252-1.232-2.762-1.232-7.522,0-4.93.043-5.227,1.36-7.862a16.294,16.294,0,0,1,6.672-7.31c1.827-.977,2.677-1.19,5.482-1.19C1650.374-213.626,1651.394-213.413,1653.009-212.606Zm66.3-.212c5.822,3.017,8.627,11.772,7.31,22.779-1.785,15.215-11.135,24.734-19.889,20.23-3.187-1.657-5.27-5.057-6.46-10.71-1.1-5.27-1.062-8.585.213-15,1.7-8.585,5.312-14.7,10.03-17.127A11.122,11.122,0,0,1,1719.308-212.818Zm-96.813.552c0,1.445-1.658,15.895-2.082,18.615-.255,1.275-.723,5.4-1.105,9.137s-.85,7.735-1.062,8.925c-.213,1.147-.468,3.017-.638,4.122l-.255,2.04h-8.882v-1.615c.042-.85.3-3.7.637-6.247.34-2.592,1.105-8.712,1.7-13.6,1.87-15.81,2.422-20.4,2.592-21.377.17-.892.34-.935,4.632-.935C1622.367-213.2,1622.495-213.158,1622.495-212.266Zm65.236-.51a22.642,22.642,0,0,1-.425,5.227c-.382,2.592-1.147,8.882-1.742,13.9s-1.445,12.2-1.87,15.937c-.467,3.74-.807,7.14-.85,7.522,0,.68-.51.765-4.717.765h-4.717l.255-1.827c.17-.977.765-5.907,1.318-10.922,2.55-21.972,3.57-30.217,3.867-30.642C1679.146-213.371,1687.391-213.286,1687.731-212.776Zm-173.778,11.432c3.1,1.87,4.25,6.2,3.57,13.26-.255,2.422-.85,7.607-1.36,11.517l-.935,7.14h-8.755l.213-1.615c.085-.85.467-3.7.85-6.247,1.19-8.8,1.53-13.642,1.063-14.832-.807-2.21-4.165-.85-6.5,2.635-.807,1.19-1.1,2.38-1.318,4.972-.34,3.867-1.4,12.707-1.742,14.11-.213.935-.425.977-4.462.977h-4.25v-1.1c0-.637.3-3.06.637-5.44.34-2.337.892-7.182,1.275-10.667.382-3.527.978-8.2,1.317-10.412.3-2.21.595-4.165.595-4.377,0-.17,1.912-.3,4.25-.3h4.25v1.487c0,.807.128,1.487.255,1.487a7.75,7.75,0,0,0,1.615-1.147,13.863,13.863,0,0,1,2.592-1.657A9.024,9.024,0,0,1,1513.953-201.343Zm32-.34a6.846,6.846,0,0,1,2.422.85c.255.425-.595,9.35-.935,9.69a12.638,12.638,0,0,1-3.145-.552c-3.867-.935-6.375-.425-8.585,1.742-2.8,2.72-3.145,8.372-.68,10.625,1.445,1.275,5.992,1.062,9.18-.467a8.166,8.166,0,0,1,2.89-1.02,11.164,11.164,0,0,1-.255,3.4c-.255,1.7-.6,4.037-.765,5.185-.3,1.955-.425,2.125-2,2.72-2.507.935-8.415.892-11.347-.085-4.335-1.4-7.182-5.567-8.075-11.73-1.4-9.435,3.825-18.572,11.645-20.4A30.63,30.63,0,0,1,1545.954-201.683Zm25.457.637a12.057,12.057,0,0,1,5.907,7.862c.892,3.315,1.02,9.435.212,10.242-.425.425-2.507.552-8.245.552h-7.65l.212,1.912a4.162,4.162,0,0,0,1.615,3.1c1.275,1.147,1.53,1.232,3.952,1.02a19.4,19.4,0,0,0,5.44-1.4c1.615-.637,3.017-1.062,3.145-.892.34.34-.595,5.822-1.232,7.055a5.413,5.413,0,0,1-2.592,1.827c-7.055,2.72-14.747.255-17.595-5.695-3.23-6.63-1.573-17.595,3.442-22.779C1561.636-201.981,1567.2-203.171,1571.411-201.046Zm-87.038.765c0,1.7-1.275,13.9-1.488,14.237-.085.17-.468,3.527-.85,7.48-.977,10.285-.3,9.137-5.525,9.137h-4.42l.212-1.4c.128-.722.552-4.887,1.02-9.222.892-8.882,2.125-19.295,2.38-20.74.17-.892.382-.935,4.42-.935h4.25Z"></path><path fill="#e02335" transform="translate(-1101.662 -334.579)" d="M1961.4-159.169c-2.465,1.912-3.357,7.267-1.573,9.52,2.465,3.145,7.182-.595,7.182-5.737C1967.013-159.3,1964.081-161.294,1961.4-159.169Z"></path><path fill="#e02335" transform="translate(-1190.85 -335.196)" d="M2117.527-158.042c-2.083,2.295-3.527,8.84-3.527,15.937,0,4.972.51,7.1,1.955,8.075,1.02.637,1.147.637,2.21-.17,3.528-2.592,5.653-19.167,3.018-23.459C2120.2-159.232,2118.76-159.4,2117.527-158.042Z"></path><path fill="#e02335" transform="translate(-992.472 -347.781)" d="M1771.252-136.108A10.016,10.016,0,0,0,1769-131.73c0,.51.638.637,3.613.637,4.037,0,3.995.042,3.145-3.187C1774.992-137.085,1772.91-137.935,1771.252-136.108Z"></path><path fill="#e02335" transform="translate(-1285.152 -290.322)" d="M2278.3-236.7a2.672,2.672,0,0,0-.3,1.487v1.19h231.195V-237H2393.9C2330.444-237,2278.425-236.873,2278.3-236.7Z"></path></g></g></svg>