<svg viewBox="0 0 1840 340" height="340" width="1840" xmlns:xlink="http://www.w3.org/1999/xlink" xmlns="http://www.w3.org/2000/svg"><defs><clipPath id="b"><rect height="340" width="1840"></rect></clipPath></defs><g clip-path="url(#b)" id="a"><rect fill="none" height="340" width="1840"></rect><g transform="translate(19.301 315.1)"><path fill="#108351" transform="translate(2.395 0)" d="M103.371-290.795c-6.355,11.173-8.508,23.576-5.945,33.724,1.845,6.97,4.1,11.275,9.738,18.246,6.048,7.483,6.663,7.483,10.763-1.025,8.815-18.451,6.56-35.261-6.663-49.407l-5.535-5.843Z"></path><path fill="#108351" transform="translate(1.585 0.178)" d="M64-282.055c0,12.4,4.818,21.218,14.761,26.856,7.893,4.613,8.1,4.51,7.585-5.433s-2.768-14.863-9.02-20.6c-4-3.588-9.738-6.765-12.3-6.765C64.41-288,64-285.437,64-282.055Z"></path><path fill="#108351" transform="translate(3.262 0.205)" d="M146.478-284.132C136.433-277.366,131-267.424,131-255.533c0,5.945,1.64,15.683,2.665,15.683,1.333,0,8.713-5.535,12.4-9.328a34.145,34.145,0,0,0,9.123-18.656c.615-4.408-1.025-16.4-2.46-18.861C152.218-287.412,150.066-286.489,146.478-284.132Z"></path><path fill="#108351" transform="translate(0.904 0.926)" d="M37.21-247.542c.615,13.325,3.075,20.193,10.148,27.984,5.228,5.638,14.453,11.173,21.013,12.4,3.075.615,3.178.41,3.793-3.28.82-4.613-.615-15.683-2.768-21.731-4.2-11.89-16.2-22.141-29.726-25.216L36.8-258.1Z"></path><path fill="#108351" transform="translate(3.669 0.929)" d="M167.9-254.1c-11.89,7.688-18.758,18.143-20.5,30.956-.718,5.433,1.23,20.091,2.87,21.116,1.435.923,10.045-4.613,15.991-10.148a38.356,38.356,0,0,0,12.3-26.138c.513-8.918-1.333-19.681-3.28-19.681C174.567-258,171.287-256.257,167.9-254.1Z"></path><path fill="#108351" transform="translate(2.022 1.305)" d="M84.781-239.207c-6.048,13.94-3.793,26.753,6.355,36.594l4.2,4.1,2.153-5.125a38.969,38.969,0,0,0,2.768-12.813c.41-6.868.1-8.61-2.05-13.325C95.852-234.7,88.984-243,87.139-243,86.729-243,85.7-241.258,84.781-239.207Z"></path><path fill="#108351" transform="translate(4.389 1.482)" d="M200.6-234.567c-7.688,2.05-12.1,4.715-16.913,10.045A29.384,29.384,0,0,0,176-205.046c0,4.715,1.23,4.92,9.533,1.845,11.275-4.2,18.758-14.248,19.886-26.548.307-3.485.41-6.253.205-6.15C205.419-235.9,203.163-235.285,200.6-234.567Z"></path><path fill="#108351" transform="translate(0.401 1.68)" d="M17.418-223.182c.923,7.175,6.15,17.016,10.968,20.911,3.9,3.075,14.248,7.073,18.451,7.073,1.743,0,1.845-.512,1.333-4.408a55.293,55.293,0,0,0-3.28-10.25c-4.2-9.738-12.1-15.376-24.7-17.528L16.7-228Z"></path><path fill="#108351" transform="translate(2.704 1.733)" d="M134.121-224.567c-15.478,4.92-23.883,15.478-24.908,31.059l-.513,7.483,4.818-1.435c10.763-3.28,19.578-10.968,22.653-19.886,1.435-4.408,3.383-18.758,2.46-18.553C138.426-225.9,136.376-225.285,134.121-224.567Z"></path><path fill="#108351" transform="translate(1.544 2.365)" d="M62.606-197.626c1.128,6.15,5.638,14.043,9.738,17.118,3.69,2.665,13.735,5.945,14.761,4.92,1.025-.923-2.358-11.173-4.92-15.068-2.768-4.2-10.353-8.61-16.811-9.738C62.094-200.906,62.094-200.906,62.606-197.626Z"></path><path fill="#108351" transform="translate(3.285 2.516)" d="M159.474-193.575a46.941,46.941,0,0,0-9.328,4.1c-4.818,2.768-13.325,11.583-16.4,16.913l-1.845,3.178,3.793,1.64c17.016,7.175,34.646,4.51,47.049-6.868,3.9-3.588,10.763-12.813,10.763-14.453,0-.41-2.87-1.64-6.355-2.87C178.949-194.7,165.931-195.42,159.474-193.575Z"></path><path fill="#108351" transform="translate(0 2.579)" d="M1.315-188c1.23,9.43,8.405,19.066,17.016,22.858a38.819,38.819,0,0,0,10.558,2.665l6.048.513-.718-2.973c-3.485-15.273-13.428-24.7-27.984-26.446L.7-192.1Z"></path><path fill="#108351" transform="translate(0.834 2.68)" d="M34-186.564c0,3.588,4.408,14.966,7.688,19.886,6.253,9.225,18.963,15.581,31.059,15.581h4.51l-.718-3.793c-2.768-15.068-11.89-26.651-24.4-31.059C45.173-188.409,34-188.819,34-186.564Z"></path><path transform="translate(7.365 2.718)" d="M540.4-185.884c-3.178,1.64-4.92,6.355-3.69,10.455,1.845,6.663,12.1,7.79,15.273,1.538,1.845-3.485,1.23-9.123-1.025-10.968C548.805-186.6,542.962-187.114,540.4-185.884Z"></path><path transform="translate(5.392 2.732)" d="M485.688-184.462c-6.97,1.948-15.786,7.893-20.091,13.531-10.353,13.633-10.865,36.9-.922,49.919,11.07,14.658,34.954,18.246,50.432,7.585,7.073-4.818,13.735-16.2,9.635-16.2-.41,0-2.153,2.153-3.9,4.92-4.51,7.175-10.353,10.763-18.246,11.275-8.3.512-12.711-.923-17.836-6.048-5.843-5.843-8.405-13.428-9.123-26.036-1.025-21.321,6.253-35.364,19.168-37.106A20.8,20.8,0,0,1,502.4-182c4.92,1.64,12.1,9.635,15.683,17.323,4.51,9.943,5.535,8.61,5.535-7.483,0-11.48-.205-13.838-1.538-13.838-.82,0-2.255,1.128-3.075,2.46l-1.64,2.46-4.715-2.05C506.291-185.9,493.274-186.513,485.688-184.462Z"></path><path transform="translate(6.518 2.732)" d="M593.25-175.032a134.791,134.791,0,0,1-7.278,15.991A36.724,36.724,0,0,0,583-153.609c0,.308,1.845.41,4.1.205l4.1-.41v46.742h11.275v-30.649c0-25.216.307-31.264,1.537-34.339.923-2.05,2.46-6.048,3.588-8.815l2.05-5.125H597.658Z"></path><path transform="translate(4.177 2.785)" d="M248-183.183c0,.615,1.845,1.333,4.1,1.743,7.175,1.23,7.175,1.333,7.175,34.851s-.1,33.929-6.868,34.544c-2.05.205-3.9.923-4.2,1.538-.307,1.025,3.9,1.333,18.758,1.333s19.066-.307,18.758-1.23c-.308-.718-2.05-1.538-4-1.948-6.15-.923-6.048-.82-6.048-17.426v-15.273h6.458c11.48,0,13.633,2.563,15.171,18.041,1.23,11.89,2.05,14.248,5.74,16.093,6.048,3.075,22.858,3.075,22.858.1,0-.82-1.128-1.435-2.665-1.435-3.383,0-6.15-1.538-7.073-3.793a93.347,93.347,0,0,1-2.05-11.378c-.718-5.228-2.05-10.66-2.973-11.993-2.05-3.178-8.815-6.663-12.813-6.663-4.51,0-4.818-1.743-.41-2.563,12.3-2.255,19.271-11.275,16.606-21.526-1.435-5.228-4.305-8.405-10.148-11.173-4.2-1.948-6.663-2.153-30.444-2.46C257.328-184,248-183.8,248-183.183Zm43.051,4.1a13.338,13.338,0,0,1,5.33,5.33c2.255,4.408,2.358,13.12.41,17.938-2.05,4.92-5.638,6.868-13.941,7.483l-7.175.513-.1-13.736c0-7.585-.205-14.965-.307-16.606-.205-2.768-.1-2.768,6.048-2.768A23.525,23.525,0,0,1,291.051-179.083Z"></path><path fill="#108351" transform="translate(4.614 2.808)" d="M205.5-181.157c-9.943,2.87-20.5,15.888-20.5,25.113,0,1.845.513,1.948,6.355,1.333,15.068-1.743,25.523-10.968,28.906-25.523.615-2.768.615-2.768-4.2-2.665A44.49,44.49,0,0,0,205.5-181.157Z"></path><path transform="translate(6.406 0.967)" d="M659-174.975c0,.615,3.69,1.025,8.918,1.025h9.02l-4.1,2.665c-6.458,4.305-11.788,9.84-11.788,12.2,0,3.485,3.178,5.638,8.3,5.638h4.51l-5.33,5.125c-6.56,6.253-7.585,8.918-4.408,11.48,2.87,2.358,13.838,2.563,18.963.41,4.92-2.05,4.51-2.665-1.435-1.948-7.688.923-8.1-2.153-1.128-7.79l3.895-3.075,1.845,5.023c1.025,2.768,2.05,4.92,2.255,4.613.308-.2,1.23.615,2.255,1.845,1.64,1.948,2.973,2.255,11.89,2.563,9.225.308,18.246-1.025,19.373-2.768.205-.41-1.743-.718-4.305-.718-2.768.1-4.92-.41-5.125-1.127-.513-1.435,6.765-9.738,7.893-9.02.41.2,1.333,2.563,2.05,5.125s1.538,4.408,1.845,4.2c.205-.307,1.23.41,2.153,1.435.922,1.128,3.588,2.358,6.15,2.665,4.2.718,4.51.615,3.69-1.23-.41-1.025-1.743-4.613-2.973-7.893l-2.152-5.843H719.99l4.613-4.408c2.563-2.358,6.253-5.638,8.2-7.175l3.588-2.768h-5.228c-4.92,0-5.945.41-12.608,5.74-4.282,3.311-4.547,7-7.223,7.536s-4.41-3.87-4.41-3.87l-11.085-1.723L698.464-152l8.918,1.625-8.405,9.734-3.14-9.352-7.315-.381,7.315-6.667c-.054.138,11.851,3.642,11.085,1.723s4.868-9.3,12.658-15.146c4.408-3.178,5.433-3.485,12.1-3.485,4.2,0,7.278-.41,7.278-1.025S724.91-176,698.977-176,659-175.59,659-174.975Zm45.614,4.613c-3.69,3.178-4.715,3.588-10.045,3.588-5.74,0-6.355.307-13.223,5.535-6.663,5.228-10.045,6.355-10.045,3.28,0-1.435,4.407-5.74,11.788-11.788l5.125-4.1h20.5Z"></path><path transform="translate(4.049 3.334)" d="M340.621-160.464c-6.56,2.05-10.968,5.945-14.248,12.505-5.74,11.788-2.87,27.676,6.048,34.134,11.07,8.1,29.009,5.945,37.106-4.305,3.9-5.023,2.05-5.433-3.178-.82-7.483,6.56-15.991,6.765-22.243.615-3.383-3.383-5.74-9.84-5.74-15.376v-2.665H372.5l-.615-5.023C370.039-157.184,356.509-165.487,340.621-160.464Zm13.531,4.613c2.46,2.973,4.305,10.045,3.485,13.941-.308,1.743-1.538,1.948-9.84,2.255l-9.533.307.718-4.92c.923-6.458,2.153-9.533,4.715-12.4C346.873-159.952,350.973-159.644,354.151-155.852Z"></path><path transform="translate(5.345 3.355)" d="M379.917-160.28c-5.74.512-6.15,1.435-1.538,3.485l3.28,1.435v41.924l-3.28,1.025c-6.56,1.845-3.178,2.665,10.455,2.665,8.405,0,13.838-.41,13.838-1.025,0-.513-1.128-1.23-2.563-1.64a4.351,4.351,0,0,1-3.075-2.87c-.307-1.128-.41-9.328-.307-18.041l.307-15.786,3.485-2.358c4.51-3.075,8.713-2.973,11.891.205,2.563,2.46,2.563,2.768,2.563,19.988v17.631l-3.075,1.128c-1.64.615-3.075,1.538-3.075,1.948s6.458.82,14.351.82c13.735,0,18.348-1.025,10.865-2.46-1.948-.41-3.793-1.435-4.1-2.255-.307-.923-.615-9.43-.615-18.963,0-18.758-.82-22.756-5.228-25.933-5.33-3.69-16.811-1.333-24.191,4.92l-3.383,2.87V-161l-5.843.2C387.4-160.69,382.582-160.485,379.917-160.28Z"></path><path transform="translate(7.207 3.358)" d="M535.432-160.282c-6.048.41-7.073,1.845-2.358,2.87,1.743.41,3.588,1.538,4.1,2.563.615,1.025,1.025,10.353,1.025,20.911,0,18.451-.1,18.963-2.255,20.5a8.409,8.409,0,0,1-4.1,1.64c-1.025,0-1.845.41-1.845,1.025s5.638,1.025,14.863,1.025c14.658,0,18.143-.82,11.583-2.665l-3.383-1.025-.307-23.781L552.551-161l-5.945.2C543.428-160.692,538.3-160.487,535.432-160.282Z"></path><path fill="#108351" transform="translate(0.033 3.527)" d="M2-153.584c.1,2.563,4.408,10.558,7.483,13.736,2.973,3.075,10.763,6.355,15.171,6.355,1.743,0,1.743-.308.41-4.613-1.743-5.843-5.74-11.275-10.045-13.53C10.918-153.789,2-155.121,2-153.584Z"></path><path fill="#108351" transform="translate(2.604 3.51)" d="M120.9-153.772c-7.175,2.563-13.941,10.455-15.478,18.143l-.718,3.28,4.51-.615a44.258,44.258,0,0,0,10.148-3.485c4.408-2.153,6.355-3.9,8.815-8.1,1.845-2.973,3.485-6.458,3.69-7.893.513-2.358.308-2.563-3.69-2.46A26.427,26.427,0,0,0,120.9-153.772Z"></path><path fill="#108351" transform="translate(3.4 3.617)" d="M151.568-149.369a38.579,38.579,0,0,0-9.738,6.56l-5.33,4.818,3.588,2.255c12.71,7.79,27.984,6.355,38.234-3.588,4.51-4.408,4.2-5.228-3.69-8.61C167.764-150.906,157.513-151.521,151.568-149.369Z"></path><path fill="#108351" transform="translate(0.784 3.66)" d="M32-148.182c0,2.973,5.33,12.813,9.123,16.913,5.638,6.048,12.915,9.225,21.833,9.328,3.69.1,7.073-.2,7.483-.615,1.23-1.23-2.768-10.148-6.868-15.273-6.048-7.79-11.685-10.455-22.551-10.968C34.87-149.1,32-148.9,32-148.182Z"></path><path fill="#108351" transform="translate(4.639 3.824)" d="M199.223-141.991c-4.1.718-13.223,5.74-13.223,7.175s6.97,5.74,11.685,7.175c6.663,2.153,18.143-.82,22.038-5.535,1.742-2.05.82-3.28-4.818-6.15C209.268-142.094,204.348-142.914,199.223-141.991Z"></path><path transform="translate(6.981 2.043)" d="M682-124.9c0,10.353,1.025,13.12,5.843,15.068,5.638,2.358,24.908,1.64,27.881-1.025,2.87-2.563,2.768-4.2-.1-2.255-3.177,2.255-19.476,2.358-21.321.1-.718-.82-1.538-5.638-1.845-10.763L691.943-133H682Z"></path><path transform="translate(6.431 4.084)" d="M664.2-124.722a59.8,59.8,0,0,1-2.665,10.865L660-110.167l4.2-.718c8.3-1.333,9.635-3.075,10.763-14.453l.718-6.663H665.433Z"></path><path transform="translate(7.928 4.084)" d="M720.415-128.207c2.255,12.4,4.305,15.581,10.66,16.4,2.358.308,4.305.41,4.305.205s-.923-2.768-1.948-5.535a63.484,63.484,0,0,1-2.665-10.045L730.05-132H719.8Z"></path><path fill="#108351" transform="translate(0.388 4.291)" d="M22.658-123.6a18.606,18.606,0,0,1-3.793,1.025c-3.9.923-3.588,2.563,1.23,8.1,7.073,8,15.786,10.66,25.933,7.79l3.9-1.025-3.485-4.818c-4.408-6.15-10.968-10.25-17.631-10.865A26.747,26.747,0,0,0,22.658-123.6Z"></path><path fill="#108351" transform="translate(3.026 4.336)" d="M137.284-120.566a25.413,25.413,0,0,0-14.761,14.351c-1.435,3.485-1.435,3.588,1.333,4.1,4.2.923,11.685-.82,17.016-3.9,4.51-2.563,10.865-11.275,10.865-14.761C151.737-122.412,142.2-122.309,137.284-120.566Z"></path><path fill="#108251" transform="translate(3.632 4.424)" d="M175.733-117.682c-8.405,1.948-13.223,4.613-19.066,10.558-6.048,6.15-12.3,17.631-10.66,19.271.718.718,6.048,1.128,13.121,1.128,11.48,0,12.3-.1,18.861-3.383a40.618,40.618,0,0,0,18.553-18.963,39.338,39.338,0,0,0,2.768-6.663C199.308-117.99,183.113-119.322,175.733-117.682Z"></path><path transform="translate(304.754 56.609)" d="M310.782-230.2v2.382h43.711l-9.745-9.544-4.539,7.162Z"></path><path transform="translate(305.837 117.068)" d="M313.925-230.2l-6.046,2.382h49.562L347.7-237.36l-4.539,7.162Z"></path><path transform="translate(-5580.571 5587.666)" d="M6259.574-5772.078h15.249l5,7.716s-8.667-.159-13.729-2.088S6259.574-5772.078,6259.574-5772.078Z"></path><path transform="translate(-5561.855 5588.062)" d="M6281.308-5771.687l-3.3,5.793s6.586.445,11.2-1a16.177,16.177,0,0,0,7.25-4.79Z"></path><path transform="translate(-5565.523 5615.101)" d="M6274.592-5745.055h7.782a33.331,33.331,0,0,0,1.172,8.157,31.016,31.016,0,0,0,3.441,7.287s-7.308-.309-10.407-4.17S6274.592-5745.055,6274.592-5745.055Z"></path><path fill="#ea892e" transform="translate(-5888.217 5591.8)" d="M5986.869-5769.988a8.8,8.8,0,0,1,6.392,6.854c.99,5.619-2.434,15.622-2.434,15.622a64.6,64.6,0,0,0,13.475-8.29c3.4-2.922,4.335-7.332,6.292-7.332,4.507,0,2.8,10.547-3.754,15.622s-19.55,6.549-24.485,26.279,1.712,50.475,6.763,52.641c2.923,1.253,3.389-22.874,6.412-36.289,1.96-8.7,6.234-9.882,8.773,5.594,1.055,6.437-.612,12.794,0,20.234.742,9.011,3.342,19.894,1.38,36.074-3.36,27.707-5.576,28.04-16.565,41.235s-22.128,12.729-26.732,14.5c-11.568,4.438-2.314-35.031-2.314-35.031s13.116,2.089,14.62-17.752-10.095-34.325-8.606-61.614c0-.054-.914,27.217,0,0s10.4-29.577,16.27-45.868c5.881-16.324.8-20.39,4.515-22.476"></path></g></g></svg>