<svg viewBox="0 0 1840 340" height="340" width="1840" xmlns:xlink="http://www.w3.org/1999/xlink" xmlns="http://www.w3.org/2000/svg"><defs><clipPath id="b"><rect height="340" width="1840"></rect></clipPath></defs><g clip-path="url(#b)" id="a"><rect fill="none" height="340" width="1840"></rect><g transform="translate(-93.115 358.963)"><path fill="#032e6d" transform="translate(0 1.387)" d="M179.851-259.39a4.211,4.211,0,0,0-.712,2.544c0,3.663-3.154,3.867-13.228.712-16.688-5.19-29.509-2.951-39.481,7.123a35.092,35.092,0,0,0-10.176,23.1c-1.119,18.214,6.818,28.084,34.19,42.228,9.87,5.088,18.723,12.719,21.776,18.723a33.484,33.484,0,0,1,2.646,10.786c.814,11.6-2.951,19.842-10.99,24.421-6.309,3.561-19.537,3.561-26.66.1-8.751-4.274-14.754-13.533-17.6-27.169-.814-3.765-1.832-7.225-2.442-7.835-2.34-2.34-3.053.712-2.951,12.312.1,6.512-.2,15.772-.611,20.351-.814,7.937-.712,8.547,1.018,8.14,1.018-.1,2.137-1.628,2.544-3.256,1.221-4.375,2.646-4.782,8.446-2.442,18.825,7.632,34.088,7.733,46.909.2,6.309-3.663,13.33-11.5,16.484-18.214,2.442-5.291,2.849-7.326,2.747-14.755-.1-9.361-1.221-12.923-6.411-20.046-4.274-5.9-11.7-11.193-28.084-20.148-21.369-11.6-26.762-18.519-25.744-32.867.509-7.632,3.46-13.126,8.853-16.993,3.765-2.646,5.189-3.053,11.091-3.053,7.937.1,12.923,2.239,18.723,8.344,3.765,3.867,8.954,13.533,8.954,16.79,0,2.646,1.119,4.884,2.544,4.884.916,0,1.221-3.968,1.018-16.993C182.6-258.067,181.988-261.527,179.851-259.39Z"></path><path fill="#032e6d" transform="translate(6.354 1.403)" d="M495.654-257.27a60.258,60.258,0,0,1-11.7,3.561,63.926,63.926,0,0,0-7.937,1.526c-2.747.814,1.221,2.34,6.207,2.34,3.358,0,4.986.509,5.393,1.628,1.018,2.646.712,113.966-.407,116.815-.814,2.137-1.628,2.544-5.7,2.849-2.747.2-4.986.814-5.291,1.526-.509,1.628,38.972,1.933,39.99.305.712-1.119-2.137-1.832-8.14-2.239l-4.07-.305-.305-19.639c-.1-11.091.1-19.537.611-19.333.509.1,4.986,4.986,9.972,10.583,21.063,23.912,23.607,27.983,17.705,28.695q-9.158.916-9.158,2.137c0,1.323,45.179.814,45.79-.407.305-.611-1.628-1.119-4.579-1.323-6.309-.407-7.632-1.323-19.944-15.976-5.291-6.207-14.042-16.179-19.537-22.183-5.495-6.105-9.87-11.4-9.667-11.7.2-.407,6.105-6.309,13.126-13.228,13.737-13.33,15.67-14.449,25.032-14.449,2.951,0,5.393-.407,5.393-.916,0-1.628-8.242-2.34-23.505-1.933-16.79.407-22.284,2.035-9.87,2.849,4.375.305,8.14.916,8.547,1.323,1.323,1.221-2.646,5.7-16.077,18.112L504-174.237l-.509-41.821c-.305-25.948-.916-42.228-1.526-42.737C501.353-259.406,498.91-258.8,495.654-257.27Z"></path><path fill="#032e6d" transform="translate(3.038 1.441)" d="M286.2-255.781c.305.814,2.849,1.526,6.207,1.832,3.154.305,6.309,1.119,7.021,1.832,1.73,1.73,1.933,119.562.2,121.292-.509.509-3.765,1.425-7.021,1.832-3.358.407-5.9,1.119-5.8,1.73.2,1.018,96.769,2.951,97.787,2.035.2-.2.611-7.733.916-16.688.407-14.653.305-16.383-1.221-16.993-.916-.407-1.933-.509-2.137-.2a49.236,49.236,0,0,0-1.526,7.428c-2.951,18.316-10.074,21.776-44.467,21.877H319.576v-60.443c0-68.583-.814-62.783,9.056-63.7,3.154-.305,5.7-1.018,5.7-1.526,0-.611-8.954-1.119-24.218-1.323C290.881-257,285.895-256.8,286.2-255.781Z"></path><path fill="#032e6d" transform="translate(1.44 2.008)" d="M220.131-223.379c-.916,1.119-2.849,3.46-4.274,5.291a29.619,29.619,0,0,1-15.874,9.158c-6.919,1.221-6.309,3.256,1.018,3.256,5.6,0,6.207.2,6.716,2.239.305,1.323.611,17.909.712,37.039.305,38.565,0,36.835,7.428,40.193,9.26,4.274,23.2,1.526,30.832-6.105,3.765-3.765,4.477-6.919,1.323-5.189a7.422,7.422,0,0,0-2.646,2.035c-1.221,2.035-8.547,5.088-12.007,5.088-5.393,0-8.039-2.747-8.954-9.26-.407-3.053-.814-19.13-.814-35.818l-.1-30.221h9.056c8.853,0,15.365-1.323,13.94-2.849-.407-.407-5.7-.712-11.6-.712H224l-.305-7.123C223.387-224.3,222.37-226.127,220.131-223.379Z"></path><path fill="#032e6d" transform="translate(9.389 2.193)" d="M691.754-211.354c-1.018,2.544-1.323,2.646-6.919,2.035-16.891-1.933-16.891-1.933-22.386.407C653.189-204.943,648-196.9,648-186.729c0,11.8,6.411,18.723,23,25.235a93.437,93.437,0,0,1,12.923,5.9c9.158,6.105,9.056,21.674-.2,26.558-3.46,1.73-11.091,2.035-16.484.509-4.274-1.221-11.6-7.225-13.635-11.295a39.018,39.018,0,0,1-2.646-8.039c-1.933-8.853-2.951-5.6-2.951,9.158,0,14.246.814,17.095,3.256,11.7,1.425-3.154,4.681-3.256,10.99-.407,6,2.747,14.958,3.561,20.86,1.933,5.495-1.526,13.025-7.937,15.874-13.33,4.274-8.547,3.46-18.723-2.239-25.642-2.849-3.561-15.772-10.786-25.541-14.449-6.818-2.544-12.821-7.937-13.635-12.211-.916-4.986.1-8.14,4.172-12.516,3.256-3.663,3.663-3.765,10.481-3.765,6.411,0,7.53.305,11.091,3.053a31.367,31.367,0,0,1,7.123,9.667c3.663,7.428,6.105,9.361,5.088,4.07a94.682,94.682,0,0,1-.712-13.33C694.807-214.1,693.688-216.645,691.754-211.354Z"></path><path fill="#032e6d" transform="translate(7.831 2.248)" d="M587.487-210.086c-9.26,2.849-19.74,12.516-24.014,22.081-5.6,12.618-5.6,28.491-.1,40.5,3.46,7.53,11.8,16.179,18.927,19.639,5.088,2.544,6.818,2.849,16.383,2.849,9.056,0,11.295-.305,14.754-2.239,6.818-3.561,15.772-14.449,15.772-19.13,0-2.951-1.933-1.526-5.393,3.765-6.309,9.667-10.176,12.007-20.147,12.007-17.5,0-27.27-14.042-27.372-38.972,0-13.839-1.933-12.923,25.235-12.923,12.719,0,24.6.407,25.823,0,2.137-.509,1.956-1.73,1.345-4.986-1.832-9.87-10.277-19.028-20.148-21.979C603.157-211.1,591.862-211.408,587.487-210.086Zm17.705,3.968c3.867,2.239,7.021,8.446,7.53,15.162l.407,5.393H578.023l.712-4.172C581.076-204.693,593.8-212.528,605.192-206.117Z"></path><path fill="#032e6d" transform="translate(4.744 2.281)" d="M383.5-207.982c-.712,1.119,2.137,1.832,8.14,2.239l4.07.305.509,33.579c.407,29.407.712,33.986,2.239,36.835,6.818,12.414,28.593,14.144,41.109,3.053l4.477-3.968v5.7c0,3.154.2,5.7.407,5.7s3.358-1.119,6.919-2.442a83.715,83.715,0,0,1,15.06-3.663c4.782-.712,9.056-1.628,9.463-2.035.509-.407-2.442-1.018-6.411-1.425-6.411-.712-7.326-1.018-8.14-3.256-.611-1.425-1.018-17.705-1.018-37.141V-209H445.572c-14.551,0-20.046,1.323-9.158,2.239,3.154.305,6.207,1.018,6.919,1.73,1.73,1.73,1.73,56.067-.1,61.867-3.358,11.295-15.467,16.993-24.319,11.5-5.8-3.561-5.9-3.561-6.411-41.72l-.509-35.106-13.94-.2C389.912-208.9,383.909-208.593,383.5-207.982Z"></path><g transform="translate(587.804 -338.963)"><rect fill="#a1c627" transform="translate(64.548 25.341)" height="27.631" width="27.478"></rect><rect fill="#a1c627" transform="translate(24.858 25.341)" height="27.631" width="27.478"></rect><rect fill="#a1c627" transform="translate(24.858 65.031)" height="27.631" width="27.478"></rect><rect fill="#a1c627" transform="translate(64.548 65.031)" height="27.631" width="27.478"></rect><g transform="translate(117.018 56.474) rotate(90)"><rect fill="#a1c627" transform="translate(0 0)" rx="2" height="25.439" width="4.07"></rect><rect fill="#a1c627" transform="translate(0 7.123)" height="18.316" width="4.07"></rect></g><g transform="translate(0 60.544) rotate(-90)"><rect fill="#a1c627" transform="translate(0 0)" rx="2" height="25.439" width="4.07"></rect><rect fill="#a1c627" transform="translate(0 7.123)" height="18.316" width="4.07"></rect></g><g transform="translate(56.457 0)"><rect fill="#a1c627" transform="translate(0)" rx="2" height="25.341" width="4.122"></rect><rect fill="#a1c627" transform="translate(0 7.175)" height="18.166" width="4.122"></rect></g><g transform="translate(60.579 151.587) rotate(180)"><rect fill="#a1c627" transform="translate(0 0)" rx="2" height="25.493" width="4.122"></rect><rect fill="#a1c627" transform="translate(0 10.075)" height="48.85" width="4.122"></rect></g></g><path fill="#032e6d" transform="translate(-689.015 109.042)" d="M1410.766-189.029c-4.628,12.1-12.8,33.974-12.8,33.974h3.938l7.551-20.751,15.913-.1c1.271,3.357,7.476,20.852,7.476,20.852h9.872c-2.244-5.594-17.756-47.1-18.925-50.249-1.933-5.239-2.187-5.7-3.407-5.7S1418.751-210.034,1410.766-189.029Zm13.681,10.172h-13.681s6.357-19.428,6.612-19.428C1417.53-198.285,1424.447-179.06,1424.447-178.857Z"></path><path fill="#032e6d" transform="translate(-601.544 108.18)" d="M1228.137-209.071a56.226,56.226,0,0,0-6.51.712L1220-208v54.318h8.646l.1-14.139.152-14.088,3.1.1c4.933.1,7.731,2.136,8.849,6.307a92.232,92.232,0,0,1,.916,11.24c.356,8.544.509,9.562,1.678,11.6,1.526,2.8,3.764,4.374,7.375,5.086,2.8.61,7.578.305,8.087-.509a1.362,1.362,0,0,0-.051-1.17c-.2-.61-.61-.661-1.933-.254-2.644.814-4.425-.305-5.493-3.408-.661-1.984-.865-4.374-.916-10.731,0-13.122-1.678-16.428-9.409-18.818-1.17-.356-1.729-.712-1.271-.865.407-.1,2.034-.61,3.611-1.068,3.662-1.068,7.171-4.069,8.392-7.171,1.271-3.306.814-8.748-.966-11.392C1247.616-207.9,1240.14-209.885,1228.137-209.071Zm8.646,1.984c4.068,1.119,6.713,5.7,6.713,11.443,0,4.832-1.424,7.985-4.628,9.968-2.034,1.322-2.746,1.475-6.256,1.475h-3.967v-11.392c0-12.816-.356-11.85,4.069-11.952A19.489,19.489,0,0,1,1236.783-207.088Z"></path><path fill="#032e6d" transform="translate(-638.646 108.47)" d="M1315.386-209.106a26.8,26.8,0,0,0-18.716,17.343c-1.017,3-1.17,4.425-1.17,10.833,0,6.917.1,7.578,1.475,10.935,3.509,8.544,9.256,13.529,18.106,15.817,4.425,1.17,13.834,1.17,18.309,0,3.865-.966,9.612-3.662,9.969-4.628a3.4,3.4,0,0,0-.407-2.034l-.712-1.322-2.034,1.627a23.29,23.29,0,0,1-10.986,4.577c-6.764,1.119-12.155-.661-16.885-5.645-5.493-5.747-7.832-12.969-7.273-22.632.407-7.527,2.441-12.766,6.917-17.648a16.23,16.23,0,0,1,13.02-5.7,22.546,22.546,0,0,1,13.325,4.12c2.441,1.882,2.39,1.882,3.764-.559.661-1.119.407-1.322-3.458-3.153a30.7,30.7,0,0,0-6.1-1.984C1328.2-210.073,1319.3-210.073,1315.386-209.106Z"></path><path fill="#032e6d" transform="translate(-518.988 107.824)" d="M1058.866-208c-3.052.356-5.9.712-6.2.712-.509.051-.661,5.7-.661,26.447v26.4l5.239.661c7.476.966,19.123.865,23.243-.2,13.376-3.56,20.6-12.41,21.107-25.786.61-15-6.052-24.412-19.733-27.769C1077.43-208.613,1065.681-208.867,1058.866-208Zm17.292,2.085c10.375,2.645,16.173,11.9,16.122,25.684,0,8.493-1.78,14.037-6,18.767-4.628,5.086-12.766,7.476-20.8,6.052l-4.069-.712-.152-24.768-.1-24.768,1.882-.305c1.068-.2,2.187-.407,2.441-.509C1066.9-206.985,1073.514-206.629,1076.158-205.917Z"></path><path fill="#032e6d" transform="translate(-737.799 107.917)" d="M1500.594-208.35a13.5,13.5,0,0,0-2.9.712c-.356.2-.458,9.663-.407,53.813h9v-13.583c0-15.868-.305-14.851,4.323-14.241,3.357.407,5.7,1.882,7.069,4.577.916,1.78,1.119,3.306,1.373,11.443.2,5.188.61,10.324.966,11.443,1.628,5.238,8.7,8.544,14.851,6.866,1.475-.458,1.78-.712,1.577-1.577-.2-.712-.56-.915-1.119-.661-2.8,1.17-5.188.356-6.256-2.238-.305-.763-.763-5.849-.916-11.291-.305-8.7-.458-10.223-1.475-12.461A15.205,15.205,0,0,0,1524.7-179c-1.119-1.271-4.17-2.8-6.561-3.357l-1.933-.407,1.526-.356c5.442-1.322,9.307-3.764,11.036-7.019,1.678-3.2,1.627-9-.051-11.952a13.5,13.5,0,0,0-7.273-5.645C1518.954-208.655,1504.662-209.062,1500.594-208.35Zm14.851,2.136a11.714,11.714,0,0,1,3.764,3.306c1.271,1.831,1.526,2.746,1.729,6.154.254,4.73-.356,7.069-2.594,9.612-2.136,2.441-4.171,3.2-8.494,3.2h-3.56V-195.33c0-12.867-.407-11.85,4.323-11.952A9.766,9.766,0,0,1,1515.444-206.214Z"></path><path fill="#032e6d" transform="translate(-461.001 107.567)" d="M934-153.072h22.938v-2.441H943.154v-25.531h10.68v-2.543h-10.68v-22.378h12.206V-208H934Z"></path><path fill="#032e6d" transform="translate(-490.486 107.567)" d="M994-180.536v27.464h22.378v-2.543h-13.224V-208H994Z"></path><path fill="#032e6d" transform="translate(-572.551 107.567)" d="M1161-153.072h22.378v-2.543h-13.223v-25.43h10.68v-2.543h-10.68v-22.378h11.7V-208H1161Z"></path><path fill="#032e6d" transform="translate(-778.451 107.567)" d="M1580-153.072h22.632v-2.441s-.407.153-13.478-.153v-25.379h10.681v-2.543h-10.681v-22.327h12.1V-208H1580Z"></path></g></g></svg>