<svg viewBox="0 0 1840 340" height="340" width="1840" xmlns:xlink="http://www.w3.org/1999/xlink" xmlns="http://www.w3.org/2000/svg"><defs><clipPath id="b"><rect height="340" width="1840"></rect></clipPath></defs><g clip-path="url(#b)" id="a"><rect fill="none" height="340" width="1840"></rect><g transform="translate(12 703.827)"><path fill="#091898" transform="translate(-9.843 0)" d="M137.7-683.416a125.323,125.323,0,0,0-75.641,36.134,125.223,125.223,0,0,0-32.849,57.929c-2.8,11.408-3.507,17.8-3.507,30.407,0,9.189.133,12.207.977,17.534a123.493,123.493,0,0,0,16.6,46.831C62.5-462.664,94.416-441.268,131.7-435.275a149.738,149.738,0,0,0,32.183.666c30.141-3.462,55.576-15.936,76.617-37.643a121.6,121.6,0,0,0,28.188-45.589c15.4-44.656,4.528-94.151-28.01-127.621a120.7,120.7,0,0,0-25.524-20.553,123.72,123.72,0,0,0-50.827-17.179A172.206,172.206,0,0,0,137.7-683.416Zm21.263,4.439a114.724,114.724,0,0,1,44.212,11.941,112.575,112.575,0,0,1,30.762,21.529,108.953,108.953,0,0,1,16.735,19.976c10.343,15.536,16.158,30.762,19.177,49.939,1.11,7.236,1.11,26.057,0,33.293-2.974,18.91-9.1,34.891-19.177,49.939a119.85,119.85,0,0,1-46.832,41.238,118.777,118.777,0,0,1-84.3,8.434,100.036,100.036,0,0,1-22.017-8.39,120.472,120.472,0,0,1-65.031-84.075,132.661,132.661,0,0,1-1.554-37.51,120.87,120.87,0,0,1,42.836-78.925,123.477,123.477,0,0,1,46.832-23.882A112.868,112.868,0,0,1,158.959-678.977Z"></path><path fill="#091898" transform="translate(-152.139 -12.694)" d="M291.889-657.582l-.133,3.462-4.794.133c-4.173.089-4.75.222-4.306.755.4.488,1.6.666,4.75.666h4.217l-.266,1.642c-.8,4.439-4.261,9.366-8.434,11.985-1.11.71-1.554,1.243-1.243,1.554.666.666,4.794-1.642,7.236-4.084l2.131-2.175,1.021,1.243c.577.666,1.332,1.687,1.731,2.264.843,1.287,2.175.932,2.175-.622,0-1.11-2.22-3.374-3.329-3.374-1.065,0-1.11-.755-.266-2.708a19.685,19.685,0,0,0,1.2-3.684l.311-1.776,1.2,3.462a25.929,25.929,0,0,0,6.126,9.721c1.509,1.465,1.776,1.6,2.308.977a2.133,2.133,0,0,1,1.376-.666c1.509,0,.888-1.065-1.2-2.175a17.322,17.322,0,0,1-3.773-3.107c-1.642-1.82-4.395-6.88-4.395-7.99,0-.311,1.6-.488,4.883-.488,2.708,0,4.883-.178,4.883-.355a5.042,5.042,0,0,0-1.243-1.554c-1.287-1.2-1.287-1.2-2.086-.311-.666.755-1.376.888-4.306.888H294.2v-2.175c0-1.421.222-2.353.71-2.752.621-.488.533-.666-.8-1.332a12.619,12.619,0,0,0-1.776-.843C292.155-661,291.977-659.446,291.889-657.582Z"></path><path fill="#091898" transform="translate(-73.701 -35.51)" d="M150.417-619.674c-.666.178-.71.355-.311,1.065.266.488.932,2.219,1.554,3.818l1.11,2.885-1.11-.266c-.888-.222-1.11-.089-1.287.71-.133.666-.222.488-.266-.577a3.6,3.6,0,0,1,.488-2.086c.666-.666.488-.8-1.554-1.11-1.687-.266-1.687-.266-1.42,1.065.266,1.154.178,1.287-.843,1.287-.755,0-1.154.222-1.154.71,0,.622-.133.622-.666.178a2.265,2.265,0,0,1-.666-1.509c0-.843-.178-.977-1.332-.8-1.82.266-1.909.621-.666,2.308a7.465,7.465,0,0,1,1.11,1.82c0,.178-.71.755-1.554,1.287s-1.465,1.154-1.287,1.376c.311.533,1.953.533,1.953-.044,0-.222.4-.621.932-.888.755-.4,1.021-.355,1.509.311.533.71.355.977-1.909,2.575-2.086,1.465-2.353,1.82-1.6,1.909.577.089,2.042-.622,3.507-1.642a10.7,10.7,0,0,1,2.752-1.642c.488.488-.932,2.53-2.353,3.418-1.6.977-1.642,1.021-.666,1.42.755.355,1.065.266,1.6-.4.888-1.2.888-.044-.044,2.663-1.332,3.951.4,3.019,1.909-1.021a18.693,18.693,0,0,1,.888-2.219c.178-.266,1.864,1.909,1.864,2.4a8.811,8.811,0,0,1-2.175,2.219l-2.175,1.776,1.2.755c1.42.932,1.864.977,1.864.222a5.769,5.769,0,0,1,1.243-2.042l1.243-1.509.977,1.509.932,1.509-1.287.621c-1.776.843-1.465,1.509.666,1.554,3.24.133,3.729-1.332,1.554-4.572-1.42-2.175-1.42-2.131,1.021-4.75,1.953-2.131.621-2.441-1.509-.355-1.243,1.243-1.731,1.465-1.731.932,0-.4-.178-.755-.444-.755-.666,0-.533-1.021.266-2.175.533-.71.843-.888,1.2-.533.888.888,1.2.488,1.2-1.42V-609.6l2.486,2.353,2.53,2.308-.311,2.086a18,18,0,0,1-1.376,4.528c-1.953,4.306-.222,3.462,2-.932a14.618,14.618,0,0,0,1.332-3.462c0-1.2.444-1.287,3.107-.577,3.152.8,3.551.8,3.551-.222a1.553,1.553,0,0,1,.444-1.154c1.065-.666.355-1.154-1.287-.888a10.116,10.116,0,0,1-3.462-.178c-1.687-.444-1.776-.621-2.308-2.841a31.574,31.574,0,0,0-1.776-5.06l-1.287-2.708,1.065-.577c1.42-.755,1.332-1.065-.488-1.6-1.42-.444-1.554-.444-1.554.444,0,1.11-3.329,3.729-3.773,2.974a11.386,11.386,0,0,1-.533-2.663C153.036-620.073,152.725-620.295,150.417-619.674Zm7.369,6.57c.977,2,2.086,5.194,1.909,5.371-.311.355-5.194-4.395-5.194-5.016,0-.755,1.243-1.864,2.042-1.909C156.853-614.657,157.386-613.947,157.785-613.1ZM147.842-610c0,1.2-.533,1.42-1.287.533a.71.71,0,0,1,.044-1.11C147.442-611.417,147.842-611.2,147.842-610Zm5.593,1.864a2.872,2.872,0,0,1-1.332-.266c-.977-.4-1.154-.355-1.154.4,0,.843-.755,1.6-1.2,1.2-.488-.533.444-2.086,1.776-2.93l1.42-.888.311,1.154A2.881,2.881,0,0,1,153.435-608.132Zm-2.93,3.684c0,.488-.311.888-.666.888-.8,0-.843-.533-.133-1.243S150.505-605.469,150.505-604.448Z"></path><path fill="#091898" transform="translate(-224.809 -35.575)" d="M423.953-619.52c-.178.222.577,1.11,1.6,2l1.909,1.554-1.2,1.2-1.2,1.243-2-1.864a14.969,14.969,0,0,0-2.264-1.864c-.133,0-.222.444-.222.977,0,.666.533,1.376,1.554,2.042.843.533,1.554,1.154,1.554,1.376,0,.755-5.016,2.353-8.168,2.663-1.776.133-3.152.488-3.24.8-.266.755,2.53,1.154,5.549.8l2.53-.311-.888,1.021c-.444.577-1.953,2.219-3.285,3.6a11.736,11.736,0,0,0-2.219,2.708,3.868,3.868,0,0,0,1.11.488c.8.222,1.6-.4,4.572-3.551,2.841-3.107,3.64-3.729,3.862-3.107a4.654,4.654,0,0,1,0,2.086c-.311,1.509.621,2.22,1.731,1.287.843-.71.843-2.353-.044-4.084-.577-1.154-.621-1.465-.089-1.953.533-.533.888-.355,2.353,1.154l1.731,1.776-4.395,4.439-4.395,4.395,1.287.488a1.6,1.6,0,0,0,2.086-.311c.8-.71.888-.666,2.22.666,1.376,1.332,1.376,1.42.621,2.264-.8.888-.8.932.311,1.332,1.11.444,1.465.133,6.126-4.617,2.752-2.8,5.238-5.1,5.593-5.1s.577-.533.577-1.332c0-1.021-.222-1.332-.843-1.332-.932,0-4.483-3.64-4.483-4.661s-.4-.8-2.22,1.2l-1.642,1.864-.311-1.2c-.178-.755-.577-1.2-1.11-1.2a2,2,0,0,1-1.376-.71c-.488-.577-.4-.888.8-2.042l1.376-1.421,1.642,1.2c1.909,1.332,2.4,1.2,2.4-.533,0-1.065-.266-1.332-1.687-1.731a27.172,27.172,0,0,1-4.483-2.308C424.263-620.1,424.308-620.1,423.953-619.52Zm8.612,18.022-4.217,4.217-1.554-1.554-1.554-1.554,4.217-4.217,4.217-4.217,1.554,1.554,1.554,1.554Z"></path><path fill="#091898" transform="translate(-59.128 -49.598)" d="M189.467-594.354a86.717,86.717,0,0,0-63.478,41.815,84.972,84.972,0,0,0-3.152,80.035,85.411,85.411,0,0,0,93.885,46.831,85.844,85.844,0,0,0,67.65-71.867,105.6,105.6,0,0,0,.044-23.971,84.927,84.927,0,0,0-25.347-49.317,84.892,84.892,0,0,0-44.79-22.905C209.664-594.576,194.261-594.932,189.467-594.354Zm17.756,4.483a81.6,81.6,0,0,1,43.058,17.445,97.209,97.209,0,0,1,15.359,16.291,85.3,85.3,0,0,1,13.672,32.627,80.608,80.608,0,0,1-19.265,67.784,83.889,83.889,0,0,1-31.872,21.884,88.925,88.925,0,0,1-19.088,4.617c-6.437.755-18.6.355-24.5-.843-35.068-7.147-60.726-34.891-65.12-70.314a106.091,106.091,0,0,1,.666-22.861c5.46-29.431,25.569-52.957,53.623-62.59A77.783,77.783,0,0,1,207.223-589.871Z"></path><path fill="#e92526" transform="translate(-143.06 -106.675)" d="M311.574-489.337c-4.395,3.773-21.218,13.361-27.389,15.537-2.4.843-3.906-.133-5.9-3.951a11.372,11.372,0,0,0-2.575-3.64c-2.086-1.11-7.813,2.619-9.766,6.392-1.332,2.619-.843,4.039,2.53,7.635a48.723,48.723,0,0,1,4.794,6.215,20.609,20.609,0,0,0,8.789,8.434c5.238,2.752,8.079,2.219,10.432-1.864,1.376-2.308,1.509-4.173.488-8.656-.843-3.862-.577-6.3.932-8.3.8-1.11,8.922-6.925,13.628-9.766,3.24-2,5.327-1.909,7.369.266a31.094,31.094,0,0,1,2.619,3.24c.577.843,2.974,3.551,5.282,5.993,3.862,4,4.439,4.883,5.993,8.567,2.974,7.236,5.815,9.81,9.278,8.39,2.086-.888,3.684-3.684,4.794-8.612a41.1,41.1,0,0,1,2.086-6.259l1.2-2.308-1.509-2.885c-1.642-3.24-4.661-6.215-9.544-9.544-6.348-4.261-14.294-7.546-18.333-7.546C314.815-492,314.415-491.778,311.574-489.337Z"></path><path fill="#e92526" transform="translate(-85.162 -133.542)" d="M171.066-441.3c-6.081,7.724-10.3,17.135-9.9,22.284.311,4.261,4.483,11.1,8.3,13.583,5.194,3.462,8.035.755,8.035-7.591,0-4.261.888-7.458,3.773-13.628,2.4-5.1,3.019-7.5,2.264-8.567-.533-.666-.71-.621-2.4.621a4.346,4.346,0,0,1-2.8,1.11c-1.243-.355-2.486-2.974-3.2-6.836C174.4-444.536,173.774-444.714,171.066-441.3Z"></path><path fill="#e92526" transform="translate(-118.894 -143.385)" d="M226.638-424.794c-2.486,2.663-4.883,9.943-4.839,15a25.745,25.745,0,0,0,3.107,12.651c1.731,3.6,2.663,4.839,6.3,8.478,6.215,6.259,12.651,10.077,21.84,13.051a57.058,57.058,0,0,0,19.221,2.885c11.541,0,22.905-2.841,31.384-7.768,3.374-2,7.946-5.194,8.745-6.17.932-1.11-.311-2.575-3.951-4.395-9.9-5.149-13.805-9.322-17.712-19.088-.488-1.287-1.42-1.554-2.131-.666-.666.843-2.175,5.771-3.285,10.787-1.731,7.768-2.974,8.612-14.16,9.144-6.437.311-7.857.266-11.675-.533-2.4-.488-5.282-1.2-6.392-1.554-5.282-1.776-12.074-7.724-13.051-11.408-2.53-9.5-5.638-17-8.257-19.887C229.878-426.392,228.325-426.525,226.638-424.794Z"></path><path fill="#091898" transform="translate(-269.584 -89.643)" d="M509.832-521.728a1.671,1.671,0,0,0-.133,1.42,11.207,11.207,0,0,1,1.065,2.486l.71,2.086-1.642.266c-.888.133-2.219.355-2.885.444-.71.133-1.2.044-1.11-.133s.621-1.243,1.243-2.4c1.11-2.219.888-3.462-.355-1.82-3.64,4.661-3.063,4.261-5.815,4a24.955,24.955,0,0,1-5.06-1.021c-1.776-.533-2.663-.666-3.019-.311-.533.533,2.885,2.131,6.3,2.93a6.25,6.25,0,0,1,2.175.8,8.873,8.873,0,0,1-2,1.909,8.041,8.041,0,0,0-2,2.086c0,.222.621.4,1.376.4,1.021,0,1.909-.533,3.64-2.175l2.353-2.219,4.261-.133c3.951-.133,4.35-.222,4.75-1.11.355-.8.311-1.065-.266-1.376a10.241,10.241,0,0,1-1.687-3.6,24.175,24.175,0,0,0-1.243-3.418C510.409-522.7,510.1-522.3,509.832-521.728Z"></path><path fill="#091898" transform="translate(-33.366 -92.902)" d="M74.3-516.338a1.52,1.52,0,0,0-.888,1.687c.089,1.154-.843,4-1.332,4a2.885,2.885,0,0,1-1.065-.755c-.755-.666-.888-.666-1.909.311L68-510.079l1.465.888c.755.488,1.465.932,1.554.977a16.4,16.4,0,0,1-1.154,3.285c-.8,1.909-1.11,3.152-.843,3.152.932,0,1.465-.621,2.042-2.486.8-2.441,1.154-3.019,1.776-2.663.8.488.577,1.42-.666,2.885-.71.888-.932,1.376-.533,1.376.311,0,0,.488-.755,1.065l-1.332,1.065,2.086,2.219A29.147,29.147,0,0,1,75.1-493.61c1.731,3.063,2.974,3.462,1.953.621a4.358,4.358,0,0,1-.444-2,27.254,27.254,0,0,1,4.306,1.642c2.308,1.021,4.439,1.953,4.75,2.086.843.355.666-1.953-.178-2.441-.666-.355-.666-.444,0-.666,1.687-.666.266-3.019-2.53-4.217-1.6-.666-1.642-.666-1.642.133a1.069,1.069,0,0,0,.666.932c.533.222,2.663,3.285,2.264,3.285a51.635,51.635,0,0,1-5.549-2.486c-.133-.089.089-.444.488-.755a10.488,10.488,0,0,0,1.642-3.2l.977-2.708h2.53c2.175,0,2.53-.089,2.53-.8,0-1.376-1.243-1.82-2.885-1.021-1.731.888-1.731.932.577-4.483a26.32,26.32,0,0,0,1.465-3.64,14.484,14.484,0,0,0-1.554.488c-1.154.4-1.376.71-1.2,1.465.133.577-.621,2.93-1.909,5.993-1.82,4.261-2.175,4.883-2.441,3.906-.311-1.243,2-7.236,3.107-8.123,1.287-1.021.71-2.219-1.376-3.018a5.959,5.959,0,0,1-2.353-1.42c-.311-.577-.577-.577-1.509-.133-.71.311-1.065.755-.932,1.154.311.755-1.11,4.572-1.687,4.572-1.021,0-.8-1.509.621-4.839C76.39-516.871,76.3-517.27,74.3-516.338Zm4.75,5.282c1.509.533,1.465.488,1.11,1.465-.222.621-.4.621-1.642-.044-1.776-.888-1.776-.888-1.42-1.42C77.455-511.633,77.322-511.633,79.053-511.056Zm-.355,3.773c.178.089.266.488.133.843-.222.488-.488.533-1.42.133-1.642-.71-2-1.065-1.687-1.642C75.99-508.348,77.5-508.037,78.7-507.283Zm-1.11,3.329c.488.843-.311,1.243-1.6.755-1.465-.488-1.953-1.021-1.554-1.642C74.7-505.329,77.144-504.619,77.588-503.953Zm-1.82,3.019a14.484,14.484,0,0,1,2.885,1.554,7.043,7.043,0,0,1-.444,1.332l-.4,1.11-1.776-.755a5.848,5.848,0,0,1-2.708-2.353C71.862-502.666,71.906-502.666,75.768-500.935Z"></path><path fill="#091898" transform="translate(-55.338 -100.587)" d="M108.7-502.083c-1.953,1.2-1.509,1.687,1.332,1.42,2.708-.222,3.418-.666,2.575-1.642C111.856-503.237,110.436-503.149,108.7-502.083Z"></path><path fill="#091898" transform="translate(-282.48 -101.221)" d="M521.619-499.718c-6.081,2.042-6.126,2.086-5.238,2.885s1.021.8,5.46-.621c2.53-.8,4.839-1.465,5.194-1.509.533-.044,1.154,1.376,2.441,5.371.311.932,0,1.065-4.927,2.619a54.411,54.411,0,0,0-5.593,1.909c-.178.178.044.666.488,1.065.755.71,1.11.666,5.46-.8a21.532,21.532,0,0,1,5.549-1.376c.71.178,1.065-.044,1.465-.888.444-.977.355-1.243-.355-1.864-.888-.8-2.708-6.037-2.708-7.9,0-.577-.266-1.021-.533-.977C528.011-501.76,524.992-500.827,521.619-499.718Z"></path><path fill="#091898" transform="translate(-269.152 -103.319)" d="M492-497.665a25.442,25.442,0,0,0,4,4.883,10.834,10.834,0,0,0,5.371,2.308c1.864,0,1.376.444-1.731,1.554-2.974,1.021-3.24,1.687-2.086,5.149.888,2.663,2.486,3.773,3.507,2.4a4.846,4.846,0,0,1,2.086-1.332c1.465-.488,2.219-1.953.843-1.6a22.658,22.658,0,0,1-2.53.355c-1.731.222-1.864.178-2.175-.932a2.24,2.24,0,0,1,.089-1.6c.71-.621,5.1-1.864,5.948-1.642.621.178.888-.089,1.065-1.243.266-1.287.488-1.465,2.708-1.953a8.389,8.389,0,0,1,3.285-.266c.666.222.888-.044,1.11-1.376a4.9,4.9,0,0,0,.178-1.731,19.331,19.331,0,0,0-3.906.932c-4.661,1.42-8.922,1.6-11.186.488a16.421,16.421,0,0,1-3.551-2.8C493.243-497.887,492-498.508,492-497.665Z"></path><path fill="#091898" transform="translate(-50.312 -104.696)" d="M103.59-495.089c0,.266.488.755,1.11,1.021s1.11.755,1.11,1.065c0,.977-1.42,4.35-1.864,4.35a5.959,5.959,0,0,1-3.152-1.864c-.133-.4-.533-.266-1.332.488-.666.577-1.065,1.2-.977,1.376.4.666,5.5,2.308,6.348,2.042.533-.178,1.376-1.509,2.308-3.684,1.776-4.217,1.554-5.06-1.465-5.238C104.255-495.622,103.59-495.489,103.59-495.089Z"></path><path fill="#091898" transform="translate(-29.473 -109.622)" d="M62.2-485.857l-1.2.888,1.287,1.509a24.446,24.446,0,0,1,2.486,3.507c.666,1.11,1.465,2,1.82,2,.71,0,.178-1.687-1.909-6.037L63.4-486.7Z"></path><path fill="#091898" transform="translate(-29.063 -149.572)" d="M69.468-414.524c0,.266.355.488.8.488a2.754,2.754,0,0,1,2.308,2.575c0,.932-.133.977-5.771.977-4.839,0-5.771-.089-5.771-.666,0-.355-.222-.666-.488-.666s-.355.311-.222.71a17.882,17.882,0,0,1,.311,3.2c0,1.953.089,2.308.4,1.509.4-.932.621-.977,5.993-.977h5.593l-.133,1.2c-.089.888-.577,1.465-1.687,2l-1.554.8h4.261l-.133-5.682-.133-5.638-1.864-.133C70.222-414.923,69.468-414.79,69.468-414.524Z"></path><path fill="#091898" transform="translate(-286.996 -149.495)" d="M524.093-412.914c0,1.731.089,1.953.4,1.11.222-.533.577-.977.755-.977.622,0,5.016,2.663,5.016,3.019s-4.617,2.752-5.282,2.752c-.222,0-.533-.355-.621-.8-.133-.4-.222.755-.266,2.575,0,2.486.089,3.152.444,2.53a17.091,17.091,0,0,1,3.951-2.53c4.261-2.131,7.324-2.441,7.99-.8.266.755.4.044.4-2.53s-.133-3.285-.4-2.575c-.355.888-.755,1.021-2.708,1.021-2,0-2.8-.311-5.593-2.042a13.366,13.366,0,0,1-3.24-2.441.41.41,0,0,0-.444-.4C524.271-415,524.049-414.068,524.093-412.914Z"></path><path fill="#091898" transform="translate(-29.546 -165.491)" d="M73.236-385.776c-.4.621-1.554.932-4.883,1.376-2.441.311-4.705.621-5.1.755a1.784,1.784,0,0,1-1.509-.533c-.71-.71-.71-.621-.444,1.864.355,2.8,1.065,4.794,1.11,2.974,0-.8.311-1.021,1.687-1.243.888-.133,2.086-.355,2.619-.488,1.065-.178,1.332.311,1.554,2.93l.133,1.554-2.4.311c-2,.311-2.53.222-3.285-.4-.843-.755-.843-.755-.621.089.133.488.4,2,.577,3.329.222,1.909.355,2.219.666,1.509.355-1.021.666-1.11,6.925-2,4.35-.577,5.016-.4,5.016,1.287,0,1.864-5.327,6.925-7.679,7.369a2.909,2.909,0,0,1-2.353-.222c-.843-.71-.8.488.222,3.374.621,1.776.843,2,1.021,1.243.178-.666.888-1.154,2.486-1.6,2.086-.621,2.441-.621,5.859.355,2.042.577,3.862,1.287,4.039,1.642,1.021,1.509.222,2.308-4.661,4.483-4.661,2.086-4.839,2.131-5.726,1.332-1.065-.932-1.11-1.154,1.642,5.06l2.131,4.883,2-.488c1.864-.4,1.953-.488.977-.843l-2.086-.8c-.888-.355-2.752-2.8-2.752-3.6,0-.4,4.173-2.575,4.883-2.575.755,0,.488,2.308-.311,3.24-.755.843-.755.843.311.533a22.593,22.593,0,0,0,3.107-1.376l2-1.021-1.554-.044c-1.509,0-2.663-.621-2.663-1.465,0-.533,3.951-2.175,4.661-1.909.311.089.8.932,1.11,1.82.488,1.465.444,1.776-.444,2.974-.533.71-.888,1.376-.8,1.42.355.311,3.019-1.11,3.019-1.642a42.6,42.6,0,0,0-2.042-4.972c-1.11-2.441-2.353-5.46-2.752-6.659-.577-1.776-.755-2-.888-1.154-.178,1.11-.533,1.11-4.705,0l-1.776-.488,2.353-2.264c2.264-2.131,2.4-2.219,2.974-1.42.843,1.11.755.533-.222-2.752a37.333,37.333,0,0,1-1.154-5.1,26.862,26.862,0,0,0-.533-3.24c-.266-.843-.266-.843-.621.044-.222.71-.843,1.021-2.441,1.243a5.588,5.588,0,0,1-2.441-.044,8.746,8.746,0,0,1-.533-2.22c-.178-1.6-.089-1.864.755-2.086,1.864-.488,3.951-.266,4.528.488.488.71.533.577.311-.977-.133-.977-.355-2.441-.533-3.24C73.768-386.442,73.68-386.486,73.236-385.776Z"></path><path fill="#091898" transform="translate(-284.884 -166.264)" d="M521.715-383.937c-.311,1.509-1.509,10.3-1.421,10.387a14.057,14.057,0,0,0,2.086.355c1.864.266,1.953.266,1.11-.355-1.776-1.332-2-1.642-2-2.708,0-1.287.666-1.376,5.327-.666,5.682.888,5.815.888,6.17,1.909.311.8.444.577.666-1.243.178-1.243.444-2.841.577-3.551l.266-1.332-.843,1.021-.843,1.021-5.46-.755c-3.24-.444-5.416-.977-5.416-1.243,0-.977,1.332-2.4,2.53-2.708l1.243-.355-1.11-.311C522.647-385.091,521.981-384.958,521.715-383.937Z"></path><path fill="#091898" transform="translate(-277.858 -182.249)" d="M511.581-351.306c-.71,2.619-1.909,6.392-2.708,8.345a13.307,13.307,0,0,0-1.2,3.773c.133.133.355-.044.444-.355.311-.843,1.332-.621,6.126,1.2q4.461,1.731,4.927,2.663c.444.888.577.71,1.465-1.642,1.065-2.974,1.154-3.6.4-2.841-.8.8-1.154.71-6.3-1.287-3.951-1.554-4.705-1.953-4.705-2.8a3.659,3.659,0,0,1,.666-1.776c.621-.8.755-.8,3.64-.089,6.836,1.731,7.679,2.042,7.679,3.063,0,1.864.8,0,2.086-4.927l1.332-5.016-1.687-.843c-2.308-1.2-2.4-1.11-1.11.577a5.006,5.006,0,0,1,1.154,3.24c0,2.841-.4,3.107-3.329,2.4a8.359,8.359,0,0,1-2.663-.888c-.444-.755,1.243-2.219,2.575-2.264,1.287-.044,1.154-.133-1.021-.843a14.2,14.2,0,0,0-3.329-.843c-.843,0-.843.044.133.71,1.154.8,1.465,3.507.355,3.107-.355-.133-1.509-.488-2.53-.755-1.776-.488-1.82-.533-1.6-2.086.355-2.086,1.465-3.24,3.152-3.24,1.6-.044.888-.621-1.332-1.065l-1.376-.311Z"></path><path fill="#091898" transform="translate(-273.04 -205.105)" d="M502.1-314.2a2.718,2.718,0,0,1-.932,1.687c-2.264,2.042-2.885,5.948-1.287,8.345,2.8,4.306,8.967,4.395,11.541.178.932-1.554,1.2-4.972.444-6.126-.266-.444-.355.178-.311,1.953.089,2.308-.044,2.663-1.154,3.64a4.553,4.553,0,0,1-2.441,1.065c-2.974,0-8.079-3.684-8.079-5.771,0-1.509,1.864-3.152,3.906-3.418a3.894,3.894,0,0,0,1.864-.533c0-.311-2.841-1.82-3.329-1.82C502.191-315,502.1-314.645,502.1-314.2Z"></path><path fill="#091898" transform="translate(-48.455 -217.526)" d="M105.372-291.969c.133.888-.577,1.554-4.261,4.173-3.729,2.619-4.528,3.019-5.238,2.575-1.154-.71-1.021-.355.843,2.486,1.509,2.264,1.687,2.4,1.909,1.42a6.041,6.041,0,0,1,2.175-2.4l1.864-1.332.888,1.11c1.864,2.353,1.864,2.486-.178,4a4.269,4.269,0,0,1-2.841,1.2c-.977-.178-.977-.178-.222,1.11a28.006,28.006,0,0,0,1.731,2.486c.932,1.154.977,1.154,1.021.222,0-.71,1.11-1.731,4.217-3.906,2.353-1.6,4.572-2.885,5.016-2.8a2.107,2.107,0,0,1,1.154,1.287c.355,1.065.133,1.42-3.019,4.395-1.864,1.776-3.507,3.729-3.64,4.306-.4,1.465.533,3.462,2.353,5.016,2.575,2.264,4,1.864,8.7-2.575,2-1.864,2.8-2.353,3.64-2.22l1.065.222L121.4-272.7q-2-2.6-1.6-.4c.178.843-.4,1.554-3.152,4-3.729,3.2-5.282,3.684-6.925,2.042-1.687-1.687-1.2-2.974,2.575-6.525,2.8-2.663,3.6-3.2,4.483-2.974,1.021.222.977.089-.577-1.687-.888-1.065-2.663-3.24-3.906-4.927-2.22-2.93-2.93-3.6-2.4-2.308.266.71-.843,1.953-2.619,2.885-1.243.666-1.776.355-2.974-1.687l-.8-1.332,1.776-1.2c1.287-.888,2.042-1.154,2.885-.932,1.11.266,1.11.266-.533-2.042C105.417-293.035,105.239-293.168,105.372-291.969Z"></path><path fill="#091898" transform="translate(-263.111 -222.089)" d="M485.826-284.078a5.806,5.806,0,0,0-3.906,3.418,6.557,6.557,0,0,0,2.308,8.7,6.621,6.621,0,0,0,9.588-2.353,6.472,6.472,0,0,0-2.042-8.834A6.272,6.272,0,0,0,485.826-284.078Zm2.131,2.708c4.839,2.353,6.792,5.638,4.661,7.768a3.161,3.161,0,0,1-1.909.888c-2.175,0-7.458-3.773-8.079-5.815a2.847,2.847,0,0,1,1.2-3.418C485.293-282.613,485.471-282.613,487.957-281.37Z"></path><path fill="#091898" transform="translate(-253.273 -234.489)" d="M467.243-262.089a6.254,6.254,0,0,1-1.776,2.175c-2.175,2-2.53,3.329-1.376,5.238,1.243,2,2.575,2.219,6.3.977l3.152-1.021.843,1.021c1.11,1.332,1.065,1.642-.266,2.93a3.491,3.491,0,0,1-4.306.621c-1.465-.8-1.421-.089.178,1.332,1.6,1.509,2.131,1.687,2.131.8,0-.355.488-.843,1.11-1.11a6.175,6.175,0,0,0,2.885-4.528,4.113,4.113,0,0,0-2.53-3.6c-.843-.311-1.909-.178-4.217.577s-3.24.888-3.818.533a1.78,1.78,0,0,1-.222-2.93c.666-.71,1.2-.843,2.885-.71,1.2.133,2.131.089,2.086-.044C470.262-260.4,467.243-262.577,467.243-262.089Z"></path><path fill="#091898" transform="translate(-70.951 -247.408)" d="M142.961-235.987a32.532,32.532,0,0,1-6.57,2.885c-1.243,0-1.065.4.666,1.687,1.243.843,1.287.843,1.065.044-.133-.577.133-1.11.977-1.642,1.11-.755,1.2-.71,2.575.533.755.71,1.465,1.332,1.554,1.376a3.14,3.14,0,0,1-.133,1.465c-.266,1.2-.488,1.376-1.376,1.2-1.332-.222-1.11.089,1.642,2.4,1.731,1.465,2.22,1.687,2,.977-.178-.533.488-3.374,1.731-7.236,1.11-3.507,2-6.437,2-6.525C149.087-239.183,148.066-238.694,142.961-235.987Zm1.953.8c-.133.577-.488,1.6-.71,2.219l-.444,1.154-1.332-.932c-1.554-1.11-1.42-1.465.8-2.663C145.314-236.475,145.225-236.475,144.915-235.188Z"></path><path fill="#091898" transform="translate(-236.487 -250.1)" d="M435.5-232.14c-2.575,2.086-2.8,2.486-1.332,2.264.8-.133,1.6.621,4.217,3.906,2.131,2.663,3.2,4.35,3.063,4.883-.133.444-.133.8,0,.8.178,0,4.572-3.507,7.813-6.259.4-.311-1.243-3.951-1.731-3.951-.178,0-.178.621,0,1.376.444,2.308-1.332,5.282-3.2,5.282-.577,0-6.747-7.768-6.747-8.523a1.842,1.842,0,0,1,.533-1.154C439.359-234.759,437.628-233.827,435.5-232.14Z"></path><path fill="#091898" transform="translate(-87.76 -255.194)" d="M172.554-224.294c.488.577.089,1.465-2.264,5.327-2.4,3.906-3.019,4.661-3.951,4.661s-.71.266,1.332,1.554c2.752,1.731,3.2,1.864,2.8.843-.266-.71,1.554-4.617,2.131-4.617.355,0,.621,1.243,1.11,4.617.266,2.042.266,2.131-.666,1.82-1.6-.488-1.021.044,1.776,1.731,2.042,1.243,2.619,1.42,2.441.8a75.672,75.672,0,0,1-1.154-8.745c0-.932.311-1.11,2.486-1.554a12.636,12.636,0,0,1,3.906-.266c1.642.355,1.243-.089-1.731-1.731-1.2-.71-1.953-.977-1.642-.666,1.021,1.154.533,1.6-2.619,2.353a15.212,15.212,0,0,1-3.329.621,10.091,10.091,0,0,1,1.243-2.264c1.021-1.554,1.6-2.042,2.219-1.909,1.332.355.932-.044-1.642-1.687C172.377-225.093,171.667-225.359,172.554-224.294Z"></path><path fill="#091898" transform="translate(-228.557 -259.602)" d="M419-216.29c0,.4.4,3.152.932,6.126a41.247,41.247,0,0,1,.71,6.348c-.222,1.243,0,1.243,1.687.133,1.2-.8,1.243-.888.355-.888-.71,0-1.021-.355-1.243-1.376a3.14,3.14,0,0,1-.133-1.465c.044-.044.888-.577,1.82-1.11,1.554-.977,1.731-.977,2.752-.311,1.154.755,1.509,2.042.577,2.042-.266,0-.4.133-.222.266a7.331,7.331,0,0,0,2.8-1.2c2.353-1.332,2.486-1.465,1.509-1.82a65.45,65.45,0,0,1-5.993-3.906C421.8-215.4,419.4-217,419.266-217S419-216.689,419-216.29Zm4.617,6.437a4.678,4.678,0,0,1-1.554,1.065c-1.2.621-1.287.621-1.287-.089a19.454,19.454,0,0,0-.311-2.575l-.266-1.731,1.82,1.465C423.04-210.919,423.794-210.075,423.617-209.853Z"></path><path fill="#091898" transform="translate(-110.785 -264.607)" d="M207.254-200.9a61.731,61.731,0,0,0,.089,7.1,35.15,35.15,0,0,0,3.462-3.374l3.2-3.418.222,4.839.222,4.794,4.128-4.972c2.308-2.752,4.439-4.972,4.794-4.972.888,0,.755-.755-.133-1.021a9.5,9.5,0,0,1-1.687-.577c-.8-.311-.8-.266-.266.4.71.888.311,1.642-2.575,4.75l-1.864,2,.222-1.509a29.785,29.785,0,0,0,.266-3.862c0-2.175.089-2.4,1.021-2.441.71,0,.355-.311-1.243-1.065-2.486-1.2-3.862-1.465-2.974-.577.977.977.533,2.353-1.687,4.794l-2.175,2.441-.044-2.042c0-3.6.488-6.126,1.287-6.3.444-.089-.089-.533-1.42-1.11a20.652,20.652,0,0,0-2.441-.977C207.476-208,207.3-204.8,207.254-200.9Z"></path><path fill="#091898" transform="translate(-207.598 -266.521)" d="M384.5-203.112c-2.575,1.11-3.64,1.731-3.018,1.82.666.089,1.376,1.154,2.752,4.128,2.264,4.972,2.53,5.993,1.776,6.925-.533.621-.488.666.4.355a27.779,27.779,0,0,0,3.107-1.243c1.6-.71,1.864-.977,1.154-1.11-.577-.089-1.287-.888-1.909-2.175a9.285,9.285,0,0,1-.843-2.175,18.558,18.558,0,0,1,3.2,1.642c2.841,1.642,3.2,1.731,4.439,1.243a10.428,10.428,0,0,0,1.731-.843c.178-.133-1.2-1.11-3.019-2.175l-3.329-1.864.888-.932a3.29,3.29,0,0,0,.311-4.039C391.072-205.021,388.808-204.888,384.5-203.112Zm4.35.488a5.214,5.214,0,0,1,1.021,2.175c.222,1.154.089,1.509-.932,2.175-1.11.755-1.243.755-1.731.044a10.6,10.6,0,0,1-1.154-2.53c-.533-1.6-.533-1.909.044-2.264A1.982,1.982,0,0,1,388.852-202.624Z"></path><path fill="#091898" transform="translate(-191.926 -272.361)" d="M356.845-193.41a5.772,5.772,0,0,0-3.684,5.327c-.355,4.439,2.308,7.546,6.525,7.546a6.4,6.4,0,0,0,6.7-6.659A6.652,6.652,0,0,0,356.845-193.41Zm3.285.488c2.131,1.065,4.128,7.147,3.2,9.633s-3.729,2.708-5.327.4c-1.465-2-2.441-6.437-1.82-8.212a3.646,3.646,0,0,1,2.575-2.441A5.328,5.328,0,0,1,360.13-192.922Z"></path><path fill="#091898" transform="translate(-126.299 -273.515)" d="M240.213-187.107a48.732,48.732,0,0,1-4.35,5.549c-1.2.8-1.065.932,1.2,1.332,1.642.311,1.687.266.932-.355-.843-.621-.843-.71-.133-1.82.888-1.332.666-1.287,3.24-.666,1.82.488,1.953.621,1.953,1.953,0,1.2-.178,1.509-.977,1.642s-.666.311.8.71c.977.266,2.486.666,3.329.843,1.376.266,1.465.222.932-.444-.488-.533-2.752-11.63-2.752-13.273C244.386-192.655,243.365-191.5,240.213-187.107Zm2.353,2.4c.044,1.11-.089,1.243-.932.977A10.276,10.276,0,0,0,240.08-184c-.888,0-.666-.8.621-2.53,1.2-1.6,1.243-1.6,1.509-.533A12.463,12.463,0,0,1,242.566-184.71Z"></path><path fill="#091898" transform="translate(-144.472 -275.563)" d="M269.4-187.368c.71.843.8,1.376.488,5.282-.355,4.972-.755,6.348-1.864,6.392-.977.089,1.465.71,2.974.8l1.065.044-.977-.71c-.977-.666-1.021-.888-.71-3.862.577-5.9.488-5.9,4.173-.311,1.82,2.752,3.462,5.238,3.64,5.5.577.932.843-.133,1.465-5.771.4-4.217.755-5.815,1.287-6.215.621-.444.533-.533-.666-.8-2.4-.488-2.841-.355-1.776.488.888.755.932,1.065.577,4.128l-.311,3.329-2.841-4.217c-1.554-2.308-2.841-4.261-2.885-4.306-.044,0-1.021-.178-2.264-.355l-2.22-.355Z"></path><path fill="#091898" transform="translate(-168.373 -275.729)" d="M322.993-187.467a26.451,26.451,0,0,0-1.687,4.75c-1.465,4.705-1.243,4.75-4.217-.71A23.251,23.251,0,0,0,315-186.757a9.5,9.5,0,0,0-2.575.133c-1.731.222-2,.355-1.287.577,1.021.355,1.154.888,1.776,7.768.266,2.885.222,3.374-.488,3.906-.755.488-.577.577,1.376.577,2.131,0,2.175-.044,1.2-.8-.843-.621-1.065-1.465-1.465-5.149a24.37,24.37,0,0,1-.311-4.528,38.425,38.425,0,0,1,2.974,4.927c1.554,2.841,2.974,4.972,3.152,4.794a41.167,41.167,0,0,0,1.731-5.238c.8-2.708,1.6-5.149,1.776-5.5.178-.311.577,1.642.888,4.395a43.13,43.13,0,0,1,.355,5.06,4.863,4.863,0,0,1-1.021.666c-.755.488-.621.533.888.311a29.676,29.676,0,0,1,3.285-.266c1.554,0,1.554,0,.621-.843-.71-.666-.977-1.642-1.2-4.794-.178-2.131-.4-4.306-.533-4.839a1.882,1.882,0,0,1,.488-1.687c.666-.666.577-.71-1.243-.71A4.265,4.265,0,0,0,322.993-187.467Z"></path><path fill="#091898" transform="translate(0 -324.666)" d="M26.111-94.141l-.133,5.9-8.39.222c-8.212.222-8.345.222-7.413,1.065.843.755,1.6.8,8.257.755l7.369-.089L25.49-84.6a44.627,44.627,0,0,1-4.572,12.429,37.157,37.157,0,0,1-9.81,9.721A14.93,14.93,0,0,0,8-60c0,1.021,1.287.8,4.084-.666A32,32,0,0,0,23.892-70.7c.311-.4,4.084,4.084,5.016,5.859,1.11,2.22,2.086,2.575,3.152,1.287,1.864-2.308.266-4.927-4.35-7.191-1.6-.8-2.8-1.642-2.663-1.909,2.131-4.883,2.974-7.28,3.507-9.943a28.575,28.575,0,0,1,.888-3.462c.133-.133.444.843.755,2.131A45.3,45.3,0,0,0,41.559-63.2c2.575,2.752,3.063,3.152,3.507,2.53a9.792,9.792,0,0,1,2.575-1.554,5.384,5.384,0,0,0,2.086-1.243,11.8,11.8,0,0,0-2.93-1.864,27.015,27.015,0,0,1-9.855-9.1,47.9,47.9,0,0,1-5.149-10.787l-.311-1.021,8.612-.089,8.656-.133-1.909-2.219L44.888-90.9l-1.465,1.42-1.509,1.465H29.751v-3.729c0-3.063.133-3.906.932-4.883l.932-1.154L29.13-98.89A28.49,28.49,0,0,0,26.422-100,44.861,44.861,0,0,0,26.111-94.141Z"></path><path fill="#091898" transform="translate(-55.575 -325.833)" d="M124.523-96.791a71.564,71.564,0,0,1-12.7,3.507c-1.021.178-1.642.488-1.509.8.133.4,1.42.488,4.483.4l4.261-.178v6.747h-9.9l.932,1.021c.888.977,1.243,1.021,4.972.843l4.04-.178-1.154,2.575a45.309,45.309,0,0,1-7.635,12.163c-2.4,2.575-2.708,3.107-2.131,3.551,1.021.843,5.06-2.752,9.943-8.878l.888-1.11.044,8.745a83.847,83.847,0,0,0,.222,8.789c.089,0,.888-.355,1.776-.755l1.554-.755v-9.544l.044-9.588,2.841,2.974a16.668,16.668,0,0,0,3.329,3.019c.577,0,1.332-1.509,1.332-2.619,0-1.465-1.82-3.107-4.661-4.261-2.486-.977-2.663-1.154-2.8-2.619l-.133-1.6h8.922l.089,10.609.133,10.609,1.687-.666c1.554-.621,1.642-.8,1.642-2.619V-67.76h7.99v1.776a4.832,4.832,0,0,0,.178,1.776c.044,0,.755-.222,1.554-.488l1.376-.488V-77.437c0-10.876.089-12.34.755-13.051.71-.8.666-.888-.621-2.22L144.9-94.083l-1.2.977c-1.065.8-1.82.932-5.06.932-3.374,0-4.04-.133-5.5-1.11l-1.642-1.154v9.988l-1.687-1.642-1.687-1.642-1.065,1.11a3.347,3.347,0,0,1-2.752,1.11h-1.687v-7.458l2.8-.488a34.734,34.734,0,0,1,3.773-.488c.533,0,.977-.133.977-.266A16.706,16.706,0,0,0,127.1-97.9,25.7,25.7,0,0,0,124.523-96.791ZM142.945-80.1l-.133,10.343-3.862.133-3.906.133V-90.4h7.99Z"></path><path fill="#091898" transform="translate(-133.464 -326.098)" d="M264.646-96.792c-.755.8-1.332.888-7.413.888-5.06,0-6.925-.178-7.9-.666L248-97.281v24.1l1.465-.932,1.42-.888.222-9.455.222-9.455,6.126-.133,6.081-.133.044,9.455c.044,5.194.089,9.721.133,9.988.044.755.488.755,2.042.133l1.332-.533v-9.144c0-8.123.089-9.144.8-9.677s.621-.71-.843-2.175C265.49-97.725,265.49-97.725,264.646-96.792Z"></path><path fill="#091898" transform="translate(-183.545 -328.559)" d="M338.3-92.023c-.355,1.465-.311,7.458.089,7.458a5.678,5.678,0,0,0,1.11-2.175c1.11-3.152,2.308-3.773,7.191-3.818h4l.133,12.651c.222,19.132-.089,20.863-3.773,20.863-.8,0-1.465.178-1.465.444s2.885.444,7.768.444,7.768-.178,7.768-.444-.666-.444-1.509-.444a4.782,4.782,0,0,1-2.53-.843l-1.065-.843-.133-16.025-.133-16.025h3.063a34.913,34.913,0,0,1,4.483.266A6.312,6.312,0,0,1,367.6-86.12c.533,2.885,1.065,1.554,1.065-2.663V-93h-30.1Z"></path><path fill="#091898" transform="translate(-228.557 -328.559)" d="M419-92.556c0,.222.488.444,1.11.444,1.465,0,3.6,1.11,3.951,2,.133.4.266,7.5.266,15.8v15.093l-1.11,1.065a3.422,3.422,0,0,1-2.663,1.11c-.843,0-1.554.178-1.554.444s2.974.444,7.99.444,7.99-.178,7.99-.444-.666-.444-1.509-.444a4.833,4.833,0,0,1-2.663-.932l-1.154-.888V-73.912h17.312v6.348c0,8.745-.621,10.476-3.862,10.52-.8,0-1.465.178-1.465.444s2.885.444,7.768.444,7.768-.178,7.768-.444-.488-.444-1.11-.444a3.669,3.669,0,0,1-3.951-2.974c-.444-2.8-.311-27.744.178-29.519.488-1.6,1.953-2.575,4.039-2.575.488,0,.843-.222.843-.444,0-.266-2.885-.444-7.768-.444-7.324,0-9.855.444-6.081,1.065,3.152.488,3.418,1.2,3.418,9.1v6.925l-8.523.133-8.567.089v-6.836a68.1,68.1,0,0,1,.266-7.591c.355-.888,2.486-2,3.951-2,.621,0,1.11-.222,1.11-.444,0-.266-2.974-.444-7.99-.444S419-92.822,419-92.556Z"></path><path fill="#091898" transform="translate(-282.499 -328.559)" d="M516-92.6c0,.178.8.488,1.82.621,3.64.488,3.507-.266,3.507,17.445v15.67l-1.154.888a4.833,4.833,0,0,1-2.663.932c-.843,0-1.509.178-1.509.444s2.974.444,7.99.444,7.99-.178,7.99-.444-.71-.444-1.554-.444a3.422,3.422,0,0,1-2.663-1.11c-1.11-1.065-1.11-1.2-1.11-8.745v-7.679l7.324,7.324c7.9,7.9,8.523,8.922,5.993,9.9-.71.266-1.332.666-1.332.843s3.906.355,8.656.355c5.46,0,8.656-.178,8.656-.444s-.355-.444-.755-.444a14.291,14.291,0,0,1-3.6-1.332c-2.308-1.065-4.261-2.8-11.319-9.721l-8.523-8.434,4.883-4.972c6.525-6.614,9.544-9.1,12.207-10.032a5.646,5.646,0,0,0,2.219-1.11c0-.222-2.974-.355-6.659-.355-6.215,0-8.39.444-5.327,1.065,3.418.666,2.131,3.019-5.726,10.52l-6.481,6.17-.133-6.747c-.044-3.729,0-7.236.133-7.768.266-1.154,2.308-2.353,4-2.353.621,0,1.11-.222,1.11-.444,0-.266-2.974-.444-7.99-.444C519.6-93,516-92.822,516-92.6Z"></path><path fill="#091898" transform="translate(-111.038 -329.774)" d="M220.469-90.01c-.71.8-1.376.888-6.614.888h-5.771l.932.977c.888.888,1.376.932,5.815.843l4.883-.089-.843,4.528c-.444,2.486-.932,4.839-1.065,5.238-.222.533-1.021-.133-3.462-2.8-2.663-2.885-3.285-3.374-3.729-2.841-.444.488-.089,1.243,1.909,3.951a44.548,44.548,0,0,1,3.2,4.705c.666,1.42.666,1.509-1.376,5.593a62.342,62.342,0,0,1-4.528,7.591c-1.687,2.4-2.353,3.64-2.086,4.084.311.533.843.178,2.663-1.687a31.724,31.724,0,0,0,6.126-8.257l1.909-3.329.843,1.953c.444,1.065,1.2,2.974,1.6,4.217,1.021,3.152,1.731,4.084,2.619,3.374,1.776-1.509,1.243-4.839-1.554-9.588l-1.82-3.063,1.154-4.927c.621-2.708,1.287-5.682,1.42-6.57a5.055,5.055,0,0,1,1.154-2.4c.8-.71.755-.755-.488-2C221.845-91.119,221.534-91.164,220.469-90.01Z"></path><path fill="#091898" transform="translate(-121.815 -333.564)" d="M243.276-77.031c-.488,11.231-1.731,15.448-5.815,19.443a29.587,29.587,0,0,1-9.233,5.5c-1.243.488-1.509,1.11-.755,1.6.666.4,4.617-.977,8.567-3.019a16.8,16.8,0,0,0,9.011-10.742l.577-1.776.044,2.22c.355,12.074.266,11.852,5.593,12.118,4.128.222,6.481-.4,7.5-2,.755-1.11.755-1.2,0-1.731-.843-.621-1.509-3.107-1.554-5.859,0-1.509-.133-1.864-.843-1.864s-.843.444-1.021,3.507c-.266,4.439-.666,5.016-3.64,4.839l-2.264-.133-.133-5.726c-.089-3.729.044-5.9.4-6.3.666-.8.311-1.2-1.82-2.175-1.687-.755-1.82-.932-1.6-2.131a34.839,34.839,0,0,0,.266-4.572c0-2.752.133-3.418.932-4.217,1.065-1.065.977-1.154-1.864-2.8L243.587-84Z"></path></g></g></svg>