<svg viewBox="0 0 1840 340" height="340" width="1840" xmlns:xlink="http://www.w3.org/1999/xlink" xmlns="http://www.w3.org/2000/svg"><defs><clipPath id="b"><rect height="340" width="1840"></rect></clipPath></defs><g clip-path="url(#b)" id="a"><rect fill="none" height="340" width="1840"></rect><g transform="translate(20 20)"><rect fill="none" height="300" width="1022.936"></rect><g transform="translate(1.188 17.155)"><path fill="#eb433e" transform="translate(-3.207 4176.922)" d="M201.17-4176.854c-16.819.706-31.493,5.925-43.369,15.426a72.822,72.822,0,0,0-13.9,14.819c-.356.508-.66.937-.673.951s-.726-.666-1.59-1.518a107.284,107.284,0,0,0-8.855-7.9c-12.121-9.719-25.192-16.126-38.995-19.115a83.008,83.008,0,0,0-23.159-1.709,79.67,79.67,0,0,0-41.581,15.783c-15.393,11.969-24.1,28.92-25.621,49.9a84.454,84.454,0,0,0-.1,10.393A51.864,51.864,0,0,0,6.4-4086.151c3.55,9.64,9.825,19.246,19.986,30.6,2.415,2.692,4.612,5.047,9.435,10.1,3.8,3.972,4.843,5.087,7.08,7.541,6.737,7.417,18.976,20.606,41.218,44.419,22.051,23.608,65.031,69.484,65.09,69.471.033,0,36.587-43.257,36.738-43.468.073-.106-.073-.284-1.359-1.663-.785-.851-5.622-6.044-10.735-11.54-46.339-49.8-77.4-83.057-83.625-89.523a106.127,106.127,0,0,1-10.636-12.45c-5.206-7.258-8.07-13.757-8.848-20.091a45.14,45.14,0,0,1,0-5.51,31.7,31.7,0,0,1,9.185-18.857,43.236,43.236,0,0,1,26.59-12.6,64.543,64.543,0,0,1,6.763,0,41.276,41.276,0,0,1,18.607,6.975c.831.541,2.593,1.774,3.114,2.178.013,0-.218.6-.508,1.319a80.618,80.618,0,0,0-5.641,23.06,75.55,75.55,0,0,0,.3,12.734,75.28,75.28,0,0,0,18.765,43.014,90.005,90.005,0,0,0,7.02,6.973c.442.4,11.916,12.167,25.5,26.155s24.71,25.436,24.736,25.436c.046,0,31.975-39.734,32.034-39.866.013-.04-1.478-1.775-3.325-3.86-16.911-19.062-29.685-33.736-33.373-38.322-.541-.673-1.346-1.649-1.782-2.177a40.291,40.291,0,0,1-6.011-8.809,31.143,31.143,0,0,1-1.584-21.859c3.207-11.184,12.088-20.7,23.575-25.258a43.12,43.12,0,0,1,22.058-2.494,41.819,41.819,0,0,1,28.854,17.907,30.086,30.086,0,0,1,4.9,12.965,43.671,43.671,0,0,1,.04,6.137,52.687,52.687,0,0,1-5.074,18.573,51.623,51.623,0,0,1-3.128,5.556,6,6,0,0,0-.389.613c0,.02,1.1,1.36,2.448,2.969l2.448,2.943.31-.284a44.636,44.636,0,0,0,5.707-7.027,53.874,53.874,0,0,0,8.611-23.773,42.475,42.475,0,0,0,.3-6.07,32.954,32.954,0,0,0-.429-6.407,85.135,85.135,0,0,0-7.746-24.506c-7.489-15.34-18.607-26.966-32.535-34.013a75.834,75.834,0,0,0-29.131-7.752C208.751-4176.92,204.337-4176.987,201.17-4176.854Z"></path><path fill="#505d66" transform="translate(-6091.882 3798.532)" d="M6578.282-3771.769a78.537,78.537,0,0,0-17.663,2.725,51.158,51.158,0,0,0-22.823,13.282c-10.4,10.682-15.8,26.426-15.8,46.068,0,17.9,4.6,32.674,13.46,43.283a39.259,39.259,0,0,0,2.93,3.174,41.75,41.75,0,0,0,5.186,4.513c7.16,5.352,15.889,8.809,26.1,10.353a89.157,89.157,0,0,0,20.784.528c12.6-1.148,23.383-5.153,31.651-11.751a43.416,43.416,0,0,0,4.011-3.6,37.813,37.813,0,0,0,3.134-3.411c8.776-10.63,13.3-25.3,13.3-43.112-.006-17.63-4.335-32.087-12.761-42.6a39.272,39.272,0,0,0-3.563-3.953,46.608,46.608,0,0,0-12.412-8.907c-7.759-3.913-16.593-6.044-27.184-6.565C6585.461-3771.808,6579.6-3771.822,6578.282-3771.769Zm7.456,23.865a23.508,23.508,0,0,1,10.193,3.629,24.36,24.36,0,0,1,2.673,2.052c.165.158.383.35.482.429a29.913,29.913,0,0,1,2.25,2.481,37.335,37.335,0,0,1,2.455,3.622c3.729,6.506,5.7,15.519,5.7,26.03a59.663,59.663,0,0,1-2.9,19.28c-3.405,9.97-9.561,16.31-17.855,18.388a28.05,28.05,0,0,1-11.018.4c-10.195-1.69-17.472-9.455-20.785-22.177a62.4,62.4,0,0,1-1.761-11.435c-.132-1.748-.106-7.653.033-9.6a59.225,59.225,0,0,1,2.283-13.13c2.969-9.792,8.518-16.218,16.251-18.831a26.552,26.552,0,0,1,5.43-1.161c.4-.033.832-.079.957-.092C6580.743-3748.094,6584.959-3748,6585.738-3747.9Z"></path><path fill="#505d66" transform="translate(-9749.688 3798.398)" d="M10502.19-3771.615c-12.464.62-23.159,3.161-32.364,7.694a55.481,55.481,0,0,0-18.541,14.41,54.8,54.8,0,0,0-6.815,10.623c-3.6,7.508-5.482,15.11-6.15,24.743-.118,1.656-.159,6.756-.071,8.61.534,11.547,3.371,21.26,8.7,29.791a53.667,53.667,0,0,0,11.832,13.177c7.777,6.249,18.006,10.88,29.257,13.249a93.606,93.606,0,0,0,22.1,1.946,126.247,126.247,0,0,0,30.186-4.156c1.361-.331,2.494-.621,2.514-.647s-.188-3.787-.474-8.36-.635-10.194-.778-12.49-.271-4.19-.285-4.2-.749.238-1.642.567c-11.634,4.322-23.3,6.222-33.011,5.371-12.938-1.135-23.3-6.816-29.435-16.132a37.191,37.191,0,0,1-5.669-16.034,37,37,0,0,1-.269-5.608,38.161,38.161,0,0,1,.4-6.565c1.689-12.062,7.925-21.787,17.571-27.382a42.161,42.161,0,0,1,4.494-2.184,40.639,40.639,0,0,1,11.247-2.613c1.176-.12,6.739-.12,8.248,0a61.943,61.943,0,0,1,21.768,5.733c1.149.528,3.7,1.8,4.493,2.25a6.557,6.557,0,0,0,.608.317c.007-.006.151-1.379.317-3.042,1.628-16.383,2.275-22.955,2.263-22.968s-.791-.238-1.737-.515c-11.1-3.213-19.3-4.817-28.107-5.49C10511.256-3771.641,10504.031-3771.707,10502.19-3771.615Z"></path><path fill="#505d66" transform="translate(-4673.107 3769.763)" d="M5003-3729.123v11.876h29.626v96.465h32v-96.465h29.625V-3741H5003Z"></path><path fill="#505d66" transform="translate(-8028.099 3769.763)" d="M8595.017-3701.794c.02,42.531-.007,39.53.35,42.743,1.372,12.549,6.282,22.341,14.642,29.2,6.663,5.47,15.485,8.986,26.161,10.418a91.066,91.066,0,0,0,21.114.232c11.83-1.3,21.3-4.962,28.5-11.013a53.358,53.358,0,0,0,4.58-4.585,41.12,41.12,0,0,0,8.256-16.561,60.678,60.678,0,0,0,1.629-10.458c.061-.739.085-9.884.1-40.071l.021-39.107h-32l-.021,36.369c-.013,27.3-.038,36.633-.1,37.4a61.343,61.343,0,0,1-.8,6.644q-2.861,15.272-14.845,17.664a26.532,26.532,0,0,1-9.866,0c-6.736-1.406-11.2-5.642-13.624-12.959a45.157,45.157,0,0,1-1.993-11.184c-.06-.752-.087-9.64-.1-37.464L8627-3741h-32Z"></path><path fill="#505d66" transform="translate(-11439.139 3769.763)" d="M12247-3680.891v60.108h32v-51.531l18.956.013,18.95.02.021,25.746.012,25.752h32V-3741h-32v45.989H12279V-3741h-32Z"></path><path fill="#505d66" transform="translate(-8580.322 1524.381)" d="M9187.144-1332.777c-.48,2.322-.891,4.282-.91,4.355-.034.132-.015.132,4.328.132h4.362l.031-.152c.02-.079.391-1.867.825-3.972s.818-3.952.859-4.1a3.047,3.047,0,0,0,.063-.376c0-.092-.454-.106-4.34-.106h-4.343Z"></path><path fill="#505d66" transform="translate(-12432.342 1524.381)" d="M13311.271-1332.764c-.479,2.336-.89,4.3-.9,4.354-.032.112.2.119,4.322.119,4.092,0,4.355-.006,4.387-.119.054-.185,1.758-8.439,1.758-8.518a42.5,42.5,0,0,0-4.343-.073h-4.343Z"></path><path fill="#505d66" transform="translate(-3627.526 1500.747)" d="M3915.817-1311.676c-.178.013-.759.053-1.286.093a33.153,33.153,0,0,0-20.151,8.175,33.963,33.963,0,0,0-10.656,21.451,37.616,37.616,0,0,0,.356,9.752c1.168,6.572,4.381,11.83,9.271,15.182,4.678,3.207,10.919,4.837,17.914,4.672a35.4,35.4,0,0,0,9.469-1.445l.3-.092.521-3.774c.29-2.072.508-3.787.488-3.807a3.315,3.315,0,0,0-.719.218,26.393,26.393,0,0,1-8.9,1.643,25.409,25.409,0,0,1-6.6-.614,16.536,16.536,0,0,1-11.342-8.182,21.279,21.279,0,0,1-2.185-11.177c.356-6.9,2.64-12.695,6.777-17.234a24.166,24.166,0,0,1,14.931-7.4,34.109,34.109,0,0,1,7.126-.079,31.269,31.269,0,0,1,7.357,1.973,3.47,3.47,0,0,0,.765.257c.02-.026.554-1.577,1.181-3.444l1.168-3.477c.039-.106-.284-.244-1.65-.719a37.712,37.712,0,0,0-8.492-1.841C3920.5-1311.65,3916.623-1311.735,3915.817-1311.676Z"></path><path fill="#505d66" transform="translate(-10040.183 1500.668)" d="M10773.815-1311.571c-8.492.812-14.966,5.674-16.626,12.49a12.893,12.893,0,0,0-.43,3.84,13.57,13.57,0,0,0,.43,3.893,12.888,12.888,0,0,0,3.637,6.281c1.567,1.557,3.186,2.705,6.919,4.935a27.879,27.879,0,0,1,5.7,3.992,8.62,8.62,0,0,1,2.714,4.942,12.821,12.821,0,0,1-.066,3.438,10.313,10.313,0,0,1-7.655,7.674,19.035,19.035,0,0,1-9.342-.013,24.962,24.962,0,0,1-6.552-2.573,2.6,2.6,0,0,0-.767-.356,6.269,6.269,0,0,0-.283.746c-.33.976-1.2,3.484-1.761,5.081-.267.745-.5,1.425-.509,1.517-.027.158.012.185,1.016.554a40.648,40.648,0,0,0,12.622,2.811,30.55,30.55,0,0,0,6.091-.2c8.592-1.227,14.529-7.014,15.848-15.433a23.089,23.089,0,0,0,.066-4.691,13.465,13.465,0,0,0-2.764-6.69,26.827,26.827,0,0,0-2.91-2.949,49.829,49.829,0,0,0-5.642-3.847c-1.035-.646-2.191-1.386-2.575-1.636-4.167-2.785-5.666-4.995-5.521-8.155a7.825,7.825,0,0,1,4.76-7.172,14.041,14.041,0,0,1,6.174-1.26,19.829,19.829,0,0,1,6.435.8,20.289,20.289,0,0,1,4.11,1.781c.2.125.283.152.309.086.014-.046.285-.9.6-1.9s.816-2.6,1.121-3.563a15.48,15.48,0,0,0,.5-1.788c-.026-.026-.46-.2-.97-.4a36.043,36.043,0,0,0-9.271-2.138A47.271,47.271,0,0,0,10773.815-1311.571Z"></path><path fill="#505d66" transform="translate(-8766.254 1445.841)" d="M9403.653-1252.085c-1.308.455-3.095,1.076-3.979,1.385s-1.648.574-1.709.614a15.714,15.714,0,0,0-.726,2.949c-.336,1.6-.791,3.768-1.016,4.823l-.408,1.933-4.686.013-4.685.02-.574,3.1-.575,3.1,4.6.02,4.6.013-.323,1.57c-.31,1.5-.732,3.537-1.7,8.261-.251,1.214-.64,3.088-.859,4.157-1.794,8.663-2.177,11-2.177,13.375a9.656,9.656,0,0,0,.753,3.979,8.62,8.62,0,0,0,6.9,5.153,29.35,29.35,0,0,0,8.279-.3c1.155-.224,1.551-.35,1.617-.515.059-.139,1.12-6.031,1.12-6.209,0-.066-.124-.04-.474.092a14.343,14.343,0,0,1-7.277.62,3.888,3.888,0,0,1-2.779-2.052c-.594-1.228-.574-2.56.113-6.552.35-2.072.488-2.738,2.659-12.833l1.865-8.71,5.8-.02,5.8-.013.588-2.989c.324-1.636.6-3.048.619-3.134l.027-.145H9409.3c-3.162,0-5.747-.013-5.747-.033s.706-3.418,1.912-9.165c.363-1.742.659-3.2.659-3.253s-.018-.085-.045-.079S9404.96-1252.534,9403.653-1252.085Z"></path><path fill="#505d66" transform="translate(-4295.569 1282.205)" d="M4620.776-1077.668c-7.251.5-13.063,3.517-17.009,8.809a26.476,26.476,0,0,0-4.9,13.79,39.067,39.067,0,0,0,.04,5.344c.541,5.153,2.428,9.053,5.74,11.83a17.048,17.048,0,0,0,5.708,3.042,27.284,27.284,0,0,0,12.536.594,21.525,21.525,0,0,0,10-4.678,27.88,27.88,0,0,0,2.837-2.936,26.71,26.71,0,0,0,5.4-14.351c.508-5.628-.337-10.115-2.587-13.744a16.547,16.547,0,0,0-11.56-7.4A30.485,30.485,0,0,0,4620.776-1077.668Zm3.867,6.427a9.869,9.869,0,0,1,7.02,5.615,13.241,13.241,0,0,1,1.366,5.806,22.107,22.107,0,0,1-5.51,15.05,14.206,14.206,0,0,1-7.567,4.513,14.494,14.494,0,0,1-3.9.105,9.5,9.5,0,0,1-8.222-6.539,14.1,14.1,0,0,1-.824-4.652,24.529,24.529,0,0,1,2.856-12.028c2.574-4.692,6.375-7.469,10.98-8.03.27-.033,1.063-.046,1.749-.033A9.556,9.556,0,0,1,4624.643-1071.242Z"></path><path fill="#505d66" transform="translate(-4981.334 1282.232)" d="M5359.689-1077.689a20.6,20.6,0,0,0-2.942.488,15.746,15.746,0,0,0-5.972,3.022,16.192,16.192,0,0,0-2.368,2.507c-.4.541-.627.766-.627.6,0-.086.93-5.47.964-5.589s-.172-.112-3.6-.112h-3.623l-.039.178c-.021.106-.173,1-.33,2s-.746,3.952-1.287,6.565c-1.222,5.872-2.534,12.174-3.239,15.572-.3,1.412-.772,3.715-1.063,5.114s-.838,4.038-1.221,5.872-.838,4.038-1.016,4.9-.331,1.617-.331,1.669c0,.086.461.1,3.847.1h3.846l2.428-10.94c2.25-10.115,2.7-12,3.174-13.44a30.194,30.194,0,0,1,2.495-5.45c2.585-4.315,5.924-6.657,9.711-6.836,2.692-.119,4.739.917,5.833,2.956a6.294,6.294,0,0,1,.739,3.193,26.942,26.942,0,0,1-.9,6c-.27,1.267-1.517,7.192-2.771,13.163s-2.3,10.966-2.335,11.1l-.061.251h7.741l2.336-10.511c1.279-5.773,2.448-10.979,2.593-11.56a31.721,31.721,0,0,1,2.4-6.413c.1-.172.283-.508.408-.746a19.53,19.53,0,0,1,3.016-4.064,10.666,10.666,0,0,1,6.427-3.332,9.98,9.98,0,0,1,2.645.1,5.65,5.65,0,0,1,4.355,4.164,12.254,12.254,0,0,1-.045,4.586c-.073.469-3.366,16.185-5.722,27.369l-.092.409,3.873-.013,3.867-.02.337-1.616c.184-.891.548-2.626.8-3.86s1.1-5.245,1.861-8.907,1.6-7.661,1.854-8.875a36.843,36.843,0,0,0,1.147-8.446,9.737,9.737,0,0,0-.495-3.84,10.593,10.593,0,0,0-8.307-7.086,18.578,18.578,0,0,0-9.211.772,18.3,18.3,0,0,0-5.014,2.877,32.392,32.392,0,0,0-3.036,2.916,1.644,1.644,0,0,1-.383.383,2.294,2.294,0,0,1-.237-.547,9.281,9.281,0,0,0-3.933-4.843A14.028,14.028,0,0,0,5359.689-1077.689Z"></path><path fill="#505d66" transform="translate(-6004.084 1282.296)" d="M6454.722-1077.759a15.4,15.4,0,0,0-11.27,5.972c-.515.693-.72.851-.646.515.02-.1.23-1.326.468-2.725s.456-2.606.475-2.692l.033-.145h-3.636c-2,0-3.636.013-3.636.033,0,.257-.758,4.5-1.056,5.945-.224,1.049-.5,2.4-.625,3s-.675,3.24-1.222,5.872-1.175,5.628-1.386,6.664-.924,4.46-1.583,7.621c-2,9.594-2.639,12.708-2.639,12.774,0,.033,1.477.059,3.86.059,2.124,0,3.858-.013,3.858-.033,0-.218,4.97-22.288,5.188-23.047a30.088,30.088,0,0,1,2.348-5.8c2.342-4.3,5.3-6.869,8.782-7.621a10.387,10.387,0,0,1,3.642,0c3.036.779,4.678,3.339,4.388,6.849a38.705,38.705,0,0,1-.857,5.008c-.251,1.194-1.426,6.776-2.607,12.4s-2.237,10.636-2.342,11.138-.2.95-.2,1c0,.086.528.1,3.846.1h3.848l.209-.943c1.723-7.786,4.732-21.226,4.864-21.695a25.7,25.7,0,0,1,5.2-10.161,10.772,10.772,0,0,1,7.918-3.886,5.771,5.771,0,0,1,6.181,5.417,17.068,17.068,0,0,1-.389,4.381c-.1.521-4.381,20.883-5.384,25.627-.125.594-.23,1.122-.23,1.168,0,.079.62.092,3.847.092h3.84l1.213-5.793c2.105-10.1,3.174-15.182,3.444-16.476,1.068-5.067,1.4-7.317,1.4-9.633a10.52,10.52,0,0,0-.388-3.181,10.684,10.684,0,0,0-9.139-7.707,18.863,18.863,0,0,0-7.509.574,18.716,18.716,0,0,0-8.663,5.681c-.409.442-.765.812-.786.825s-.1-.138-.158-.33a10.941,10.941,0,0,0-1.129-2.316,10.668,10.668,0,0,0-2.316-2.375,12.6,12.6,0,0,0-5.377-2.059A22.761,22.761,0,0,0,6454.722-1077.759Z"></path><path fill="#505d66" transform="translate(-7726.415 1282.301)" d="M8299.229-1077.758a16.063,16.063,0,0,0-12.383,7.086c-.316.468-.47.6-.464.409.008-.04.3-1.537.648-3.312l.639-3.233-3.588-.02c-1.975-.007-3.6-.007-3.611,0s-.118.66-.249,1.438c-.245,1.485-.707,3.893-1.359,7.06-.211,1.036-.6,2.9-.858,4.157s-.568,2.765-.693,3.365-.746,3.629-1.385,6.73-1.352,6.578-1.59,7.72-.562,2.719-.72,3.5-.587,2.87-.951,4.638-.665,3.246-.665,3.279,1.445.066,3.861.066c2.122,0,3.858-.02,3.858-.04s.448-2.171.989-4.77c3.893-18.534,3.7-17.67,4.3-19.339,1.939-5.437,5.47-9.745,9.4-11.468,3.018-1.326,6.434-1.425,8.736-.257,2.766,1.4,4.157,4.17,3.893,7.76a47.9,47.9,0,0,1-1.254,7.3c-.105.508-.381,1.861-.619,3s-1,4.823-1.688,8.182c-1.769,8.551-1.979,9.594-1.979,9.613s1.734.02,3.859.02h3.859l.033-.152c.02-.079.257-1.227.527-2.553s.732-3.536,1.023-4.916c3.682-17.683,3.6-17.254,3.867-19.761a26.482,26.482,0,0,0,.031-4.388c-.533-4.441-2.553-7.575-6.082-9.462A17.828,17.828,0,0,0,8299.229-1077.758Z"></path><path fill="#505d66" transform="translate(-10644.463 1282.331)" d="M11417.846-1077.814a21.221,21.221,0,0,0-11.381,3.965,20.753,20.753,0,0,0-2.772,2.388,27.076,27.076,0,0,0-7.493,19.531,22.006,22.006,0,0,0,2.063,9.363c2.269,4.6,6.519,7.41,12.558,8.314a25.765,25.765,0,0,0,4.748.3,34.7,34.7,0,0,0,5.946-.423,55,55,0,0,0,6.388-1.293c.039-.033,1.246-6.981,1.219-7.007a4.546,4.546,0,0,0-.633.218,40.219,40.219,0,0,1-4.35,1.385,26.8,26.8,0,0,1-6.293.871c-4.1.092-7.079-.554-9.337-2.026a9.995,9.995,0,0,1-2.288-2.243,11.385,11.385,0,0,1-1.744-5.3,23.086,23.086,0,0,1,.08-3.886l.087-.508h14.767c8.123,0,14.767-.02,14.767-.053s.059-.416.132-.871a36.959,36.959,0,0,0,.554-6.565,18.541,18.541,0,0,0-.3-4.058c-1.081-6.222-4.887-10.306-10.848-11.646A22.516,22.516,0,0,0,11417.846-1077.814Zm1.85,6.288a9.315,9.315,0,0,1,4.209,1.465,7.875,7.875,0,0,1,2.487,2.989,10.8,10.8,0,0,1,.665,2.276,20.646,20.646,0,0,1-.113,4.764c-.031.112-.6.119-10.753.119h-10.722l.041-.152c1.47-5.193,4.922-9.343,9.05-10.86A11.625,11.625,0,0,1,11419.7-1071.526Z"></path><path fill="#505d66" transform="translate(-11266.346 1282.279)" d="M12089.23-1077.736a16.518,16.518,0,0,0-9.139,3.523,17.813,17.813,0,0,0-3.254,3.569c-.31.462-.454.594-.454.4.007-.04.3-1.537.648-3.312l.638-3.233-3.588-.02c-1.973-.007-3.6-.007-3.617.006s-.1.515-.189,1.109c-.311,1.993-.523,3.068-3.822,19.062-.857,4.157-1.655,8.043-1.781,8.643s-.779,3.761-1.449,7.021-1.223,5.978-1.223,6.024a22.04,22.04,0,0,0,3.846.086h3.855l.1-.515c.061-.277.451-2.125.864-4.1,2.942-13.948,3.5-16.548,3.677-17.208a25.16,25.16,0,0,1,4.869-9.383,13.449,13.449,0,0,1,9.218-4.949,8.047,8.047,0,0,1,3.649.587,1.987,1.987,0,0,0,.56.152c.034-.059,1.689-6.644,1.689-6.73a7.142,7.142,0,0,0-2.508-.706A11.4,11.4,0,0,0,12089.23-1077.736Z"></path><path fill="#505d66" transform="translate(-12603.068 1282.051)" d="M13514.683-1077.541a23.292,23.292,0,0,0-5.778,1.056c-6.6,2.118-11.666,7.463-14.127,14.892a31.643,31.643,0,0,0-1.208,14.925c1.292,6.506,5.616,10.861,12.306,12.4a28.824,28.824,0,0,0,7.984.574,30.06,30.06,0,0,0,5.588-.831l.337-.1.376-1.966c.21-1.076.521-2.672.693-3.543s.3-1.59.295-1.6a4.137,4.137,0,0,0-.639.2,32.963,32.963,0,0,1-4.738,1.333c-4.52.851-8.615-.1-11.112-2.573a11.477,11.477,0,0,1-3.112-6.7,31.484,31.484,0,0,1-.093-4.909c.727-8.531,5.661-15.017,12.615-16.561a12.8,12.8,0,0,1,3.352-.337,10.328,10.328,0,0,1,2.275.158,17.141,17.141,0,0,1,4.573,1.518c.475.237.688.317.707.257s.435-1.511.923-3.253.91-3.207.925-3.246-.257-.172-.812-.343a30.821,30.821,0,0,0-9.252-1.353C13515.8-1077.554,13514.869-1077.554,13514.683-1077.541Z"></path><path fill="#505d66" transform="translate(-13108.357 1282.112)" d="M14055.671-1077.6a24.678,24.678,0,0,0-4.914.857c-8.639,2.507-15.063,10.669-16.431,20.877a34.228,34.228,0,0,0-.139,5.443c.469,6.453,2.771,10.966,7,13.711,4.9,3.167,12.427,3.854,21.644,1.966,1.017-.211,2.975-.653,3.007-.686s1.229-6.981,1.2-7.014a6.839,6.839,0,0,0-.949.33,32.981,32.981,0,0,1-8.98,2.092,27.729,27.729,0,0,1-6.322-.31c-3.971-.759-6.57-2.811-7.707-6.077a15.507,15.507,0,0,1-.564-7.133l.069-.409h29.522l.176-1.208c.834-5.555.708-9.488-.422-12.873-1.817-5.463-6.011-8.71-12.174-9.442A37.623,37.623,0,0,0,14055.671-1077.6Zm1.916,6.294a8.4,8.4,0,0,1,5.243,2.31,7.9,7.9,0,0,1,2.158,4.421,18.986,18.986,0,0,1-.007,3.913c-.059.508-.106.93-.106.943s-4.828.026-10.729.026h-10.729l.047-.218a20.512,20.512,0,0,1,.727-2.1c1.681-4.117,4.784-7.383,8.234-8.657a13.448,13.448,0,0,1,2.453-.627A15.5,15.5,0,0,1,14057.587-1071.307Z"></path><path fill="#505d66" transform="translate(-13685.158 1282.454)" d="M14671.795-1077.937a20.819,20.819,0,0,0-7.094,1.643,12.166,12.166,0,0,0-6.723,6.459,10.8,10.8,0,0,0-.752,4.157,10.163,10.163,0,0,0,3.286,7.66,30.4,30.4,0,0,0,4.882,3.82,30.555,30.555,0,0,1,3.762,2.837,7.18,7.18,0,0,1,2.09,3,3.643,3.643,0,0,1,.213,1.617,4.939,4.939,0,0,1-.4,2.263c-.863,2.217-3.444,3.755-6.881,4.111a18.074,18.074,0,0,1-4.2-.165,30.221,30.221,0,0,1-5.88-1.748c-.845-.33-.988-.37-1.022-.277-.132.343-1.445,6.493-1.4,6.539.085.086,2.421.831,3.385,1.082a26.65,26.65,0,0,0,3.729.66,40.114,40.114,0,0,0,7.622.073c4.729-.607,8.623-2.6,10.879-5.575a11.789,11.789,0,0,0,2.382-6.717,11.363,11.363,0,0,0-3.609-9.449,28.577,28.577,0,0,0-4.8-3.655,27.072,27.072,0,0,1-3.887-2.91,6.448,6.448,0,0,1-1.774-2.738,3.94,3.94,0,0,1-.151-1.385,3.9,3.9,0,0,1,.151-1.379c.659-2.1,2.665-3.3,6.076-3.635a18.877,18.877,0,0,1,9.4,1.828,3,3,0,0,0,.535.2,1.2,1.2,0,0,0,.094-.218c.032-.112.354-.957.7-1.88s.813-2.144,1.024-2.705.4-1.076.43-1.135c.052-.132.125-.1-1.294-.62A28.607,28.607,0,0,0,14671.795-1077.937Z"></path><path fill="#505d66" transform="translate(-7059.525 1268.46)" d="M7563.516-1062.822c-.746,3.6-3.312,15.98-4.236,20.408-1,4.817-1.28,6.789-1.28,9.185a15.152,15.152,0,0,0,.588,4.586c1.292,4.44,4.665,7.331,9.64,8.261a16.575,16.575,0,0,0,3.793.3,16.634,16.634,0,0,0,4.355-.469,15.836,15.836,0,0,0,9.515-6.6c.364-.521.481-.64.481-.455,0,.046-.282,1.511-.625,3.259s-.628,3.207-.628,3.246a28.758,28.758,0,0,0,3.6.072h3.6l.025-.145c.021-.086.113-.66.205-1.273.158-1.029.9-4.81,1.545-7.951.534-2.593,1.107-5.384,3.866-18.772,1.545-7.515,2.817-13.7,2.837-13.744a25.555,25.555,0,0,0-3.846-.079h-3.879l-.086.409c-.047.231-.693,3.312-1.432,6.849s-1.664,7.918-2.047,9.732-.751,3.583-.824,3.926a25.29,25.29,0,0,1-3.754,8.868c-2.706,4-6.051,6.275-9.963,6.8a13.221,13.221,0,0,1-2.883.026,7.029,7.029,0,0,1-5.946-4.8,7.18,7.18,0,0,1-.374-2.917,25.355,25.355,0,0,1,.857-6.255c.3-1.478,1.24-6.011,2.077-10.075,2.171-10.517,2.219-10.735,2.4-11.639.092-.449.172-.844.172-.871s-1.715-.059-3.854-.059h-3.854Z"></path><path fill="#505d66" transform="translate(-8432.533 1268.46)" d="M9036.842-1062.954c0,.033-.119.614-.271,1.306-.269,1.273-5.582,26.386-6.656,31.473-.324,1.524-.886,4.177-1.248,5.9s-.666,3.154-.666,3.187,1.735.053,3.861.053,3.859-.013,3.859-.033.309-1.491.687-3.279,1.035-4.889,1.457-6.882,1.063-5.028,1.426-6.73.793-3.728.95-4.486.586-2.8.956-4.52.8-3.761.957-4.519.752-3.57,1.32-6.235,1.05-4.949,1.069-5.067l.037-.211h-3.871C9038.584-1063,9036.842-1062.98,9036.842-1062.954Z"></path><path fill="#505d66" transform="translate(-9094.073 1268.46)" d="M9745.295-1062.888c0,.06.474,3.213,1.055,7.007s1.828,12,2.771,18.217,1.987,13.025,2.31,15.11l.581,3.794-.547,1.056a19.827,19.827,0,0,1-5.231,6.862,10.96,10.96,0,0,1-2.865,1.445,8.486,8.486,0,0,1-5.734-.317c-.084-.04-.145.165-.381,1.326-.154.752-.442,2.184-.647,3.174s-.349,1.815-.329,1.834a18.6,18.6,0,0,0,3.179.495,34.725,34.725,0,0,0,4.687.007c4.309-.5,7.058-2.349,9.975-6.71.932-1.392,1.039-1.577,7.872-13.493,1.862-3.246,3.82-6.664,4.356-7.588s1.385-2.408,1.893-3.3,1.795-3.134,2.856-4.981,2.665-4.645,3.563-6.2c3.325-5.793,5.317-9.27,6.044-10.531.535-.93,3.623-6.321,4.165-7.271.012-.027-1.843-.046-4.125-.046h-4.157l-1.089,1.992c-.6,1.1-3.247,5.965-5.886,10.808s-6.242,11.448-8,14.681-3.232,5.912-3.271,5.958-.093.059-.119.033c-.054-.053-.33-1.907-1.478-9.851-.581-4-1.579-10.894-2.575-17.742-.454-3.134-.822-5.734-.822-5.786,0-.079-.635-.092-4.025-.092C9745.6-1063,9745.295-1062.993,9745.295-1062.888Z"></path><path fill="#505d66" transform="translate(-11746.241 1268.46)" d="M12575.838-1062.822c.02.105.408,2.56.864,5.463s1.143,7.265,1.525,9.7.806,5.16.948,6.07.543,3.444.886,5.642,1,6.38,1.459,9.3.843,5.378.855,5.457l.034.151h9.026l.693-1.207c.383-.66,1.893-3.312,3.357-5.886,2.719-4.771,5.147-9.026,9.259-16.231,2.941-5.16,6.049-10.616,8.581-15.057,1.1-1.933,2.008-3.53,2.008-3.55s-1.848-.026-4.105-.02l-4.1.02-1.545,2.8c-.845,1.544-1.789,3.246-2.085,3.794-.713,1.287-4.189,7.608-5.8,10.524-.686,1.254-1.4,2.56-1.595,2.9s-1.154,2.1-2.144,3.893-2.131,3.873-2.541,4.619a56.25,56.25,0,0,1-3.015,5.311c-.107,0,0,.785-.847-6-.4-3.193-1.067-8.492-1.482-11.778-1.743-13.8-2.014-15.954-2.014-16.027a37.3,37.3,0,0,0-4.13-.072h-4.133Z"></path><path fill="#505d66" transform="translate(-12284.426 1268.46)" d="M13160.788-1062.657c-.04.191-.271,1.267-.508,2.395-.449,2.118-1.638,7.72-4.092,19.333-.78,3.7-1.5,7.073-1.584,7.489-.374,1.735-2.6,12.306-2.6,12.352s1.733.053,3.859.053,3.859-.006,3.859-.02.806-3.847,1.154-5.49c.127-.581.615-2.9,1.089-5.147s1.055-4.981,1.285-6.07.819-3.88,1.313-6.2,1.09-5.147,1.327-6.269c1.472-6.941,2.673-12.642,2.673-12.7s-1.3-.066-3.854-.066h-3.847Z"></path></g></g></g></svg>