<svg viewBox="0 0 1840 340" height="340" width="1840" xmlns:xlink="http://www.w3.org/1999/xlink" xmlns="http://www.w3.org/2000/svg"><defs><clipPath id="b"><rect height="340" width="1840"></rect></clipPath></defs><g clip-path="url(#b)" id="a"><rect fill="none" height="340" width="1840"></rect><g transform="translate(-3 485)"><path fill="#1151a1" transform="translate(-0.31)" d="M24-372.364l.069,92.7,2.278-5.177c7.386-16.912,25.609-36.93,45.628-50.183,3.52-2.278,11.942-5.384,17.533-6.42,4.556-.828,16.222.069,18.776,1.381,2.485,1.381,1.45,2.554-2.623,3.313-5.591.966-6.834,1.588-12.425,5.729-2.692,2.071-5.8,4.28-6.9,4.9-3.935,2.485-14.151,10.078-23.746,17.878C45.813-294.708,33.664-280.9,33.664-275.449c0,7.593,17.947,0,37.689-15.876,6.627-5.315,27.266-25.609,33.272-32.719a65.865,65.865,0,0,0,7.041-10.423c4.97-9.457,12.77-16.636,18.223-16.636,2.278,0,5.936,3.382,5.936,5.453,0,.9-2.554,4-6.7,8.214-3.728,3.728-8.352,8.49-10.354,10.63-6.489,7.041-12.287,21.468-14.082,34.928-.69,5.108-.69,6.558.276,9.871,2.209,7.386,6.005,10.837,12.908,11.528,6.7.621,20.639-4.28,27.818-9.8,3.313-2.485,5.246-2.968,5.8-1.312.207.483-1.381,2.416-3.382,4.349-13.944,13.46-32.857,20.087-46.18,16.153-5.039-1.519-10.423-6.9-11.942-12.08-1.588-5.177-1.45-15.117.276-19.949a15.627,15.627,0,0,0,1.035-4.073c-.207-.138-4.418,3.728-9.457,8.559-21.054,20.225-33.341,28.44-44.178,29.751-4.97.552-8.076,0-11.183-2.14L24-262.679v26.852H188.977V-465H24Z"></path><path fill="#1151a1" transform="translate(-260.845 -24.778)" d="M933.054-377.338l-13.115,7.662L892.4-255.158c-15.117,63.023-27.335,114.725-27.2,114.932.345.276,25.057-13.668,26.231-14.772.207-.276,12.77-51.564,27.749-114.034,15.048-62.47,27.542-114.1,27.749-114.794.207-.621.138-1.173-.207-1.173C946.445-385,940.3-381.549,933.054-377.338Z"></path><path fill="#1151a1" transform="translate(-261.744 -36.883)" d="M889.637-338.45c-6.9,4.073-12.7,7.524-12.908,7.731-.414.414-8.7,34.859-8.628,36.033,0,.483,1.795,1.657,4,2.692a34.03,34.03,0,0,1,12.632,10.768c1.933,2.761,2.209,2.968,2.761,1.795.621-1.45,15.738-64.748,15.738-65.853,0-.414-.207-.69-.483-.621C902.407-345.836,896.539-342.522,889.637-338.45Z"></path><path fill="#1151a1" transform="translate(-396.131 -51.261)" d="M1336.238-293.975l-10.975,6.351-3.727,10.216c-2,5.66-4.073,10.561-4.556,10.837a11.773,11.773,0,0,1-4,.552c-7.317,0-7.179-.069-9.181,8.559-1.036,4.211-1.795,8.076-1.795,8.49,0,.621,1.519.9,5.246.9,4.625,0,5.177.138,4.832,1.173-.207.69-2.416,9.8-4.97,20.225-4.211,17.464-4.556,19.466-4.28,24.85.345,6.972,1.864,10.354,6.213,14.082,3.934,3.382,8.283,4.556,16.774,4.556,6.7,0,16.981-1.864,18.431-3.313.552-.552-2.278-14.979-3.106-15.738-.207-.276-1.38-.069-2.623.345-4.487,1.519-10.216.345-11.252-2.347-1.1-2.968-.138-9.664,3.728-25.747,2.278-9.526,4.142-17.464,4.142-17.671s4.349-.414,9.595-.414h9.595l1.795-7.8c1.035-4.211,2-8.421,2.209-9.319l.414-1.519h-18.568l3.728-15.738c2-8.629,3.589-16.153,3.52-16.774C1347.282-300.118,1344.659-298.876,1336.238-293.975Z"></path><path fill="#1151a1" transform="translate(-105.953 -65.266)" d="M406.1-254.016c-18.5,2.209-35.342,20.777-40.036,44.109-.9,4.349-1.1,8.076-.9,14.841.414,11.114,1.864,15.531,6.765,20.363,4.349,4.418,8.559,5.8,16.567,5.384,5.453-.276,6.765-.552,11.873-3.175a45.236,45.236,0,0,0,9.112-5.8l3.382-2.9-.345,5.315-.345,5.315H431.02l9.457-39.9c5.177-22.02,9.457-40.45,9.457-41.072,0-1.035-1.1-1.173-8.974-1.173h-9.043l-1.864,4-1.933,4.073-2.692-3.106C420.873-252.981,414.522-255.051,406.1-254.016ZM416.041-234a14.769,14.769,0,0,1,4.073,3.658l1.519,2.209-3.451,14.358c-1.864,7.869-3.8,14.841-4.28,15.462-2.416,3.313-6.765,7.317-9.181,8.629-4.073,2.14-10.009,2.071-12.356-.138-2.485-2.347-3.451-5.8-3.313-12.011.207-13.668,7.179-27.335,16.153-31.822C409.552-235.793,412.658-235.931,416.041-234Z"></path><path fill="#e63c39" transform="translate(-148.435 -65.041)" d="M520.717-245.957l-1.588,9.043-2.14-.414c-9.664-1.657-13.668-1.933-14.289-1.035-1.242,1.933-.138,3.037,6.7,7.11l6.972,4.211-3.52,7.8c-2.623,6.074-3.244,8.145-2.692,8.974,1.381,2.278,2.83,1.519,8.214-4.28l5.453-5.867,5.936,5.936c5.384,5.315,6.143,5.8,7.455,5.108.759-.483,1.45-1.1,1.45-1.45a74.892,74.892,0,0,0-3.451-8.421c-1.864-4.211-3.382-7.731-3.244-7.869.069-.069,3.313-2.071,7.248-4.418,6.213-3.728,7.041-4.418,6.627-5.729a9.632,9.632,0,0,0-.69-1.795,55.682,55.682,0,0,0-8.007.828c-4.97.69-7.938.828-8.214.414a89.754,89.754,0,0,1-1.657-8.9c-1.242-8.214-1.311-8.283-3.106-8.283S522.3-254.862,520.717-245.957Z"></path><path fill="#1151a1" transform="translate(-170.982 -65.211)" d="M621.956-254.346a49.638,49.638,0,0,0-34.1,18.085,55.132,55.132,0,0,0-12.218,27.818c-2.554,17.4,3.313,30.441,16.567,36.654,4.073,1.933,5.384,2.209,12.149,2.416,8.9.276,14.7-.828,21.261-4.073,4.832-2.416,8.076-4.625,8.076-5.384,0-.414-7.8-12.908-8.49-13.668-.138-.138-2.347.9-4.9,2.209-10.009,5.177-19.052,2.071-21.054-7.386-2.14-9.871,3.382-25.955,11.321-32.926,4.28-3.728,8.076-5.108,13.184-4.763,3.658.207,4.763.621,7.248,2.554l2.83,2.347,6.489-6.489c3.589-3.52,6.489-6.834,6.489-7.248,0-1.173-4.97-5.522-8.076-7.11A34.2,34.2,0,0,0,621.956-254.346Z"></path><path fill="#1151a1" transform="translate(-202.374 -65.258)" d="M721.2-254.024c-10.975,1.035-19.466,5.315-28.509,14.427-7.524,7.455-11.182,13.6-14.013,23.47-6.489,22.641,1.242,41.21,19.121,45.973,4.763,1.242,15.738,1.242,20.777-.069a52.929,52.929,0,0,0,14.634-6.765l2.209-1.588-4.211-6.558c-2.278-3.589-4.349-6.7-4.625-7.041-.276-.276-2.692.621-5.315,2-4.349,2.278-5.177,2.485-9.25,2.209-8.145-.414-11.666-4.763-11.735-14.358,0-17.6,11.183-33.133,23.884-33.133,4.211,0,5.867.621,8.767,3.313l1.864,1.795,6.558-6.489c3.589-3.589,6.558-6.9,6.558-7.317,0-1.173-4.97-5.522-8.076-7.041C734.179-254.024,729.278-254.783,721.2-254.024Z"></path><path fill="#1151a1" transform="translate(-233.838 -65.238)" d="M820.245-254.043c-10.009,1.243-18.292,5.591-26.714,14.082-5.246,5.177-6.834,7.317-9.526,12.77C779.657-218.425,778-211.66,778-202.41c0,8.007.9,12.356,3.658,17.671a27.72,27.72,0,0,0,18.085,14.5c11.321,2.9,29.2,0,38.794-6.282l1.588-.966-3.037-6.074c-4.763-9.319-4-8.9-10.078-5.867-4.694,2.416-5.66,2.623-10.7,2.623-9.526,0-14.565-4-16.222-12.77-1.1-5.936-2.761-5.522,23.124-5.522h23.055l1.312-3.658c2.623-6.9,3.175-9.871,3.175-17.05.069-12.149-3.382-20.225-10.492-24.712C835.224-253.767,828.045-255.01,820.245-254.043Zm7.455,19.121c3.451,2.485,5.108,8.629,3.728,13.737-.414,1.588-.483,1.588-14.5,1.588-10.837,0-14.082-.207-14.082-.9,0-1.864,4.28-8.076,7.593-11.044C816.1-236.648,823.282-238.029,827.7-234.923Z"></path><path fill="#1151a1" transform="translate(-289.977 -65.268)" d="M1001.877-254.014c-22.434,2.416-41.072,23.815-42.521,48.941-1.1,17.947,7.179,30.925,22.158,34.928,5.315,1.45,16.912,1.242,23.815-.414,6.074-1.519,15.876-5.867,15.876-7.11,0-.621-6.558-13.46-7.248-14.151-.138-.138-2.692.9-5.591,2.416-4.832,2.347-5.936,2.623-10.63,2.623-9.733,0-15.531-4.97-16.36-14.082l-.414-4.211h46.525l1.243-2.968c5.246-12.218,4.418-29.475-1.726-37.551C1021.9-252.288,1013.2-255.188,1001.877-254.014Zm7.041,18.983c2.83,1.45,4.28,4.763,4.211,9.664a20.207,20.207,0,0,1-.483,5.039c-.483.759-28.716,1.173-28.716.414a27.422,27.422,0,0,1,1.45-3.313C990.833-234,1001.049-239.1,1008.918-235.031Z"></path><path fill="#1151a1" transform="translate(-324.586 -65.262)" d="M1129.6-254.019c-6.213.966-14.979,7.041-20.156,14.082l-2,2.761.414-5.522c.276-3.037.69-6.558.9-7.8l.345-2.209h-19.121l-9.526,40.589c-5.177,22.3-9.457,40.727-9.457,41.072,0,.276,5.177.414,11.528.345l11.528-.207,5.591-23.539c6.074-26.024,6.627-27.266,13.53-33.755,4.9-4.556,8.7-6.143,14.013-5.66,2.278.207,4.763.483,5.453.621,1.173.207,2.9-3.106,8.145-16.222l1.312-3.313-1.588-.552A26.5,26.5,0,0,0,1129.6-254.019Z"></path><path fill="#1151a1" transform="translate(-421.683 -65.246)" d="M1426.262-254.036c-15.393,1.726-31.546,14.7-38.172,30.717-3.106,7.593-3.589,10.492-3.589,21.33.069,9.181.207,10.768,1.588,14.082,3.382,8.007,8.974,13.737,16.5,16.774,3.589,1.45,5.039,1.588,14.7,1.519,9.733,0,11.182-.207,16.222-1.864a70.31,70.31,0,0,0,9.181-3.935l3.658-2.14-3.589-6.7c-1.933-3.658-3.728-6.9-4-7.179-.276-.345-2.761.621-5.591,2.071-4.694,2.347-5.66,2.554-10.7,2.554-9.94,0-15.393-4.694-16.567-14.358l-.483-3.935h46.939l1.035-2.692c5.246-13.115,4.556-29.2-1.588-37.551C1446.625-252.379,1437.859-255.347,1426.262-254.036Zm7.593,19.121c3.451,2.485,5.108,8.629,3.728,13.737-.414,1.588-.483,1.588-14.91,1.588h-14.427l2.14-4C1416.046-234.225,1427.228-239.609,1433.855-234.915Z"></path><path fill="#1151a1" transform="translate(-354.016 -65.381)" d="M1200.8-252.589c-14.22,4.556-26.99,19.328-32.443,37.689-2.209,7.524-3.037,20.5-1.657,27.335,1.657,8.629,6.558,15.117,13.323,17.6,3.935,1.45,12.7,1.035,17.809-.759,4.694-1.657,11.114-5.522,13.391-8.007,2.14-2.347,2.554-1.657,2.278,3.451l-.276,4.832h9.526c5.246,0,9.526-.138,9.526-.345,0-.483,18.569-79.037,19.052-80.625.345-1.1-.414-1.173-9.043-1.173H1232.9l-1.795,4.142-1.795,4.073-2.83-3.175c-4.142-4.694-8.352-6.42-15.6-6.351A36.065,36.065,0,0,0,1200.8-252.589Zm16.429,18.776a14.214,14.214,0,0,1,4.073,3.728l1.38,2.209-3.175,13.391c-1.726,7.317-3.451,14.151-3.866,15.186-1.035,2.554-6.489,7.938-9.871,9.664a14.607,14.607,0,0,1-6.765,1.519c-4.487.069-6.834-1.519-8.214-5.66-1.173-3.52-.414-15.393,1.381-20.846,2.9-9.25,9.526-17.464,15.738-19.673C1211.7-235.678,1214.12-235.539,1217.226-233.814Z"></path><path fill="#1151a1" transform="translate(-28.184 -108.197)" d="M117.728-115.274A6.835,6.835,0,0,0,114-108.992c0,3.037,1.243,4.9,5.177,7.593,4.211,2.9,5.039,4.556,3.244,6.42-1.657,1.588-4.211,1.243-6.351-.9C114.207-97.74,114-97.671,114-94.634c0,3.175,1.726,4.28,6.489,4.28,4.349,0,6.005-1.588,6.489-6.074.276-3.382.207-3.658-2.071-5.8-1.312-1.243-3.589-3.244-5.108-4.487-2.278-1.795-2.554-2.347-1.933-3.451,1.1-1.795,3.382-1.933,6.144-.276l2.416,1.381v-2.278a4.817,4.817,0,0,0-1.035-3.175C124.078-115.619,119.591-116.033,117.728-115.274Z"></path><path fill="#1151a1" transform="translate(0 -108.402)" d="M29.351-106.233c-1.933,4.9-4.073,10.492-4.9,12.425L23-90.15h2.14c1.864,0,2.209-.414,3.52-3.451L29.7-97.034l.886-2.936,3.271-10.841L38.292-99.93l-7.71-.04L29.7-97.053h9.249L40.4-93.6c1.243,3.037,1.657,3.451,3.451,3.451,1.726,0,2-.207,1.657-1.243-.276-.621-2.554-6.213-5.039-12.425C36.46-113.688,35.77-115,34.321-115,32.94-115,32.319-113.9,29.351-106.233Z"></path><path fill="#1151a1" transform="translate(-39.644 -108.402)" d="M151-113.274c0,1.657.207,1.726,4.142,1.726h4.142v21.4h3.451v-21.4h3.8c3.589,0,3.8-.069,3.8-1.726V-115H151Z"></path><path fill="#1151a1" transform="translate(-65.97 -108.402)" d="M236-102.575V-90.15h4.142v-5.177a17.042,17.042,0,0,1,.54-5.021c.175-.365-.136.156,0,0v-4.373l.075-6.984c.2,0,4.353-1.269,4.215,3.47s-4.289,3.514-4.289,3.514v4.373s2.267-.189,2.426.115c1.043,1.994,1.857,2.919,3.108,4.906,2.968,4.694,3.451,5.177,5.522,5.177a5.044,5.044,0,0,0,2.209-.276c0-.207-1.588-2.83-3.451-6.005-3.382-5.453-3.451-5.66-2.278-6.972.828-.966,1.242-2.485,1.242-4.832,0-2.9-.276-3.658-1.933-5.108-1.657-1.381-2.692-1.657-6.765-1.657H236Z"></path><path fill="#1151a1" transform="translate(-14.643 -108.727)" d="M76.713-111.154c-.414,2.761-.483,2.761-3.313,2.554-3.52-.207-4.211,1.035-1.312,2.485,2.83,1.45,3.037,2.14,1.795,4.487a11.207,11.207,0,0,0-1.035,2.83c0,1.243,1.795.759,3.451-1.035l1.657-1.726,1.795,1.726c3.175,3.037,4.211,2.14,2.416-2.14L81.2-104.39l2.416-1.45c3.106-1.795,2.692-2.968-.9-2.761-2.761.207-2.761.207-3.244-2.554C78.922-114.882,77.334-114.882,76.713-111.154Z"></path><path fill="#526db1" transform="translate(-261.65 -36.428)" d="M876.769-331.977,867.8-294.664l36.23-52.719Z"></path><g transform="translate(121.02 -431.201)"><path fill="#ee3b33" transform="translate(-164.63 434.769)" d="M202.211-427.881c.041,10.845-2.5,17.667-4.077,35.826-.865,9.976-.969,18.221-1.4,19.062-1.183,2.316-4.557,2.87-5.718,1.1s-4.038-19.454-4.038-19.454l-8.933-7.412s-10.532.3-12-1.69-4.067-5.073,6.127-6.252,46.685-9.011,49.953-9.6,10.975,1.643-4.23,11.74-28.57,17.868-40.749,27.549-11.981-.842-9.113-5.385,17.008-27.89,17.008-27.89l11.939-23.421s3.218-2.392,4.79,0C202.28-432.964,202.2-431.33,202.211-427.881Z"></path><path fill="#094fa3" transform="translate(-164.967 433.289)" d="M173.892-379.946l13.081-9.632-4.558-4.493Z"></path><path fill="#094fa3" transform="translate(-165.901 433.825)" d="M215.3-408.81c-.894.615-15.72,11.724-15.72,11.724l1.707-9Z"></path><path fill="#094fa3" transform="translate(-165.55 434.345)" d="M197.524-423.12l-1.618,13.049-5.989.992Z"></path><path fill="#094fa3" transform="translate(-165.369 433.648)" d="M184.941-400c.629.748,6.214,9.009,6.214,9.009l2.722-1.914.841-11.054-8.3,1.687Z"></path></g><path fill="#1151a1" transform="translate(115.967 -108.402)" d="M29.351-106.233c-1.933,4.9-4.073,10.492-4.9,12.425L23-90.15h2.14c1.864,0,2.209-.414,3.52-3.451L29.7-97.034l.886-2.936,3.271-10.841L38.292-99.93l-7.71-.04L29.7-97.053h9.249L40.4-93.6c1.243,3.037,1.657,3.451,3.451,3.451,1.726,0,2-.207,1.657-1.243-.276-.621-2.554-6.213-5.039-12.425C36.46-113.688,35.77-115,34.321-115,32.94-115,32.319-113.9,29.351-106.233Z"></path><path fill="#526db1" transform="translate(-6089.848 9778.53)" d="M6748.859-10172.977,6776.4-10189l-82.194,244.988Z"></path></g></g></svg>