<svg viewBox="0 0 1840 340" height="340" width="1840" xmlns:xlink="http://www.w3.org/1999/xlink" xmlns="http://www.w3.org/2000/svg"><defs><clipPath id="b"><rect height="340" width="1840"></rect></clipPath></defs><g clip-path="url(#b)" id="a"><rect fill="none" height="340" width="1840"></rect><g transform="translate(-228.199 217.9)"><path fill="#f36e47" transform="translate(-2.133 -68.184)" d="M378.04-16.831a8.43,8.43,0,0,1-8.409,8.409,8.443,8.443,0,0,1-8.469-8.409,8.494,8.494,0,0,1,8.469-8.469A8.482,8.482,0,0,1,378.04-16.831Zm-45.13,6.292a48.9,48.9,0,0,0-14.761-10.1,42.177,42.177,0,0,0-17.665-3.811,50.8,50.8,0,0,0-18.572,4.114,49.078,49.078,0,0,0-14.882,9.982A45.643,45.643,0,0,0,253.6,22.31a46.572,46.572,0,0,0,3.63,18.512,45.362,45.362,0,0,0,10.042,14.7A47.685,47.685,0,0,0,282.033,65.2a47.019,47.019,0,0,0,18.088,3.509,38.954,38.954,0,0,0,19.419-5.082,59.392,59.392,0,0,0,13.854-10.647v9.437A6.673,6.673,0,0,0,335.33,67.2a6.572,6.572,0,0,0,4.779,1.936,6.672,6.672,0,0,0,4.779-1.936,6.572,6.572,0,0,0,1.936-4.779l.061-39.988a44.713,44.713,0,0,0-3.751-18.149A50.226,50.226,0,0,0,332.91-10.539Zm-32.849.3v0a31.978,31.978,0,0,1,12.7,2.541A33.4,33.4,0,0,1,323.171-.739a33.058,33.058,0,0,1,6.957,10.405,32.114,32.114,0,0,1,2.541,12.644,36.288,36.288,0,0,1-3.025,13.007,32.22,32.22,0,0,1-7.078,10.224,33.128,33.128,0,0,1-10.224,6.776,32.552,32.552,0,0,1-24.924-.121,32.819,32.819,0,0,1-17.3-17.362,31.185,31.185,0,0,1-2.541-12.583,31.9,31.9,0,0,1,2.541-12.644A33.4,33.4,0,0,1,277.073-.8a32.791,32.791,0,0,1,10.345-6.957A33.168,33.168,0,0,1,300.061-10.236Zm69.51,11.494a6.672,6.672,0,0,0-4.779,1.936,6.572,6.572,0,0,0-1.936,4.779l-.06,54.265a6.759,6.759,0,0,0,11.494,4.779,6.533,6.533,0,0,0,1.936-4.719l.061-54.265a6.672,6.672,0,0,0-1.936-4.779A6.393,6.393,0,0,0,369.571,1.258Zm97.217,44.949a6.341,6.341,0,0,0-4.779-1.936,6.434,6.434,0,0,0-4.719,1.936,34.473,34.473,0,0,1-10.526,6.9A32.885,32.885,0,0,1,434,55.583a32.609,32.609,0,0,1-12.825-2.6,34.111,34.111,0,0,1-10.526-7.139,32.922,32.922,0,0,1-7.078-10.526,31.531,31.531,0,0,1-2.541-12.825,32.356,32.356,0,0,1,2.6-12.946A32.953,32.953,0,0,1,410.769-1.1,34.11,34.11,0,0,1,421.3-8.24a32.567,32.567,0,0,1,12.825-2.541A33.106,33.106,0,0,1,446.885-8.3a39.563,39.563,0,0,1,10.526,6.534A6.572,6.572,0,0,0,462.19.169a6.673,6.673,0,0,0,4.779-1.936,5.179,5.179,0,0,0,1.452-5.505,7.967,7.967,0,0,0-2.238-3.872c-1.27-1.149-2.964-2.48-4.961-3.993a46.2,46.2,0,0,0-7.018-4.356,48.833,48.833,0,0,0-8.832-3.448A37.993,37.993,0,0,0,434.6-24.393a50.8,50.8,0,0,0-18.572,4.114A48.062,48.062,0,0,0,401.21-10.3a45.643,45.643,0,0,0-13.43,32.668,46.572,46.572,0,0,0,3.63,18.512,45.363,45.363,0,0,0,10.042,14.7,47.686,47.686,0,0,0,14.761,9.679,46.9,46.9,0,0,0,18.028,3.448h.06a48.337,48.337,0,0,0,11.01-1.21,51.833,51.833,0,0,0,9.256-3.146,39.643,39.643,0,0,0,7.138-4.174,40.219,40.219,0,0,0,4.719-3.932,7.615,7.615,0,0,0,2.42-5.2,7.671,7.671,0,0,0-2.057-4.84Z"></path><path fill="#fcbd1b" transform="translate(-88.686 -20.858)" d="M533.559-145.1a152.266,152.266,0,0,0-59.71,12.039,1.791,1.791,0,0,0-1.149,1.694,1.82,1.82,0,0,0,1.815,1.815,2.573,2.573,0,0,0,.665-.121,144.149,144.149,0,0,1,39.988-5.566c70.841,0,128.252,50.393,128.252,112.583,0,46.824-32.547,86.933-78.887,103.872a3.435,3.435,0,0,0-2.662,3.327,3.382,3.382,0,0,0,3.388,3.388,4.7,4.7,0,0,0,.968-.121c59.1-12.7,96.37-58.137,96.37-113.612-.06-65.275-54.144-119.3-129.038-119.3Z"></path><path fill="#f7a823" transform="translate(-97.338 -47.326)" d="M536.342,88.385a99.515,99.515,0,0,1-40.956-8.651,1.263,1.263,0,0,1-.786-1.21,1.228,1.228,0,0,1,1.21-1.27.9.9,0,0,1,.423.061A95.109,95.109,0,0,0,523.7,81.307c48.578,0,88.022-36,88.022-80.4,0-33.454-22.323-62.129-54.144-74.229a2.414,2.414,0,0,1-1.815-2.359,2.376,2.376,0,0,1,2.359-2.42,2.175,2.175,0,0,1,.665.121c40.593,9.074,70.659,42.347,70.659,81.972,0,46.582-41.682,84.392-93.1,84.392Z"></path><path fill="#eae44c" transform="translate(-59.295)" d="M507.858-197.9c-41.742,0-79.915,13.672-109.256,36.237a.635.635,0,0,0-.3.544.671.671,0,0,0,.665.665.86.86,0,0,0,.363-.121c26.618-17.181,59.528-27.344,95.1-27.344,88.869,0,160.859,63.218,160.859,141.2s-71.99,141.2-160.859,141.2a185.208,185.208,0,0,1-32-2.783,1.675,1.675,0,0,0-.544-.06,2.362,2.362,0,0,0-2.359,2.359,2.287,2.287,0,0,0,1.694,2.238A186.832,186.832,0,0,0,507.8,102.1c92.619,0,167.7-67.151,167.7-150.03.061-82.819-75.015-149.97-167.635-149.97Z"></path><path fill="#f36e47" transform="translate(0 -146.915)" d="M248.2,184.768c0-3.267,2.42-4.719,5.868-4.719a10.217,10.217,0,0,1,3.569.6v-.242c0-1.694-1.089-2.662-3.146-2.662a9.4,9.4,0,0,0-2.843.423,2.663,2.663,0,0,1-.6.121,1.654,1.654,0,0,1-1.694-1.694,1.808,1.808,0,0,1,1.089-1.633,12.9,12.9,0,0,1,4.658-.786,6.716,6.716,0,0,1,4.9,1.633,6.4,6.4,0,0,1,1.573,4.658v6.655a2.014,2.014,0,0,1-2,2,1.854,1.854,0,0,1-2-1.694,5.79,5.79,0,0,1-4.416,1.875c-2.722-.121-4.961-1.694-4.961-4.537Zm9.5-.968v-.726a6.932,6.932,0,0,0-2.662-.544c-1.754,0-2.843.726-2.843,2v.061c0,1.089.907,1.754,2.238,1.754,1.936,0,3.267-1.028,3.267-2.541Zm8.106,8.53a1.688,1.688,0,0,1-1.149-1.633A1.731,1.731,0,0,1,266.349,189a1.868,1.868,0,0,1,.665.121,9.509,9.509,0,0,0,4.053.847c2.843,0,4.174-1.331,4.174-3.993v-.726a5.711,5.711,0,0,1-4.779,2.359,6.405,6.405,0,0,1-6.473-6.776v-.061A6.4,6.4,0,0,1,270.462,174a6.056,6.056,0,0,1,4.719,2.178,2.079,2.079,0,0,1,2.057-2.057,2.04,2.04,0,0,1,2.057,2.057v9.377c0,2.6-.6,4.537-1.875,5.747-1.331,1.331-3.448,1.936-6.292,1.936a12.216,12.216,0,0,1-5.324-.907Zm9.377-11.373a3.4,3.4,0,0,0-3.569-3.448A3.338,3.338,0,0,0,268.1,180.9v.061a3.542,3.542,0,0,0,7.078,0Zm14.156,8.288a7.324,7.324,0,0,1-7.622-7.562v-.06c0-4.174,2.964-7.623,7.2-7.623a6.908,6.908,0,0,1,7.018,7.018,1.891,1.891,0,0,1-1.936,2h-8.167a3.372,3.372,0,0,0,3.569,2.843,4.968,4.968,0,0,0,2.964-.968,1.73,1.73,0,0,1,1.028-.3,1.627,1.627,0,0,1,1.633,1.633,1.532,1.532,0,0,1-.544,1.21A7.6,7.6,0,0,1,289.337,189.245ZM292,180.534c-.242-1.815-1.331-3.085-3.085-3.085-1.694,0-2.843,1.21-3.146,3.085Zm6.594-4.3a2.057,2.057,0,1,1,4.114,0v.181a5.22,5.22,0,0,1,4.235-2.359c3.146,0,4.961,2.057,4.961,5.384v7.562a2.057,2.057,0,0,1-4.114,0v-6.231c0-1.936-.907-2.964-2.48-2.964s-2.6,1.028-2.6,2.964v6.231a2.057,2.057,0,1,1-4.114,0Zm15.668,5.505a7.479,7.479,0,0,1,7.623-7.622,7.3,7.3,0,0,1,4.961,1.633,1.847,1.847,0,0,1-1.21,3.267,2.037,2.037,0,0,1-1.21-.423,4.1,4.1,0,0,0-2.6-.907,3.713,3.713,0,0,0-3.509,3.993v.061a3.759,3.759,0,0,0,3.69,4.053,4.006,4.006,0,0,0,2.722-1.028,1.791,1.791,0,0,1,1.089-.363,1.756,1.756,0,0,1,1.754,1.754,1.832,1.832,0,0,1-.6,1.331,7,7,0,0,1-5.142,1.875A7.576,7.576,0,0,1,314.262,181.743ZM330.717,193a1.841,1.841,0,0,1-1.331-1.694,1.64,1.64,0,0,1,1.633-1.694,1.868,1.868,0,0,1,.665.121,2.375,2.375,0,0,0,.847.181,1.314,1.314,0,0,0,1.452-.847l.121-.3-4.961-11.555a2.536,2.536,0,0,1-.242-.968,2.056,2.056,0,0,1,4.053-.423l3.146,8.469,3.025-8.469a2.084,2.084,0,0,1,2-1.573,1.9,1.9,0,0,1,1.936,1.875,3.945,3.945,0,0,1-.181.968l-5.082,12.22c-1.21,2.964-2.48,4.053-4.9,4.053a6.327,6.327,0,0,1-2.178-.363Zm-81.73,5.868a2.051,2.051,0,0,1,2.3-1.936c1.331,0,2.3.726,2.3,1.936v.061a2.051,2.051,0,0,1-2.3,1.936,2.1,2.1,0,0,1-2.3-2Zm.242,5.384a2.057,2.057,0,1,1,4.114,0v10.768a2.057,2.057,0,1,1-4.114,0Zm7.5,0a2.057,2.057,0,1,1,4.114,0v.181a5.244,5.244,0,0,1,4.3-2.359c3.146,0,4.961,2.057,4.961,5.384v7.5a2.057,2.057,0,1,1-4.114,0v-6.231c0-1.936-.907-2.964-2.48-2.964s-2.6,1.028-2.6,2.964v6.231a2.057,2.057,0,0,1-4.114,0l-.061-10.708Zm17.06,8.53v-6.9h-.121a1.754,1.754,0,0,1,0-3.509h.121v-1.815a2.057,2.057,0,0,1,4.114,0v1.815h1.815a1.754,1.754,0,0,1,0,3.509H277.9v6.231c0,.968.423,1.452,1.331,1.452.121,0,.423-.061.484-.061a1.731,1.731,0,0,1,1.694,1.694,1.766,1.766,0,0,1-1.028,1.573,6.059,6.059,0,0,1-2.359.423C275.544,217.134,273.79,216.166,273.79,212.778Zm16.576,4.477a7.309,7.309,0,0,1-7.623-7.5v-.061a7.226,7.226,0,0,1,7.2-7.562,6.908,6.908,0,0,1,7.018,7.018,1.891,1.891,0,0,1-1.936,2h-8.167a3.372,3.372,0,0,0,3.569,2.843,4.968,4.968,0,0,0,2.964-.968,1.4,1.4,0,0,1,1.028-.3,1.627,1.627,0,0,1,1.633,1.633,1.532,1.532,0,0,1-.544,1.21A8.193,8.193,0,0,1,290.366,217.255Zm2.662-8.772c-.242-1.875-1.331-3.085-3.085-3.085-1.694,0-2.843,1.21-3.146,3.085Zm7.8,11.8a1.636,1.636,0,0,1-1.149-1.633,1.731,1.731,0,0,1,1.694-1.694,2.175,2.175,0,0,1,.665.121,9.429,9.429,0,0,0,3.993.847c2.843,0,4.174-1.391,4.174-3.993V213.2a5.711,5.711,0,0,1-4.779,2.359,6.405,6.405,0,0,1-6.473-6.776v.061a6.4,6.4,0,0,1,6.473-6.776,6.056,6.056,0,0,1,4.719,2.178v-.061a2.079,2.079,0,0,1,2.057-2.057,2.04,2.04,0,0,1,2.057,2.057v9.377c0,2.6-.6,4.537-1.875,5.747-1.331,1.331-3.448,1.936-6.292,1.936a11.991,11.991,0,0,1-5.263-.968Zm9.377-11.373a3.4,3.4,0,0,0-3.569-3.448,3.338,3.338,0,0,0-3.509,3.388v.061a3.338,3.338,0,0,0,3.509,3.388A3.389,3.389,0,0,0,310.208,208.906Zm7.2-4.658a2.057,2.057,0,1,1,4.114,0v.665c.6-1.391,1.573-2.722,2.783-2.722a1.873,1.873,0,0,1,2,2,1.914,1.914,0,0,1-1.573,1.936c-2.117.484-3.267,2.117-3.267,5.021v3.872a2.057,2.057,0,1,1-4.114,0l.061-10.768Zm9.316,8.469c0-3.267,2.42-4.719,5.868-4.719a10.217,10.217,0,0,1,3.569.6v-.242c0-1.694-1.089-2.662-3.146-2.662a9.4,9.4,0,0,0-2.843.423,2.663,2.663,0,0,1-.6.121,1.654,1.654,0,0,1-1.694-1.694,1.692,1.692,0,0,1,1.149-1.573,12.9,12.9,0,0,1,4.658-.786,6.716,6.716,0,0,1,4.9,1.633,6.4,6.4,0,0,1,1.573,4.658v6.655a2.014,2.014,0,0,1-2,2,1.854,1.854,0,0,1-2-1.694v-.061a5.589,5.589,0,0,1-4.416,1.875c-2.783-.06-5.021-1.633-5.021-4.537Zm9.5-.968v-.726a6.932,6.932,0,0,0-2.662-.544c-1.754,0-2.843.726-2.843,2v.061c0,1.089.907,1.754,2.238,1.754,1.936.061,3.267-1.028,3.267-2.541Zm7.441,1.028v-6.9h-.121a1.754,1.754,0,1,1,0-3.509h.121v-1.815a2.057,2.057,0,0,1,4.114,0v1.815h1.815a1.754,1.754,0,1,1,0,3.509h-1.815v6.231c0,.968.423,1.452,1.331,1.452.121,0,.424-.061.484-.061a1.688,1.688,0,0,1,.6,3.267,6.06,6.06,0,0,1-2.359.423C345.417,217.134,343.663,216.166,343.663,212.778Zm16.576,4.477a7.309,7.309,0,0,1-7.622-7.5v-.061a7.226,7.226,0,0,1,7.2-7.562,6.908,6.908,0,0,1,7.018,7.018,1.891,1.891,0,0,1-1.936,2H356.73a3.372,3.372,0,0,0,3.569,2.843,4.968,4.968,0,0,0,2.964-.968,1.4,1.4,0,0,1,1.028-.3,1.576,1.576,0,0,1,1.573,1.633,1.533,1.533,0,0,1-.544,1.21A7.892,7.892,0,0,1,360.239,217.255Zm2.662-8.772c-.242-1.875-1.331-3.085-3.085-3.085-1.694,0-2.843,1.21-3.146,3.085Zm21.234,6.534a2.057,2.057,0,1,1-4.114,0v-.181a5.483,5.483,0,0,1-4.537,2.359c-3.388,0-6.655-2.662-6.655-7.5v-.061c0-4.9,3.206-7.562,6.655-7.562a5.667,5.667,0,0,1,4.537,2.178v-5.263a2.057,2.057,0,1,1,4.114,0Zm-11.192-5.445c0,2.48,1.633,4.053,3.569,4.053s3.509-1.633,3.509-3.993v-.061c0-2.42-1.573-4.053-3.509-4.053A3.782,3.782,0,0,0,372.943,209.572Zm20.206.121a7.479,7.479,0,0,1,7.622-7.622,7.3,7.3,0,0,1,4.961,1.633,2.048,2.048,0,0,1,.666,1.452,1.885,1.885,0,0,1-1.875,1.875,2.037,2.037,0,0,1-1.21-.423,4.1,4.1,0,0,0-2.6-.907,3.713,3.713,0,0,0-3.509,3.993v.061a3.708,3.708,0,0,0,3.69,3.993,4.006,4.006,0,0,0,2.722-1.028,1.791,1.791,0,0,1,1.089-.363,1.756,1.756,0,0,1,1.754,1.754,1.833,1.833,0,0,1-.6,1.331,7.253,7.253,0,0,1-5.142,1.875,7.539,7.539,0,0,1-7.562-7.623Zm14.822,3.025c0-3.267,2.42-4.719,5.868-4.719a10.217,10.217,0,0,1,3.569.6v-.242c0-1.694-1.089-2.662-3.146-2.662a9.4,9.4,0,0,0-2.843.423,2.662,2.662,0,0,1-.6.121,1.654,1.654,0,0,1-1.694-1.694,1.723,1.723,0,0,1,1.089-1.573,12.9,12.9,0,0,1,4.658-.786,6.716,6.716,0,0,1,4.9,1.633,6.4,6.4,0,0,1,1.573,4.658v6.655a2.014,2.014,0,0,1-2,2,1.854,1.854,0,0,1-2-1.694v-.061a5.5,5.5,0,0,1-4.416,1.875c-2.722-.06-4.961-1.633-4.961-4.537Zm9.5-.968v-.726a6.932,6.932,0,0,0-2.662-.544c-1.754,0-2.843.726-2.843,2v.061c0,1.089.907,1.754,2.238,1.754,1.936.061,3.267-1.028,3.267-2.541Zm24.259,5.505a7.309,7.309,0,0,1-7.622-7.5v-.061a7.226,7.226,0,0,1,7.2-7.562,6.908,6.908,0,0,1,7.017,7.018,1.891,1.891,0,0,1-1.936,2h-8.167a3.372,3.372,0,0,0,3.569,2.843,4.968,4.968,0,0,0,2.964-.968,1.487,1.487,0,0,1,1.028-.3,1.576,1.576,0,0,1,1.573,1.633,1.532,1.532,0,0,1-.544,1.21A8.016,8.016,0,0,1,441.727,217.255Zm2.662-8.772c-.242-1.875-1.331-3.085-3.085-3.085-1.694,0-2.843,1.21-3.146,3.085Z"></path><g transform="translate(350.499 22.064)"><path fill="#f36e47" transform="translate(-417.3 -165.7)" d="M419.236,171.387h.907V170.3a6.441,6.441,0,0,1,.423-2.662,2.742,2.742,0,0,1,1.512-1.452,7.625,7.625,0,0,1,2.9-.484c2.178,0,3.267.544,3.267,1.512a1.1,1.1,0,0,1-.363.847,1.065,1.065,0,0,1-.786.363,3.778,3.778,0,0,1-.726-.061c-.363-.06-.847-.242-1.089-.242a1.248,1.248,0,0,0-1.149.726,3.729,3.729,0,0,0-.3,1.633v.847h2.843c1.452,0,2.117.423,2.117,1.21q0,.907-.544,1.089a3.728,3.728,0,0,1-1.573.242h-2.843v9.5a2.218,2.218,0,0,1-.544,1.633,1.822,1.822,0,0,1-1.391.544,1.779,1.779,0,0,1-1.331-.544,2.218,2.218,0,0,1-.544-1.633v-9.5h-1.028a1.985,1.985,0,0,1-1.27-.363,1.128,1.128,0,0,1-.423-.968c.061-.726.665-1.149,1.936-1.149Zm23.472,7.018a9.227,9.227,0,0,1-.484,2.964,6.725,6.725,0,0,1-1.452,2.359,6.372,6.372,0,0,1-2.238,1.512,7.617,7.617,0,0,1-2.964.544,7.835,7.835,0,0,1-2.964-.544,6.373,6.373,0,0,1-2.238-1.512,6.177,6.177,0,0,1-1.452-2.3,9.226,9.226,0,0,1-.484-2.964,9.606,9.606,0,0,1,.484-3.025,5.98,5.98,0,0,1,1.452-2.3,6.372,6.372,0,0,1,2.238-1.512,8.342,8.342,0,0,1,5.929,0,6.616,6.616,0,0,1,2.3,1.512,7.442,7.442,0,0,1,1.452,2.3A10.94,10.94,0,0,1,442.708,178.4Zm-3.872,0a5.055,5.055,0,0,0-.907-3.206,2.849,2.849,0,0,0-2.42-1.149,3.47,3.47,0,0,0-1.754.484,3.268,3.268,0,0,0-1.149,1.512,6.452,6.452,0,0,0,0,4.6,3.268,3.268,0,0,0,1.149,1.512,2.882,2.882,0,0,0,1.754.544,2.849,2.849,0,0,0,2.42-1.149,4.987,4.987,0,0,0,.907-3.146Zm7.018-5.324a2.057,2.057,0,1,1,4.114,0v.665c.6-1.391,1.573-2.722,2.783-2.722a1.873,1.873,0,0,1,2,2,1.914,1.914,0,0,1-1.573,1.936c-2.117.484-3.267,2.117-3.267,5.021v3.872a2.057,2.057,0,1,1-4.114,0V173.081Z"></path></g><path fill="#f36e47" transform="translate(-114.956 -165.324)" d="M546.157,220.6a1.828,1.828,0,0,0-.968.3,4.442,4.442,0,0,0-2,1.149,2.1,2.1,0,0,0-1.936-1.391,2,2,0,0,0-.907.242,1.067,1.067,0,0,0-.786.726,2.123,2.123,0,0,0-.363,1.089v10.768a2.057,2.057,0,0,0,4.114,0v-3.872c0-2.964,1.149-4.537,3.267-5.021a1.914,1.914,0,0,0,1.573-1.936A1.89,1.89,0,0,0,546.157,220.6Z"></path></g></g></svg>