<svg viewBox="0 0 1840 340" height="340" width="1840" xmlns:xlink="http://www.w3.org/1999/xlink" xmlns="http://www.w3.org/2000/svg"><defs><clipPath id="b"><rect height="340" width="1840"></rect></clipPath></defs><g clip-path="url(#b)" id="a"><rect fill="none" height="340" width="1840"></rect><g transform="translate(-5321.625 -1696.646)"><g transform="translate(5341.625 1716.314)"><path transform="translate(1.319 299.677)" d="M15.651-298.753c-3.6.9-7.276,2.453-7.391,7.429S12-285.439,12-285.439H9v6.578H49v-7.2H16.159s-3.213-4.021-.509-5.65,11.179-1.091,11.179-1.091,6.965-.116,9.223,1.482.285,5.133-.925,5.259,5.127,0,5.127,0c.206-.495,1.632-1.169,2.062-2.487.8-2.44.572-6.671-1.512-8.229C35.55-300.708,20.354-299.853,15.651-298.753Z"></path><path transform="translate(0.318 299.297)" d="M15.128-272.7a9.537,9.537,0,0,0-4.4,3.4c-1.407,1.863-2.47,7.546,0,11.241a8.487,8.487,0,0,0,7.9,4.086H19.7v-6.855a5.249,5.249,0,0,1-1.662-.149,3.089,3.089,0,0,1-1.7-3.3c.2-1.8.952-2.642,4.454-2.842l4.352.041s1.965.054,4.669-.041c3.372-.123,8.13,0,8.14,3.358.008,4.678-8.14,3.532-8.14,3.532v-6.89l-4.669.041v13.308h6.989c6.3-.3,7.52-1.1,9.621-3.5a11.406,11.406,0,0,0,1.3-11.907,10.692,10.692,0,0,0-4.4-3.4C34.243-274.384,19.431-274.6,15.128-272.7Z"></path><path transform="translate(0.346 299.801)" d="M15.053-249.939c-3.9,1.7-5.641,4.524-5.641,9.827a10.369,10.369,0,0,0,10.394,10.157c4.7,0,7.325-2.838,9.627-8.542,1.389-5.51,4.98-6.726,7.181-4.925,2.1,1.7,1.685,5.278-.616,5.878-.779.208-1.883.548-1.883.548v6.394a8.187,8.187,0,0,0,4.5-.854c9.106-3.8,6.145-19.075-3.761-19.075-5.5,0-6.876.964-10.078,7.368-2.7,5.3-3.072,6.3-5.473,6-3.5-.4-4.3-4.1-1.3-6,.714-.459,1.8-1.177,1.8-1.177v-6.523S18.557-251.5,15.053-249.939Z"></path><path transform="translate(1.416 299.841)" d="M8.826-219.315H41.4v-6.732H8.826Z"></path><path transform="translate(0.44 299.801)" d="M5.3-212.945c-5.6,2.3-7,11.807-2.3,16.41,1.9,2,3.1,2.1,21.313,2.1H43.227V-200.6H41.174l-4.674-.75s-12.03,1.058-14.755.348-4.539-4.672-.718-6.053,13.37-.993,15.624.354,1.049,4.91-.151,5.352,2.165,1.714,4.674.75,2.686-6.577,2.43-7.2c-1.479-3.59-1.616-6.376-15.212-6.523s-16.785,4.375-14.184,11.279c.7,2.1.5,2.2-3.5,1.9-3.5-.3-4.1-.123-4.995-1.6s-.07-3.913,1.431-4.313c1.6-.4,2.217-.573,2.217-.573v-6.3A11.5,11.5,0,0,0,5.3-212.945Z"></path><path transform="translate(0.398 299.799)" d="M9.721-181.923H22.355c13.608,0,15.3-.29,15.361,2.822s-.842,3.661-3.759,3.982c-1.693.19-5.658-.134-10.8,0H9.721v6.6H23.156c15.109,0,17.3.854,20.513-5,.188-3.249.289-3.813-.4-5.914s-2.855-2.491-2.355-2.491h2.355v-6.5H9.721Z"></path><path transform="translate(0.359 299.828)" d="M11.806-161.329c-5.2,5.5-1.927,14.693,6.986,14.4,5.542.038,5.68-2.252,12.885-11.758,1.6-2.1,2.827-1.785,4.728-1.785,6.4,0,6.859,8.355,1.7,10.241-1.7.3-3.528.655-3.528.655v2.571s6.248.221,8.417-4.011.8-10.607-5.509-11.807c-4.6-.8-7.073.121-11.1,6.857-3.173,6.337-7.707,7.2-10.184,6.462s-4.515-2.38-4.515-4.982c0-3,.5-4.583,3.3-5.784,1.7-.8,3.769-.216,3.769-.716v-2.423S13.643-163.35,11.806-161.329Z"></path><path transform="translate(0.408 299.845)" d="M9.776-132.365v2.384s5.948.045,14.27.045c12.708,0,14.209.2,16.01,2,2.4,2.4,1.884,4.794-.217,6.895-1.3,1.3-3.585,1.388-15.392,1.388-12.108,0-14.671-.031-14.671-.031v2.567s2.624-.038,14.671-.038c13.008,0,14.609.026,17.011-1.875,2.8-2.2,3.28-6.983,1.179-9.284l-1.755-1.667h2.454v-2.384H9.776Z"></path><path transform="translate(0.327 299.909)" d="M3.572-110.718c-5.5,2.4-4.576,10.563-.951,12.773S12.033-96.1,12.033-96.1L43.5-96.03V-98.55H40.886s2.833-2.063,3-4.7-.019-4.14-2.3-6.088c-2.4-2.2-3.344-2.487-13.451-2.487s-11.724.285-14.125,2.487c-2.8,2.6-3.036,6.444-1.017,8.8s.834,1.556-3.169,1.556c-4.9,0-7.586-1.663-7.586-5.365,0-3,1.567-3.921,3-4.494a12.251,12.251,0,0,1,3.889-.5v-2.487S7.574-112.419,3.572-110.718Zm35.837,2.533c2.236,1.09,3.23,5.5,1.129,7.6-1.2,1.3-3.9,1.6-12.408,1.6-10.106,0-11.007-.2-12.408-2.2-2-2.9-1.881-4.847,0-6.331s3.7-1.822,12.408-1.822S35.71-109.736,39.409-108.185Z"></path><path transform="translate(0.322 299.913)" d="M15.127-90.28c-6.6,1.53-8.349,7.962-2.361,12.518h4.327A6.427,6.427,0,0,1,11.7-83.652c-.5-5.256,8.258-5.484,11.859-4.011,1.876.767,2.922,3.153,3.121,6.043.1,3.265-.576,3.859-.576,3.859H9.847v2.494H24.738c14.209,0,14.825.435,17.126-1.967a7.633,7.633,0,0,0,.279-10.744,8.051,8.051,0,0,0-7-2.3v2.3h1.5a5.11,5.11,0,0,1,5.225,5.443c0,2.9-2.723,4.564-7.826,4.564h-4.9v-3.4c0-4.9-3.095-8.818-8.2-9.318A17.126,17.126,0,0,0,15.127-90.28Z"></path><path transform="translate(1.407 299.977)" d="M-1.188-68.817v2.457H10.971s.641-.339-.259.561A6.192,6.192,0,0,0,8.3-61.079a7.729,7.729,0,0,0,2.413,5.88c2.9,2.6,22.279,3.292,27.682.991,4.2-1.8,4.279-4.411,4.418-6.8s-2.507-4.461-2.793-5.3a10.212,10.212,0,0,1,2.385,0v-2.513Zm41.207,5.934a5.44,5.44,0,0,1,0,4.251s-2.393,3.068-13,3.068c-12.408,0-16.308-1.212-16.308-5.415,0-4.3,4.04-5.576,16.948-5.276C39.667-65.954,39.036-65.1,40.019-62.883Z"></path><path transform="translate(0.294 299.901)" d="M13.856-47.359a12.632,12.632,0,0,0-3.177,2.608C7.523-40.2,9.56-36.342,12.754-34.122c1.706,1.185,8.108,1.7,15,1.713,5.319.01,11.172-.293,13.1-1.8,4.131-3.229,3.828-9.012,1.152-11.4-2.3-2.4-3.656-2.729-14.863-2.729C20.233-48.339,15.057-48.06,13.856-47.359Zm23.8,2.243c5.1,1.7,5.7,7.486.8,9.387-1.8.669-5.938.867-10.705.894C22-34.8,15.37-35.223,13.856-36.271a4.911,4.911,0,0,1,.449-8.48C17.407-46.352,33.354-46.617,37.657-45.116Z"></path><path transform="translate(0.37 299.967)" d="M16.464-15.532c-3.212.8-6.436,2.306-6.966,6.383s.795,5.739,2.011,6.924c2.615,2.549,6.8,2.247,6.8,2.247V-2.419s-.927-.26-2.228-.561c-3.1-.7-4.4-3.1-3.6-6.3.7-2.9,2.2-3.5,9.606-3.9l4.5-.3s6.97-.329,10.723.617S41.587-9.32,41.587-9.32s.786,3.794-2.414,5.592S28.8-2.511,28.8-2.511V-13.589l-2.212.1V.022h5.1C40.794.022,45.3-3.88,43.7-10.584c-1-3.9-5.444-5.85-16.81-5.3C21.783-15.787,17.565-15.732,16.464-15.532Z"></path><path transform="translate(1.376 23.915)" d="M36.018,134.337v2.2H7.3v-2.2Z"></path><path transform="translate(1.376 142.653)" d="M36.018,134.337v2.2H33.14a7.06,7.06,0,0,1,2.565,2.476,7.788,7.788,0,0,1,.648,3.62H34.562a6.588,6.588,0,0,0-1.1-4,7.617,7.617,0,0,0-3.593-2.093H7.3v-2.2Z"></path><path fill="red" transform="translate(1.652 299.803)" d="M66-278.187v20.813l8.906,1.2a106.431,106.431,0,0,1,55.835,25.616c12.708,11.507,24.915,32.32,30.019,51.332,2.5,9.106,2.7,11.307,2.7,29.818s-.2,20.713-2.7,29.819c-10.907,40.525-39.625,67.842-79.95,76.147a72.964,72.964,0,0,1-11.307,1.6H66V.186l7.3-.5c25.016-1.9,42.726-6.5,61.238-15.81,32.62-16.31,57.035-45.028,69.043-81.15,4.5-13.608,6.3-22.514,7.7-38.824,2.6-29.418-3.1-59.637-15.81-84.953-13.809-27.517-34.321-48.33-60.938-61.638C116.031-292,98.32-296.6,73.3-298.5L66-299Z"></path></g></g></g></svg>