<svg viewBox="0 0 1840 340" height="340" width="1840" xmlns:xlink="http://www.w3.org/1999/xlink" xmlns="http://www.w3.org/2000/svg"><defs><clipPath id="b"><rect height="340" width="1840"></rect></clipPath></defs><g clip-path="url(#b)" id="a"><rect fill="none" height="340" width="1840"></rect><g transform="translate(-19 842)"><path fill="#e82430" d="M39-766.874v55.126H59.25v-46.5l19.8.075,19.763.112.113,23.138L99-711.747h20.25V-822H99l-.075,22.388-.113,22.425-19.763.112L59.25-777v-45H39Z"></path><path fill="#e82430" transform="translate(-488.118)" d="M820-766.874v55.126h19.875V-822H820Z"></path><path fill="#e82430" transform="translate(-539.992)" d="M912.75-808.312v13.688H903v17.588l4.8.113,4.763.113.112,32.513.075,32.551h19.875V-777h12l-.075-8.738-.112-8.7-5.888-.112-5.925-.113V-822H912.75Z"></path><path fill="#e82430" transform="translate(-622.491)" d="M1035-766.874v55.126h19.875V-733.61c0-27.713.338-31.726,3.038-37.126,3.225-6.338,9.225-9.3,16.688-8.175,6.75,1.013,11.138,5.25,13.163,12.825.563,2.138.637,5.213.75,28.351l.15,25.988h19.875l-.15-28.8c-.112-27.638-.15-28.876-.9-31.951-1.65-6.638-3.9-10.875-8.025-14.963a36.418,36.418,0,0,0-15.788-8.963c-3.3-.9-11.888-.863-15.3.075a33.664,33.664,0,0,0-10.8,5.438,21.838,21.838,0,0,1-2.513,1.912c-.113,0-.187-7.425-.187-16.5V-822H1035Z"></path><path fill="#e82430" transform="translate(-159.31 -40.657)" d="M328.626-756.217a41.014,41.014,0,0,0-21.9,12.188A44.377,44.377,0,0,0,293.9-712.154a42.416,42.416,0,0,0,13.275,31.576A41.9,41.9,0,0,0,326.451-669.7c3.375.938,4.238,1.013,10.988,1.013,6.938,0,7.5-.037,10.65-1.013,8.138-2.513,13.763-5.813,19.2-11.288a40.385,40.385,0,0,0,9.488-14.063l.713-1.913h-20.85l-1.725,2.363a19.017,19.017,0,0,1-10.538,7.238c-1.65.525-3.488.675-6.938.675-4.125,0-5.025-.112-7.425-.975a34.363,34.363,0,0,1-4.838-2.25,25.3,25.3,0,0,1-9.863-11.475l-.75-1.95h64.389l.45-2.175a43.658,43.658,0,0,0,.225-14.325,44.362,44.362,0,0,0-12.713-24.976A40.461,40.461,0,0,0,345.2-756.4,54.634,54.634,0,0,0,328.626-756.217ZM344.6-737.842a32.174,32.174,0,0,1,4.463,1.988,25.759,25.759,0,0,1,8.138,8.325c1.013,1.988,2.738,6.788,2.738,7.725,0,.188-9.675.338-22.913.338H314.113l.225-1.237a31.583,31.583,0,0,1,1.95-4.763A24.372,24.372,0,0,1,332.563-738.4,27.156,27.156,0,0,1,344.6-737.842Z"></path><path fill="#e82430" transform="translate(-1168.761 -40.685)" d="M1943.9-756.19a42.029,42.029,0,0,0-20.663,10.8,46.18,46.18,0,0,0-12.45,45.826,45.484,45.484,0,0,0,10.088,17.588,45.56,45.56,0,0,0,20.588,12.263,54.252,54.252,0,0,0,17.738.9,44.183,44.183,0,0,0,30.151-20.813,43.315,43.315,0,0,0,3.3-7.2c0-.075-4.688-.112-10.425-.112h-10.463l-1.2,1.838c-4.275,6.675-13.65,9.975-22.838,8.063a23.519,23.519,0,0,1-12.713-7.388c-2.1-2.25-4.988-7.088-4.988-8.363,0-.45,5.213-.525,32.026-.525,30.188,0,32.063-.038,32.251-.675,1.2-4.163,1.313-12.375.188-17.813-3-14.813-13.388-27.413-26.7-32.438a38.861,38.861,0,0,0-15.45-2.663A38.987,38.987,0,0,0,1943.9-756.19Zm13.688,17.813a22.616,22.616,0,0,1,16.65,15.338,18.711,18.711,0,0,1,.787,3.075c0,.45-3.562.525-22.875.525h-22.875l.225-1.05a30.059,30.059,0,0,1,4.05-8.475A23.741,23.741,0,0,1,1957.591-738.377Z"></path><path fill="#e82430" transform="translate(-317.504 -41.43)" d="M580.2-755.07c-15.9,3.45-27.6,14.813-31.726,30.938a53.253,53.253,0,0,0,.6,27c4.763,16.538,18.375,28.013,34.838,29.4,10.275.863,22.05-3.113,29.476-10.013a27.884,27.884,0,0,1,2.775-2.325,27.847,27.847,0,0,1,.225,4.875v4.875h18v-82.877h-18v5.25c0,2.888-.037,5.25-.112,5.25-.038,0-1.388-1.237-2.925-2.775a37.582,37.582,0,0,0-16.463-9.413C593.059-755.895,584.472-756.007,580.2-755.07Zm.638,21.038a19.566,19.566,0,0,1,6.263,5.213l1.425,1.8,1.463-1.875a21.96,21.96,0,0,1,6.525-5.4c2.175-1.125,6.075-.9,9.113.525,9.713,4.538,12.788,17.513,6.75,28.538-3.788,7.013-12.15,14.513-21.113,18.975l-2.775,1.388-2.475-1.2c-6.6-3.225-14.85-9.788-18.6-14.738a33.96,33.96,0,0,1-5.175-10.275,29.193,29.193,0,0,1-.187-10.688C564.034-731.294,573.709-737.632,580.834-734.032Z"></path><path fill="#e82430" transform="translate(-768.145 -41.384)" d="M1304.257-755.3a43.814,43.814,0,0,0-23.513,12.525,41.9,41.9,0,0,0-11.475,19.913,53.229,53.229,0,0,0-.712,18.563,43.818,43.818,0,0,0,27.488,33.563,41.561,41.561,0,0,0,16.238,3c15.038,0,27.676-6.675,35.851-18.975a60.341,60.341,0,0,0,5.138-10.013c.225-.6-.45-.638-10.913-.638H1331.22l-1.687,2.288c-6.788,9.338-17.55,11.85-28.126,6.675a25.661,25.661,0,0,1-12.938-17.025,35.476,35.476,0,0,1,.75-15.9,23.7,23.7,0,0,1,12-13.913,21.6,21.6,0,0,1,11.063-2.4c7.538.075,12.863,2.963,16.988,9.188l1.95,2.963h22.051l-.262-1.163c-.375-1.875-3.075-7.35-5.288-10.65a42.954,42.954,0,0,0-5.738-6.6c-5.625-5.4-11.4-8.475-19.95-10.725A51.56,51.56,0,0,0,1304.257-755.3Z"></path><path fill="#e82430" transform="translate(-925.612 -41.332)" d="M1554.013-755.317c-20.1,3.638-34.013,21.338-34.013,43.276,0,15,6.188,28.538,16.613,36.413a39.3,39.3,0,0,0,26.851,7.763c8.325-.788,17.4-4.763,23.063-10.088a20.3,20.3,0,0,1,2.625-2.213,27.84,27.84,0,0,1,.225,4.875v4.875h18v-82.877h-18v5.25a48.515,48.515,0,0,1-.15,5.25,33.568,33.568,0,0,1-2.55-2.475,36.173,36.173,0,0,0-18.113-9.938A44.019,44.019,0,0,0,1554.013-755.317Zm.188,21.375a22.481,22.481,0,0,1,4.725,3.788l2.7,2.775,1.012-1.238a24.32,24.32,0,0,1,6.263-5.4c5.363-2.963,13.575.413,17.1,7.013,4.088,7.688,3.075,17.063-2.775,25.238-3.75,5.25-12.075,12.038-19.013,15.45l-2.888,1.388-3.3-1.8c-9.938-5.363-17.175-12.15-20.738-19.425a21.578,21.578,0,0,1-2.662-10.763c0-8.888,4.613-15.713,12-17.813A10.078,10.078,0,0,1,1554.2-733.942Z"></path><path fill="#e82430" transform="translate(-1098.11 -41.249)" d="M1826.488-755.475c-4.238,1.05-7.65,3.563-11.438,8.475l-1.013,1.313L1814-749.55v-3.825h-18V-670.5h19.875v-25.613c0-27.713.037-28.163,2.1-32.176,2.175-4.313,6.9-7.35,12.713-8.25l3.188-.45V-756l-2.7.037A24.34,24.34,0,0,0,1826.488-755.475Z"></path><path fill="#6d6e70" transform="translate(-281.934 -238.79)" d="M519.013-438.982c-.412.863-24.638,57.526-27.751,64.914L490.1-371.33h6.938l4.95-11.363,4.913-11.325h32.4l4.875,11.325,4.838,11.363h7.35l-14.7-34.238-14.7-34.2-3.75-.113C519.463-439.995,519.426-439.995,519.013-438.982ZM530-416.031c3.45,8.288,6.225,15.188,6.113,15.263-.112.112-6.075.15-13.275.112l-13.125-.112,6.488-15.188c3.563-8.363,6.563-15.45,6.713-15.75C523.176-432.457,522.726-433.469,530-416.031Z"></path><path fill="#6d6e70" transform="translate(-606.867 -238.747)" d="M1057.251-426.687c0,7.313-.112,13.313-.262,13.313-.187,0-.787-.713-1.388-1.538-1.35-1.95-4.95-4.613-8.063-6.038-7.875-3.6-18.863-2.588-26.026,2.4A26.35,26.35,0,0,0,1010-396.8a26.591,26.591,0,0,0,9.675,20.738,31.339,31.339,0,0,0,10.763,5.288,32.932,32.932,0,0,0,12.563.038,25.3,25.3,0,0,0,11.513-6.525l2.738-2.775v8.663h6.375V-440h-6.375Zm-15.263,9.75a21.338,21.338,0,0,1,15.075,15.6,20.936,20.936,0,0,1-14.588,24.9c-3.075.9-9.675.638-12.788-.488-4.763-1.763-9.525-6.038-11.475-10.425a25.068,25.068,0,0,1-1.238-14.925,20.609,20.609,0,0,1,16.275-14.963A28.247,28.247,0,0,1,1041.988-416.937Z"></path><path fill="#6d6e70" transform="translate(-401.031 -266.888)" d="M701.075-394.233c-11.1,2.925-19.013,11.85-20.25,22.8a26.55,26.55,0,0,0,19.688,28.613,35.565,35.565,0,0,0,14.213.188,27.97,27.97,0,0,0,17.588-14.025l.638-1.2h-3.488l-3.488.038-.937,1.5a19.962,19.962,0,0,1-11.288,8.025,30.666,30.666,0,0,1-11.4,0,21,21,0,0,1-14.513-14.25,22.475,22.475,0,0,1,.15-12.788A20.984,20.984,0,0,1,703.1-388.8a20.58,20.58,0,0,1,21.713,8.25l1.388,2.063h3.375a13.227,13.227,0,0,0,3.338-.225,23.751,23.751,0,0,0-1.35-2.775,26.4,26.4,0,0,0-12.375-11.25A30.674,30.674,0,0,0,701.075-394.233Z"></path><path fill="#6d6e70" transform="translate(-501.357 -267.028)" d="M862.9-394.468c-13.5,2.85-22.688,14.7-21.638,27.976,1.088,14.213,12.3,24.526,26.851,24.6,7.275.075,12.563-2.063,17.363-6.863l2.888-2.925v8.588h6.375v-50.626h-6.375v9.075l-1.5-1.913a21.381,21.381,0,0,0-10.5-7.163C873.59-394.656,865.865-395.068,862.9-394.468Zm12.15,6.338a21.388,21.388,0,0,1,13.125,14.55,27.552,27.552,0,0,1,0,10.8,21.241,21.241,0,0,1-14.4,14.588,27.269,27.269,0,0,1-11.025.038A21.653,21.653,0,0,1,850-357.98c-4.313-8.1-2.812-18.938,3.488-25.238a23.531,23.531,0,0,1,9.6-5.438A26.24,26.24,0,0,1,875.052-388.131Z"></path><path fill="#6d6e70" transform="translate(-712.822 -266.886)" d="M1199.657-394.235a26.76,26.76,0,0,0-17.025,38.438,29.535,29.535,0,0,0,11.325,10.988,25.543,25.543,0,0,0,12,2.813,23.645,23.645,0,0,0,11.438-2.7,26.751,26.751,0,0,0,12-11.663c1.763-3.488,1.8-3.375-1.95-3.375l-3.3.038-.9,1.95c-1.913,4.088-7.163,8.1-12.3,9.45a23.726,23.726,0,0,1-10.275-.038,22.119,22.119,0,0,1-9-5.475c-2.625-2.663-5.1-7.388-5.475-10.35l-.225-1.95h46.239v-2.925c0-9.975-6.788-19.95-16.388-24A26.541,26.541,0,0,0,1199.657-394.235Zm10.913,5.438a21.536,21.536,0,0,1,8.963,4.95,20.133,20.133,0,0,1,5.4,8.25c1.5,4.313,3.75,3.863-18.975,3.863-22.463,0-20.363.337-19.313-3.113C1189.757-385.085,1200.595-391.385,1210.57-388.8Z"></path><path fill="#6d6e70" transform="translate(-818.114 -266.888)" d="M1363-394.271c-3.75,1.2-6.863,3.225-7.875,5.063-.825,1.613-1.125,1.125-1.125-1.838v-2.813h-6v50.626h6v-15.15c0-8.588.188-16.463.412-18.113,1.013-7.688,5.7-12.375,12.75-12.788,6.713-.375,11.775,3,13.913,9.3.787,2.363.825,3.038.975,19.575l.113,17.175h6.3l.112-17.738c.113-17.513.113-17.738.975-19.838a15.453,15.453,0,0,1,6.713-7.275,11.5,11.5,0,0,1,4.988-1.2c7.5-.45,12.9,3.713,14.438,11.063.412,1.988.563,6.113.563,18.75v16.238h6.375v-16.275c0-18.263-.187-20.175-2.437-24.9-4.5-9.45-16.8-13.313-27.038-8.475a15.9,15.9,0,0,0-6.563,5.4,9.763,9.763,0,0,1-1.425,1.875c-.15,0-.562-.6-.975-1.35-1.65-3.075-6.3-6.188-11.25-7.463A21.125,21.125,0,0,0,1363-394.271Z"></path><path fill="#6d6e70" transform="translate(-952.487 -268.746)" d="M1563-391.812c0,.112,4.388,11.138,9.788,24.488,8.925,22.2,9.75,24.376,9.375,25.388-.225.6-2.175,4.988-4.313,9.75l-3.938,8.625,3.225.112a20.517,20.517,0,0,0,3.3,0c.075-.112,27.488-63.826,28.951-67.352l.487-1.2H1603.2l-8.513,19.95c-4.688,10.988-8.625,20.1-8.738,20.25-.15.15-3.9-8.85-8.325-19.95L1569.563-392H1566.3A13.982,13.982,0,0,0,1563-391.812Z"></path><path fill="#6d6e70" transform="translate(-367.607 -438.807)" d="M633.263-119.074a8.786,8.786,0,0,0-1.388,15.338,32.085,32.085,0,0,0,4.425,2.288c5.363,2.175,7.313,3.863,8.025,7.013a7.481,7.481,0,0,1-3.825,8.325c-2.363,1.275-7.088,1.2-10.313-.15-2.213-.938-2.363-.938-2.7-.3-.6,1.163-.45,1.388,1.613,2.288,2.288,1.013,8.138,1.425,10.613.75a10.078,10.078,0,0,0,6-4.613,7.758,7.758,0,0,0,1.087-4.8c-.037-4.763-1.95-7.238-7.688-9.825-7.125-3.225-8.625-4.725-8.625-8.55,0-5.963,6.3-8.513,13.538-5.475.412.188.713-.037,1.013-.675.675-1.538-1.05-2.213-5.925-2.4C635.588-119.974,634.988-119.862,633.263-119.074Z"></path><path fill="#6d6e70" transform="translate(-761.864 -438.962)" d="M1263.063-119.594c-.412.075-1.725.263-2.888.375l-2.175.225v35.476l3.338.225c4.05.3,9-.263,11.288-1.275a9.028,9.028,0,0,0,5.513-7.8c.375-4.275-1.387-7.538-5.138-9.3-2.175-1.05-2.213-1.125-1.35-1.538a10.82,10.82,0,0,0,2.288-1.65,8.136,8.136,0,0,0-2.925-13.988A31.6,31.6,0,0,0,1263.063-119.594Zm6.6,2.625c3.45,1.238,5.325,4.5,4.425,7.763a6.686,6.686,0,0,1-3.863,4.613c-1.65.825-2.362.938-5.925.938h-4.05v-6.713c0-5.025.113-6.788.488-6.9C1261.825-117.719,1268.088-117.494,1269.663-116.969Zm.113,16.088c3.713,1.125,5.85,3.863,5.85,7.538,0,5.438-3.975,8.213-11.438,7.988l-3.75-.112-.112-7.688c-.037-4.2,0-7.913.112-8.213.188-.413.9-.488,3.863-.3A33.633,33.633,0,0,1,1269.775-100.881Z"></path><path fill="#6d6e70" transform="translate(-314.371 -439.369)" d="M542-101v18h2.625v-18H564.5v18h2.625v-36H564.5v16.125H544.625V-119H542Z"></path><path fill="#6d6e70" transform="translate(-412.494 -439.369)" d="M699-101v18h18.375v-1.875l-7.95-.075-7.988-.112-.112-7.988L701.25-101H715.5v-1.875H701.25l.075-7.05.112-7.013,7.613-.113,7.575-.075V-119H699Z"></path><path fill="#6d6e70" transform="translate(-453.744 -439.369)" d="M765-106.887c0,13.05.225,15.375,1.8,18.6,2.025,4.125,5.4,5.85,11.1,5.588,2.888-.113,3.713-.3,5.4-1.238a10.147,10.147,0,0,0,4.613-4.763c1.537-3.038,1.838-5.813,1.838-18.413V-119h-2.588l-.112,13.388c-.113,13.088-.15,13.463-.975,15.3a9.087,9.087,0,0,1-7.913,5.7c-3.263.3-5.175-.375-7.35-2.663-3.113-3.15-3.263-4.05-3.45-19.088L767.175-119H765Z"></path><path fill="#6d6e70" transform="translate(-609.992 -439.369)" d="M1015-101v18h18.375v-1.875l-7.95-.075-7.988-.112-.112-16.988L1017.25-119H1015Z"></path><path fill="#6d6e70" transform="translate(-649.991 -439.369)" d="M1079-101v18h2.25v-18h20.25v18h2.25v-36h-2.25l-.075,7.95-.113,7.988h-19.875l-.112-7.988-.075-7.95H1079Z"></path><path fill="#6d6e70" transform="translate(-706.24 -439.369)" d="M1169-106.175c0,13.5.15,14.963,1.8,18.113a11.341,11.341,0,0,0,4.575,4.538c1.913.975,7.575,1.2,10.088.338a12,12,0,0,0,6.638-6.263l1.088-2.363.112-13.613.113-13.575h-2.25l-.15,13.013c-.15,14.1-.187,14.55-2.25,17.588-1.725,2.625-4.088,3.713-7.763,3.713-4.538-.038-6.9-1.725-8.738-6.263-.75-1.875-.825-2.7-.937-15.038L1171.213-119H1169Z"></path><path fill="#6d6e70" transform="translate(-947.487 -440.692)" d="M1560.738-116.252c-1.838.675-4.613,2.288-4.613,2.738a3.075,3.075,0,0,0,.488.863c.45.638.6.6,2.475-.563a7.829,7.829,0,0,1,4.538-1.388c3.263-.187,4.875.338,6.525,2.175,1.5,1.65,1.875,3.15,1.65,6.525-.263,4.575-2.662,8.1-11.775,17.438-3.263,3.375-5.025,5.475-5.025,6,0,.788.037.788,10.313.788h10.313v-1.875h-8.438c-5.963,0-8.438-.113-8.438-.413a55.382,55.382,0,0,1,5.175-5.738c5.775-5.925,7.425-8.025,9.113-11.625,2.7-5.738,1.463-11.775-2.887-14.325A12.642,12.642,0,0,0,1560.738-116.252Z"></path><path fill="#6d6e70" transform="translate(-904.05 -455.871)" d="M1494.125-92.41a11.584,11.584,0,0,0-7.65,6.788c-.863,1.875-.975,2.513-.975,6.563,0,4.163.075,4.65,1.05,6.638a12,12,0,0,0,6.338,5.775c2.325.75,8.738.6,10.838-.338,1.2-.488,1.35-.713,1.2-1.575-.15-.713-.375-.9-.825-.713-.337.113-1.537.488-2.662.75-7.425,1.838-12.863-1.763-13.725-9l-.263-2.1h19.35l-.225-2.625c-.225-2.663-1.537-6.188-2.812-7.613a9.36,9.36,0,0,0-6.113-2.7A14.034,14.034,0,0,0,1494.125-92.41Zm5.513,2.288a6.572,6.572,0,0,1,1.425.975,9.19,9.19,0,0,1,2.888,5.813l.225,1.838h-16.238v-1.05a10.441,10.441,0,0,1,2.438-5.25,7.759,7.759,0,0,1,7.5-2.625C1498.7-90.273,1499.488-90.16,1499.638-90.123Z"></path><path fill="#6d6e70" transform="translate(-993.736 -456.869)" d="M1629-78.25V-65.5h2.625V-91H1629Z"></path><circle fill="#a6a8ab" transform="translate(363.383 -539.993)" r="4.875" cy="4.875" cx="4.875"></circle><circle fill="#a6a8ab" transform="translate(546.012 -539.993)" r="4.875" cy="4.875" cx="4.875"></circle></g></g></svg>