<svg viewBox="0 0 1840 340" height="340" width="1840" xmlns:xlink="http://www.w3.org/1999/xlink" xmlns="http://www.w3.org/2000/svg"><defs><clipPath id="b"><rect height="340" width="1840"></rect></clipPath></defs><g clip-path="url(#b)" id="a"><rect fill="none" height="340" width="1840"></rect><g transform="translate(-230 1311.426)"><path fill="#043b5c" transform="translate(-3194.623)" d="M4750.675-1291.274a13.153,13.153,0,0,0-11.274,9.919,17.85,17.85,0,0,0,.173,8.275,14.654,14.654,0,0,0,3.893,6.2c6.343,5.248,16.061,4.008,20.415-2.566,4.729-7.209,2.307-17.041-5.075-20.588a13.874,13.874,0,0,0-5.536-1.384A18.914,18.914,0,0,0,4750.675-1291.274Zm6,3.806a9.847,9.847,0,0,1,5.017,5.046c1.038,2.076,1.1,2.336,1.1,4.931,0,2.509-.086,2.941-.922,4.7a10.654,10.654,0,0,1-4.758,5.046c-1.384.721-1.817.807-4.412.807-2.422,0-3.085-.115-4.239-.692a10.993,10.993,0,0,1-6-8.247,10.9,10.9,0,0,1,7.7-12.255A12.039,12.039,0,0,1,4756.672-1287.468Z"></path><path fill="#043b5c" transform="translate(-2496.491 -0.298)" d="M3769.62-1290.428c-.663.75-11.62,24.74-11.62,25.4a1.625,1.625,0,0,0,2.653,1.009,21.907,21.907,0,0,0,1.816-3.6l1.442-3.2,7.18.058,7.209.087,1.47,3.258a17.155,17.155,0,0,0,1.9,3.547,1.671,1.671,0,0,0,2.566-1.211c0-.807-11.187-25.115-11.735-25.576A2.508,2.508,0,0,0,3769.62-1290.428Zm4.469,10.323,2.883,6.4h-11.765l.26-.663c.144-.346,1.269-2.855,2.48-5.536,1.24-2.71,2.422-5.334,2.653-5.882.231-.519.461-.923.519-.865S3772.5-1283.652,3774.09-1280.106Z"></path><path fill="#043b5c" transform="translate(-2574.008 -0.364)" d="M3887.16-1290.449c-.606.519-.606.721-.692,10.669l-.058,10.179-6.92-8.852c-10.006-12.8-9.487-12.2-10.755-12.2a2.505,2.505,0,0,0-1.442.346c-.49.49-.49,25.922,0,26.412a1.84,1.84,0,0,0,2.336-.173c.433-.461.49-1.73.548-10.726l.087-10.179,8.16,10.409c4.5,5.738,8.391,10.553,8.708,10.726a1.515,1.515,0,0,0,2.134-.346c.4-.577.461-2.307.461-13.12,0-12.11-.029-12.514-.577-13.062C3888.428-1291.083,3887.967-1291.083,3887.16-1290.449Z"></path><path fill="#043b5c" transform="translate(-2675.116 -0.303)" d="M4009.634-1290.539l-.634.432v12.947c0,12.514.029,12.975.548,13.264a1.833,1.833,0,0,0,2.163-.173c.4-.4.461-1.99.461-13.235v-12.8l-.634-.432a2.307,2.307,0,0,0-.952-.461A2.308,2.308,0,0,0,4009.634-1290.539Z"></path><path fill="#043b5c" transform="translate(-2700.736 -0.303)" d="M4065.242-1290.539l-.635.432v20.5l-8.1-10.323c-4.469-5.709-8.247-10.438-8.449-10.553a3.511,3.511,0,0,0-2.71.115c-.259.26-.346,3.576-.346,13.091,0,13.812-.029,13.667,1.528,13.667,1.528-.029,1.5.231,1.644-11.043l.144-10.5,7.641,9.8c8.852,11.361,9.169,11.736,10.178,11.736,1.672,0,1.643.26,1.643-13.7v-12.8l-.634-.432a2.3,2.3,0,0,0-.952-.461A2.3,2.3,0,0,0,4065.242-1290.539Z"></path><path fill="#043b5c" transform="translate(-2770.106 -0.517)" d="M4148.77-1290.382c-4.037,1.326-6.113,4.729-5.276,8.708.663,3.114,2.71,4.556,8.736,6.142,5.565,1.442,6.834,2.364,6.834,4.931,0,2.682-2.278,4.3-6,4.325a11.186,11.186,0,0,1-6.949-2.307c-1.355-.951-1.9-1.182-2.479-1.038a1.621,1.621,0,0,0-1.009,2.191c.808,1.528,4.9,3.575,8.073,4.066,4.152.634,7.411-.2,9.66-2.451a6.843,6.843,0,0,0,1.442-8.16c-1.153-2.307-2.884-3.287-8.275-4.7-3.893-1.038-5.594-1.845-6.315-3a3.9,3.9,0,0,1,1.9-5.507,6.95,6.95,0,0,1,3.374-.577,7.661,7.661,0,0,1,4.613,1.24c3.287,1.672,4.268,1.557,4.268-.432,0-.779-.2-1.067-1.125-1.672a12.155,12.155,0,0,0-7.237-2.047A13.457,13.457,0,0,0,4148.77-1290.382Z"></path><path fill="#043b5c" transform="translate(-2892.172 -0.303)" d="M4314.634-1290.539l-.634.432v12.774c0,12,.029,12.8.519,13.235a1.878,1.878,0,0,0,2.307.144c.26-.26.346-3.6.346-13.235v-12.918l-.634-.432a2.308,2.308,0,0,0-.952-.461A2.308,2.308,0,0,0,4314.634-1290.539Z"></path><path fill="#043b5c" transform="translate(-2976.859 -0.365)" d="M4433.634-1290.477c-.634.433-.634.49-.634,8.91,0,8.967.173,10.582,1.326,12.889,1.846,3.691,6.142,5.738,11.015,5.334,5.421-.461,9-3.72,9.861-9.054.173-.923.289-5.19.289-9.486,0-6.113-.086-7.9-.4-8.333a2.12,2.12,0,0,0-2.566-.173c-.26.26-.375,2.855-.491,9.486l-.144,9.141-.778,1.5a7.093,7.093,0,0,1-6.748,3.835,7.63,7.63,0,0,1-5.738-2.163c-2.134-2.1-2.249-2.826-2.393-12.745-.087-8.535-.115-8.737-.721-9.169C4434.73-1291.053,4434.441-1291.053,4433.634-1290.477Z"></path><path fill="#043b5c" transform="translate(-2826.681 -1.014)" d="M4222.5-1289.683a1.794,1.794,0,0,0,.029,2.566,23.356,23.356,0,0,0,4.469.288h3.921v11.332c0,12.457.029,12.6,1.7,12.6,1.759,0,1.759.087,1.759-12.485v-11.447h3.864a35.335,35.335,0,0,0,4.354-.173,1.63,1.63,0,0,0,.577-2.307l-.433-.692h-9.89C4226.682-1290,4222.789-1289.885,4222.5-1289.683Z"></path><path fill="#043b5c" transform="translate(-2912.871 -1.014)" d="M4343.522-1289.539a1.558,1.558,0,0,0,.058,2.22c.432.4,1.211.49,4.613.49h4.094v11.62c0,8.65.086,11.707.346,11.966a2,2,0,0,0,2.364-.115c.4-.375.461-1.874.461-11.966v-11.505h3.979c3.114,0,4.095-.087,4.614-.461a1.378,1.378,0,0,0,.115-2.22c-.49-.433-1.615-.49-10.38-.49C4345.252-1290,4343.9-1289.942,4343.522-1289.539Z"></path><path fill="#043b5c" transform="translate(-3043.104 -1.014)" d="M4526.522-1289.539a1.558,1.558,0,0,0,.058,2.22c.432.4,1.211.49,4.613.49h4.094v11.62c0,8.65.086,11.707.346,11.966a2,2,0,0,0,2.364-.115c.4-.375.461-1.874.461-11.966v-11.505h3.979c3.114,0,4.095-.087,4.614-.461a1.378,1.378,0,0,0,.115-2.22c-.49-.433-1.615-.49-10.38-.49C4528.252-1290,4526.9-1289.942,4526.522-1289.539Z"></path><path fill="#043b5c" transform="translate(-3107.804 -1.014)" d="M4617.577-1289.423c-.548.548-.577.952-.577,12.774,0,10.553.058,12.283.461,12.831.432.634.461.634,9.6.634,9.775,0,9.833,0,9.833-1.442,0-1.413-.144-1.442-8.563-1.442h-7.872v-8.939h6.776c6.4,0,6.8-.029,7.353-.577.692-.692.721-1.1.115-1.961-.433-.634-.519-.634-7.353-.634h-6.892v-8.65h7.641c7.266,0,7.67-.029,8.218-.577.692-.692.721-1.1.116-1.961-.433-.634-.461-.634-9.372-.634C4618.528-1290,4618.125-1289.971,4617.577-1289.423Z"></path><path fill="#043b5c" transform="translate(-3276.466 -1.014)" d="M4854.519-1289.683c-.49.26-.519,1.211-.519,13.177,0,9.66.086,13,.346,13.264a1.877,1.877,0,0,0,2.335-.173c.433-.461.49-1.326.49-5.911v-5.392h13.84l.433-.692a1.378,1.378,0,0,0,.173-1.442l-.317-.75h-14.129v-9.227h7.468c4.124,0,7.7-.087,7.958-.173a1.63,1.63,0,0,0,.577-2.307l-.433-.692h-8.881C4858.383-1290,4854.808-1289.885,4854.519-1289.683Z"></path><path fill="#432778" transform="translate(-2337.08 -1.726)" d="M3535.182-1288.394a4.583,4.583,0,0,0-.923,1.326c-.346.952-.346,294.485,0,295.437a2.841,2.841,0,0,0,3,1.932,2.545,2.545,0,0,0,2.249-.836l.836-.836v-295.956l-.836-.836a2.545,2.545,0,0,0-2.249-.836A2.8,2.8,0,0,0,3535.182-1288.394Z"></path><path fill="#432778" transform="translate(-1862.405 -144.569)" d="M2881.071-1088.171a15.678,15.678,0,0,0-14.071,15.83,15.759,15.759,0,0,0,12.082,15.571,22.624,22.624,0,0,0,8.593-.144,16.2,16.2,0,0,0,9.8-7.814,17.083,17.083,0,0,0,.2-14.936C2894.594-1085.807,2888.481-1088.921,2881.071-1088.171Zm6.459,6.113c6.459,3.172,7.814,12.687,2.537,17.618a8.268,8.268,0,0,1-6.776,2.624,7.929,7.929,0,0,1-4.21-.75,9.9,9.9,0,0,1-4.931-4.815c-.894-1.788-.952-2.1-.952-4.959,0-2.71.087-3.2.808-4.758a10.151,10.151,0,0,1,6.055-5.507A12.067,12.067,0,0,1,2887.53-1082.058Z"></path><path fill="#432778" transform="translate(-1299.797 -144.84)" d="M2084.357-1087.526a8.737,8.737,0,0,0-6.834,9.371c.26,4.671,2.71,6.69,10.467,8.679,5.1,1.3,6.488,2.278,6.488,4.5a2.469,2.469,0,0,1-1.009,2.307c-2.422,2.278-7.237,1.845-11.793-1.1-2.566-1.644-4.354-1.384-5.075.75-.577,1.817.317,2.941,3.806,4.758a17.761,17.761,0,0,0,9.573,1.99c4.786-.26,7.5-1.672,9.256-4.873.778-1.413.865-1.788.865-4.3,0-2.278-.115-2.941-.634-3.922-1.326-2.48-3.691-3.864-9.342-5.392-4.152-1.125-5.536-1.73-6.315-2.739a3.118,3.118,0,0,1,.029-3.633c1.817-2.307,5.45-2.364,9.833-.144,2.682,1.355,3.46,1.413,4.585.288a2.634,2.634,0,0,0,.288-3.547c-.75-.952-3.777-2.422-6.113-2.97A21.129,21.129,0,0,0,2084.357-1087.526Z"></path><path fill="#432778" transform="translate(0 -145.481)" d="M269.29-1086.712a21.945,21.945,0,0,0-18.512,16.118l-.634,2.191-.087,111.214L250-845.945h51.9V-1087l-15.484.029C277.883-1086.942,270.184-1086.827,269.29-1086.712Z"></path><path fill="#169a92" transform="translate(-176.981 -145.639)" d="M626.8-1086.554a41.507,41.507,0,0,0-14.244,4.729,40.018,40.018,0,0,0-15.426,16.234c-.634,1.24-22.952,50.979-49.624,110.522s-48.615,108.5-48.788,108.792c-.259.49.606.519,20.155.432l20.415-.087,2.768-.779c7.641-2.1,13.754-6.747,18.713-14.273,2.855-4.354,4.585-7.987,11.332-24.163,16.061-38.35,58.822-139.414,59.024-139.414.087,0,2.393,5.363,5.161,11.909,2.768,6.517,11.822,27.969,20.155,47.634,8.3,19.665,20.415,48.413,26.9,63.868s12.658,29.786,13.668,31.862a42.228,42.228,0,0,0,24.221,21.453c5.738,1.9,5.219,1.845,24.625,1.961,16.926.115,17.675.087,17.531-.4-.288-1.1-97.748-218.334-98.873-220.381a39.386,39.386,0,0,0-17.272-16.407A39.183,39.183,0,0,0,626.8-1086.554Z"></path><path fill="#432778" transform="translate(-879.607 -145.481)" d="M1505.9-1086.827a26.412,26.412,0,0,0-6.315,1.586,22.024,22.024,0,0,0-12.774,13.956l-.663,2.018-.087,111.675L1486-845.945l61.763-.087c67.126-.115,62.484,0,68.366-1.615a30.253,30.253,0,0,0,19.492-15.888c1.3-2.566,12.716-28.027,12.716-28.344,0-.115-24.913-.2-55.391-.2h-55.391l.115-97.46.087-97.46-15.571.029C1513.623-1086.942,1506.3-1086.885,1505.9-1086.827Z"></path><path fill="#432778" transform="translate(-1184.908 -145.481)" d="M1915.75-1086.106l-.75.894v27.566l.75.894a2.063,2.063,0,0,0,2.1.894,2.3,2.3,0,0,0,2.076-.75l.692-.75V-1085.5l-.692-.75a2.3,2.3,0,0,0-2.076-.75A2.063,2.063,0,0,0,1915.75-1086.106Z"></path><path fill="#432778" transform="translate(-1218.285 -145.382)" d="M1962.88-1086.407l-.807.692-.086,13.985-.086,13.985.778.894a2.026,2.026,0,0,0,1.99.894,2.878,2.878,0,0,0,2.076-.692l.807-.692.144-9.919.144-9.919,7.641,9.919c4.21,5.45,8.016,10.236,8.448,10.611a2.987,2.987,0,0,0,2.22.692c1.211,0,1.5-.115,2.134-.894l.75-.894v-27.566l-.75-.894a2.025,2.025,0,0,0-1.99-.894,2.877,2.877,0,0,0-2.076.692l-.807.692-.086,9.717-.086,9.688-7.5-9.746c-4.123-5.363-7.814-10.034-8.218-10.409A4.186,4.186,0,0,0,1962.88-1086.407Z"></path><path fill="#432778" transform="translate(-1367.024 -145.539)" d="M2172.662-1086.74a2.725,2.725,0,0,0-.98,4.441c.692.663.952.692,4.9.778l4.152.087v23.846l.75.894c.634.778.923.894,2.134.894s1.5-.115,2.134-.894l.75-.894v-23.875h3.893c5.132,0,5.911-.375,5.911-2.739,0-2.739-.029-2.739-12.6-2.71C2177.881-1086.913,2172.893-1086.826,2172.662-1086.74Z"></path><path fill="#432778" transform="translate(-1442.528 -145.481)" d="M2277.721-1086.279l-.721.692v28.315l.721.692a2.358,2.358,0,0,0,2.018.721,2.358,2.358,0,0,0,2.019-.721l.721-.692v-28.315l-.721-.692a2.358,2.358,0,0,0-2.019-.721A2.358,2.358,0,0,0,2277.721-1086.279Z"></path><path fill="#432778" transform="translate(-1468.216 -145.681)" d="M2314.626-1086.512a2.715,2.715,0,0,0-.865,4.239c.692.807.692.807,4.9.894l4.21.087v11.534c0,12.255.086,13.091,1.384,13.783a3.522,3.522,0,0,0,3.662-.4l.721-.692v-24.221l4.325-.087c4.037-.086,4.354-.115,4.959-.75a3.042,3.042,0,0,0,0-3.864l-.663-.663-11.015-.058C2320.191-1086.743,2314.943-1086.656,2314.626-1086.512Z"></path><path fill="#432778" transform="translate(-1542.871 -145.41)" d="M2418.721-1086.35l-.721.692v9.746c0,10.611.144,11.793,1.644,14.561a11.589,11.589,0,0,0,7.612,5.421,22.544,22.544,0,0,0,9.573-.548,11.023,11.023,0,0,0,6.517-6.517c.894-2.364,1.182-5.8,1.182-14.071,0-9.342-.2-10.005-3.172-10.005a2.136,2.136,0,0,0-1.875.75l-.721.779v8.737a93.109,93.109,0,0,1-.317,10.207,7.078,7.078,0,0,1-6.459,5.709,7.3,7.3,0,0,1-7.67-4.325c-.663-1.471-.692-1.788-.836-11.13l-.144-9.631-.692-.548A3.245,3.245,0,0,0,2418.721-1086.35Z"></path><path fill="#432778" transform="translate(-1619.163 -145.645)" d="M2526.615-1086.432a2.577,2.577,0,0,0-1.067,3.6c.663,1.24,1.557,1.471,5.8,1.471h3.893v24.25l.721.692a3.179,3.179,0,0,0,4.094.029l.807-.692.087-12.11.086-12.139,4.181-.087c4.21-.086,4.21-.086,4.9-.894a2.655,2.655,0,0,0,0-3.576l-.692-.807-11.073-.058C2529.556-1086.807,2527.163-1086.749,2526.615-1086.432Z"></path><path fill="#432778" transform="translate(-1694.454 -145.481)" d="M2632.557-1086.712c-1.586.634-1.557.432-1.557,15.34v13.754l.692.807.692.807h20.588l.692-.807a2.509,2.509,0,0,0-.663-3.922c-.461-.2-3.431-.317-8.593-.317h-7.929v-8.074h7.151c7.122,0,7.18,0,7.785-.663a2.755,2.755,0,0,0-.029-3.6c-.663-.606-.865-.634-7.785-.634h-7.122v-7.785h16.176l.692-.721a2.455,2.455,0,0,0-.173-3.72l-.894-.75-9.544.029C2637.459-1086.971,2632.874-1086.856,2632.557-1086.712Z"></path><path fill="#432778" transform="translate(-1799.014 -145.645)" d="M2779.532-1086.432a2.685,2.685,0,0,0-1.24,1.153c-.49,1.067-.49,27.306,0,28.229.519,1.009,1.154,1.326,2.566,1.355a2.248,2.248,0,0,0,2.019-.75c.663-.721.692-.865.778-6.344l.086-5.594h14.129l.692-.721a2.55,2.55,0,0,0,.029-3.518l-.692-.807-7.093-.087-7.093-.086v-8.045h16.176l.692-.721a2.549,2.549,0,0,0,.029-3.518l-.692-.807-9.775-.058C2782.531-1086.807,2780.2-1086.749,2779.532-1086.432Z"></path><path fill="#432778" transform="translate(-1955.632 -145.561)" d="M2999.557-1086.632c-1.586.634-1.557.432-1.557,15.513v13.927l.721.692a2.358,2.358,0,0,0,2.019.721,2.358,2.358,0,0,0,2.018-.721c.692-.692.721-.807.721-5.334v-4.613h3.4l3.374.029,3.46,4.5c4.642,6.026,4.758,6.142,6.459,6.142,2.018,0,3.287-1.442,2.8-3.258a32.7,32.7,0,0,0-3.2-4.441,41.421,41.421,0,0,1-3.028-4.094c0-.144.461-.432,1.009-.605a11.075,11.075,0,0,0,4.469-4.037,12.18,12.18,0,0,0,.2-9.025c-1.125-2.682-4.239-4.758-7.987-5.363C3012.215-1086.978,3000.422-1086.978,2999.557-1086.632Zm14.879,5.536a4.7,4.7,0,0,1,1.442,7.843c-1.528,1.384-2.653,1.615-7.843,1.615h-4.556v-10.15l4.988.115C3012.1-1081.586,3013.686-1081.442,3014.436-1081.1Z"></path><path fill="#432778" transform="translate(-1184.908 -258.182)" d="M1928.639-928.336a3.906,3.906,0,0,0-1.384,1.153c-.98,1.471-12.255,26.989-12.255,27.71a2.926,2.926,0,0,0,2.71,2.451c1.5,0,2.278-.894,3.806-4.412l1.326-3.085,7.382.058,7.353.086,1.47,3.258c1.557,3.46,2.1,4.066,3.777,4.094a2.479,2.479,0,0,0,2.451-1.874c.317-.98.2-1.355-3.431-9.458-7.872-17.675-8.506-19.031-9.285-19.578A4.288,4.288,0,0,0,1928.639-928.336Zm4.21,12.975c1.3,3,2.307,5.479,2.249,5.565-.058.058-2.336.058-5.046.029l-4.9-.087,2.48-5.709a33.27,33.27,0,0,1,2.653-5.479C1930.4-920.926,1931.551-918.36,1932.849-915.361Z"></path><path fill="#432778" transform="translate(-1717.227 -258.202)" d="M2676.7-928.317a4.69,4.69,0,0,0-1.326.923c-.663.778-12.37,27.047-12.37,27.767a2.676,2.676,0,0,0,4.44,1.961,16.366,16.366,0,0,0,2.019-3.662l1.3-3.028h14.821l1.471,3.287c1.557,3.46,2.1,4.037,3.777,4.066a2.479,2.479,0,0,0,2.451-1.874c.317-.952.2-1.3-2.278-6.863-8.593-19.232-9.717-21.626-10.438-22.174A4.264,4.264,0,0,0,2676.7-928.317Zm4.008,12.687c1.384,3.172,2.451,5.8,2.393,5.853s-2.336.058-5.046.029l-4.931-.087,2.509-5.8c1.384-3.2,2.538-5.8,2.566-5.767C2678.2-921.4,2679.349-918.773,2680.7-915.63Z"></path><path fill="#432778" transform="translate(-2087.288 -258.119)" d="M3194.591-928.227a13.82,13.82,0,0,0-6.978,4.037A14.925,14.925,0,0,0,3183-912.656a15.36,15.36,0,0,0,3.864,10.871c4.786,5.305,13.437,6.545,20.818,2.941a14.832,14.832,0,0,0,3.172-2.018l.836-.865.087-5.623.086-5.594-.865-.865-.836-.865h-5.392c-5.305,0-5.363,0-6.055.721a2.224,2.224,0,0,0-.721,1.73,2.224,2.224,0,0,0,.721,1.73c.663.692.865.721,4.181.721h3.489l-.086,2.8-.087,2.826-1.413.75a11.858,11.858,0,0,1-10.063.461c-5.132-2.336-7.381-9.14-4.844-14.532a9.614,9.614,0,0,1,6.718-5.738c2.884-.75,5.68-.173,8.881,1.788,1.413.865,1.874,1.009,2.682.865a2.8,2.8,0,0,0,2.1-3.979c-.577-1.182-2.855-2.653-5.421-3.46A22.088,22.088,0,0,0,3194.591-928.227Z"></path><path fill="#432778" transform="translate(-1351.365 -258.624)" d="M2149.794-927.26l-.894.779.086,10.409c.087,10.092.115,10.467.75,12.053,1.99,4.931,5.536,7.324,11.3,7.641,7.728.4,12.745-3.229,13.984-10.179.577-3.2.606-18.483.029-19.838a2.909,2.909,0,0,0-4.787-.548c-.548.721-.577,1.125-.577,9.573,0,9.659-.144,10.928-1.586,13-2.393,3.46-8.939,3.662-11.678.346-1.73-2.076-1.816-2.768-1.99-13.12l-.173-9.486-.807-.692A2.677,2.677,0,0,0,2149.794-927.26Z"></path><path fill="#432778" transform="translate(-1435.411 -258.615)" d="M2267.894-927.27l-.894.75v28.229l.721.692.692.721h9.371c5.132,0,9.573-.086,9.833-.173a3.4,3.4,0,0,0,1.3-2.537,2.891,2.891,0,0,0-.692-1.528l-.692-.807-7.526-.086-7.526-.087v-24.25l-.836-.836A2.594,2.594,0,0,0,2267.894-927.27Z"></path><path fill="#432778" transform="translate(-1587.706 -258.615)" d="M2481.836-927.183l-.836.836v27.94l.75.779.779.75H2501.5l.692-.721a2.455,2.455,0,0,0-.173-3.72l-.894-.75h-14.648V-926.52l-.894-.75A2.594,2.594,0,0,0,2481.836-927.183Z"></path><path fill="#432778" transform="translate(-1883.116 -258.634)" d="M2897.486-927.6c-1.413.807-1.442,1.1-1.355,15.859l.086,13.783.807.692a2.908,2.908,0,0,0,1.672.692,3.423,3.423,0,0,0,2.739-1.355c.144-.288.317-4.9.4-10.265l.144-9.717,7.93,10.265c4.5,5.825,8.247,10.438,8.708,10.669a3.038,3.038,0,0,0,4.123-1.009c.375-.75.433-2.739.433-14.273,0-9.775-.086-13.61-.346-14.158a3.131,3.131,0,0,0-2.537-1.586,3.494,3.494,0,0,0-2.48,1.355c-.144.288-.317,4.786-.4,9.977l-.144,9.458-7.439-9.631c-4.094-5.306-7.756-9.919-8.131-10.294A4.381,4.381,0,0,0,2897.486-927.6Z"></path><path fill="#432778" transform="translate(-1971.379 -258.563)" d="M3021.187-927.235l-.952.836-.086,13.379c-.058,9.054,0,13.7.231,14.417a2.77,2.77,0,0,0,4.642,1.125l.836-.836V-926.4l-.836-.836A2.557,2.557,0,0,0,3021.187-927.235Z"></path><path fill="#432778" transform="translate(-2007.583 -258.621)" d="M3072.557-927.725c-1.586.634-1.557.432-1.557,15.57.029,10.525.115,14.1.375,14.446a2.94,2.94,0,0,0,4.152.432l.807-.692.144-10.063.144-10.063,7.641,9.89c4.21,5.45,7.987,10.236,8.42,10.669a3.42,3.42,0,0,0,2.076.865,1.986,1.986,0,0,0,2.191-.721l.865-.865v-28.085l-.836-.836a2.6,2.6,0,0,0-3.691-.144l-.807.692-.144,9.8-.144,9.833-7.872-10.207c-8.16-10.553-8.419-10.842-10.409-10.784A4.045,4.045,0,0,0,3072.557-927.725Z"></path><path fill="#432778" transform="translate(-1270.307 -259.346)" d="M2035.836-926.164l-.836.836v13.61c0,13.927.029,14.359,1.125,15.2.721.548,12.6.49,14.994-.058a15.274,15.274,0,0,0,11.851-15.08,14.872,14.872,0,0,0-11.707-14.763c-1.875-.49-3.2-.577-8.391-.577h-6.2Zm14.1,4.873c4.7,1.471,7.18,5.19,6.92,10.409-.231,4.066-1.9,6.747-5.363,8.448-1.874.923-1.99.952-6.459,1.038l-4.556.115v-20.53h3.864A18.36,18.36,0,0,1,2049.936-921.291Z"></path><path fill="#432778" transform="translate(-1479.178 -259.346)" d="M2329.307-926.308a2.029,2.029,0,0,0-.807,1.9,2.029,2.029,0,0,0,.807,1.9c.779.663,1.009.692,4.988.692h4.152v24.279l.836.836a2.77,2.77,0,0,0,3.46.432c1.442-.75,1.471-1.038,1.471-13.725V-921.81h4.181c4.094,0,4.239-.029,4.9-.721a2.23,2.23,0,0,0,.721-1.874,2.23,2.23,0,0,0-.721-1.874l-.692-.721h-22.491Z"></path><path fill="#432778" transform="translate(-1651.043 -259.346)" d="M2571.355-926.683c-1.3.75-1.355,1.528-1.355,15.109,0,13.667.058,14.388,1.384,15.109.634.346,20.1.461,20.963.144a2.864,2.864,0,0,0,1.153-2.883c-.317-1.817-.519-1.845-9.573-1.845h-8.16v-8.074h14.158l.692-.721a2.891,2.891,0,0,0,.346-3.345c-.778-1.038-1.5-1.125-8.391-1.125h-6.8v-7.468l8.1-.086,8.1-.087.692-.807a2.549,2.549,0,0,0-.029-3.518l-.692-.721h-10.034C2575.306-926.971,2571.7-926.885,2571.355-926.683Z"></path><path fill="#432778" transform="translate(-1804.761 -259.275)" d="M2786.923-926.35l-.923.779V-897.6l.836.836a2.717,2.717,0,0,0,3.287.49c1.24-.663,1.326-1.038,1.355-5.94v-4.671h6.574l4.066,5.19a58.418,58.418,0,0,0,4.642,5.479,3.079,3.079,0,0,0,3.489-.548c1.586-1.586,1.211-2.48-3.287-8.1l-2.451-3.028,1.7-.807c3.345-1.615,4.988-4.5,4.988-8.766a7.053,7.053,0,0,0-1.009-4.325,8.487,8.487,0,0,0-5.075-4.44c-1.586-.634-2.134-.692-9.487-.779l-7.814-.086Zm14.821,4.786a4.739,4.739,0,0,1,2.566,7.7c-1.3,1.557-2.653,1.874-7.987,2.018l-4.844.115v-10.15h4.5A39.527,39.527,0,0,1,2801.744-921.564Z"></path><path fill="#432778" transform="translate(-1184.751 -371.866)" d="M1923.061-768.518a9.318,9.318,0,0,0-6.459,5.075,12.877,12.877,0,0,0-.288,6.747c.75,2.71,3.777,4.614,9.89,6.228,3.893,1.038,5.334,1.672,6.2,2.768,1.211,1.557.461,3.893-1.586,4.9a7.039,7.039,0,0,1-3.431.519,12.21,12.21,0,0,1-7.151-2.364c-1.99-1.355-3.662-1.471-4.7-.26-1.672,1.932-.577,3.806,3.374,5.767a18,18,0,0,0,8.65,1.932,12.651,12.651,0,0,0,7.238-1.759c2.624-1.672,3.777-3.893,3.806-7.324.029-5.075-2.422-7.382-9.919-9.371a34.83,34.83,0,0,1-4.9-1.672c-1.326-.663-1.643-.952-1.99-1.932a2.233,2.233,0,0,1,.115-2.249c.807-1.7,2.278-2.307,5.219-2.163a9.006,9.006,0,0,1,4.729,1.326,11.763,11.763,0,0,0,3.172,1.211,2.721,2.721,0,0,0,2.22-3.95c-.577-1.1-3.258-2.537-6.142-3.258A18.128,18.128,0,0,0,1923.061-768.518Z"></path><path fill="#432778" transform="translate(-1372.82 -371.85)" d="M2190.569-768.477a15.81,15.81,0,0,0-11.073,11.245,21.7,21.7,0,0,0-.029,8.622,15.13,15.13,0,0,0,10.669,10.986,21.3,21.3,0,0,0,10.669-.288c3.028-.98,5.623-2.451,6.43-3.633.605-.894.634-1.211.634-6.4,0-5.363,0-5.45-.692-6.142-.923-.923-1.932-1.067-7.151-.952-4.325.086-4.556.115-5.248.779a2.1,2.1,0,0,0-.75,1.73c.029,2.1,1.038,2.624,5.19,2.624h3.2l-.086,2.8-.086,2.826-1.586.779c-4.527,2.22-10.006,1.384-12.976-1.99a11.459,11.459,0,0,1,.692-15.628c3.4-3.2,8.42-3.518,12.831-.779,2.047,1.269,3.374,1.355,4.556.346a2.967,2.967,0,0,0,.144-4.008,16.209,16.209,0,0,0-5.969-2.941A26.24,26.24,0,0,0,2190.569-768.477Z"></path><path fill="#432778" transform="translate(-1454.484 -371.849)" d="M2307.266-768.679a3.892,3.892,0,0,0-1.067.779c-.836.952-12.37,26.989-12.4,27.969a2.217,2.217,0,0,0,1.759,2.451c2.134.634,2.941-.26,5.276-5.738l.779-1.788h14.59l1.442,3.345c1.557,3.691,2.134,4.3,3.979,4.3a2.523,2.523,0,0,0,2.509-2.48c0-.49-2.422-6.228-5.652-13.437-6.776-15.138-6.545-14.677-7.612-15.225A5.336,5.336,0,0,0,2307.266-768.679Zm4.181,12.774c1.326,3.056,2.451,5.652,2.508,5.767a25.307,25.307,0,0,1-5.046.231h-5.19l2.509-5.767c1.355-3.172,2.566-5.767,2.653-5.767S2310.12-758.933,2311.447-755.905Z"></path><path fill="#432778" transform="translate(-1610.669 -371.851)" d="M2525.157-768.5a15.636,15.636,0,0,0-11.822,14.273,15.915,15.915,0,0,0,11.966,16.753,21.994,21.994,0,0,0,8.795-.144,15.958,15.958,0,0,0,10.986-10.986,17.429,17.429,0,0,0,.49-4.469,15.387,15.387,0,0,0-4.585-11.447,16.2,16.2,0,0,0-7.555-4.094A24.784,24.784,0,0,0,2525.157-768.5Zm8.593,5.738a11.092,11.092,0,0,1,5.565,12.572,9.825,9.825,0,0,1-10.5,7.728,9.647,9.647,0,0,1-8.506-5.94c-.836-1.73-.923-2.191-.923-4.671,0-2.364.115-2.97.779-4.383a9.7,9.7,0,0,1,6.084-5.767A10.682,10.682,0,0,1,2533.75-762.766Z"></path><path fill="#432778" transform="translate(-1257.497 -372.392)" d="M2017.721-767.386l-.721.692v14.1c0,13.7.029,14.129.577,14.85a3.023,3.023,0,0,0,1.413.923,3.544,3.544,0,0,0,3.172-1.24c.231-.4.317-5.1.317-14.561v-13.956l-.75-.779A2.969,2.969,0,0,0,2017.721-767.386Z"></path><path fill="#432778" transform="translate(-1293.079 -372.392)" d="M2067.836-767.271l-.836.836v13.956c0,15.426-.058,14.879,1.845,15.513a2.4,2.4,0,0,0,1.99-.086,3.639,3.639,0,0,0,1.24-.807c.144-.231.317-4.931.4-10.467l.144-10.034,8.045,10.409c4.44,5.738,8.275,10.553,8.564,10.726a5.461,5.461,0,0,0,1.845.259,2.392,2.392,0,0,0,2.018-.721l.721-.692v-28.315l-.721-.692a2.858,2.858,0,0,0-3.921.029l-.692.75-.144,9.659-.144,9.659-7.583-9.833c-4.181-5.392-7.929-10.092-8.333-10.409a3.336,3.336,0,0,0-2.163-.577A2.571,2.571,0,0,0,2067.836-767.271Z"></path><path fill="#432778" transform="translate(-1541.377 -372.777)" d="M2418.063-767.549a3.285,3.285,0,0,0-1.3.865l-.692.75-.086,13.783-.086,13.783.75.865a2.711,2.711,0,0,0,3.2.923c1.586-.519,1.845-1.384,1.845-5.911v-3.893h3.4c6.43,0,9.342-.865,12.053-3.576,2.134-2.134,2.8-3.864,2.8-7.093a9.107,9.107,0,0,0-1.615-5.94,9.639,9.639,0,0,0-5.334-3.893c-1.672-.548-2.739-.634-8.131-.692C2421.465-767.635,2418.38-767.606,2418.063-767.549Zm12.687,5.652a5.081,5.081,0,0,1,3.316,6.084,5.875,5.875,0,0,1-1.528,2.393c-1.471,1.5-2.941,1.845-7.526,1.845H2421.7v-11.044l3.979.173A29.308,29.308,0,0,1,2430.75-761.9Z"></path><path fill="#432778" transform="translate(-1703.706 -372.576)" d="M2646.163-767.692a2.961,2.961,0,0,0-1.845,1.413c-.231.433-.317,4.527-.317,14.071,0,14.936-.029,14.792,1.845,15.426a2.763,2.763,0,0,0,3.114-.779c.634-.663.663-.952.75-5.306l.086-4.585h6.459l3.691,4.729c4.614,5.911,4.729,6.026,6.43,6.055,1.1.029,1.442-.086,2.018-.779a2.814,2.814,0,0,0,.692-1.9c0-.923-.4-1.586-3.2-5.075-2.335-2.941-3.085-4.094-2.8-4.267.2-.115,1.1-.634,1.961-1.153,3.028-1.788,4.5-4.815,4.267-8.708-.346-5.19-3.691-8.42-9.486-9.083C2657.148-767.952,2647.085-767.98,2646.163-767.692Zm14.792,5.882a4.708,4.708,0,0,1-.144,8.477c-.923.461-1.9.577-6.055.634l-4.988.086v-10.207l4.9.144C2659.109-762.531,2659.744-762.444,2660.955-761.81Z"></path><path fill="#432778" transform="translate(-1782.344 -372.757)" d="M2756.49-767.54a2.906,2.906,0,0,0-1.3.836l-.692.75v27.681l.952.836.923.836h19.953l.836-.836A2.408,2.408,0,0,0,2778-739.2a2.408,2.408,0,0,0-.836-1.759l-.836-.836h-16.205v-7.756l7.036-.086c7.007-.087,7.064-.087,7.785-.779a2.558,2.558,0,0,0,.029-3.633l-.692-.721h-14.158v-7.785H2776.3l.692-.721a2.549,2.549,0,0,0,.029-3.518l-.692-.807-9.631-.029C2761.42-767.656,2756.807-767.627,2756.49-767.54Z"></path><g transform="translate(1264.294 -1230.638)"><g transform="translate(0.001 168.144)"><path fill="#003a5d" transform="translate(0.859 18.668)" d="M.219,4.766A2.642,2.642,0,0,1-.859,2.628,2.623,2.623,0,0,1,1.821.015,2.78,2.78,0,0,1,3.46.529a11.062,11.062,0,0,0,6.663,2.32c2.347,0,3.761-.921,3.761-2.432V.345c0-1.436-.893-2.174-5.248-3.28C3.384-4.262,0-5.7,0-10.818v-.076c0-4.679,3.8-7.774,9.125-7.774a15.248,15.248,0,0,1,8.265,2.287,2.577,2.577,0,0,1,1.266,2.247,2.628,2.628,0,0,1-2.68,2.617,2.782,2.782,0,0,1-1.454-.406,10.924,10.924,0,0,0-5.473-1.732c-2.2,0-3.353.993-3.353,2.247v.073c0,1.7,1.118,2.25,5.624,3.392C16.6-6.581,19.581-4.7,19.581-.209v.076c0,5.121-3.946,8-9.567,8a16.958,16.958,0,0,1-9.794-3.1"></path></g><g transform="translate(25.697 168.292)"><path fill="#003a5d" transform="translate(0 2.261)" d="M0,.577A2.831,2.831,0,0,1,2.868-2.261,2.83,2.83,0,0,1,5.733.577V21.138a2.828,2.828,0,0,1-2.865,2.835A2.828,2.828,0,0,1,0,21.138Z"></path></g><g transform="translate(37.949 168.293)"><path fill="#003a5d" transform="translate(0 2.318)" d="M0,.592A2.831,2.831,0,0,1,2.868-2.246h.6A3.557,3.557,0,0,1,6.442-.586L17.5,13.781V.48a2.83,2.83,0,0,1,5.66,0V21a2.83,2.83,0,0,1-2.865,2.838h-.188a3.563,3.563,0,0,1-2.98-1.66L5.66,7.3V21.116a2.815,2.815,0,0,1-2.832,2.8A2.814,2.814,0,0,1,0,21.116Z"></path></g><g transform="translate(66.216 168.069)"><path fill="#003a5d" transform="translate(0 10.685)" d="M0,2.728V2.655A13.31,13.31,0,0,1,13.665-10.685a14.551,14.551,0,0,1,8.9,2.508,2.824,2.824,0,0,1,1.193,2.283,2.815,2.815,0,0,1-2.832,2.8,2.809,2.809,0,0,1-1.75-.591A9.182,9.182,0,0,0,13.48-5.452C9.307-5.452,5.993-1.8,5.993,2.58v.076c0,4.715,3.277,8.18,7.9,8.18a9.226,9.226,0,0,0,5.4-1.548V5.6h-3.87a2.452,2.452,0,0,1-2.5-2.432A2.482,2.482,0,0,1,15.415.7h6.554A2.828,2.828,0,0,1,24.834,3.54V9.8a3.827,3.827,0,0,1-2.011,3.61,17.457,17.457,0,0,1-9.122,2.58C5.585,15.993,0,10.354,0,2.728"></path></g><g transform="translate(94.78 168.106)"><path fill="#003a5d" transform="translate(0.268 17.964)" d="M.068,4.586l9.086-20.3a3.542,3.542,0,0,1,3.35-2.25h.336a3.494,3.494,0,0,1,3.313,2.25l9.086,20.3a2.77,2.77,0,0,1,.3,1.142,2.7,2.7,0,0,1-2.717,2.726A2.916,2.916,0,0,1,20.063,6.5l-1.75-4.052H6.846L5.02,6.688A2.82,2.82,0,0,1,2.376,8.454,2.623,2.623,0,0,1-.268,5.8,3.017,3.017,0,0,1,.068,4.586M16.189-2.561l-3.61-8.513L8.966-2.561Z"></path></g><g transform="translate(125.096 168.513)"><path fill="#003a5d" transform="translate(0 2.261)" d="M0,.577A2.831,2.831,0,0,1,2.868-2.261h7.78c6.218,0,9.979,3.649,9.979,8.916v.076c0,5.969-4.691,9.064-10.536,9.064H5.733v5.121a2.828,2.828,0,0,1-2.865,2.835A2.828,2.828,0,0,1,0,20.917Zm10.276,10.17c2.868,0,4.543-1.7,4.543-3.907V6.767c0-2.544-1.787-3.907-4.655-3.907H5.733v7.886Z"></path></g><g transform="translate(148.819 168.069)"><path fill="#003a5d" transform="translate(0 10.685)" d="M0,2.728V2.655C0-4.677,5.845-10.685,13.889-10.685S27.7-4.752,27.7,2.58v.076c0,7.332-5.845,13.338-13.889,13.338S0,10.06,0,2.728m21.705,0V2.655a7.873,7.873,0,0,0-7.892-8.107A7.752,7.752,0,0,0,5.993,2.58v.076a7.873,7.873,0,0,0,7.9,8.1,7.749,7.749,0,0,0,7.817-8.032"></path></g><g transform="translate(181.629 168.513)"><path fill="#003a5d" transform="translate(0 2.261)" d="M0,.577A2.831,2.831,0,0,1,2.868-2.261h9.046c3.316,0,5.884.921,7.6,2.617A8.041,8.041,0,0,1,21.745,6.25v.076a7.873,7.873,0,0,1-5.212,7.847l3.982,4.791a3.285,3.285,0,0,1,.933,2.174,2.654,2.654,0,0,1-2.72,2.614A3.436,3.436,0,0,1,15.9,22.279l-5.585-7H5.733v5.639a2.828,2.828,0,0,1-2.865,2.835A2.828,2.828,0,0,1,0,20.917Zm11.542,9.691c2.792,0,4.394-1.475,4.394-3.649V6.546c0-2.432-1.711-3.686-4.5-3.686h-5.7v7.408Z"></path></g><g transform="translate(208.554 168.514)"><path fill="#003a5d" transform="translate(0 18.285)" d="M0,4.668V-15.45a2.828,2.828,0,0,1,2.868-2.835H17.314a2.56,2.56,0,0,1,2.568,2.541,2.529,2.529,0,0,1-2.568,2.5H5.7v5.233h9.943a2.56,2.56,0,0,1,2.568,2.541,2.53,2.53,0,0,1-2.568,2.508H5.7V2.458H17.5A2.561,2.561,0,0,1,20.07,5,2.531,2.531,0,0,1,17.5,7.506H2.868A2.831,2.831,0,0,1,0,4.668"></path></g><g transform="translate(244.27 168.294)"><path fill="#003a5d" transform="translate(0 11.916)" d="M0,3.042V-9.081a2.828,2.828,0,0,1,2.868-2.835A2.828,2.828,0,0,1,5.733-9.081V2.9c0,4.2,2.123,6.372,5.624,6.372s5.621-2.1,5.621-6.19V-9.081a2.828,2.828,0,0,1,2.868-2.835,2.826,2.826,0,0,1,2.865,2.835V2.858c0,7.814-4.431,11.645-11.43,11.645S0,10.632,0,3.042"></path></g><g transform="translate(272.834 168.293)"><path fill="#003a5d" transform="translate(0 2.318)" d="M0,.592A2.831,2.831,0,0,1,2.868-2.246h.594a3.559,3.559,0,0,1,2.98,1.66L17.5,13.781V.48a2.83,2.83,0,0,1,5.66,0V21a2.83,2.83,0,0,1-2.865,2.838h-.188a3.563,3.563,0,0,1-2.98-1.66L5.66,7.3V21.116a2.815,2.815,0,0,1-2.832,2.8A2.814,2.814,0,0,1,0,21.116Z"></path></g><g transform="translate(302.516 168.292)"><path fill="#003a5d" transform="translate(0 2.261)" d="M0,.577A2.831,2.831,0,0,1,2.868-2.261,2.83,2.83,0,0,1,5.733.577V21.138a2.828,2.828,0,0,1-2.865,2.835A2.828,2.828,0,0,1,0,21.138Z"></path></g><g transform="translate(312.945 168.293)"><path fill="#003a5d" transform="translate(6.999 19.254)" d="M1.787,4.916-6.666-15.09A3.523,3.523,0,0,1-7-16.453a2.8,2.8,0,0,1,2.865-2.8,2.979,2.979,0,0,1,2.9,1.99L5.288-.575l6.59-16.875a2.973,2.973,0,0,1,2.756-1.8,2.753,2.753,0,0,1,2.829,2.726,3.277,3.277,0,0,1-.3,1.254L8.637,4.916A3.364,3.364,0,0,1,5.4,7.163H5.027A3.365,3.365,0,0,1,1.787,4.916"></path></g><g transform="translate(341.806 168.514)"><path fill="#003a5d" transform="translate(0 18.285)" d="M0,4.668V-15.45a2.828,2.828,0,0,1,2.868-2.835H17.314a2.56,2.56,0,0,1,2.568,2.541,2.529,2.529,0,0,1-2.568,2.5H5.7v5.233h9.943a2.56,2.56,0,0,1,2.568,2.541,2.53,2.53,0,0,1-2.568,2.508H5.7V2.458H17.5A2.563,2.563,0,0,1,20.07,5,2.533,2.533,0,0,1,17.5,7.506H2.868A2.831,2.831,0,0,1,0,4.668"></path></g><g transform="translate(366.758 168.513)"><path fill="#003a5d" transform="translate(0 2.261)" d="M0,.577A2.831,2.831,0,0,1,2.868-2.261h9.046c3.316,0,5.884.921,7.6,2.617A8.041,8.041,0,0,1,21.745,6.25v.076a7.873,7.873,0,0,1-5.212,7.847l3.982,4.791a3.285,3.285,0,0,1,.933,2.174,2.654,2.654,0,0,1-2.72,2.614A3.436,3.436,0,0,1,15.9,22.279l-5.585-7H5.733v5.639a2.828,2.828,0,0,1-2.865,2.835A2.828,2.828,0,0,1,0,20.917Zm11.542,9.691c2.792,0,4.394-1.475,4.394-3.649V6.546c0-2.432-1.711-3.686-4.5-3.686h-5.7v7.408Z"></path></g><g transform="translate(392.085 168.144)"><path fill="#003a5d" transform="translate(0.859 18.668)" d="M.219,4.766A2.642,2.642,0,0,1-.859,2.628,2.623,2.623,0,0,1,1.821.015,2.78,2.78,0,0,1,3.46.529a11.062,11.062,0,0,0,6.663,2.32c2.347,0,3.761-.921,3.761-2.432V.345c0-1.436-.893-2.174-5.248-3.28C3.384-4.262,0-5.7,0-10.818v-.076c0-4.679,3.8-7.774,9.125-7.774a15.248,15.248,0,0,1,8.265,2.287,2.577,2.577,0,0,1,1.266,2.247,2.628,2.628,0,0,1-2.68,2.617,2.782,2.782,0,0,1-1.454-.406,10.924,10.924,0,0,0-5.473-1.732c-2.2,0-3.353.993-3.353,2.247v.073c0,1.7,1.118,2.25,5.624,3.392C16.6-6.581,19.581-4.7,19.581-.209v.076c0,5.121-3.946,8-9.57,8a16.949,16.949,0,0,1-9.791-3.1"></path></g><g transform="translate(417.781 168.292)"><path fill="#003a5d" transform="translate(0 2.261)" d="M0,.577A2.831,2.831,0,0,1,2.868-2.261,2.83,2.83,0,0,1,5.733.577V21.138a2.828,2.828,0,0,1-2.865,2.835A2.828,2.828,0,0,1,0,21.138Z"></path></g><g transform="translate(427.949 168.513)"><path fill="#003a5d" transform="translate(6.495 4.169)" d="M1.658,1.064H-3.851A2.639,2.639,0,0,1-6.495-1.552,2.641,2.641,0,0,1-3.851-4.169H12.9a2.643,2.643,0,0,1,2.644,2.617A2.641,2.641,0,0,1,12.9,1.064H7.391V19.008a2.83,2.83,0,0,1-2.865,2.838,2.831,2.831,0,0,1-2.868-2.838Z"></path></g><g transform="translate(451.857 168.253)"><path fill="#003a5d" transform="translate(7.267 12.827)" d="M1.855,3.275-6.558-8.036a3.326,3.326,0,0,1-.709-2.026A2.784,2.784,0,0,1-4.4-12.788,3.306,3.306,0,0,1-1.57-11.059L4.76-2.031l6.442-9.1a3.286,3.286,0,0,1,2.756-1.7,2.644,2.644,0,0,1,2.792,2.765A3.512,3.512,0,0,1,16-8.073L7.588,3.163v7.444a2.83,2.83,0,0,1-2.865,2.838,2.831,2.831,0,0,1-2.868-2.838Z"></path></g><g transform="translate(0.448 211.467)"><path fill="#003a5d" transform="translate(0 10.685)" d="M0,2.728V2.655C0-4.677,5.845-10.685,13.889-10.685S27.7-4.752,27.7,2.58v.076c0,7.332-5.845,13.338-13.889,13.338S0,10.06,0,2.728m21.705,0V2.655a7.873,7.873,0,0,0-7.892-8.107A7.752,7.752,0,0,0,5.993,2.58v.076a7.873,7.873,0,0,0,7.9,8.1,7.749,7.749,0,0,0,7.817-8.032"></path></g><g transform="translate(33.256 211.909)"><path fill="#003a5d" transform="translate(0 2.261)" d="M0,.577A2.831,2.831,0,0,1,2.868-2.261H17.462A2.577,2.577,0,0,1,20.07.32,2.576,2.576,0,0,1,17.462,2.9H5.733V8.388H15.788a2.579,2.579,0,1,1,0,5.158H5.733v7.368a2.828,2.828,0,0,1-2.865,2.838A2.829,2.829,0,0,1,0,20.914Z"></path></g><g transform="translate(67.26 211.54)"><path fill="#003a5d" transform="translate(0.859 18.668)" d="M.219,4.766A2.642,2.642,0,0,1-.859,2.628,2.623,2.623,0,0,1,1.821.015,2.78,2.78,0,0,1,3.46.529a11.062,11.062,0,0,0,6.663,2.32c2.347,0,3.761-.921,3.761-2.432V.345c0-1.436-.893-2.174-5.248-3.28C3.384-4.262,0-5.7,0-10.818v-.076c0-4.679,3.8-7.774,9.125-7.774a15.248,15.248,0,0,1,8.265,2.287,2.577,2.577,0,0,1,1.266,2.247,2.628,2.628,0,0,1-2.68,2.617,2.782,2.782,0,0,1-1.454-.406,10.924,10.924,0,0,0-5.473-1.732c-2.2,0-3.353.993-3.353,2.247v.073c0,1.7,1.118,2.25,5.624,3.392C16.6-6.581,19.581-4.7,19.581-.209v.076c0,5.121-3.946,8-9.57,8a16.949,16.949,0,0,1-9.791-3.1"></path></g><g transform="translate(91.54 211.467)"><path fill="#003a5d" transform="translate(0 10.685)" d="M0,2.728V2.655C0-4.677,5.845-10.685,13.889-10.685S27.7-4.752,27.7,2.58v.076c0,7.332-5.845,13.338-13.889,13.338S0,10.06,0,2.728m21.705,0V2.655a7.873,7.873,0,0,0-7.892-8.107A7.752,7.752,0,0,0,5.993,2.58v.076a7.873,7.873,0,0,0,7.9,8.1,7.749,7.749,0,0,0,7.817-8.032"></path></g><g transform="translate(123.197 211.467)"><path fill="#003a5d" transform="translate(0 10.685)" d="M0,2.728V2.655A13.18,13.18,0,0,1,13.589-10.685,13.9,13.9,0,0,1,22.3-8.069a2.828,2.828,0,0,1,1.118,2.247,2.784,2.784,0,0,1-2.829,2.765,3.008,3.008,0,0,1-1.714-.554,8.639,8.639,0,0,0-5.324-1.841c-4.394,0-7.559,3.61-7.559,8.032v.076c0,4.422,3.092,8.1,7.559,8.1a8.418,8.418,0,0,0,5.66-2.026,2.672,2.672,0,0,1,4.391,1.99,2.659,2.659,0,0,1-.966,2.026,13.182,13.182,0,0,1-9.27,3.244A13.088,13.088,0,0,1,0,2.728"></path></g><g transform="translate(152.095 211.689)"><path fill="#003a5d" transform="translate(0 2.261)" d="M0,.577A2.831,2.831,0,0,1,2.868-2.261,2.83,2.83,0,0,1,5.733.577V21.138a2.828,2.828,0,0,1-2.865,2.835A2.828,2.828,0,0,1,0,21.138Z"></path></g><g transform="translate(162.56 211.505)"><path fill="#003a5d" transform="translate(0.268 17.964)" d="M.068,4.586l9.086-20.3a3.542,3.542,0,0,1,3.35-2.25h.336a3.494,3.494,0,0,1,3.313,2.25l9.086,20.3a2.77,2.77,0,0,1,.3,1.142,2.7,2.7,0,0,1-2.717,2.726A2.916,2.916,0,0,1,20.063,6.5l-1.75-4.052H6.846L5.02,6.688A2.817,2.817,0,0,1,2.376,8.454,2.625,2.625,0,0,1-.268,5.8,3.017,3.017,0,0,1,.068,4.586M16.189-2.561l-3.61-8.513L8.966-2.561Z"></path></g><g transform="translate(192.874 211.689)"><path fill="#003a5d" transform="translate(0 2.261)" d="M0,.577A2.831,2.831,0,0,1,2.868-2.261,2.83,2.83,0,0,1,5.733.577V18.594H16.345a2.58,2.58,0,1,1,0,5.161H2.868A2.831,2.831,0,0,1,0,20.917Z"></path></g><g transform="translate(225.501 211.54)"><path fill="#003a5d" transform="translate(0.859 18.668)" d="M.219,4.766A2.642,2.642,0,0,1-.859,2.628,2.623,2.623,0,0,1,1.821.015,2.78,2.78,0,0,1,3.46.529a11.062,11.062,0,0,0,6.663,2.32c2.347,0,3.761-.921,3.761-2.432V.345c0-1.436-.893-2.174-5.248-3.28C3.384-4.262,0-5.7,0-10.818v-.076c0-4.679,3.8-7.774,9.125-7.774a15.248,15.248,0,0,1,8.265,2.287,2.577,2.577,0,0,1,1.266,2.247,2.628,2.628,0,0,1-2.68,2.617,2.782,2.782,0,0,1-1.454-.406,10.924,10.924,0,0,0-5.473-1.732c-2.2,0-3.353.993-3.353,2.247v.073c0,1.7,1.118,2.25,5.624,3.392C16.6-6.581,19.581-4.7,19.581-.209v.076c0,5.121-3.946,8-9.567,8a16.952,16.952,0,0,1-9.794-3.1"></path></g><g transform="translate(249.78 211.467)"><path fill="#003a5d" transform="translate(0 10.685)" d="M0,2.728V2.655A13.18,13.18,0,0,1,13.589-10.685,13.9,13.9,0,0,1,22.3-8.069a2.828,2.828,0,0,1,1.118,2.247,2.784,2.784,0,0,1-2.829,2.765,3.008,3.008,0,0,1-1.714-.554,8.639,8.639,0,0,0-5.324-1.841c-4.394,0-7.559,3.61-7.559,8.032v.076c0,4.422,3.092,8.1,7.559,8.1a8.418,8.418,0,0,0,5.66-2.026,2.672,2.672,0,0,1,4.391,1.99,2.659,2.659,0,0,1-.966,2.026,13.182,13.182,0,0,1-9.27,3.244A13.088,13.088,0,0,1,0,2.728"></path></g><g transform="translate(278.68 211.689)"><path fill="#003a5d" transform="translate(0 2.261)" d="M0,.577A2.831,2.831,0,0,1,2.868-2.261,2.83,2.83,0,0,1,5.733.577V21.138a2.828,2.828,0,0,1-2.865,2.835A2.828,2.828,0,0,1,0,21.138Z"></path></g><g transform="translate(290.932 211.911)"><path fill="#003a5d" transform="translate(0 18.285)" d="M0,4.668V-15.45a2.828,2.828,0,0,1,2.868-2.835H17.314a2.56,2.56,0,0,1,2.568,2.541,2.529,2.529,0,0,1-2.568,2.5H5.7v5.233h9.943a2.56,2.56,0,0,1,2.568,2.541,2.53,2.53,0,0,1-2.568,2.508H5.7V2.458H17.5A2.561,2.561,0,0,1,20.07,5,2.531,2.531,0,0,1,17.5,7.506H2.868A2.831,2.831,0,0,1,0,4.668"></path></g><g transform="translate(315.884 211.69)"><path fill="#003a5d" transform="translate(0 2.318)" d="M0,.592A2.831,2.831,0,0,1,2.868-2.246h.6A3.557,3.557,0,0,1,6.442-.586L17.5,13.781V.48a2.83,2.83,0,0,1,5.66,0V21a2.83,2.83,0,0,1-2.865,2.838h-.188a3.553,3.553,0,0,1-2.977-1.66L5.66,7.3V21.113a2.815,2.815,0,0,1-2.832,2.8A2.815,2.815,0,0,1,0,21.113Z"></path></g><g transform="translate(344.152 211.467)"><path fill="#003a5d" transform="translate(0 10.685)" d="M0,2.728V2.655A13.18,13.18,0,0,1,13.589-10.685,13.9,13.9,0,0,1,22.3-8.069a2.828,2.828,0,0,1,1.118,2.247,2.784,2.784,0,0,1-2.829,2.765,3.008,3.008,0,0,1-1.714-.554,8.639,8.639,0,0,0-5.324-1.841c-4.394,0-7.559,3.61-7.559,8.032v.076c0,4.422,3.092,8.1,7.559,8.1a8.418,8.418,0,0,0,5.66-2.026,2.672,2.672,0,0,1,4.391,1.99,2.659,2.659,0,0,1-.966,2.026,13.182,13.182,0,0,1-9.27,3.244A13.088,13.088,0,0,1,0,2.728"></path></g><g transform="translate(372.789 211.911)"><path fill="#003a5d" transform="translate(0 18.285)" d="M0,4.668V-15.45a2.828,2.828,0,0,1,2.868-2.835H17.314a2.56,2.56,0,0,1,2.568,2.541,2.529,2.529,0,0,1-2.568,2.5H5.7v5.233h9.943a2.56,2.56,0,0,1,2.568,2.541,2.53,2.53,0,0,1-2.568,2.508H5.7V2.458H17.5A2.561,2.561,0,0,1,20.07,5,2.531,2.531,0,0,1,17.5,7.506H2.868A2.831,2.831,0,0,1,0,4.668"></path></g><g transform="translate(396.143 211.54)"><path fill="#003a5d" transform="translate(0.859 18.668)" d="M.219,4.766A2.642,2.642,0,0,1-.859,2.628,2.623,2.623,0,0,1,1.821.015,2.78,2.78,0,0,1,3.46.529a11.062,11.062,0,0,0,6.663,2.32c2.347,0,3.761-.921,3.761-2.432V.345c0-1.436-.893-2.174-5.248-3.28C3.384-4.262,0-5.7,0-10.818v-.076c0-4.679,3.8-7.774,9.125-7.774a15.248,15.248,0,0,1,8.265,2.287,2.577,2.577,0,0,1,1.266,2.247,2.628,2.628,0,0,1-2.68,2.617,2.782,2.782,0,0,1-1.454-.406,10.924,10.924,0,0,0-5.473-1.732c-2.2,0-3.353.993-3.353,2.247v.073c0,1.7,1.118,2.25,5.624,3.392C16.6-6.581,19.581-4.7,19.581-.209v.076c0,5.121-3.946,8-9.567,8a16.952,16.952,0,0,1-9.794-3.1"></path></g><g transform="translate(250.136)"><path fill="#003a5d" transform="translate(3.698 96.369)" d="M.944,24.6A10.956,10.956,0,0,1,7.522,4.7a11.108,11.108,0,0,1,6.963,2.1C25.7,15.607,37.7,20.586,52.4,20.586S76.384,13.693,76.384,3.741V3.357c0-9.57-5.418-14.737-30.564-20.482C17-24.015.75-32.437.75-57.129v-.385c0-22.971,19.343-38.856,46.233-38.856,17.02,0,30.754,4.4,42.941,12.441a10.609,10.609,0,0,1,5.221,9.379A11.007,11.007,0,0,1,83.928-63.637a11.6,11.6,0,0,1-6.19-1.723c-10.445-6.7-20.5-10.145-31.142-10.145-13.928,0-22.054,7.084-22.054,15.888v.382c0,10.336,6.19,14.931,32.305,21.057,28.628,6.89,43.329,17.035,43.329,39.24v.382c0,25.076-19.925,40.007-48.359,40.007A84.879,84.879,0,0,1,.944,24.6"></path></g><g transform="translate(371.996)"><path fill="#003a5d" transform="translate(3.698 96.369)" d="M.944,24.6A10.956,10.956,0,0,1,7.522,4.7a11.108,11.108,0,0,1,6.963,2.1C25.705,15.607,37.7,20.586,52.4,20.586S76.384,13.693,76.384,3.741V3.357c0-9.57-5.415-14.737-30.564-20.482C17-24.015.75-32.437.75-57.129v-.385c0-22.971,19.343-38.856,46.233-38.856,17.02,0,30.754,4.4,42.941,12.441a10.609,10.609,0,0,1,5.221,9.379A11.007,11.007,0,0,1,83.928-63.637a11.6,11.6,0,0,1-6.19-1.723c-10.445-6.7-20.5-10.145-31.142-10.145-13.928,0-22.051,7.084-22.051,15.888v.382c0,10.336,6.187,14.931,32.3,21.057,28.628,6.89,43.329,17.035,43.329,39.24v.382c0,25.076-19.925,40.007-48.359,40.007A84.879,84.879,0,0,1,.944,24.6"></path></g><path fill="#003a5d" transform="translate(3.698 96.369)" d="M.944,24.6A10.956,10.956,0,0,1,7.522,4.7a11.114,11.114,0,0,1,6.963,2.1C25.705,15.607,37.7,20.586,52.4,20.586S76.384,13.693,76.384,3.741V3.357c0-9.57-5.418-14.737-30.564-20.482C17-24.015.75-32.437.75-57.129v-.385c0-22.971,19.343-38.856,46.23-38.856,17.023,0,30.758,4.4,42.944,12.441a10.609,10.609,0,0,1,5.221,9.379A11.007,11.007,0,0,1,83.928-63.637a11.6,11.6,0,0,1-6.19-1.723C67.293-72.059,57.232-75.506,46.6-75.506c-13.928,0-22.054,7.084-22.054,15.888v.382c0,10.336,6.19,14.931,32.305,21.057,28.628,6.89,43.329,17.035,43.329,39.24v.382c0,25.076-19.925,40.007-48.359,40.007A84.879,84.879,0,0,1,.944,24.6"></path><g transform="translate(129.79 0.572)"><path fill="#ee3124" transform="translate(65.281 99.286)" d="M16.667,25.349C6.916,33.814-3.5,37.96-18.067,37.766-31.2,37.594-42.346,33.23-51.519,24.15A44.314,44.314,0,0,1-65.281-8.509v-80.1a10.188,10.188,0,0,1,3.237-7.474,10.927,10.927,0,0,1,8-3.2,10.927,10.927,0,0,1,8,3.2A10.188,10.188,0,0,1-42.8-88.607v80.1A23.921,23.921,0,0,0-35.468,9.156a23.9,23.9,0,0,0,17.4,7.253A27.447,27.447,0,0,0,.274,9.429C5.586,4.637,4.9,1.043,5.45-1.871c.518-2.732,1.042-4.246,2.4-5.763A9.584,9.584,0,0,1,15.417-11.1a11.552,11.552,0,0,1,8.268,3.219c2.159,2.135,3.31,4.676,3.31,9.037,0,0,.778,14.558-10.327,24.2"></path></g><g transform="translate(201.825 0.571)"><path fill="#ee3124" transform="translate(17.841 8.827)" d="M4.555,2.254a11.139,11.139,0,0,1-11.2,11.081,11.141,11.141,0,0,1-11.2-11.081A11.141,11.141,0,0,1-6.641-8.827,11.139,11.139,0,0,1,4.555,2.254"></path></g><g transform="translate(201.825 29.826)"><path fill="#ee3124" transform="translate(17.841 8.827)" d="M4.555,2.254a11.139,11.139,0,0,1-11.2,11.081,11.141,11.141,0,0,1-11.2-11.081A11.141,11.141,0,0,1-6.641-8.827,11.139,11.139,0,0,1,4.555,2.254"></path></g><g transform="translate(201.825 59.081)"><path fill="#ee3124" transform="translate(17.841 8.827)" d="M4.555,2.254a11.139,11.139,0,0,1-11.2,11.081,11.141,11.141,0,0,1-11.2-11.081A11.141,11.141,0,0,1-6.641-8.827,11.139,11.139,0,0,1,4.555,2.254"></path></g></g></g></g></svg>