<svg viewBox="0 0 1840 340" height="340" width="1840" xmlns:xlink="http://www.w3.org/1999/xlink" xmlns="http://www.w3.org/2000/svg"><defs><clipPath id="b"><rect height="340" width="1840"></rect></clipPath></defs><g clip-path="url(#b)" id="a"><rect fill="none" height="340" width="1840"></rect><g transform="translate(-3084.5 -8880)"><path fill="#da402e" transform="translate(3091.336 8681.256)" d="M519.124,466.128,523.381,464H42.9c-8.545.016-14.787,4.145-14.9,13.3v21.816a15.68,15.68,0,0,0,.559,5.321c3.538,11.371,16.293,9.046,25.514,9.078H545.287c1.2-.032-19.222-24.3-19.222-24.3l-2.684-7.131ZM81.742,488.476c5.321,3.294,4.879,10.253-.532,13.063-3.251,1.687-9.088,1.3-12.77,1.3V481.365l4.562.151v16.336s7.294.594,7.261-3.477S73,491.425,73,491.425V486.7s5.647.716,5.679-2.526S73,481.515,73,481.515l-4.562-.151V476.77c2.767,0,8.843-.314,11.174.612C84.429,479.287,85.089,484.885,81.742,488.476ZM227.781,476.77c0,19.565.277,25.221.277,25.221h-4.778V476.77Zm17.314,0v4.789h-4.8c-.005,18,0,20.432,0,20.432h-4.778V481.559h-4.789V476.77Zm6.87,0v6.318a7.444,7.444,0,0,1-4.21,3.791c-.6-2.868.394-2.8,1.6-5.321h-2.128V476.77Zm34.09,0c-.006,1.5,0,4.052,0,4.052h-4.778V476.77Zm39.386,0v10.11h9.046V476.77h4.789v26.073h-4.789V492.2h-9.046v10.642h-4.789V476.77Zm67.565,0v25.708h-4.778V476.77Zm9.056,0v6.385h2.489v4.257h-2.489v15.431h-4.789V487.412h-1.6l-.532-4.257h2.128V476.77Zm10.11,0v6.917a10,10,0,0,1,3.725-1.011c8.21-.575,8.514,6.2,8.514,12.185v7.981H419.09s1.4-11.1.532-13.3-2.9-2.038-4.058-2.128c-2.033-.16-2.939,1.926-3.333,3.725v11.706h-5.379V476.77ZM92.916,495.394c4.188,4.613,5.981,1.884,9.578,1.139h4.257c-2.41,11.264-20.725,7.62-19.581-4.331a12.526,12.526,0,0,1,1.942-5.31,10.279,10.279,0,0,1,16.367-.532c1.3,1.628,3.5,6.816,1.41,8.508-.819.66-2.831.527-3.863.527Zm36.715-5.321c-1.367,0-4.028.117-5.23-.3-1.665-.569-3.091-2.485-5.411-2.081-5.076.889-6.045,8.04-1.054,9.966,2.847,1.1,4.31-.756,6.375-1.426a21.668,21.668,0,0,1,5.321-.309c-1.144,2.99-2.3,4.917-5.321,6.359-6.518,3.113-14.489-1.091-14.877-8.487C108.74,480.447,126.273,478.681,129.63,490.073Zm17.559-5.321c.9-2.166,2.682-1.6,4.789-1.6v19.688c-2.208-.011-3.459.388-4.789-1.6-2.017,1.032-3.517,1.942-5.853,2.07-12.536.708-13.5-20.023-1.064-20.672C143.454,482.48,144.619,482.943,147.189,484.752Zm40.971,4.257c-2.347,0-2.762.17-5.012-.665-.569-.165-1.442-.638-1.958,0-.676.756.6,1.548,1.16,1.836,1.783.936,5.912,1.266,6.279,5.747.452,5.544-5.183,8.881-10.035,6.726-2.911-1.293-3.586-3.3-4.267-6.194,6.864-1.947,4.188,2.2,9.578,1.064-2.666-4.4-7.359-2.57-8.365-7.455-1.453-7.018,7.045-9.445,10.9-5.7C187.943,485.821,188.049,487.066,188.161,489.008Zm7.449,6.385c4.789,4.4,5.374,2.251,9.578,1.176a21.47,21.47,0,0,1,4.257,0c-1.08,6.566-9.407,8.423-14.877,4.954-3.629-2.3-4.379-5.294-4.267-9.322a8.95,8.95,0,0,1,1.57-5.31c3.65-5.55,12.51-5.805,16.452-.452,1.218,1.649,3.389,6.784,1.336,8.412-.846.665-2.879.543-3.937.543Zm73.429-6.4h-2.66a9.271,9.271,0,0,1-2.123-.42,3.906,3.906,0,0,0-1.889-.335c-1.085.325-.09,1.362.394,1.692,1.165.8,4.384,1.394,5.826,3.448,3.373,4.8-1.793,10.413-7,9.892a6.57,6.57,0,0,1-5.55-3.624c-.521-1.1-.952-2.719.4-3.4,2.6-1.3,3.938,1.5,7.806,1.809-1.6-5.268-9.04-3.31-8.285-10.11.537-4.826,6.577-6.752,10.36-4.251C268.358,485.039,268.8,486.742,269.039,488.993Zm37.779,13.85h-4.789c0-2.293.495-11.146,0-12.849a3.922,3.922,0,0,0-3.75-2.72,3.858,3.858,0,0,0-3.7,2.72c-.495,1.7,0,10.555,0,12.849h-4.789v-19.73h4.264v1.158h.414c1.33-1.541,4.916-2.175,7.56-1.158a6.3,6.3,0,0,1,4.177,3.773C307.217,489.4,306.818,499.528,306.818,502.843Zm55.753-7.449h-14.25c3.671,4.294,5.337,2.277,9.046,1.2a21.5,21.5,0,0,1,4.789,0c-2.15,9.966-18.618,8.7-19.586-2.794-1.016-12,16.293-15.851,20-4.257A9.64,9.64,0,0,1,362.571,495.394Zm18.208-10.11v-2.128h4.246v18.836l-4.246.851v-2.128c-3.991,2.969-8.641,3.826-12.717.325a9.872,9.872,0,0,1-3.375-8.083,10.437,10.437,0,0,1,1.7-6.112c1.442-2.469,6.641-5.482,11.2-3.748A10.1,10.1,0,0,1,380.779,485.284Zm65.98,4.789a18.278,18.278,0,0,1-4.789-.309c-1.921-.649-3.081-2.352-5.321-2.086-4.592.548-6.635,7.151-1.586,9.748,2.927,1.511,4.853-.575,6.907-1.2a19.026,19.026,0,0,1,4.789-.3c-1.591,7.8-11.387,9.6-16.851,4.507-1.713-1.6-3.061-3.447-2.933-8.615s5.482-9.4,10.739-9.173C442.492,482.852,445.849,485.294,446.759,490.073Zm18.091-5.321c.9-2.166,2.682-1.6,4.789-1.6v19.688H464.85v-2.128c-3.852,3.07-8.716,3.836-12.674.325-2.384-2.112-4.6-6.158-2.641-12.19s7.323-7.455,12.123-5.853A14.817,14.817,0,0,1,464.85,484.752Zm16.372-2.107v5.034c-1.41.3-2.352-.074-3.288,1.171-1.516,2-.868,11.126-.868,13.994H472.3V483.155c2.3,0,3.379-.325,5.321,1.064C479.26,482.6,478.977,482.724,481.222,482.645Zm6.508,12.206c3.538,4.369,5.026,3.672,9.578,1.74h4.47c-1.272,5-6.375,7.652-11.387,6.5a9.429,9.429,0,0,1-6.614-4.6c-1.606-2.339-1.474-6.6-.947-8.423a9.813,9.813,0,0,1,9.157-7.428c4.113-.181,7.247,1.059,9.386,4.768.915,1.6,2.051,7.82.4,7.439C501.778,494.851,487.7,494.812,487.731,494.851Zm-327.643-11.7v11.174c.527,1.825,1.479,3.57,3.6,3.57,2.075,0,3.166-1.745,3.634-3.57V483.155h4.869c-.016,16.83,0,18.836,0,18.836s-3.363,1.378-4.246-.745c-4.411,3.32-10.61,2.6-12.424-3.193-.6-1.9-.346-12.169-.346-14.9Zm126.511,0v14.9c0,1.059.122,3.091-.543,3.938-.878,1.107-3.475.851-4.778.851V483.155ZM92.916,490.6h9.578C99.668,486.891,95.353,486,92.916,490.6Zm47.367-2.847c-7.146,3.15-2.916,12.494,3.7,9.977,3.395-1.288,4.1-5.928,1.793-8.519C144.231,487.481,142.4,487.37,140.283,487.758ZM195.61,490.6h9.578C202.671,486.412,198.127,486.412,195.61,490.6Zm152.711,0H357.9C355.074,486.891,350.759,486,348.322,490.6Zm25.009-2.8c-6.124,3.294-3.874,10.828,2.66,10.19,5.3-.516,4.89-6.7,2.964-8.865C377.337,487.311,375.506,487.3,373.33,487.806Zm84.6-.09c-6.593,2.639-4.055,12.132,3.182,10.11C467.245,496.112,465.6,486.524,457.933,487.716Zm29.8,2.889h9.578c-1.146-2.25-1.735-3.188-4.538-3.193S489.169,488.739,487.731,490.6Z"></path><path fill="#181717" transform="translate(3104.383 8898.243)" d="M510.334,223.068c1.538-.569,6.273-2.783,6.736-4.368.4-1.352-1.123-2.74-1.958-3.613a37.681,37.681,0,0,0-8.5-6.6c-10.051-5.991-25.546-9.759-37.247-9.9h-12.77c-10.6.016-27.647,2.791-38.236,5.116l-44.771,10.1a590.065,590.065,0,0,1-75.025,9.838s-22.505,1.72-40.464,2.119-31.369-.523-31.369-.523c-17.2-1.181-31.022-2.867-55.093-11.314a150.56,150.56,0,0,1-41.189-22.474s-6.206-5.449-8.009-7.232c-4.347-4.3-11.722-12.69-14.367-18.091,6.587-3.214,12.878-11.879,15.431-16.024s3.127-11.345,3.259-14.538a58.594,58.594,0,0,0-.475-10.489,59.262,59.262,0,0,0-1.217-7.225c-.635-2.992-1.566-7.324-1.566-7.324l.532-10.38a47.964,47.964,0,0,0-.532-6.8c-.479-2.224-1.383-2.1-1.383-2.1a69.585,69.585,0,0,0,.319-7.6V74.082c0-15.117.761-33.213-2.022-47.889-1.809-9.53-3.874-19.757-13.941-23.7C99.807-.114,89.058-.135,82,.881l-11.706,1.9c-3.342.037-11.419-.66-9.184,5.321a5.643,5.643,0,0,0,1.325,2.006c4.39,4.4,9.322-.968,12.648-2.426,2.575-1.128,10.376-2.2,13.3-2.24,3.991-.043,6.726-.17,10.642.931a27.705,27.705,0,0,1,7.96,3.746c9.764,7.322,8,25.972,8,36.826,0,0,.541,13.018,0,24.325s-.219,18.417-1.7,20.527-.466,8.812-.466,8.812c-.005,2.144.339,6.08-.331,8.059a29.4,29.4,0,0,1-3.443,5.853c-6.359,8.705-17.224,14.771-28.116,14.9-6.742.074-17.161-1.806-22.609-5.887a12.088,12.088,0,0,1-3.472-3.984s-3.7-4.746-5.844-4.568-11.392-12.7-11.392-12.7a275.342,275.342,0,0,1-18.23-23.944C14.794,71.458,6.971,60.523,6.509,57.464s-1.8-9.739,4.033-16.52,12.047-9.53,19.31-13.675c.782-.447,1.144-1.408,2.191-1.75,1.9-.623,4.288-.177,6.3-.694,2.62-.673,4.46-2.565,3.808-6.079a4.865,4.865,0,0,0-1.282-2.538c-4.64-4.933-9.87,2.288-13.143,5.028l-6.385,4.773c-5.784,4.459-10.1,7.729-14.83,13.3C3.05,43.383-.254,48.764.15,54.394c.639,8.753,6.912,18.538,11.919,25.541L34.332,109.2l8.213,9.73c.384,1.554.561,3.279,1.24,4.3L52.8,134.74l3.054,5.853c4.353,7.8,11.483,18.889,18.7,24.056,4.948,3.544,11.626,4.661,17.559,5.513a58.168,58.168,0,0,0,7.709,0l9.643,13a129.374,129.374,0,0,0,17.767,16.8c23.439,18.192,54.8,28.733,84.071,32.229l17.027,1.564s10.217.8,23.52.654,29.69-1.234,45.653-2.251a680.1,680.1,0,0,0,73.961-9.317L421.474,212.2c8.929-1.963,25.227-5.082,34.054-5.1,14.957-.021,26.206-.394,40.439,5.7C501.379,215.129,506.838,218.2,510.334,223.068ZM120.84,104.411a5.235,5.235,0,0,0-2.673,0,8.333,8.333,0,0,0-2.648,1.6V96.43c.011-1.538-.229-3.608,1.671-4.081,1.346-.33,3.232-.054,3.289,2.11S120.84,102.572,120.84,104.411Zm2.66-2.66Zm-7.981,13.3c.341.512,3.663,8.621,3.321,15.97s-.789,12.518-3.572,17.02c-4.113,6.672-13.744,11.908-21.566,12.217a23.437,23.437,0,0,1-12.238-3.336c-8.929-4.943-16.75-17.2-20.752-26.44a32.959,32.959,0,0,1,5.321,1.58,42.93,42.93,0,0,0,15.431,2.144c8.439-.1,19.294-4.619,25.541-10.2,3.288-2.937,6.835-8.488,7.29-8.955S115.178,114.541,115.519,115.053Zm-66.512,3.054c2.879.66,6,4.879,7.125,7.588,1.107,2.66-1.543,4.23-2.82,4.172-1.352-.064-2.831-2.134-3.64-3.107C47.374,124,43.064,119.762,49.007,118.107Zm469.84,102.3c11.057,18.634,13.761,23.153,13.761,23.153a70.088,70.088,0,0,1,12.681-3.44c6.4-1,6.132-.7,12.932-.558-1.25-2.932-5.9-7.981-5.9-7.981s-6.066-6.311-9.53-8.375c-5.246-3.134-11.094-3.4-17.027-3.331Zm-2.66,2.128c-6.587,4.986-10.445,11.3-10.637,19.688l.527,6.917,4.679,17.243,2.238,5.637a85.589,85.589,0,0,0,10.2,17.024c3.5,4.339,5.932,7.625,14.424,10.962s13.6,4.062,19.543,2.386a22.228,22.228,0,0,0,11.3-7.492,25.536,25.536,0,0,0,3.306-7.278c1.165-4.257,1.247-7.147,1.043-13.575s-1.1-9.919-1.859-12.137a68.107,68.107,0,0,0-6.71-13.3c-1-1.554-2.288-3.751-3.938-4.624-1.8-.947-5.816-.708-7.934-.7-11.93.059-23.758,5.816-31.9,14.367-3.624,3.8-7.21,9-7.471,14.367l-2.238-5.637a35.325,35.325,0,0,1,6.968-11.516c4.753-4.987,6.716-6.456,11.765-8.92Z"></path><g transform="translate(3237.036 8921.144)"><path fill="#bfb6b0" transform="translate(9578.417 5935.255)" d="M-9540.207-5927.03s-38.419,151.945-38.209,155.177,3.191,5.364,5.547,5.806,37.216.169,39.279.184-4.141-5.224-4.457-6.919,37.182-153.917,37.4-156.437-2.944-4.1-2.944-4.1-37.367-.03-39.094.029-1.1,2.777-.839,3.071,2.186.662,2.976,1.381A1.707,1.707,0,0,1-9540.207-5927.03Z"></path><path fill="#da412f" transform="translate(9651.314 5935.255)" d="M-9540.207-5927.03s-38.419,151.945-38.209,155.177,3.191,5.364,5.547,5.806,37.216.169,39.279.184-4.141-5.224-4.457-6.919c-.148-.795,17.254-70.853,17.254-70.853h50.828l7.412-28.17h-51.869s13.684-56.387,13.771-57.415c.214-2.52-2.944-4.1-2.944-4.1s-37.367-.03-39.094.029-1.1,2.777-.839,3.071,2.186.662,2.976,1.381A1.707,1.707,0,0,1-9540.207-5927.03Z"></path><path fill="#da412f" transform="translate(9740.174 5935.255)" d="M-9540.207-5927.03s-38.419,151.945-38.209,155.177,3.191,5.364,5.547,5.806,37.216.169,39.279.184-4.141-5.224-4.457-6.919,37.182-153.917,37.4-156.437-2.944-4.1-2.944-4.1-37.367-.03-39.094.029-1.1,2.777-.839,3.071,2.186.662,2.976,1.381A1.707,1.707,0,0,1-9540.207-5927.03Z"></path><path fill="#bfb6b0" transform="translate(9809.647 5971.227)" d="M-9547.453-5928.045s-26.922,111.221-25.892,118.009,3.169,7.719,5.063,8.069,30.789-.011,32.45,0-3.295-4.591-3.55-5.937,26.336-116.724,26.326-122.438-5.881-6.235-5.881-6.235-32.93-.047-34.32,0-.791,2.21-.582,2.443,4.971,3.22,5.605,3.792A4.52,4.52,0,0,1-9547.453-5928.045Z"></path><path fill="#bfb6b0" transform="translate(9344.972 5936.945)" d="M-9075.785-5936.917s-4.158,20.3-3.676,21.569a3.807,3.807,0,0,0,2.079,2.434c.882.3,29.81,0,29.81,0l4.395-20.145a3.641,3.641,0,0,0-1.568-3.058,5.992,5.992,0,0,0-3.622-.8Z"></path><path fill="#bfb6b0" transform="translate(9316.289 5935.187)" d="M-9009.617-5806.588s-9.141,29.821-8.557,33.66a7.2,7.2,0,0,0,5.038,6.014c1.887.664,81.8,1.132,85.081.819s9.443-2.3,17.146-11.946,13.285-20.6,16.7-40.53-1.906-39.459-13-44.2-35.1-8.751-41-11.907-5.326-13.071-2.824-21.11,11.112-11.01,14.667-11.045,38.786,2.615,43.97,0,8.094-26.351,8.094-26.351h-70.143s-16.553,1.239-26.045,15.44-11.126,30.333-11.614,40.157c-.552,11.088-1.97,25.6,9.616,33.057,7.914,5.1,23.865,9.251,36.141,11.583s12.255,10.942,12.1,15.2c-.607,16.447-10.242,19.349-14.1,21.174s-30.982,3.129-46.668,3-11.281-13.009-11.281-13.009Z"></path></g></g></g></svg>