<svg viewBox="0 0 1840 340" height="340" width="1840" xmlns:xlink="http://www.w3.org/1999/xlink" xmlns="http://www.w3.org/2000/svg"><defs><clipPath id="b"><rect height="340" width="1840"></rect></clipPath></defs><g clip-path="url(#b)" id="a"><rect fill="none" height="340" width="1840"></rect><g transform="translate(-1947 -1479.5)"><text font-weight="700" font-family="Arial-BoldMT, Arial" font-size="144" fill="#242021" transform="translate(1967 1630)"><tspan y="0" x="0">SINGAPORE</tspan><tspan xml:space="preserve" y="138" x="0">BI   DESIGN</tspan></text><path fill="#3cad49" transform="translate(1396.318 12318.376)" d="M791.5-10635.506v-19.543s-21.364-4.261-42.151,12.515a50.064,50.064,0,0,0-18.74,41.715c.056,1.813.606,26.435,19,40.486s37.106,15.3,56.937,7.673,29.007-28.488,30.93-39.8-1.02-22.934-1.02-22.934H818.833s6.4,17.177-1.9,31.033-22.324,19.759-38.65,16.8-25.2-21.519-25.868-28.6-1.183-16.644,9.138-29.43S791.5-10635.506,791.5-10635.506Z"></path><circle fill="#bc312b" transform="translate(2197.942 1670.828)" r="11.028" cy="11.028" cx="11.028"></circle></g></g></svg>