<svg viewBox="0 0 1840 340" height="340" width="1840" xmlns:xlink="http://www.w3.org/1999/xlink" xmlns="http://www.w3.org/2000/svg"><defs><clipPath id="b"><rect height="340" width="1840"></rect></clipPath></defs><g clip-path="url(#b)" id="a"><rect fill="none" height="340" width="1840"></rect><g transform="translate(21.172 119)"><path fill="#c64097" transform="translate(-2 0)" d="M251.1-96.259c-3.655,2.437-3.35,5.178,2.437,17.665,6.7,14.619,12.183,32.589,18.579,59.7,4.873,21.32,4.264,78.883-1.218,97.767-10.66,36.548-39.289,56.954-69.746,49.34l-7.919-1.827,10.355-13.706c31.371-41.117,30.761-97.767-1.827-124.264-22.538-18.274-58.472-17.333-82.228,6.424C107.957,6.408,97.013,16.479,95.769,48.411c1.077,26.26,21.32,60.609,39.594,75.838,5.482,4.569,9.442,8.832,8.833,9.137s-4.264,2.437-7.919,4.264c-9.442,5.178-34.416,4.873-47.513-.609C82.977,134.6,73.84,127.6,68.663,121.2c-15.533-18.883-19.8-36.548-20.1-83.756-.609-43.553-2.741-51.168-14.01-51.168C25.414-13.721,4.4-4.279,1.658,1.2.135,3.944.744,18.563,3.18,36.533c10.355,73.4,35.33,116.041,75.838,127.919,8.832,2.437,19.188,4.569,22.843,4.569,10.355,0,42.64-8.832,54.822-15.228,10.66-5.482,11.574-5.482,28.934.3,35.33,11.574,67.005,4.264,90.761-21.32C305.008,102.32,313.536,74.6,313.536,12.168c0-56.954-6.4-85.888-21.624-101.421C283.993-97.173,279.729-99,269.069-99,261.759-99,253.536-97.782,251.1-96.259ZM196.277,12.168c6.7,6.7,7.614,10.355,7.614,28.325,0,24.061-6.7,42.03-21.929,60.914L171.3,114.5l-9.137-8.528c-22.843-21.624-30.347-50.936-18.883-83.452C155.465,1.812,180.744-3.061,196.277,12.168Z"></path><path fill="#422a88" transform="translate(216.755 70.27)" d="M141.379-61.148c-18.579,6.091-29.848,19.188-29.848,35.33,0,24.67,14.924,37.767,51.472,45.685,16.751,3.655,30.761,13.706,30.761,22.538,0,6.4-10.355,16.142-20.1,18.579-10.66,2.741-28.629-3.046-42.03-13.706-12.487-10.051-17.665-9.746-22.538.914-7.31,16.142,16.142,29.239,53.3,29.543,16.447,0,25.584-1.523,33.807-5.787,21.624-10.964,30.761-35.33,20.711-54.822C211.735,7.075,205.948,3.725,175.8-6.326c-25.279-8.528-33.807-14.619-33.807-24.365,0-10.66,9.442-16.751,25.279-16.751,11.574,0,16.142,1.827,25.279,9.746C204.121-27.646,209.3-27.951,216.3-39.22c4.264-6.7-.3-14.315-11.878-20.1C191.633-65.412,158.435-66.631,141.379-61.148Z"></path><path fill="#422a88" transform="translate(301.593 73.906)" d="M178.979-57.17c-37.157,22.234-40.2,96.853-5.178,122.132,10.66,7.614,14.924,8.832,32.893,8.832,17.665,0,21.929-1.218,29.848-7.919l9.442-7.919V73.795c0,18.883-3.35,25.888-15.228,31.98-12.487,6.4-24.061,5.787-41.421-3.046-18.274-9.137-20.1-9.442-24.975-1.218-10.051,15.838,8.223,25.279,48.122,25.584,35.025,0,54.822-12.792,60.914-39.9,4.873-19.8,3.655-139.188-.914-145.888C267.3-65.7,253.9-62.956,249.03-54.124c-3.35,6.091-3.35,6.091-12.487-.609C223.446-64.479,193.6-65.7,178.979-57.17Zm51.472,20.1c9.442,6.7,15.533,22.234,15.533,39.9,0,33.2-11.574,50.558-33.5,50.254-21.624-.3-33.5-17.056-33.5-47.817,0-30.457,11.878-47.208,33.5-47.208C218.573-41.941,226.491-39.809,230.451-37.068Z"></path><text font-family="HelveticaNeue, Helvetica Neue" font-size="78" fill="#3a2383" transform="translate(607.967 63.325)"><tspan y="0" x="0">Workforce</tspan><tspan y="72" x="0">Singapore</tspan></text></g></g></svg>