<svg viewBox="0 0 1840 340" height="340" width="1840" xmlns:xlink="http://www.w3.org/1999/xlink" xmlns="http://www.w3.org/2000/svg"><defs><clipPath id="b"><rect height="340" width="1840"></rect></clipPath></defs><g clip-path="url(#b)" id="a"><rect fill="none" height="340" width="1840"></rect><g transform="translate(20 117.115)"><path fill="#e11d21" transform="translate(0 0.247)" d="M0-89.131c0,6.924,1.259,7.869,11.016,7.869H22.032V135.6l-10.387.944c-6.295.63-10.072,2.518-10.072,5.665,0,3.777,5.665,4.721,33.048,4.721s33.048-.944,33.048-4.721c0-3.147-4.092-5.351-11.016-6.295l-11.016-1.574V40.544c0-51.3.315-93.48.629-93.48s23.606,29.271,51.3,65.152c27.7,36.2,62.949,81.519,78.057,100.719L203.011,148.5h93.165l-.629-64.523-.315-64.208,41.232-51.618,40.811-51.336,20.25.347c38.714,1.574,62.005,23.291,62.005,58.543,0,23.921-9.757,39.343-32.734,51.933-11.016,5.98-18.255,6.924-52.877,7.239l-27.7.315V148.5h39.343c32.1,0,39.343-.944,39.343-4.406,0-3.147-4.092-5.036-11.646-5.665-6.61-.629-11.646-1.888-11.016-3.462.315-1.259.629-22.032.629-46.268V44.636h10.7c15.108,0,50.989-8.813,64.523-15.737,23.291-11.96,38.084-36.511,35.881-59.487-1.574-17-15.108-36.825-31.475-46.582-24.55-14.164-49.73-18.255-107.643-17.311-46.268.944-49.6,0-49.6,0v11.646h23.594S284.216-1,281.383-1.317c-1.574,0-19.514-21.718-39.973-47.841L203.956-97H125.9v7.869c0,6.924,1.259,7.869,11.96,7.869,11.331,0,12.59,1.259,56.654,58.228l45.009,57.913-.944,36.511-.944,36.2L158.947,5.607,80.26-96.685,40.288-97H0Z"></path><path transform="translate(386.921 0.084)" d="M182.77-90.542c-2.2,3.777-2.833,33.048-2.518,80.89l.944,74.91,8.813.944c17.941,2.2,18.885-1.259,17.311-64.523-1.259-56.654-1.259-57.6,4.092-44.379,12.9,33.678,49.73,105.755,54.766,107.329,8.813,3.462,22.662,2.518,26.439-2.2,2.518-2.833,3.462-27.068,2.833-80.89l-.944-76.8-9.757-.944c-16.367-1.574-17.941,2.833-16.682,59.487l1.259,50.674L259.883-6.19c-5.036-11.016-15.737-33.048-23.291-49.415-7.239-16.052-16.367-32.1-19.514-35.252C208.579-99.355,187.491-99.041,182.77-90.542Z"></path><path transform="translate(473.687 1.432)" d="M268.485-92.52c-1.888,1.888-8.5,21.088-15.108,42.491-6.61,21.088-17,54.766-22.977,74.595-6.295,19.829-10.387,37.14-9.757,38.4.944,1.574,7.239,2.518,13.849,2.518,11.96,0,12.275-.315,17.94-18.255L258.1,29.287l6.553-23.769,19.324-68.832L304.539,5.518H264.682L258.1,29.287h52.37L316.641,46.6c3.147,9.442,5.98,17.626,5.98,17.941,0,.629,6.295.944,14.164.944,17,0,17.311-1.259,6.61-34.622C328.6-16.037,310.346-74.894,308.143-83.393c-.944-4.721-3.462-9.442-5.665-10.7C296.5-97.871,271.947-96.927,268.485-92.52Z"></path><path transform="translate(569.078 0.139)" d="M270.036-89.968C265.944-83.988,265-71.083,265-11.911c0,39.029,1.259,72.706,2.833,74.91,1.574,2.518,6.924,3.777,13.219,3.147l10.7-.944,1.574-58.228c.944-32.1,2.2-56.654,2.518-54.451S305.6-24.5,316.933-.895s20.458,43.75,20.458,44.694c0,1.259,3.462,6.61,8.183,12.59,5.98,8.183,10.072,10.387,18.255,10.387,19.829,0,20.773-3.147,20.773-82.464,0-39.343-.944-73.336-1.888-76.169-2.518-6.924-22.032-6.924-24.55,0-.944,2.833-1.888,27.7-2.2,55.71,0,28.012-.944,48.786-1.888,46.268-1.259-2.518-11.016-23.606-22.032-46.9C321.34-59.753,320.1-66.41,312.212-81.155s-9.006-13.995-11.742-14.6-21.86-.507-23.677,0S272.019-92.843,270.036-89.968Z"></path><path transform="translate(657.768 1.285)" d="M306.615-93.317c-1.574,3.462,2.518,14.164,17.626,47.212,19.514,42.491,19.514,43.12,18.885,73.336-.315,33.048,1.888,38.4,17,38.4,15.737,0,17.626-4.406,17.626-37.14V-1.1l20.458-45.953c11.331-25.18,19.829-46.582,18.885-47.527-3.147-3.147-27.068-2.2-29.586.944-1.259,1.888-7.239,16.052-12.9,31.789-10.7,28.642-15.737,38.4-15.737,29.586,0-5.98-21.088-56.654-25.18-60.746C329.277-97.409,308.188-97.723,306.615-93.317Z"></path><path transform="translate(816.414 0.08)" d="M382.77-90.538c-2.2,3.777-2.833,33.048-2.518,80.89l.944,74.91,9.128.944c5.036.629,10.072,0,11.646-1.574,1.259-1.259,2.833-28.642,3.147-60.746.315-44.694,1.259-56.34,3.777-50.359,1.888,4.406,10.387,22.662,18.885,40.917s17.941,39.029,21.4,46.268c3.147,7.239,8.5,16.052,11.96,19.514,1.419,1.419,4.686,4.406,4.686,4.406s21.666,3.234,26.474-1.574c2.833-2.833,3.777-24.865,3.777-80.26V-96.428s-.4-.553-13.18-.642-13.573.642-13.573.642v57.193c0,28.957-.315,52.563-.944,52.563-.315,0-3.462-5.98-6.61-13.534-17.941-41.232-42.176-89.388-46.582-92.85C406.69-99.351,386.862-97.778,382.77-90.538Z"></path><path transform="translate(903.411 0)" d="M461.015-90.144c-53.507,27.383-53.822,125.269-.629,152.652,18.255,9.442,62.32,6.924,75.539-4.406,4.406-4.092,5.351-10.387,5.351-41.547V-27.509H482.863V.818H510.43V18.129c.944,19.2-.315,20.459-18.57,20.459-15.737,0-31.16-10.387-35.881-24.235-5.351-17-4.721-47.841,1.574-60.117,11.331-21.717,35.566-28.012,64.523-16.682a95.617,95.617,0,0,0,19.2,4.99V-80.742s-2.089-2.274-3.667-4.189C527.536-98.466,483.047-101.475,461.015-90.144Z"></path><path fill="#e11d21" transform="translate(456.766 184.928)" d="M224.66,3.478,212.7,17.957l15.423-1.888c14.478-1.574,45.323-4.092,87.814-6.61,10.387-.629,26.124-2.2,34.622-3.147,8.813-.944,24.865-2.518,36.2-3.147,25.809-1.888,50.674-4.092,70.5-5.98,8.813-.944,28.642-2.518,44.065-3.777,15.737-.944,29.271-2.518,29.9-3.147S466.071-11,384.552-11H236.306Z"></path><path transform="translate(832.498 1.432)" d="M268.485-92.52c-1.888,1.888-8.5,21.088-15.108,42.491-6.61,21.088-17,54.766-22.977,74.595-6.295,19.829-10.387,37.14-9.757,38.4.944,1.574,7.239,2.518,13.849,2.518,11.96,0,12.275-.315,17.94-18.255L258.1,29.287l6.553-23.769,19.324-68.832L304.539,5.518H264.682L258.1,29.287h52.37L316.641,46.6c3.147,9.442,5.98,17.626,5.98,17.941,0,.629,6.295.944,14.164.944,17,0,17.311-1.259,6.61-34.622C328.6-16.037,310.346-74.894,308.143-83.393c-.944-4.721-3.462-9.442-5.665-10.7C296.5-97.871,271.947-96.927,268.485-92.52Z"></path><text font-weight="700" font-family="Bariol-Bold, Bariol" font-size="66" transform="translate(566.543 149.864)"><tspan y="0" x="0">THE </tspan><tspan fill="#e11d21" y="0">INNOVATIVE</tspan><tspan xml:space="preserve" y="0"> POLYTECHNIC</tspan></text><path fill="#1f428e" transform="translate(0 0.247)" d="M0-89.131c0,6.924,1.259,7.869,11.016,7.869H22.032V135.6l-10.387.944c-6.295.63-10.072,2.518-10.072,5.665,0,3.777,5.665,4.721,33.048,4.721s33.048-.944,33.048-4.721c0-3.147-4.092-5.351-11.016-6.295l-11.016-1.574V40.544c0-51.3.315-93.48.629-93.48s23.606,29.271,51.3,65.152c27.7,36.2,62.949,81.519,78.057,100.719L203.011,148.5h93.165l-.629-64.523-.315-64.208,41.232-51.618L377.25-83.128H348.692S284.216-1,281.383-1.317c-1.574,0-19.514-21.718-39.973-47.841L203.956-97H125.9v7.869c0,6.924,1.259,7.869,11.96,7.869,11.331,0,12.59,1.259,56.654,58.228l45.009,57.913-.944,36.511-.944,36.2L158.947,5.607,80.26-96.685,40.288-97H0Z"></path></g></g></svg>