<svg viewBox="0 0 1840 340" height="340" width="1840" xmlns:xlink="http://www.w3.org/1999/xlink" xmlns="http://www.w3.org/2000/svg"><defs><clipPath id="b"><rect height="340" width="1840"></rect></clipPath></defs><g clip-path="url(#b)" id="a"><rect fill="none" height="340" width="1840"></rect><g transform="translate(-444.066 754.016)"><g transform="translate(796.482 -658.553)"><path fill="#231f20" transform="translate(3.823 13.96)" d="M5.194,18.967a15.435,15.435,0,0,0,.25,2.853,4.9,4.9,0,0,0,.942,2.15,4.463,4.463,0,0,0,1.838,1.374,7.263,7.263,0,0,0,2.915.5,5.786,5.786,0,0,0,3.727-1.343,5.041,5.041,0,0,0,1.655-4.154,7.319,7.319,0,0,0-.406-2.6,5.128,5.128,0,0,0-1.348-1.978,9.135,9.135,0,0,0-2.473-1.593A33.921,33.921,0,0,0,8.51,12.709a32.847,32.847,0,0,1-5.2-2.192A13.91,13.91,0,0,1-.345,7.733a9.9,9.9,0,0,1-2.16-3.691A15.456,15.456,0,0,1-3.2-.81C-3.2-5.23-1.959-8.53.493-10.7S6.344-13.96,10.639-13.96a22.116,22.116,0,0,1,5.544.661,11.608,11.608,0,0,1,4.368,2.129A9.8,9.8,0,0,1,23.44-7.416,13.169,13.169,0,0,1,24.465-1.94V-.69H15.829a8.888,8.888,0,0,0-1.13-4.9,4.1,4.1,0,0,0-3.753-1.728,6.215,6.215,0,0,0-2.5.442A4.133,4.133,0,0,0,6.854-5.724a4.054,4.054,0,0,0-.817,1.655,8.914,8.914,0,0,0-.213,1.942,6.449,6.449,0,0,0,.869,3.472,7.885,7.885,0,0,0,3.759,2.6l6.944,3A21.26,21.26,0,0,1,21.6,9.3a11.519,11.519,0,0,1,2.6,2.634,8.8,8.8,0,0,1,1.327,3.092,16.658,16.658,0,0,1,.39,3.753q0,7.09-4.1,10.3Q17.7,32.3,10.389,32.3,2.76,32.3-.538,28.982q-3.28-3.319-3.285-9.511V17.66H5.194v1.307"></path></g><path fill="#231f20" transform="translate(211.457 43.977)" d="M619.7-656.959h9.022V-701.65H619.7Z"></path><g transform="translate(846.868 -657.674)"><path fill="#231f20" transform="translate(9.025 12.977)" d="M12.262,17.632h.125v-30.61h8.261V31.714H10.387L-.638.417h-.12v31.3H-9.025V-12.977h10.4l10.885,30.61"></path></g><g transform="translate(882.365 -658.553)"><path fill="#231f20" transform="translate(8.477 4.911)" d="M11.518,6.672a8.423,8.423,0,0,0-.906-2.41,5.738,5.738,0,0,0-1.6-1.817,3.885,3.885,0,0,0-2.348-.724q-3.256,0-4.69,3.639Q.531,8.983.529,17.375c0,2.665.088,5.091.25,7.262a28.333,28.333,0,0,0,.911,5.534,8.006,8.006,0,0,0,1.874,3.5,4.363,4.363,0,0,0,4.94.786,5.758,5.758,0,0,0,1.822-1.312,7.132,7.132,0,0,0,1.421-2.223,8.276,8.276,0,0,0,.557-3.16V23.19H6.354V16.558H20.935v24.1H14.313V36.527h-.141a9.508,9.508,0,0,1-3.9,3.727,12.655,12.655,0,0,1-5.487,1.1A13.8,13.8,0,0,1-1.939,39.91,9.813,9.813,0,0,1-6.01,35.465a22.542,22.542,0,0,1-1.968-7.418,92.157,92.157,0,0,1-.5-10.24,60.582,60.582,0,0,1,.713-9.88A19.582,19.582,0,0,1-5.286.821,11.278,11.278,0,0,1-.658-3.469a16.077,16.077,0,0,1,7.2-1.442q7.387,0,10.64,3.665T20.435,9.238H11.8a11.882,11.882,0,0,0-.281-2.566"></path></g><g transform="translate(914.479 -657.674)"><path fill="#231f20" transform="translate(9.232 11.808)" d="M12.543,16.043,8.223-4.046H8.1L3.777,16.043Zm1.192-27.851L25.563,32.883H16.177L14.11,23.435H2.215L.149,32.883H-9.232L2.6-11.808h11.14"></path></g><g transform="translate(952.408 -657.679)"><path fill="#231f20" transform="translate(5.52 8.572)" d="M7.5,11.647a5.958,5.958,0,0,0,4.352-1.624q1.655-1.632,1.655-5.07A7.911,7.911,0,0,0,12.065-.175Q10.62-1.94,7.25-1.94H3.486V11.647ZM10.248-8.572a13.076,13.076,0,0,1,5.789,1.156,10.692,10.692,0,0,1,3.795,3.045A12.032,12.032,0,0,1,21.888-.087a19.039,19.039,0,0,1,.63,4.909,15.883,15.883,0,0,1-1.041,6.018,10.759,10.759,0,0,1-2.868,4.185,12.13,12.13,0,0,1-4.477,2.441,19.683,19.683,0,0,1-5.82.812H3.486V36.124H-5.52v-44.7H10.248"></path></g><g transform="translate(983.95 -658.553)"><path fill="#231f20" transform="translate(3.918 13.097)" d="M5.323,17.794A20.84,20.84,0,0,0,6.2,22.927a5.708,5.708,0,0,0,1.874,2.879,5.3,5.3,0,0,0,3.222.906,5.292,5.292,0,0,0,3.222-.906A5.584,5.584,0,0,0,16.4,22.927a21.089,21.089,0,0,0,.875-5.133q.219-3.155.219-7.668c0-3-.073-5.554-.219-7.637A21.322,21.322,0,0,0,16.4-2.638a5.589,5.589,0,0,0-1.879-2.915,5.258,5.258,0,0,0-3.222-.911,5.269,5.269,0,0,0-3.222.911A5.712,5.712,0,0,0,6.2-2.638a21.067,21.067,0,0,0-.875,5.128c-.146,2.082-.229,4.638-.229,7.637S5.177,15.691,5.323,17.794ZM-3.449.766a20.464,20.464,0,0,1,2.082-7.35A11.489,11.489,0,0,1,3.22-11.374,16.256,16.256,0,0,1,11.294-13.1a16.277,16.277,0,0,1,8.079,1.723,11.59,11.59,0,0,1,4.6,4.789A20.785,20.785,0,0,1,26.036.766a87.892,87.892,0,0,1,.469,9.36,87.573,87.573,0,0,1-.469,9.391,20.7,20.7,0,0,1-2.061,7.324,10.966,10.966,0,0,1-4.6,4.69,16.993,16.993,0,0,1-8.079,1.635A16.97,16.97,0,0,1,3.22,31.532a10.873,10.873,0,0,1-4.586-4.69,20.381,20.381,0,0,1-2.082-7.324,84.95,84.95,0,0,1-.469-9.391A85.233,85.233,0,0,1-3.449.766"></path></g><g transform="translate(1019.692 -657.674)"><path fill="#231f20" transform="translate(5.416 8.281)" d="M7.359,11.251a7.347,7.347,0,0,0,5-1.536c1.171-1.026,1.749-2.743,1.749-5.164,0-4.133-2.077-6.2-6.257-6.2H3.595v12.9ZM11.237-8.281c3.759,0,6.684.958,8.761,2.848,2.087,1.91,3.129,4.789,3.129,8.662A13.4,13.4,0,0,1,21.3,10.59a8.359,8.359,0,0,1-5.622,3.665v.135a8.13,8.13,0,0,1,4.945,2.181c1.041,1.13,1.681,2.941,1.942,5.445.073.838.141,1.744.182,2.723s.073,2.077.12,3.29c.094,2.374.2,4.191.38,5.445a3.525,3.525,0,0,0,1.635,2.566v.37H15.115a4.673,4.673,0,0,1-.875-2.16c-.13-.807-.208-1.655-.26-2.53l-.239-8.574a7.031,7.031,0,0,0-1.317-4.128c-.8-1.01-2.124-1.51-4-1.51H3.595v18.9H-5.416V-8.281H11.237"></path></g><g transform="translate(1054.492 -657.674)"><path fill="#231f20" transform="translate(10.592 3.132)" d="M14.391,4.255H-1.57v10.51H13.443v7.387H-1.57V34.178H15.01v7.382h-25.6V-3.132H14.391V4.255"></path></g><path fill="#231f20" transform="translate(192.748 74.886)" d="M605.931-634.219h9.011V-678.9h-9.011Z"></path><g transform="translate(814.379 -604.018)"><path fill="#231f20" transform="translate(9.025 12.975)" d="M12.262,17.629h.13v-30.6h8.256V31.711H10.393L-.628.414H-.753v31.3H-9.025V-12.975H1.366l10.9,30.6"></path></g><g transform="translate(848.565 -604.898)"><path fill="#231f20" transform="translate(3.818 13.957)" d="M5.188,18.964a14.886,14.886,0,0,0,.25,2.842,4.9,4.9,0,0,0,.947,2.166,4.582,4.582,0,0,0,1.843,1.38,7.367,7.367,0,0,0,2.91.5A5.737,5.737,0,0,0,14.86,24.5a5.036,5.036,0,0,0,1.661-4.165,7.645,7.645,0,0,0-.406-2.6,5.11,5.11,0,0,0-1.353-1.968,9.31,9.31,0,0,0-2.468-1.593,34.2,34.2,0,0,0-3.779-1.473,31.9,31.9,0,0,1-5.2-2.192A13.744,13.744,0,0,1-.346,7.73,9.788,9.788,0,0,1-2.5,4.034,15.388,15.388,0,0,1-3.194-.808q0-6.645,3.691-9.9t10.141-3.248a21.534,21.534,0,0,1,5.534.661,11.48,11.48,0,0,1,4.383,2.124,10.03,10.03,0,0,1,2.884,3.753,13.265,13.265,0,0,1,1.036,5.476V-.688H15.828A8.941,8.941,0,0,0,14.7-5.6a4.15,4.15,0,0,0-3.759-1.723,6.261,6.261,0,0,0-2.5.442,4.263,4.263,0,0,0-1.6,1.15,4.11,4.11,0,0,0-.807,1.666A8.214,8.214,0,0,0,5.812-2.13a6.541,6.541,0,0,0,.875,3.477A7.872,7.872,0,0,0,10.445,3.94L17.4,6.949A20.987,20.987,0,0,1,21.586,9.3a11.477,11.477,0,0,1,2.6,2.624,8.79,8.79,0,0,1,1.343,3.1,17.673,17.673,0,0,1,.375,3.759q0,7.059-4.092,10.286Q17.707,32.3,10.388,32.3q-7.637,0-10.927-3.326c-2.192-2.2-3.28-5.383-3.28-9.511V17.657H5.188v1.307"></path></g><g transform="translate(880.429 -604.018)"><path fill="#231f20" transform="translate(12.099 3.13)" d="M16.439,4.252H6.673v37.3H-2.344V4.252H-12.1V-3.13H16.439V4.252"></path></g><path fill="#231f20" transform="translate(258.77 74.886)" d="M654.522-634.219h9.006V-678.9h-9.006Z"></path><g transform="translate(926.614 -604.018)"><path fill="#231f20" transform="translate(12.099 3.13)" d="M16.439,4.252H6.683v37.3H-2.333V4.252H-12.1V-3.13H16.439V4.252"></path></g><g transform="translate(958.478 -604.018)"><path fill="#231f20" transform="translate(3.816 13.209)" d="M5.185,17.947a20.334,20.334,0,0,0,.229,3.108,6.933,6.933,0,0,0,.817,2.436A4.261,4.261,0,0,0,7.86,25.12a5.115,5.115,0,0,0,2.6.6,5.124,5.124,0,0,0,2.624-.6,4.582,4.582,0,0,0,1.6-1.629,7.144,7.144,0,0,0,.807-2.436,19.724,19.724,0,0,0,.224-3.108V-13.209h9.011V17.947A18.406,18.406,0,0,1,23.545,25a11.382,11.382,0,0,1-3.2,4.414A10.8,10.8,0,0,1,15.778,31.6a25.165,25.165,0,0,1-5.32.562,27.83,27.83,0,0,1-5.325-.5A10.665,10.665,0,0,1,.567,29.623a10.412,10.412,0,0,1-3.2-4.352,19.047,19.047,0,0,1-1.182-7.324V-13.209h9V17.947"></path></g><g transform="translate(990.337 -604.018)"><path fill="#231f20" transform="translate(12.101 3.13)" d="M16.442,4.252H6.676v37.3H-2.335V4.252H-12.1V-3.13H16.442V4.252"></path></g><g transform="translate(1022.758 -604.018)"><path fill="#231f20" transform="translate(10.583 3.13)" d="M14.379,4.252H-1.567V14.768H13.462v7.387H-1.567V34.169H15.019v7.387h-25.6V-3.13H14.379V4.252"></path></g><g transform="translate(1066.944 -604.903)"><path fill="#231f20" transform="translate(3.915 13.097)" d="M5.32,17.794a21.315,21.315,0,0,0,.88,5.133,5.677,5.677,0,0,0,1.879,2.884,5.241,5.241,0,0,0,3.217.906,5.311,5.311,0,0,0,3.233-.906,5.76,5.76,0,0,0,1.864-2.884,21.287,21.287,0,0,0,.885-5.133c.141-2.1.213-4.664.213-7.668s-.073-5.549-.213-7.637a21.673,21.673,0,0,0-.885-5.133,5.769,5.769,0,0,0-1.864-2.915,5.345,5.345,0,0,0-3.233-.9,5.274,5.274,0,0,0-3.217.9A5.686,5.686,0,0,0,6.2-2.644a21.7,21.7,0,0,0-.88,5.133Q5.1,5.621,5.1,10.126C5.1,13.13,5.174,15.691,5.32,17.794ZM-3.442.771a20.508,20.508,0,0,1,2.067-7.35,11.445,11.445,0,0,1,4.6-4.794A16.221,16.221,0,0,1,11.3-13.1a16.277,16.277,0,0,1,8.079,1.723,11.6,11.6,0,0,1,4.6,4.794A21.05,21.05,0,0,1,26.049.771a92.1,92.1,0,0,1,.463,9.355,91.916,91.916,0,0,1-.463,9.391,21,21,0,0,1-2.072,7.324,11.136,11.136,0,0,1-4.6,4.7A17.132,17.132,0,0,1,11.3,33.161a17.072,17.072,0,0,1-8.069-1.619,10.988,10.988,0,0,1-4.6-4.7,20.456,20.456,0,0,1-2.067-7.324,84.878,84.878,0,0,1-.474-9.391A85,85,0,0,1-3.442.771"></path></g><g transform="translate(1102.687 -604.018)"><path fill="#231f20" transform="translate(10.589)" d="M14.388,0V7.382H-1.573V17.9H13.445v7.387H-1.573v19.4h-9.016V0H14.388"></path></g><g transform="translate(795.862 -550.373)"><path fill="#231f20" transform="translate(12.101 3.132)" d="M16.442,4.255H6.681v37.3H-2.341V4.255H-12.1V-3.132H16.442V4.255"></path></g><g transform="translate(828.273 -550.373)"><path fill="#231f20" transform="translate(10.592 3.132)" d="M14.391,4.255H-1.57V14.776H13.443v7.382H-1.57V34.172H15.015v7.387H-10.592V-3.132H14.391V4.255"></path></g><g transform="translate(857.456 -551.248)"><path fill="#231f20" transform="translate(8.001 3.756)" d="M10.87,5.1A4.346,4.346,0,0,0,6.638,2.881a4.177,4.177,0,0,0-2.78.911A5.95,5.95,0,0,0,2.13,6.728a24.772,24.772,0,0,0-.875,5.32c-.161,2.186-.245,4.878-.245,8.048a79.994,79.994,0,0,0,.344,8.2,18.072,18.072,0,0,0,1.062,4.847,4.458,4.458,0,0,0,1.806,2.311,5.24,5.24,0,0,0,2.546.6,6.356,6.356,0,0,0,2.223-.4,3.834,3.834,0,0,0,1.775-1.64,10.684,10.684,0,0,0,1.192-3.441,31.856,31.856,0,0,0,.442-5.851h9.011a40.565,40.565,0,0,1-.562,6.892,15.761,15.761,0,0,1-2.1,5.69,10.458,10.458,0,0,1-4.326,3.816A16.279,16.279,0,0,1,7.2,42.5,16.952,16.952,0,0,1-.869,40.872a10.88,10.88,0,0,1-4.6-4.69,20.765,20.765,0,0,1-2.072-7.324A87.869,87.869,0,0,1-8,19.466a88.031,88.031,0,0,1,.458-9.36,20.784,20.784,0,0,1,2.072-7.35,11.525,11.525,0,0,1,4.6-4.789A16.234,16.234,0,0,1,7.2-3.756,15.729,15.729,0,0,1,14.806-2.2a10.635,10.635,0,0,1,4.159,3.982,13.655,13.655,0,0,1,1.723,5.19,42.076,42.076,0,0,1,.349,5.237H12.026c0-3.259-.39-5.627-1.156-7.106"></path></g><g transform="translate(891.996 -550.374)"><path fill="#231f20" transform="translate(3.825)" d="M5.2,0V17.09H15.7V0h9.021V44.691H15.7V24.847H5.2V44.691H-3.825V0H5.2"></path></g><g transform="translate(928.191 -550.374)"><path fill="#231f20" transform="translate(9.018 12.975)" d="M12.253,17.629h.13v-30.6h8.261V31.716H10.384L-.637.419H-.762v31.3H-9.018V-12.975H1.367l10.885,30.6"></path></g><g transform="translate(962.84 -551.248)"><path fill="#231f20" transform="translate(3.911 13.097)" d="M5.314,17.794a21.954,21.954,0,0,0,.869,5.133A5.686,5.686,0,0,0,8.073,25.8a5.181,5.181,0,0,0,3.222.911,5.185,5.185,0,0,0,3.217-.911,5.636,5.636,0,0,0,1.874-2.874,21.08,21.08,0,0,0,.885-5.133c.141-2.114.213-4.664.213-7.668s-.073-5.544-.213-7.642a21.411,21.411,0,0,0-.885-5.128,5.624,5.624,0,0,0-1.874-2.9,5.219,5.219,0,0,0-3.217-.911,5.214,5.214,0,0,0-3.222.911,5.672,5.672,0,0,0-1.89,2.9,22.308,22.308,0,0,0-.869,5.128c-.146,2.1-.219,4.638-.219,7.642S5.168,15.681,5.314,17.794ZM-3.448.766a20.754,20.754,0,0,1,2.056-7.35,11.665,11.665,0,0,1,4.6-4.794A16.359,16.359,0,0,1,11.295-13.1a16.329,16.329,0,0,1,8.074,1.718,11.665,11.665,0,0,1,4.6,4.794A20.862,20.862,0,0,1,26.032.766a86.475,86.475,0,0,1,.474,9.36,86.305,86.305,0,0,1-.474,9.391,20.907,20.907,0,0,1-2.061,7.324,10.966,10.966,0,0,1-4.6,4.69,16.989,16.989,0,0,1-8.074,1.629,17.02,17.02,0,0,1-8.084-1.629,10.966,10.966,0,0,1-4.6-4.69,20.8,20.8,0,0,1-2.056-7.324,85.155,85.155,0,0,1-.463-9.391A85.3,85.3,0,0,1-3.448.766"></path></g><g transform="translate(999.27 -550.374)"><path fill="#231f20" d="M0,0H9.016V37.309H24.977v7.382H0V0"></path></g><g transform="translate(1026.959 -551.248)"><path fill="#231f20" transform="translate(3.915 13.097)" d="M5.32,17.794A21.335,21.335,0,0,0,6.2,22.927,5.61,5.61,0,0,0,8.084,25.8a5.159,5.159,0,0,0,3.212.911,5.228,5.228,0,0,0,3.228-.911A5.675,5.675,0,0,0,16.4,22.927a21.684,21.684,0,0,0,.869-5.133c.146-2.114.213-4.664.213-7.668s-.068-5.544-.213-7.642A22.029,22.029,0,0,0,16.4-2.644a5.662,5.662,0,0,0-1.879-2.9A5.262,5.262,0,0,0,11.3-6.459a5.192,5.192,0,0,0-3.212.911A5.6,5.6,0,0,0,6.2-2.644,21.674,21.674,0,0,0,5.32,2.484c-.146,2.1-.213,4.638-.213,7.642S5.174,15.681,5.32,17.794ZM-3.447.766A20.862,20.862,0,0,1-1.38-6.584a11.665,11.665,0,0,1,4.6-4.794A16.343,16.343,0,0,1,11.3-13.1a16.323,16.323,0,0,1,8.079,1.718,11.665,11.665,0,0,1,4.6,4.794A20.972,20.972,0,0,1,26.044.766a87.96,87.96,0,0,1,.463,9.36,87.791,87.791,0,0,1-.463,9.391,21.018,21.018,0,0,1-2.067,7.324,10.966,10.966,0,0,1-4.6,4.69A16.983,16.983,0,0,1,11.3,33.161a17,17,0,0,1-8.074-1.629,10.966,10.966,0,0,1-4.6-4.69,20.907,20.907,0,0,1-2.067-7.324,86.38,86.38,0,0,1-.469-9.391A86.542,86.542,0,0,1-3.447.766"></path></g><g transform="translate(1062.264 -551.248)"><path fill="#231f20" transform="translate(8.482 4.908)" d="M11.524,6.669a8.815,8.815,0,0,0-.911-2.41,6.051,6.051,0,0,0-1.6-1.817,3.873,3.873,0,0,0-2.353-.713c-2.171,0-3.727,1.213-4.7,3.623C1.008,7.783.529,11.781.529,17.377q0,4,.25,7.257A28.555,28.555,0,0,0,1.7,30.178a7.914,7.914,0,0,0,1.874,3.5A4.232,4.232,0,0,0,6.729,34.9a4.5,4.5,0,0,0,1.786-.432,5.929,5.929,0,0,0,1.817-1.327,6.9,6.9,0,0,0,1.406-2.207,8.249,8.249,0,0,0,.562-3.17V23.2H6.355V16.56H20.936v24.1H14.293V36.529h-.115a9.563,9.563,0,0,1-3.915,3.727,12.585,12.585,0,0,1-5.482,1.093,13.839,13.839,0,0,1-6.726-1.442A9.75,9.75,0,0,1-6,35.467a22.752,22.752,0,0,1-1.978-7.423,94.551,94.551,0,0,1-.5-10.229,59.5,59.5,0,0,1,.729-9.9A19.489,19.489,0,0,1-5.285.823,11.361,11.361,0,0,1-.658-3.472,16.1,16.1,0,0,1,6.537-4.908q7.395,0,10.646,3.66C19.353,1.2,20.441,4.686,20.441,9.235H11.8a12.6,12.6,0,0,0-.276-2.566"></path></g><g transform="translate(1094.561 -550.374)"><path fill="#231f20" transform="translate(6.796 7.327)" d="M9.233,9.956h.12L15.615-7.327h9.766L13.8,19.784V37.369H4.787V19.784L-6.8-7.327H3.345L9.233,9.956"></path></g><g transform="translate(464.066 -734.016)"><path fill="#ed1c24" transform="translate(118.051 127.19)" d="M160.392,172.81l-278.443-48.694L-74.234-127.19,204.2-78.506,160.392,172.81"></path></g><path fill="#fff" transform="translate(13.407 15.681)" d="M473.934-472.664H748.509V-722.476H473.934Z"></path><g transform="translate(486.7 -707.435)"><path fill="#231f20" transform="translate(66.843 34.966)" d="M90.817,47.508V165.87H58.86V53.047ZM208.69,15.946V-34.966H-66.843V142.783h.817v.026H-6.342a65.519,65.519,0,0,0,7.689-.645,31.976,31.976,0,0,0,9.162-2.754,19.881,19.881,0,0,0,7.127-5.6,14.011,14.011,0,0,0,2.842-9.053,12.763,12.763,0,0,0-3.759-9.573,29.9,29.9,0,0,0-9.88-6.106A99.28,99.28,0,0,0-7,104.8q-7.723-1.827-15.669-4.071A135.816,135.816,0,0,1-38.55,95.739a53.852,53.852,0,0,1-13.837-7.626A36,36,0,0,1-62.262,76.4q-3.772-7.012-3.764-16.991A38.1,38.1,0,0,1-61.247,39.97a43.219,43.219,0,0,1,12.52-13.738A54.423,54.423,0,0,1-31.22,18.09a75.522,75.522,0,0,1,16.138-2.535V15.6H49.453L45.6,40.3H-15.082v.036a36.829,36.829,0,0,0-5.752.76,20.724,20.724,0,0,0-7.028,2.848,17.6,17.6,0,0,0-5.19,5.091,13.631,13.631,0,0,0-2.035,7.73,13,13,0,0,0,1.629,6.918q1.624,2.647,6.408,4.888a81.109,81.109,0,0,0,13.233,4.482q8.449,2.233,22.088,5.7,4.06.82,11.3,2.957a54.2,54.2,0,0,1,14.342,6.814,43.282,43.282,0,0,1,12.317,12.52q5.2,7.84,5.2,20.052a44.513,44.513,0,0,1-3.868,18.527,40.338,40.338,0,0,1-11.5,14.753,55.312,55.312,0,0,1-18.938,9.672,86.839,86.839,0,0,1-23.5,3.415H-66.025v.031h-.817v49.277H208.69V42.817h-40.8V167H135.93V42.817h-33.2l5.44-26.872H208.69"></path></g><g transform="translate(613.782 -661.526)"><path fill="#ed1c24" transform="translate(13.609 6.804)" d="M18.49,9.245A16.049,16.049,0,1,1,2.441-6.8,16.049,16.049,0,0,1,18.49,9.245"></path></g></g></g></svg>