<svg viewBox="0 0 1840 340" height="340" width="1840" xmlns:xlink="http://www.w3.org/1999/xlink" xmlns="http://www.w3.org/2000/svg"><defs><linearGradient gradientUnits="objectBoundingBox" y2="0.46" x2="0.598" y1="0.099" x1="0.431" id="a"><stop stop-color="#476eb3" offset="0"></stop><stop stop-color="#263775" offset="1"></stop></linearGradient><linearGradient gradientUnits="objectBoundingBox" y2="0.655" x2="1.262" y1="0.168" x1="0.687" id="b"><stop stop-color="#ee3424" offset="0"></stop><stop stop-color="#fff" offset="1"></stop></linearGradient><linearGradient gradientUnits="objectBoundingBox" y2="0.588" x2="0.114" y1="0.166" x1="0.649" id="c"><stop stop-color="#4bacb2" offset="0"></stop><stop stop-color="#0f7786" offset="1"></stop></linearGradient><linearGradient gradientUnits="objectBoundingBox" y2="0.753" x2="0.26" y1="0.417" x1="0.868" id="d"><stop stop-color="#169798" offset="0"></stop><stop stop-color="#107a85" offset="1"></stop></linearGradient><linearGradient gradientUnits="objectBoundingBox" y2="1" x2="0.5" x1="0.5" id="e"><stop stop-color="#3055a5" offset="0"></stop><stop stop-color="#7ab9e6" offset="1"></stop></linearGradient><clipPath id="g"><rect height="340" width="1840"></rect></clipPath></defs><g clip-path="url(#g)" id="f"><rect fill="none" height="340" width="1840"></rect><g transform="translate(-8380 -1590.036)"><text font-style="italic" font-weight="700" font-family="Arial-BoldItalicMT, Arial" font-size="35" fill="#28528b" transform="translate(8408.337 1902.795)"><tspan y="0" x="0">Enabling Innovation through MedTech</tspan></text><text letter-spacing="-0.06em" font-weight="700" font-family="Palatino-Bold, Palatino" font-size="192" fill="#1f8091" transform="translate(8400 1835.693)"><tspan y="0" x="0">C</tspan><tspan fill="#d0242a" y="0">MT</tspan></text><g transform="translate(8873.126 1610.036)"><path fill-rule="evenodd" fill="#004685" transform="translate(-218.152 -256.974)" d="M219.343,439.85c-.779,13.748,1.482,32.277,8.017,41.088,4.292,5.8,12.316,3.746,16.564,3.454,32.158-2.21,43.172-48.674,42.123-75.818-.257-6.685-1.694-23.16-6.7-33.928s35.325-4.387,35.325-4.387c5.014,27.745-.114,67.748-15.617,91.552a92.172,92.172,0,0,1-31.564,29.508c-18.113,10.509-43.158,4.947-47.289-12.629S220.2,442.585,219.343,439.85Z"></path><path fill="url(#a)" fill-rule="evenodd" transform="translate(-218.62 -304.866)" d="M298.242,382.127s-21.5,17.642-28.233,20.395c-.985-2.043-21.606-20.525-41.5-27.318l27.479-34.087S282.2,350.366,298.242,382.127Z"></path><path fill="url(#b)" fill-rule="evenodd" transform="matrix(0.848, -0.53, 0.53, 0.848, 68.767, 39.675)" d="M.315,31.276c-2.661-8.211,11.8-20.29,32.3-26.973S71.893-1.144,74.556,7.07s-11.8,20.29-32.307,26.973S2.974,39.489.315,31.276Z"></path><path fill="url(#c)" fill-rule="evenodd" transform="translate(-221.931 -291.061)" d="M232.049,516.2s-24.415-30.343,28.9-77.272c0,0,36.4-27.622,83.828-44.776a237.484,237.484,0,0,1,42.748-10.74c14.012-2.252,27.886-4.213,41.871-5.37,5.264-.442,25.489-.438,28.341-1.651-2.324-4.477-6.357-8.8-9.559-12.725-9.088-11.134-20.136-24.743-20.136-24.743S364.7,344.839,310.916,374.8c0,0-55.241,28.5-82.326,77.721,0,0-6.984,13.592-6.56,27.182,0,0-1.574,27.362,7.792,34.467Z"></path><path fill-rule="evenodd" fill="#d2232a" transform="matrix(0.848, -0.53, 0.53, 0.848, 73.385, 47.054)" d="M.309,22.571C-2.351,14.36,12.764,3.218,22.31,0c0,0-.246,2.671,2.161,10.106S42.242,25.337,42.242,25.337C21.745,32.027,2.968,30.784.309,22.571Z"></path><path fill="url(#d)" fill-rule="evenodd" transform="translate(-158.068 -291.06)" d="M323.667,383.41c14.012-2.252,27.885-4.213,41.871-5.37,5.264-.442,25.489-.438,28.341-1.651-2.324-4.477-6.357-8.8-9.559-12.725-9.088-11.134-20.136-24.743-20.136-24.743s-36.476,3.086-81.713,19.756c0,0,15.687,3.7,26.436,11.19C316.027,374.834,323.667,383.41,323.667,383.41Z"></path><path fill-rule="evenodd" fill="#24245a" transform="translate(-218.62 -290.472)" d="M298.242,367.734s-21.5,17.642-28.233,20.395c-.985-2.043-21.606-20.525-41.5-27.318l5.223-6.05s19.378,8.077,23.678,8.509a95.994,95.994,0,0,0,35.983-3.7A35.052,35.052,0,0,1,298.242,367.734Z"></path><path fill="url(#e)" fill-rule="evenodd" transform="translate(-188.419 -243.798)" d="M246.518,443.722a107.528,107.528,0,0,0,9.8-48.324h0L286.2,380.871c2.63,6.06-1.312,35.1-10.918,56.762-3.064,6.909-3.274,6.088-3.274,6.088Z"></path></g><rect fill="#243b7e" transform="translate(8706.133 1860.713)" height="6.204" width="388.337"></rect><path fill="#d0242a" transform="translate(8539.732 1860.657)" d="M0,0H388.373l-9.448,6.233L0,6.165Z"></path><path fill="#1f8091" transform="translate(8406.165 1860.657)" d="M0,0H147.952l-9.43,6.165H0Z"></path></g></g></svg>