<svg viewBox="0 0 1840 340" height="340" width="1840" xmlns:xlink="http://www.w3.org/1999/xlink" xmlns="http://www.w3.org/2000/svg"><defs><clipPath id="b"><rect height="340" width="1840"></rect></clipPath></defs><g clip-path="url(#b)" id="a"><rect fill="none" height="340" width="1840"></rect><g transform="translate(47 949.852)"><path fill="#f50f28" transform="translate(-40)" d="M91.1-929.544c-13.619,1.743-30.239,9.714-43.664,20.977a123.738,123.738,0,0,0-14.071,14.49C19.906-876.748,13-855.61,13-831.761c0,16.91,3.195,31.142,10.327,45.632a91.673,91.673,0,0,0,27.722,33.466c1.71,1.259,3.227,2.42,3.389,2.582.194.129.032.549-.355.968-2.1,2.291-7.939,12.231-12.489,21.235-9.456,18.685-16.233,36.887-20.138,54.055-1.549,6.809-1.839,9.262-1.807,15.329.032,6.487.645,10.2,2.453,15.071a22.629,22.629,0,0,0,5.422,8.842,14.786,14.786,0,0,0,8.713,4.518c5.1.807,11.2-1.42,16.781-6.1,12.941-10.779,21.913-25.4,31.626-51.345a129.827,129.827,0,0,0,6.906-25.527c2.646-15.232,3.582-28.109,3.324-45.761-.194-11.908-.549-16.685-1.71-22.235-.29-1.388-.549-2.679-.581-2.84-.032-.323,2.227-2.227,11.908-9.972a94.281,94.281,0,0,1,17.653-11.682c2.324-1.162,2.872-1.355,2.711-.871-3.356,9.843-4.163,13.167-4.744,20.041a34.013,34.013,0,0,0,.032,7.035c.355,3.324.613,4.453,2.711,11.166,5,16.168,14.135,25.947,27.528,29.529,2.84.742,3.776.839,9.133.871,7.552.032,11-.581,17.911-3.195,14.393-5.486,23.655-18.2,26.915-36.951.807-4.583,1.42-13.038,1.162-15.684l-.226-1.969,2.065-.742c1.1-.42,3.55-1.452,5.422-2.324s4.841-2.162,6.616-2.872a60.425,60.425,0,0,0,9.649-4.97l.936-.613-.194,16.749c-.194,15.684-.516,25.818-1.162,36.306-.355,5.744-.032,8.262,1.42,11.2,3.679,7.487,13.1,8.649,17.975,2.227.775-1.065,2.937-5.712,6.261-13.554,12.263-28.98,16.459-37.532,25.043-51.345,3.679-5.841,5-7.455,6.583-7.778.839-.161,1.13-.032,1.839.807a5.529,5.529,0,0,1,1.033,2.1,74.925,74.925,0,0,1-.29,8.617c-.775,11.779-1.226,28.593-1.1,43.051l.1,13.231.9,1.969c2.549,5.486,8.423,7.713,14.716,5.518a22.194,22.194,0,0,0,7.584-4.453c5.841-4.679,10.682-11.618,20.848-29.819,7.035-12.651,11.715-20.622,14.748-25.269,2.9-4.486,8.778-12.328,9.391-12.554.226-.1.742.129,1.13.516.71.678.71.871.807,13.522.129,13.651-.29,28.916-1.1,41.534-.452,6.971-.452,7.971,0,10.133.613,2.937,1.775,4.938,3.485,6.1,1.226.775,1.614.871,4.26.871a8.965,8.965,0,0,0,5.357-1.162c4.421-2.13,5.744-3.744,12.651-15.3,4.066-6.809,7.713-13.522,14.393-26.527,8.455-16.362,14.167-26.108,16.362-27.851,1.323-1.065,2.453-1.226,3.066-.484s1.065,7.326.839,12.909c-.1,2.84-.581,9.811-1.065,15.49a200.938,200.938,0,0,0-.871,20.654c0,8.939.065,10.617.581,12.392,2.065,7.487,7.81,11.586,14.329,10.23,6.487-1.355,12.812-7.068,18.427-16.652,1.388-2.388,5.68-9.456,9.552-15.652,10.424-16.749,17.169-27.689,19.2-31.207l1.84-3.13,2.775,5.712c2.485,5.067,7,15.91,7,16.749,0,.161-.387.516-.839.775-1.323.678-5.873,5.68-8.262,9.036a47.1,47.1,0,0,0-6.422,12.715,22.992,22.992,0,0,0-.71,5.486,15.893,15.893,0,0,0,4.518,11.812,17.584,17.584,0,0,0,7.745,5.034c2.194.742,3.034.871,6.39.871a23.635,23.635,0,0,0,5.97-.549c4.26-1.162,8.681-3.163,10.908-5,3.13-2.582,5.97-7.778,7.164-13.135,1.065-4.615,1.065-12.521.032-18.33-.968-5.583-2.711-11.812-4.066-14.587l-1.1-2.259,2.646-2.517c6.164-5.841,10.521-9.068,14.91-11.069a39.581,39.581,0,0,0,4.841-2.937c5.1-3.647,8.875-5.648,13.006-6.842,3.292-.936,3.647-1,3.356-.581-.129.226-.775,1.226-1.452,2.259-5.034,7.648-8.294,23.042-7.326,34.725,1.065,13.264,5,22.429,12.747,29.658,12.489,11.682,32.3,14.232,48.085,6.2,10.682-5.454,17.911-14.716,21.977-28.206,2.324-7.713,3.356-15.684,3.356-26.172v-7.422l3.614-2.259c1.969-1.259,6.39-4.163,9.811-6.519a53.094,53.094,0,0,1,7.552-4.615c1.969-.516,3.679-.161,4.679,1.033l.839,1-.161,5.518c-.1,3.034-.258,8.939-.355,13.1s-.387,13.038-.678,19.686c-.258,6.648-.516,16.749-.549,22.429-.065,11.941,0,12.392,2.582,14.684,3.034,2.646,7.552,2.969,11.844.839,4.163-2.033,4.744-3,13.748-22.3,10.456-22.494,17.136-34.757,25.108-46.084,3.259-4.647,4.744-5.389,6.971-3.421,1.678,1.452,1.872,2.582,1.323,7.358-.936,8.262-2.291,32.078-2.614,46.02-.226,9.585-.065,11.069,1.71,14.619,3.066,6.1,10.876,8.423,18.556,5.551,5.357-2,15.523-12.392,19.589-20.041,1.484-2.775,2.614-5.777,2.614-6.971,0-.968-1.291-1.484-2.937-1.226-1.226.226-1.71.581-3.356,2.453-2.84,3.227-7.648,6.035-9.617,5.615a7.143,7.143,0,0,1-2-.839c-1.9-1.162-1.936-1.259-2.033-10.94-.129-10,.129-14.1,1.743-26.624,1.969-15.394,2.033-19.976.226-25.495-1.484-4.583-3.614-7.971-6.487-10.23a9.288,9.288,0,0,0-6.971-2.13c-4.421.194-9.133,3.324-14.1,9.23-4.679,5.615-14.651,21.138-25.947,40.469-3,5.131-5.486,9.262-5.518,9.2-.161-.161,1.323-20.009,2.324-31.207.936-10.585.9-14.264-.194-18.556-.936-3.679-2-5.68-4.066-7.552-2.162-1.969-4.034-2.614-7.713-2.614a25.7,25.7,0,0,0-9.456,2.162,113.336,113.336,0,0,0-10.488,6.2c-14.006,8.939-22.913,14.393-23.042,14.071a68.185,68.185,0,0,0-5.26-8.939c-4.389-6.228-9.359-10.488-13.812-11.908a30.886,30.886,0,0,0-12.425-.484c-7.552,1.678-13.393,7.164-14.748,13.909-1.549,7.584,4.97,17.588,13.651,21.009,3.647,1.42,5.454,1.775,10.23,1.969a42.035,42.035,0,0,0,13.812-1.581,10.982,10.982,0,0,1,2.194-.516c.42.452.807,5.777.645,8.972-.807,15.458-6.519,26.237-16.491,31.175-3.937,1.936-6.035,2.42-10.876,2.614-6.906.29-12.005-1.323-17.072-5.389-5.68-4.583-9.456-11.618-11.134-20.815-.839-4.583-.839-14.1,0-17.911,2.743-12.747,10.779-27.528,18.072-33.3,1.226-.968,1.42-1.226.807-1.1-6.842,1.485-14.522,3.421-17.717,4.454a81.158,81.158,0,0,0-16.136,7.584c-2.033,1.259-5.744,3.292-8.229,4.55-5.422,2.743-11.876,6.616-22.268,13.361-8.036,5.2-9.165,5.874-9.391,5.68-.258-.29-5-10.295-6.422-13.651-.839-1.969-2.291-5.906-3.259-8.746-.936-2.872-2.356-6.809-3.163-8.713-.775-1.936-1.581-4.066-1.807-4.744a2.251,2.251,0,0,0-2.485-1.839c-1.614,0-4.357,3.1-8.036,9.068-3.034,4.873-4.938,8.229-14.813,26.108a300.928,300.928,0,0,1-21.074,33.4c-3.614,4.938-4.292,5.648-5.551,5.648-1.323,0-1.936-1.291-1.936-4.1,0-1.194.355-5.97.775-10.585,1.355-14.329,1.807-20.364,2.13-29.077.452-12.231-.032-16.136-2.646-21.235-4.873-9.359-15.232-11.2-22.752-4-2.324,2.227-3.066,3.356-8.488,12.844-2.194,3.808-6.842,11.715-10.327,17.588-9.585,16.071-12.909,21.784-12.909,22.106a4.281,4.281,0,0,1-1.969,1.614,1.6,1.6,0,0,1-.742-.516c-.452-.452-.516-3-.516-23.333,0-21.558-.032-22.978-.613-25.3a13.484,13.484,0,0,0-3.485-6.713c-5.583-5.97-14.781-3.937-21.816,4.776-3.195,3.937-9.972,15.071-20.88,34.144-10.166,17.846-18.427,31.078-20.525,33.014a3.782,3.782,0,0,1-4.615-.1c-1.549-1.323-1.775-2.485-1.549-9,.226-6.1.484-8.455,2.324-20.525,1.743-11.424,2.194-16.265,2.194-23.72.032-7.455-.42-10.069-2.227-13.425-4.873-8.907-15.523-9.875-25.043-2.291-5,4-5.744,5.228-26.882,44.438-3.163,5.841-5.874,10.779-6,10.94-.161.194-.29-11.263-.29-26.5V-826.6l3.485-4.615c12.683-16.91,23.558-36.951,28.916-53.345,2.84-8.746,3.453-19.524,1.484-26.56-1.581-5.583-4.938-10.069-8.972-12.07a14.105,14.105,0,0,0-10.133-.581c-7.423,2.227-15.91,9.133-21.525,17.459-6.325,9.391-10.456,20.331-13.49,35.628l-.9,4.518-.1,25.43-.1,25.43-1.194.516c-.645.258-3.066,1.549-5.389,2.872a62.236,62.236,0,0,1-7.261,3.485c-1.678.613-4.938,1.839-7.229,2.743a45.7,45.7,0,0,1-4.583,1.646c-.226,0-.549-.775-.775-1.872-1.807-9.359-6.422-18.685-11.069-22.4-4.712-3.744-14.2-5.938-20.234-4.647A16.751,16.751,0,0,0,158.869-820.3a18.185,18.185,0,0,0,.032,9.488c.936,3.421,2.259,5.551,5.454,8.746a17.517,17.517,0,0,0,6.164,4.453c5.841,2.872,13.3,4.2,21.2,3.808l3.937-.226v1.388c-.032,7.713-2.259,18.556-4.712,22.719-2.646,4.55-9.746,9.327-16.426,11.1-3.485.9-10,1-13.07.161-9.746-2.679-15.749-10.456-17.75-22.945a84.333,84.333,0,0,1,0-15.652,66.239,66.239,0,0,1,6.261-21.138,50.972,50.972,0,0,1,9.068-13.328,22.792,22.792,0,0,0,2.679-2.969c-.1,0-1.9.516-4.034,1.1a137.414,137.414,0,0,0-23.01,9.391c-9.2,4.583-15.1,8.2-19.363,11.715-6.422,5.357-14.555,12.36-17.975,15.49-3.84,3.518-3.453,3.679-4.583-1.872-2.194-11-4.26-30.045-4.873-44.535-.194-4.357-.484-10.166-.645-12.909a157.949,157.949,0,0,1,10.166-67.836c1.71-4.26,1.775-5,.613-5.422C97.068-929.964,94.1-929.932,91.1-929.544Zm-8.81,13.1c-12.07,22.687-15.878,33.66-18.2,52.216-.71,5.551-.807,27.657-.161,34.692.226,2.388.549,8.423.71,13.393.549,16.039,1.065,21.461,3.421,36.048l1.517,9.23-2.227,3.647a36.621,36.621,0,0,1-5.712,7.229l-3.485,3.55-1.13-1.291a85.125,85.125,0,0,1-7.648-11.779C43.336-780.932,38.527-797.2,36.429-813.4c-1.162-8.746-1.323-11.973-1.323-24.043,0-18.1.71-22.332,5.906-35.5,7.552-19.1,17.653-32.369,32.369-42.534,4-2.775,11.973-7.681,12.166-7.487A68.211,68.211,0,0,1,82.288-916.442Zm184.918,2.356c2.227,1.355,4.1,5.293,4.97,10.488.71,4.1,0,13.49-1.646,22.074-2.872,14.91-9.262,29.5-17.33,39.469l-1.872,2.291-.1-9.488c-.226-20.686,1.291-39.533,4-50.312,2.194-8.649,6.519-15.136,10.133-15.168A4.353,4.353,0,0,1,267.206-914.086Zm-82.713,89.813c4.034,2,6.648,5.389,8.617,11.2a16.042,16.042,0,0,1,1.065,6.938l.032,3.873-3.227.1c-8.358.258-15.555-2-19.234-6a10.183,10.183,0,0,1-.323-14.038,9.425,9.425,0,0,1,8.165-3.356A10.139,10.139,0,0,1,184.493-824.274Zm416.6.323c4.647,2.291,9.068,7.616,12.1,14.587,1.71,3.937,1.743,3.873-.645,4.647-4.905,1.646-11.037,2.1-15.071,1.162-4.873-1.162-9.262-4.421-10.456-7.745-2.356-6.713,3.13-14.361,10-13.941A12.076,12.076,0,0,1,601.09-823.951ZM493.173-769.185c1.936,6,2.711,9.875,2.743,13.877.032,3.518-.032,3.808-.968,5.809-2.679,5.615-8.358,7.81-11.36,4.389-1.42-1.614-1.807-3.744-1.517-8.2.355-6.1,1.646-9.94,4.873-14.458,1.581-2.227,4.615-5.131,4.97-4.744A29.6,29.6,0,0,1,493.173-769.185ZM71.9-756.212c3.582,12.489,3.453,43.244-.323,70.74a66.894,66.894,0,0,1-10.2,27.141c-7.132,10.553-15.49,14.232-21.009,9.262-1.549-1.42-2.356-2.937-3.066-5.777-.775-3.195-.775-18.718,0-25.527A144.655,144.655,0,0,1,51.21-727.716a146.309,146.309,0,0,1,14.522-24.2c2.13-2.808,4.97-5.97,5.389-5.97C71.283-757.89,71.606-757.116,71.9-756.212Z"></path><path fill="#f50f28" transform="translate(-1607.584 -0.009)" d="M2560.019-929.535c-15.813,2.033-36.79,14.038-51.732,29.626-8.423,8.81-14.458,17.395-18.653,26.528-12.909,28.173-13.264,53.8-1.1,79.26a107.868,107.868,0,0,0,8.778,15.071,28.964,28.964,0,0,1,2.84,4.647,38.723,38.723,0,0,1-5.1-.194,84.146,84.146,0,0,0-15.071-.065,120.518,120.518,0,0,0-16.458,2.42c-2.808.613-5.2,1.13-5.292,1.13a23.176,23.176,0,0,1-.194-4.131c0-12.037-1.388-22.816-3.711-29.012-1.388-3.614-6.1-13.974-6.39-13.974-.129,0-3.453,1.775-7.326,3.9l-7.035,3.937,1.259,1.678a43.291,43.291,0,0,1,5.744,12.328c.355,1.549,1.452,5.809,2.42,9.456,1,3.614,1.807,6.713,1.807,6.874s-.9-.549-2-1.549a72.681,72.681,0,0,0-13.974-9.1c-7.164-3.485-12.521-4.938-18.169-4.938-11.263,0-20.331,4.679-23.365,12.005a10.873,10.873,0,0,0-.71,4.486,8.47,8.47,0,0,0,1.194,5.26c2.259,4.55,7.778,9.23,13.941,11.779a55.032,55.032,0,0,0,11.973,3.292c3.776.678,5.1.774,14.006.742,9.23,0,14.135-.323,18.911-1.291l.936-.161.032,3.324c.032,1.839.194,6,.387,9.262.387,6.2.71,7.455,1.969,7.455,1.065,0,2.549-1.549,3.066-3.163.258-.839.839-2.549,1.323-3.776a85.251,85.251,0,0,0,3.195-12.263c.581-3.324.742-3.485,4.26-4.97a59.238,59.238,0,0,1,11.747-3.356c3.292-.613,4.776-.678,13.393-.678,9.359.032,9.779.032,12.78.839,6.712,1.807,12.554,5.389,18.556,11.36,2.13,2.162,4.131,4.292,4.453,4.776l.549.839-2.388,3.518c-13.458,19.686-28.754,57.412-32.046,79-1.743,11.553-.032,22.4,4.679,29.593,6.358,9.746,17.1,10.553,27.625,2.13,13.135-10.488,22.526-25.785,32.627-53.12,5.228-14.006,8.1-29.432,9.875-52.668.226-3.034.419-11.069.419-18.718,0-11.069-.1-14.329-.613-18.782l-.613-5.422,3.518-3.324c8.649-8.229,16.1-13.683,24.365-17.814a11.983,11.983,0,0,1,2.872-1.259c0,.1-.452,1.42-.968,2.937-2.227,6.325-3.388,15.006-3.13,23.462.129,4.809.291,6,1.162,9.294a56.572,56.572,0,0,0,7.681,17.782,45.8,45.8,0,0,0,9.424,9.585,42.518,42.518,0,0,0,11.23,5.067c2.84.742,3.776.839,9.133.871,6.1.032,8.294-.226,12.748-1.484,16.652-4.647,26.915-15.2,31.3-32.143,1.452-5.583,1.9-9.649,1.936-17.233v-7l1.936-.71c1.065-.387,3.453-1.42,5.325-2.291s4.841-2.162,6.616-2.84a62.739,62.739,0,0,0,9.617-4.97l.871-.581v10.262c0,10.811-.419,26.269-1,37.726-.194,3.711-.323,7.939-.323,9.391,0,5.938,2.937,10.456,8.036,12.425a12.954,12.954,0,0,0,8.552,0,12.578,12.578,0,0,0,5.519-4.809c.29-.549,2.42-6,4.744-12.07,10.779-28.238,14.619-36.467,24.72-52.7,2.872-4.615,4.292-6.164,5.777-6.487.839-.161,1.13-.032,1.84.807a5.53,5.53,0,0,1,1.033,2.1,74.961,74.961,0,0,1-.291,8.617c-.774,11.779-1.226,28.593-1.1,43.051l.1,13.231.9,1.969a10.515,10.515,0,0,0,9.681,6.325,17.2,17.2,0,0,0,3.776-.387c4.324-1.162,9.52-4.809,13.587-9.52,4.486-5.2,8.681-11.844,17.072-26.947,7.164-12.844,10.327-18.234,14.038-23.881,4.034-6.132,8.746-12.263,9.391-12.263.258,0,.742.484,1.1,1.033.613,1.033.645,1.678.645,14.619,0,14.684-.355,26.2-1.162,39.469-.484,7.874-.484,8.617.032,10.876.678,3.034,2.065,5.163,4.034,6.228,1.259.678,1.775.742,4.1.645a10.294,10.294,0,0,0,5.035-1.323c3.776-1.872,5.26-3.453,9.036-9.52,6.2-10,8.455-14.07,16.943-30.4,10.327-19.944,15.264-28.3,17.524-29.787,1.872-1.194,3.614-1.194,4.389,0,.774,1.162.677,6.938-.226,15.587-1.9,18.363-2.291,22.429-2.549,28.238-.291,7.164.064,14.942.807,17.588,1.259,4.421,4.26,8.036,7.81,9.391,3.615,1.355,7.713.774,11.973-1.71,2.356-1.388,8.423-7.455,10.746-10.747,5.131-7.293,24.43-38.759,30.917-50.409l1.807-3.292,2.776,5.712c2.549,5.2,7.035,15.91,7.035,16.717,0,.194-.387.549-.839.807-1.323.678-5.874,5.68-8.261,9.036a53.14,53.14,0,0,0-3.97,6.583c-2.291,4.615-3.195,7.842-3.195,11.618a16.175,16.175,0,0,0,4.551,11.811,17.583,17.583,0,0,0,7.745,5.034c2.195.742,3.033.871,6.39.871,5,0,8.261-.839,13.715-3.55,3.84-1.872,7.842-6.874,9.52-11.876,2.775-8.294,2.162-21.235-1.614-34.337l-1.162-4,1.807-2.194a41.455,41.455,0,0,1,13.941-11.36,56.4,56.4,0,0,0,5.551-3.388,42.908,42.908,0,0,1,9.746-5.551c3.033-1.226,6.519-2.065,6.2-1.549-.129.226-.678,1.033-1.259,1.84-5.1,7.229-8.616,23.72-7.552,35.66,1.129,12.844,5.131,22.042,12.747,29.141,11.457,10.714,29.142,13.812,44.471,7.81,11.973-4.679,20.46-14.264,25.043-28.3,2.743-8.326,3.614-14.232,3.808-25.914l.161-9.23,3.292-2.065c1.775-1.13,6.2-4.066,9.778-6.519,7.164-4.905,8.487-5.486,10.973-4.809a5.1,5.1,0,0,1,2.162,1.323c1.484,1.807,1.613,3.453,1.033,13.909-.291,5.228-.807,16.168-1.162,24.333s-.871,18.782-1.162,23.591c-.484,8.229-.484,8.875.032,10.65,1.549,5.325,7.907,7.487,13.845,4.712,4.26-2,5.1-3.324,14.167-22.849,9.875-21.235,16.587-33.53,24.623-45.181,2.775-4.034,3.808-4.97,5.486-4.97,1.1,0,2.872,1.775,3.292,3.292a14.184,14.184,0,0,1-.1,4.679c-1.291,10.488-3.195,49.537-2.71,54.83q.871,8.81,8.229,12.005c1.646.71,2.388.839,5.454.839,6.229.032,9.359-1.614,16.749-8.81,8.972-8.778,16.362-19.169,16.878-23.688.161-1.226.064-1.484-.581-1.969a4.165,4.165,0,0,0-2-.516c-2.065,0-3.518,1.065-5.583,4.1-2.1,3.13-6.39,7.81-8.1,8.842-2.292,1.42-6.519.645-7.842-1.42-.645-1.065-1-10.811-.645-18.072.355-6.713.549-8.52,1.969-19.557,1.194-9.165,1.614-15.813,1.194-19.073-.645-5.293-3.26-11.037-6.454-14.167-2.549-2.485-4-3.1-7.552-3.1a8.7,8.7,0,0,0-5.325,1.194c-4.776,2.356-9.262,7.035-15.329,16.071-5.551,8.229-14.49,22.784-23.042,37.5a39,39,0,0,1-2.485,4c-.161-.129,1.032-15.878,2.065-27.625,1.387-15.587,1.162-20.848-1.194-26.043-1.194-2.614-3.518-4.97-5.647-5.68-3.518-1.226-8.681-.452-13.845,2.033-2.485,1.194-16.846,9.682-28.367,16.749-2.969,1.839-5.486,3.292-5.519,3.227a20.075,20.075,0,0,1-.968-1.839,56.566,56.566,0,0,0-10.262-14.1,23.682,23.682,0,0,0-8.326-5.163,35.277,35.277,0,0,0-11.327-.484c-7.1,1.614-12.005,5.712-14.2,11.941a18.58,18.58,0,0,0,0,10.617c1.807,5.228,6.874,10.327,12.393,12.489,3.646,1.42,5.454,1.775,10.23,1.969a42.037,42.037,0,0,0,13.813-1.581c1.71-.516,2.13-.549,2.356-.194,1.678,2.582,1.549,11.327-.226,18.266-2.711,10.392-8.1,17.782-15.781,21.558-4.421,2.162-6.229,2.549-12.1,2.549-4.55-.032-5.228-.1-7.584-.9a22.557,22.557,0,0,1-9.714-6.228,18.8,18.8,0,0,1-4.744-6.616c-3-6.035-4.1-11.489-4.1-20.2,0-9.649,2.195-18.072,7.39-28.464,3.389-6.745,6.519-11.36,9.811-14.49,1-.9,1.71-1.678,1.581-1.678s-2.614.581-5.551,1.291c-11.327,2.775-16.555,4.647-24.365,8.681-20.848,10.843-21.493,11.2-32.627,18.46-8.488,5.518-11.489,7.39-11.747,7.39s-4.679-9.1-6.874-14.2c-.871-2.033-2.356-6.035-3.292-8.875s-2.388-6.809-3.195-8.81a35.972,35.972,0,0,1-1.485-4.131c0-.807-1.258-1.743-2.356-1.743-.839,0-1.42.387-2.969,1.839-2.453,2.356-6.229,8.423-14.135,22.687-13.651,24.688-18.33,32.336-27.076,44.212-3.646,4.938-4.2,5.486-5.389,5.486-1.355,0-2.033-1.388-2.033-4,.032-1.1.549-7.648,1.162-14.555,1.485-16.491,1.807-21.719,1.872-30.658.032-6.616-.032-7.745-.646-10.295-3.13-12.78-14.232-17.75-23.719-10.585-2.292,1.743-3.905,4.034-8.2,11.521-2.13,3.711-7.519,12.876-11.941,20.331-11.553,19.428-12.683,21.4-12.683,21.751a4.339,4.339,0,0,1-1.969,1.646,1.6,1.6,0,0,1-.742-.516c-.452-.452-.516-3-.516-23.139,0-24.43-.064-25.108-1.743-28.819a13.188,13.188,0,0,0-5.647-5.841c-1.549-.775-2.162-.9-4.55-.871-4.324.032-7.939,1.839-12.134,6.1-3.711,3.744-8.875,11.941-22.074,35.015-9.2,16.1-12.134,20.944-16.717,27.851-4.421,6.648-4.744,7-6.616,7a3.9,3.9,0,0,1-3.808-2.808c-.839-2.614,0-14.232,1.937-26.237,2.1-13.07,3-24.527,2.356-30.3-.549-5.034-1.775-8.229-4.131-10.972-5.39-6.228-14.845-6-23.107.549-5,4-5.744,5.228-26.882,44.438-3.163,5.841-5.874,10.779-6,10.94-.161.194-.29-11.263-.29-26.528v-26.882l2.517-3.292c14.071-18.3,26.108-40.985,31.207-58.8,4.583-15.975,1.13-29.948-8.488-34.466a10.461,10.461,0,0,0-5.228-1.13,11.583,11.583,0,0,0-5.518.678c-5.486,1.872-12.167,6.422-16.652,11.424-8.52,9.488-14.393,23.01-18.072,41.566l-.9,4.518-.1,25.43-.1,25.43-1.194.516c-.646.258-3.066,1.549-5.389,2.872a72.355,72.355,0,0,1-8.229,3.873c-2.227.839-5.164,2.065-6.519,2.743a19.46,19.46,0,0,1-2.775,1.259,5.326,5.326,0,0,1-.871-2.194c-2.323-8.746-6.261-16.2-10.908-20.589a17.069,17.069,0,0,0-8.229-4.841c-5.648-1.743-9.746-2.1-13.78-1.259-11.3,2.356-16.975,14.845-11.682,25.624a19.111,19.111,0,0,0,3.937,5.067,18.114,18.114,0,0,0,6.293,4.615c5.874,2.872,13.328,4.2,21.235,3.808l3.937-.226v1.388c-.032,7.713-2.259,18.556-4.711,22.752-2,3.389-7.455,7.745-12.2,9.714a24.209,24.209,0,0,1-10.682,2.065c-6.938.032-11.973-2.13-16.62-7.1-8.616-9.23-10.585-27.528-4.841-45.052,2.9-8.81,8.036-17.362,13.49-22.59a8.631,8.631,0,0,0,1.71-1.84c-.161,0-1.775.452-3.647.968-13.812,3.969-34.273,14.1-42.857,21.235-6.39,5.325-14.554,12.36-17.943,15.458l-3.26,2.969-2-16.2c-3.937-31.949-4.55-39.114-4.55-53.313,0-20.686,1.42-33.853,5.357-49.634,1.258-5,3.808-13.393,4.55-14.974.258-.581.387-1.194.258-1.355C2566.086-929.955,2563.084-929.922,2560.019-929.535Zm-5.486,8.552a136.536,136.536,0,0,0-11.327,21.041,122.091,122.091,0,0,0-4.486,13.619c-.516,2.033-1.452,5.293-2.065,7.261-4.453,14.329-5.486,28.432-3.937,52.377.291,4.034.646,11.457.839,16.523.42,12.037,1.323,19.912,3.905,35.047l.742,4.228-1.614,2.517c-.871,1.388-2,3.195-2.55,4.066a40.929,40.929,0,0,1-2.678,3.55,18.28,18.28,0,0,0-2.259,3.1c-.291.581-.613,1.065-.775,1.065-.323,0-3.808-4.389-5.712-7.229-8.036-12.005-13.716-28.4-16.459-47.569-2.678-18.363-2.55-40.146.29-52.248.742-3.195,3.034-8.778,6.455-15.749,8.52-17.427,18.331-28.787,32.627-37.855,3.453-2.195,10.069-5.873,10.23-5.712A11.652,11.652,0,0,1,2554.532-920.983Zm181.271,6.906c2.227,1.355,4.1,5.293,4.97,10.488.71,4.1,0,13.49-1.646,22.074-2.872,14.91-9.133,29.206-17.3,39.372l-1.9,2.388-.1-9.972c-.194-20.622,1.259-38.888,4-49.828,2.162-8.617,6.519-15.135,10.134-15.168A4.354,4.354,0,0,1,2735.8-914.077Zm-83.068,89.651c4.809,2.227,8.133,7,9.778,14.1.549,2.453.742,7.164.291,7.874-.452.775-9.294.258-13.135-.742-6-1.549-10.294-4.712-11.682-8.52a10.607,10.607,0,0,1,6.551-13.522C2646.54-825.975,2650.219-825.62,2652.736-824.426Zm416.953.484c4.841,2.388,9.617,8.294,12.457,15.458a23.213,23.213,0,0,1,1,2.775c0,.968-7.745,2.646-12.037,2.646-5.228,0-9.746-1.614-12.812-4.486-2.388-2.291-3.066-3.84-3.066-7.132a9.061,9.061,0,0,1,2.775-7.261C3061.266-825.491,3065.2-826.168,3069.689-823.942Zm-651.344,34.789c2.227.516,6.583,2.679,10.069,5a71.579,71.579,0,0,1,12.715,11.876c2.42,3.034,2.453,3-1.42,4.034-7.39,1.969-14.716,1.614-22.945-1.13-4.26-1.42-6.68-2.711-8.584-4.583a9.4,9.4,0,0,1-2.743-9.456c.613-2.195,3.614-5,6.164-5.744A18.211,18.211,0,0,1,2418.345-789.153Zm543.943,20.428c2.743,6.648,4.292,13.328,3.808,16.459a12.176,12.176,0,0,1-1.1,3.13c-2.84,5.744-10.2,7.519-13.1,3.195-1.226-1.775-1.485-3.356-1.226-7.39.355-6.2,1.839-10.359,5.163-14.781,1.711-2.324,4.389-4.712,4.776-4.324A34.017,34.017,0,0,1,2962.288-768.724ZM2540.365-757.01c1.291,3.356,2.646,12.3,3.195,21.074,1.226,20.234-1.743,49.376-6.422,62.93-4.453,12.909-12.1,23.171-18.976,25.462-5.97,2-10.1-.936-12.037-8.584-1.355-5.228-1.13-18.33.484-29.367a151.207,151.207,0,0,1,22.655-59.122c4.26-6.551,9.585-13.264,10.488-13.264C2539.913-757.881,2540.172-757.494,2540.365-757.01Z"></path></g></g></svg>