<svg viewBox="0 0 1840 340" height="340" width="1840" xmlns:xlink="http://www.w3.org/1999/xlink" xmlns="http://www.w3.org/2000/svg"><defs><clipPath id="b"><rect height="340" width="1840"></rect></clipPath></defs><g clip-path="url(#b)" id="a"><rect fill="none" height="340" width="1840"></rect><g transform="translate(19 1352.563)"><path fill="#095290" transform="translate(-2624.608 0)" d="M3617.55-1332.436a649.992,649.992,0,0,0-93.339,8.242c-34.228,5.7-53.211,10.944-70.708,19.569-14.975,7.386-26.392,16.033-35.512,26.955-9.5,11.372-16.349,24.095-21.55,40.038-8.2,25.221-10.291,58.661-5.517,87.822,5.99,36.548,21.73,63.84,45.96,79.783,7.183,4.729,19.839,10.831,32.2,15.56,27.045,10.336,54.7,15.988,92.281,18.916,64.313,5.022,125.946,3.716,183.977-3.918,2.837-.36,5.292-.676,5.45-.676.248,0,.292-4.414.292-22.856,0-17.092-.067-22.856-.27-22.856-.135,0-2.882.45-6.125,1.013-41.614,7.138-74.807,10.043-104.4,9.142-21.437-.653-40.173-2.837-53.707-6.26-30.085-7.611-51.567-24.14-63.727-49.045-8.354-17.137-12.137-37.538-11.372-61.408a125.89,125.89,0,0,1,1.464-17.182,101.217,101.217,0,0,1,19.231-45.983,52.316,52.316,0,0,1,5.81-6.891c12.363-12.723,31.278-21.685,57.265-27.18,38.687-8.174,93.79-6.936,148.51,3.333l3.378.653.068-19.929c.022-10.967.022-19.951,0-20-.045-.022-3.062-.36-6.71-.743C3695.059-1331.085,3654.345-1333.111,3617.55-1332.436Z"></path><path fill="#095290" transform="translate(0 -31.428)" d="M1-1151.372v140.628H54.594v-99.667c0-57.9.09-99.622.2-99.577.113.022,35.8,39.745,79.333,88.228,43.506,48.482,79.918,88.926,80.909,89.871,10.967,10.381,22.428,16.731,35.061,19.434,7.994,1.711,7.724,1.711,61.926,1.711H360.4V-1292H306.577v103.045c0,66.948-.068,103-.225,102.955-.113-.045-35.895-39.633-79.49-88s-79.806-88.43-80.459-89.038A159.251,159.251,0,0,0,133.3-1274.03c-13.4-10.021-26.437-16.236-37.111-17.632-2.319-.293-8.489-.338-48.933-.338H1Z"></path><path fill="#095290" transform="translate(-1400.865 -31.428)" d="M1809.068-1185.442c.045,83.521.135,107.121.338,109.057,1.239,10.854,2.9,18.082,5.765,25.108,9.683,23.712,31.548,37.066,67.128,40.961,5.337.586,9.638.856,20.492,1.261,39,1.419,62.579,1.779,107.414,1.621,34.228-.135,50.531-.383,82.643-1.284,19.073-.54,48.437-1.531,50.734-1.711l1.621-.135v-42.087l-2.3.18c-1.283.09-39.047.18-83.949.18-84.377-.023-85.278-.023-93.227-.923-24.838-2.77-35.557-11.912-38.146-32.472-.585-4.594-1.261-30.49-1.261-48.415v-7.251h195.686v-38.957H1926.322v-71.609h214.827V-1292H1809Z"></path></g></g></svg>