<!--?xml version="1.0" encoding="UTF-8" standalone="no"?-->

<svg viewBox="0 0 841.89 595.28" height="595.28pt" width="841.89pt" version="1.1" xmlns:xlink="http://www.w3.org/1999/xlink" xmlns="http://www.w3.org/2000/svg">
<g>
<g data-name="Layer" id="Layer-1">
<clipPath id="cp0">
<path d="M 0 595.28 L 841.89 595.28 L 841.89 0 L 0 0 Z" transform="matrix(1,0,0,-1,0,595.28)"></path>
</clipPath>
<g clip-path="url(#cp0)">
<path fill="#005aaa" d="M 0 0 L 50.943 0 C 62.633 0 76.371 -10.868 82.568 -16.906 L 172.061 -116.163 L 172.061 0 L 202.433 0 L 202.433 -158.511 L 149.209 -158.511 C 139.752 -158.272 130.382 -156.226 119.505 -145.593 L 30.244 -46.118 L 30.244 -158.519 L 0 -158.519 Z" transform="matrix(1,0,0,-1,103.9648,218.25662)"></path>
<path fill="#005aaa" d="M 0 0 C -36.451 -5.031 -73.219 -5.486 -110.209 -2.385 C -131.851 -.572 -152.969 3.973 -172.441 14.074 C -196.881 26.758 -204.649 55.318 -204.351 81.224 C -204.075 105.146 -196.946 130.554 -175.704 144.444 C -161.739 153.573 -146.843 156.691 -130.911 159.498 C -87.635 167.119 -44.401 165.413 -2.128 160.814 L -2.128 138.225 C -51.944 147.844 -104.483 145.452 -122.381 122.58 C -133.505 108.378 -135.037 94.21 -135.037 82.276 C -135.037 60.777 -127.754 28.242 -84.139 21.854 C -55.605 17.674 -27.495 20.939 0 25.824 Z" transform="matrix(1,0,0,-1,737.9238,377.84153)"></path>
<path fill="#005aaa" d="M 0 0 C 4.33 -.225 72.992 -.437 96.541 0 L 96.541 -23.77 C 49.049 -25.625 3.424 -26.375 -44.422 -24.396 C -85.065 -22.711 -92.078 -2.254 -92.895 17.379 L -92.895 134.882 L 94.234 134.882 L 94.234 112.294 L -26.744 112.294 L -26.744 71.936 L 83.482 71.936 L 83.482 49.914 L -26.744 49.914 C -26.794 37.994 -26.428 24.508 -26.333 22.078 C -25.683 6.686 -18.552 .957 0 0" transform="matrix(1,0,0,-1,426.1777,353.13844)"></path>
</g>
</g>
</g>
</svg>
