<svg viewBox="0 0 1840 340" height="340" width="1840" xmlns:xlink="http://www.w3.org/1999/xlink" xmlns="http://www.w3.org/2000/svg"><defs><clipPath id="b"><rect height="340" width="1840"></rect></clipPath></defs><g clip-path="url(#b)" id="a"><rect fill="none" height="340" width="1840"></rect><g transform="translate(19.5 19.5)"><path fill="#0b5ed8" d="M.5,6.942S48.9.5,118.905.5c70.434,0,117.178,6.442,117.178,6.442V181.175c0,68.472-53.194,119.325-117.791,119.325C53.154,300.5.5,248.961.5,182.709Z"></path><path fill="#fff" transform="translate(-469.188 833.874)" d="M556.149-804.755H545.2V-790.5H533.8v-14.259H522.854v35.872H533.8v-14.109h11.4v14.109h10.948Zm38.092,28.666v-28.666H583.293v35.872h19.8l1.648-7.206ZM575.2-804.755H564.247v35.872H575.2Zm44.391,0H608.64v35.872h10.947Zm53.986,9.155c0-1.95,1.952-2.852,5.1-2.852a27.428,27.428,0,0,1,9.75,1.806l-.9-7.807a42.847,42.847,0,0,0-10.049-1.051c-8.849,0-14.846,3.491-14.846,10.808,0,12.6,17.1,10.055,17.1,15.908,0,2.25-1.653,3.448-5.7,3.448a32.749,32.749,0,0,1-12.445-2.85l1.2,8.257a36.191,36.191,0,0,0,11.4,1.8c9.146,0,16.646-3,16.646-12.009,0-12-17.25-9.754-17.25-15.458M642.685-777.44c10.19,0,16.641-5.254,16.641-14.407,0-10.057-6.9-13.658-18.145-13.658a123.3,123.3,0,0,0-13.349.749v35.872h10.952v-8.556Zm5.844-14.259c0,4.654-2.248,7.806-7.948,7.806H639.25v-14.821c.635-.036.768-.036,1.331-.036,5.4,0,7.948,2.55,7.948,7.052M501.86-777.44c10.2,0,16.646-5.254,16.646-14.407,0-10.057-6.9-13.658-18.146-13.658a123.267,123.267,0,0,0-13.348.749v35.872H497.96v-8.556Zm5.851-14.259c0,4.654-2.251,7.806-7.95,7.806h-1.309v-14.821c.64-.036.745-.036,1.309-.036,5.4,0,7.95,2.55,7.95,7.052"></path><path fill="#fff" transform="translate(-50.642 -507.737)" d="M67.482,703.072c-.316-2.865-.643-8.749-.712-12.6,8.8,4.565,22,9.969,41.548,9.969,47.4,0,68.813-35.523,115.469-35.523,19.184,0,35.424,5.52,46.4,12.325.476,4.245.616,8.49.794,12.736a90.52,90.52,0,0,0-41.521-9.8c-47.951,0-67.506,35.276-115.579,35.276C95.3,715.451,79.845,710.689,67.482,703.072Z"></path><path fill="#fff" transform="translate(-53.637 -271.3)" d="M70.689,441.2c1.62-14.113,5.593-24.651,11.948-36.6l21.2,2.711c4.014.523,6.919,1.367,8.868,3.508,1.871,2.1,2.69,3.355,3.819,11.252l3.151,24.741a99.845,99.845,0,0,1-14.468,1.2A95.168,95.168,0,0,1,70.689,441.2Zm14.079-40.263a100.332,100.332,0,0,1,33.891-33.872l-2.526,19.106c-.567,4.115-1,6.108-3.191,8.669-1.852,2.053-4.937,2.853-8.553,3.511Zm38.9-23.941-1.451-12.106a94.171,94.171,0,0,1,23.253-9.367l-1.78,13.557c-.765,4.274-2.6,5.611-7.148,6.3Zm21.72,22.566-11.271-1.646c-5.323-1.111-8.314-4.828-9.088-11.51l-1.111-8.04,13.376,1.888c4.412.49,5.978,2.647,6.565,7.359l1.53,11.949Z"></path><path fill="#fff" transform="translate(-62.979 -259.939)" d="M130.984,435.045l2.708-23.072c1.643-11.48,3.139-14.433,12.818-15.967l27.361-3.615v-1.835l-17.556-2.137,1.725-13.366c.442-3.9,2.257-5.667,7.148-6.272l14.242-1.917v-1.041l-15.173-1.972c-4.366-.715-5.754-2.548-6.272-6.546L156.2,343.83a95.212,95.212,0,0,1,25.033-3.177c56.453,0,89.995,42.674,98.187,73.894a90.571,90.571,0,0,0-47.135-13.612c-42.575,0-64.181,27.113-101.3,34.11Zm50.227,109.747c-43.162,0-84.114-26.924-98.3-74.4a93.8,93.8,0,0,0,47.738,13.667c45.081,0,66.917-28.667,100.67-34.663l-3.563,27.926c-1.248,7.208-3.228,10.336-11.891,11.775l-27.694,3.525v1.9l25.99,3.292c8.621.929,12.634,3.783,13.557,12.279l2.9,21.884c-8.519,5.1-26.671,12.818-49.414,12.818Zm52.822-14.6,2.169-17.469c1.429-9.859,3.011-13.422,12.588-14.641l19.861-2.563c-10.055,16.257-21.249,26.042-34.618,34.672Zm36.641-38.152-20.063-2.634c-10.328-1.208-12.9-3.746-14.215-13.789l-3.408-26.493a98.905,98.905,0,0,1,14.68-1.162c11.663,0,27.552,3.748,34.937,7.011-1.724,12.356-4.028,22.388-11.93,37.068Z"></path><path fill="#0b5ed8" transform="translate(-403.952 -777.878)" d="M547.323,1055.645h.836l1.492-11.268c.706-4.6,2.473-4.95,5.716-5.542l11-1.394v-.852l-11.835-1.522c-3.131-.486-4.339-2.131-4.825-4.859l-1.5-11.785h-.891l-1.543,12c-.623,2.9-1.755,4.059-4.892,4.58l-11.775,1.588v.852l11.33,1.451c3.74.479,5.114,2.213,5.5,5.766Z"></path></g></g></svg>