<svg viewBox="0 0 1840 340" height="340" width="1840" xmlns:xlink="http://www.w3.org/1999/xlink" xmlns="http://www.w3.org/2000/svg"><defs><clipPath id="b"><rect height="340" width="1840"></rect></clipPath></defs><g clip-path="url(#b)" id="a"><rect fill="none" height="340" width="1840"></rect><g transform="translate(60 20)"><path fill="#e669a2" transform="translate(-424.774 -140.785)" d="M780.034,269.6H636.264V232.8h143.77Z"></path><path fill="#f3be26" transform="translate(-424.774 -56.272)" d="M761.36,185.088h-125.1V93.051h125.1Z"></path><path fill="#ee9c34" transform="translate(-424.774)" d="M709.677,128.816H636.264V0h73.413Z"></path><path fill="#f3bc87" transform="translate(-424.774 -21.991)" d="M724.12,150.808H636.264V36.365H724.12Z"></path><path fill="#e3721c" transform="translate(-424.743 -22.025)" d="M636.213,36.42V150.829h73.426V36.42Z"></path><path fill="#ad1b02" transform="translate(-312.143 -197.087)" d="M450.016,325.9h73.616v18.4H450.016Z"></path><path fill="#e88d14" transform="translate(-424.743 -56.241)" d="M636.213,93v92.045h87.919V93Z"></path><path fill="#d85604" transform="translate(-424.743 -56.241)" d="M636.213,93v92.045h73.426V93Z"></path><path fill="#c14303" transform="translate(-424.774 -112.567)" d="M682.173,241.384H636.264V186.142h45.909Z"></path><path fill="#db4e18" transform="translate(-424.743 -140.825)" d="M636.213,232.869V269.63H761.372V232.869Z"></path><path fill="#d1390d" transform="translate(-424.743 -140.825)" d="M636.213,232.869V269.63h87.919V232.869Z"></path><path fill="#c22303" transform="translate(-424.743 -140.825)" d="M636.213,232.869V269.63h73.426V232.869Z"></path><path fill="#ad1b02" transform="translate(-424.743 -140.825)" d="M636.213,232.869V269.63h45.975V232.869Z"></path><path transform="translate(-40 -290.348)" d="M267.5,488.471c-12.525,2.227-19.206,11.691-19.206,28.113,0,16.7,8.907,27.835,21.99,27.835,6.4,0,11.969-2.227,23.659-8.072v13.64c-14.2,6.68-22.546,8.35-33.68,8.35-12.526,0-21.434-3.062-28.392-10.577A38.011,38.011,0,0,1,220.733,520.2c0-23.66,17.814-40.082,43.7-40.082,16.98,0,28.949,8.072,28.949,19.485,0,7.515-5.568,12.8-13.64,12.8-4.175,0-7.516-1.392-12.248-3.9M204.867,520.2c11.412-14.2,15.588-20.041,15.588-27a13.129,13.129,0,0,0-13.361-13.083,15.112,15.112,0,0,0-10.577,4.732v29.227l-18.65,25.052V482.348H160.053l-29.506,48.712V482.348H120.526l-27,6.124v6.959l14.753,1.391v60.4h18.65l28.392-46.763v46.763H176.2M37.021,547.76H41.2c15.031,0,23.381-9.186,23.381-27.557,0-15.309-6.68-23.66-19.206-23.66a45.184,45.184,0,0,0-8.35,1.113v50.1h0Zm0,32.845,12.247,2.783v6.959H1.113v-6.959l11.134-2.783V496.543H0v-6.958l29.227-8.907h7.795V490.7c13.639-8.351,18.371-9.742,25.608-9.742,16.145,0,28.392,15.031,28.392,35.908,0,23.938-16.423,40.361-41.475,40.361-2.783,0-7.515-.278-12.525-.557"></path></g></g></svg>