<svg viewBox="0 0 1840 340" height="340" width="1840" xmlns:xlink="http://www.w3.org/1999/xlink" xmlns="http://www.w3.org/2000/svg"><defs><clipPath id="b"><rect height="340" width="1840"></rect></clipPath></defs><g clip-path="url(#b)" id="a"><rect fill="none" height="340" width="1840"></rect><g transform="translate(-38.5 454.631)"><path transform="translate(0 0)" d="M143.8-434.439c-9.571,1.165-17.976,3.079-23.719,5.326-7.74,3-19.974,9.654-22.72,12.234a3.8,3.8,0,0,1-1.748,1.082c-1,0-15.23,14.065-18.143,17.893A103.8,103.8,0,0,0,60.5-362.534c-1.748,6.908-2,9.82-2,22.886,0,12.983.25,15.979,1.914,22.47A97.592,97.592,0,0,0,76.726-282.64C80.055-277.9,94.286-263.5,95.534-263.5a3.611,3.611,0,0,1,1.831,1.082c2.746,2.663,13.149,8.406,20.057,11.069,16.229,6.408,33.539,8.239,52.6,5.576l3.745-.5V-267.41l-5.992,1.165c-8.9,1.748-27.464,1-35.2-1.415C104.855-276.4,85.3-298.036,79.555-326.332c-1.248-6.408-.416-27.38,1.332-32.873,7.074-22.054,18.975-36.535,38.782-47.188,8.406-4.577,23.885-8.489,33.289-8.572,4.993,0,15.979,2.164,21.638,4.244a63.376,63.376,0,0,1,35.453,87.052c-1.664,3.5-3.162,6.159-3.329,5.992-.416-.333-1.248-2.58-12.567-30.293-6.991-17.31-8.988-20.556-13.565-22.553-5.41-2.247-8.073-2.33-13.066-.333-6.658,2.663-5.826,1.248-19.308,34.538-2.913,7.324-5.659,13.649-5.992,13.982s-1.165-.583-1.748-2.081-1.581-3.911-2.164-5.243c-2-4.744-9.571-23.3-13.066-32.207l-3.5-8.988H110.764c-6.075,0-11.069.333-11.069.749a54.643,54.643,0,0,0,3.329,8.822c.416.915,1.748,4.078,2.913,7.074s2.5,6.159,2.913,7.074,3.579,8.738,7.074,17.477c3.412,8.655,6.658,16.561,7.074,17.477s1.748,4.078,3,7.074a31.106,31.106,0,0,0,3.911,7.324c6.408,6.991,19.474,6.741,24.551-.416.915-1.332,4.494-9.487,7.989-18.143,3.5-8.738,6.741-16.561,7.157-17.477s1.5-3.5,2.33-5.659l1.5-4.078,1.581,3.662c.832,2,2.247,5.16,3.079,7.074a27.894,27.894,0,0,1,1.5,3.995,14,14,0,0,0,1.165,3.162c.666,1.5,3.329,7.906,5.909,14.314s5.493,12.567,6.491,13.565c6.325,6.824,16.645,6.824,24.3.083,4.244-3.745,11.318-15.812,15.23-26.132,2.164-5.493,4.328-19.391,4.328-27.464,0-8.406-2-20.556-4.661-27.88-9.654-27.214-33.872-48.353-61.835-54.012C165.692-434.189,148.464-435.021,143.8-434.439Z"></path><path transform="translate(-69.707 -6.481)" d="M474-342.321v53.679h19.974v-27.131l3.662-3.579,3.662-3.579,2.58,4.494c3.162,5.326,15.729,25.3,17.643,27.963,1.332,1.831,1.664,1.831,13.149,1.664l11.818-.25-15.729-23.719L515.029-336.5l14.231-13.9,14.231-13.981H531.424l-12.067.083-12.483,12.234L494.39-339.824l-.25-28.129L493.974-396H474Z"></path><path transform="translate(-104.603 -6.481)" d="M682-342.321v53.679h19.974V-396H682Z"></path><path transform="translate(-37.894 -12.392)" d="M315.272-360.462c-.915.25-2.413.749-3.329,1.082-15.979,6.741-23.635,15.9-26.631,31.542-1.248,6.325-1.248,7.573,0,14.148,3.828,20.473,19.557,33.456,40.53,33.456,22.97,0,40.613-17.477,40.613-40.2,0-11.818-4.411-22.47-12.484-30.044a42.459,42.459,0,0,0-8.822-6.242,61.835,61.835,0,0,1-5.742-2.83C337.742-360.462,318.351-361.211,315.272-360.462Zm14.564,16.978c7.407,1.415,12.733,6.824,15.4,15.4,1.581,5.326,1.581,8.655-.083,14.4-3,10.32-9.9,15.979-19.557,15.979-17.31,0-26.964-22.221-16.395-37.617,3.412-4.91,7.906-7.49,15.729-8.9A41.024,41.024,0,0,1,329.836-343.484Z"></path><path transform="translate(-111.731 -12.403)" d="M747.8-360.451c-8.9,2.081-19.557,7.074-19.557,9.155,0,1.415,6.908,11.734,8.239,12.317.583.333,2.83-.416,4.91-1.581,4.244-2.413,11.984-4.577,16.145-4.577,7.906,0,16.478,5.742,16.478,10.985v2.413l-8.489-.5q-35.7-2.372-40.613,22.637c-1.831,8.988,2.414,19.724,9.737,24.551,4.161,2.746,11.485,4.827,16.894,4.827,6.908,0,16.561-3.329,21.055-7.324,1.332-1.165,1.415-1.082,1.415,1.748v3.079h19.225l-.25-29.378-.25-29.295-2.247-4.244a29.545,29.545,0,0,0-13.9-12.65c-4.161-1.914-5.826-2.164-15.9-2.33C754.542-360.784,748.716-360.7,747.8-360.451Zm21.472,43.609h4.744v4.411c0,5.41-1.581,8.9-5.576,12.151-8.988,7.407-24.384,3.995-24.384-5.493a11.568,11.568,0,0,1,4.91-9.071c2.247-1.664,8.738-2.83,12.567-2.33C763.114-317.008,766.609-316.842,769.272-316.842Z"></path><path transform="translate(-128.359 -12.368)" d="M853.893-360.4c-5.077.915-14.314,6.159-18.642,10.486-7.99,7.989-11.651,17.144-11.651,29.295.083,16.978,7.24,29.877,19.89,35.786,16.229,7.573,35.952,5.41,47.6-5.16l3.579-3.162-6.075-6.491-5.992-6.575-1.664,1.831c-2.83,3.079-11.4,6.658-16.229,6.658-4.993,0-11.984-3-15.063-6.408-7.407-8.406-7.74-23.635-.666-32.707,6.575-8.489,21.305-9.071,30.543-1.248l2.746,2.33,6.158-6.575,6.159-6.575-2.663-2.33c-7.989-7.074-15.646-9.82-27.464-9.654C859.8-360.818,855.059-360.569,853.893-360.4Z"></path><path transform="translate(-144.043 -12.386)" d="M943.147-359.386c-13.482,4.993-21.555,14.314-24.8,28.629-1.664,7.157-1.664,11.069-.083,18.808,1.831,8.406,4.494,13.9,9.4,19.308,12.733,13.9,35.287,16.395,55.843,6.325a40.858,40.858,0,0,0,5.576-4.161c4.244-3.745,4.244-3.579-2.414-10.819l-4.494-4.827-4.161,2.83c-8.822,5.909-21.971,7.74-29.211,3.995-6.159-3.163-10.986-9.071-10.986-13.4,0-1.664.333-1.664,27.88-1.664h27.88v-5.326c0-11.984-4.744-25.05-11.485-31.708a43.6,43.6,0,0,0-8.739-6.325c-4.91-2.663-5.576-2.746-15.563-3C949.139-360.967,946.642-360.717,943.147-359.386Zm19.058,15.979c4.078,1.082,8.406,5.493,9.987,10.236l1.332,3.828H937.072l.749-2.58c1.664-5.742,6.075-9.737,12.9-11.9C954.8-345.071,956.047-344.988,962.205-343.407Z"></path><path transform="translate(-57.293 -12.52)" d="M431.375-358.337c-3.995,1.581-9.238,5.077-11.152,7.49-.832,1-1,.5-1.082-3.163v-4.328H400V-282.6h19.89l.25-23.136c.25-22.637.25-23.136,2.247-26.548a21.022,21.022,0,0,1,5.326-5.826c3.079-2.164,3.995-2.33,11.568-2.33,9.321,0,8.406.915,10.653-9.987,1.5-6.908,1.5-7.573.25-8.572C448.02-360.584,436.119-360.251,431.375-358.337Z"></path><path transform="translate(-86.316 -12.531)" d="M603.959-358.325a45.873,45.873,0,0,0-8.073,4.078l-3.662,2.5-.25-3.079-.25-3.079-9.321-.25-9.4-.25v107.441h19.141V-267.2c0-8.9.083-16.229.25-16.229.083,0,2.58.749,5.576,1.664,9.82,3,21.555,2,31.625-2.746,8.073-3.745,16.645-14.98,19.225-25.217,1.5-5.992.5-22.221-1.664-27.713-4.244-10.653-11.568-17.976-20.723-21.056C620.354-360.489,609.868-360.406,603.959-358.325Zm15.563,17.477c6.491,3.246,10.07,10.653,10.07,20.639a22.929,22.929,0,0,1-11.651,20.473c-3.911,2.164-4.827,2.33-11.485,2-5.077-.166-8.239-.749-10.569-1.914l-3.329-1.664-.25-12.567c-.166-10.819,0-13.066,1.332-16.229a22.038,22.038,0,0,1,9.238-10.736C607.038-343.012,615.278-343.1,619.522-340.848Z"></path><path transform="translate(-40.18 -47.081)" d="M298-127.785v26.215h2.5c2.247,0,2.5-.25,2.5-2.663,0-2.58,0-2.663,1.248-1,1.914,2.83,6.408,4.494,12.067,4.494,6.325,0,10.569-2.164,13.9-6.908,2-2.83,2.33-4.244,2.58-10.985.416-8.822-.5-12.567-4.161-16.645-3.412-3.995-6.741-5.41-12.567-5.41-4.078,0-5.576.416-8.572,2.5l-3.662,2.413V-154H298Zm24.884-5.826c6.575,5.576,5.992,21.472-.915,26.465-2.83,2.081-8.738,2.164-12.234.083-7.74-4.577-7.906-20.972-.416-26.881C312.647-136.606,319.555-136.357,322.884-133.61Z"></path><path transform="translate(-47.394 -49.916)" d="M341-136.6c0,.416,3.246,8.572,4.993,12.483.416.915,2.83,6.991,5.409,13.482L355.98-98.9l-1.415,3.246c-2.164,4.827-3.5,6.075-6.658,6.075-2.33,0-2.746.25-2.746,2,0,2,2.663,3.412,5.16,2.663.583-.166,2.081-.583,3.412-.832,2.33-.583,3.412-2.5,7.49-12.816.749-1.914,2-4.91,2.663-6.658.666-1.664,3.662-9.571,6.575-17.477l5.326-14.4-3,.25c-3,.25-3.079.333-5.41,6.908-1.332,3.662-2.913,7.989-3.5,9.571s-2,5.493-3.162,8.655l-2,5.826-1.5-4.577a37.859,37.859,0,0,0-2-5.326c-.25-.5-2.164-5.326-4.244-10.819l-3.745-9.987-3.079-.25C342.415-137.017,341-136.934,341-136.6Z"></path><path transform="translate(342.291 -207.431)" d="M19.118,57.51H7.747V29.161H0v-9.23H7.746V13.364C7.746,5.582,11.173,0,22.514,0c2.4,0,6.164.483,6.164.483v8.57H24.723c-4.03,0-5.6,1.226-5.6,4.615v6.263h9.408l-.838,9.23H19.119ZM45.211,19.194c-.166,0-.336.006-.5.01-10.545,0-15.369,7.932-15.369,19.191,0,14.184,6.258,19.86,15.451,19.86,5.26,0,8.716-2.214,10.816-6.345v5.6H66.421V19.936H55.6v5.779A11.085,11.085,0,0,0,45.211,19.194Zm2.75,8.88c4.429,0,7.087,3.089,7.087,8.344l.01,5.367c0,3.542-2.2,7.685-7.1,7.685-7.536,0-7.334-8.137-7.334-10.847,0-9.116,4.015-10.548,7.334-10.548ZM70.789,38.727c0-4.566-.218-19.508,19.248-19.508,7.814,0,11.077,2.485,11.077,2.485l-2.623,8.134a17.117,17.117,0,0,0-7.5-1.794c-5.439,0-8.909,3.153-8.909,8.7l.006,3.978c0,5.33,3.348,8.888,8.914,8.888A18.641,18.641,0,0,0,98.432,47.8l2.616,7.964s-2.984,2.5-10.956,2.5c-18.535,0-19.3-13.406-19.3-19.536ZM164.534,19.2c10.545,0,15.445,7.932,15.445,19.191,0,14.184-6.258,19.86-15.452,19.86-5.26,0-9.148-2.214-11.249-6.345v5.6l-10.68,0V1.143L153.938.154V25.206c1.637-4.383,7.015-6,10.6-6Zm-3.179,8.869c-4.429,0-7.417,3.089-7.417,8.344l-.011,5.367c-.007,3.542,2.069,7.685,7.427,7.685,7.536,0,7.334-8.137,7.334-10.847C168.689,29.506,164.675,28.074,161.355,28.074ZM120.79,19.236c-11.96,0-18.274,6.521-18.274,18.109V39.5c0,15.04,8.867,18.913,19.438,18.913,10.275,0,14.926-2.874,14.926-2.874l-2.122-7.653a33.086,33.086,0,0,1-11.444,2.328c-6.193,0-8.856-1.578-9.539-7.53h24.012v-6.14c0-12.57-7.086-17.306-17-17.306Zm.288,7.664c4.14,0,6.823,2.539,6.675,8.426H113.8c.242-6.2,3.135-8.426,7.283-8.426Zm81.512-7.715c-12.282,0-18.748,6.921-18.748,19.325,0,17.018,11.146,19.757,18.768,19.757,11.159,0,18.583-6.008,18.583-19.6,0-14.15-8.348-19.479-18.6-19.479Zm-.155,8.921c5.4,0,7.541,4.042,7.541,8.643V40.7c0,5.573-2.994,8.8-7.561,8.8-4.271,0-7.273-3.015-7.273-8.8V36.747c0-6.166,3.572-8.643,7.293-8.643Zm41.348-8.921c-12.282,0-18.748,6.921-18.748,19.325,0,17.018,11.146,19.757,18.768,19.757,11.159,0,18.583-6.008,18.583-19.6,0-14.15-8.348-19.479-18.6-19.479Zm-.155,8.921c5.4,0,7.54,4.042,7.54,8.643V40.7c0,5.573-2.994,8.8-7.561,8.8-4.271,0-7.273-3.015-7.273-8.8V36.747c0-6.166,3.572-8.643,7.293-8.643ZM266.672,57.51V1.143L278.045.154V37.935l11.283-18h12.01l-11.77,18.646L301.791,57.51H289.747l-11.7-18.383V57.51Z"></path></g></g></svg>